<svg width="111" height="99" fill="none" xmlns="http://www.w3.org/2000/svg"><path d="M94.315 83.278l-21.83-12.54c-2.463-1.414-4.46-5.21-4.46-8.476V4.42c0-1.66-1.372-2.028-.54-2.625.031-.023 1.948-.89 1.984-.903.895-.341 1.853-.493 3.015.175l21.831 12.54c2.463 1.414 4.459 5.209 4.459 8.475v57.843c0 1.736-.564 2.973-1.462 3.54-.053.033-2.363 1.126-2.422 1.146-.795.264.502-.714-.575-1.332z" fill="url(#paint0_linear)"/><path d="M94.114 13.672l-21.83-12.54c-1.163-.668 20.623 12.94 20.623 12.94 2.463 1.415 4.459 5.21 4.459 8.476 0 0 1.207 59.179 1.207 57.443V22.148c0-3.266-1.996-7.061-4.459-8.476z" fill="url(#paint1_radial)"/><path opacity=".6" d="M92.62 84.05L70.79 71.51c-2.463-1.415-4.459-5.21-4.459-8.476V5.19c0-3.267 1.996-4.768 4.459-3.354l21.83 12.54c2.463 1.414 4.46 5.21 4.46 8.476v57.843c0 3.267-1.997 4.768-4.46 3.353z" fill="url(#paint2_radial)"/><path d="M92.231 84.258l-21.83-12.54c-2.463-1.414-4.46-5.209-4.46-8.476V5.4c0-3.267 1.997-4.769 4.46-3.354l21.83 12.54c2.463 1.414 4.459 5.21 4.459 8.476v57.842c0 3.267-1.996 4.769-4.459 3.354z" fill="url(#paint3_linear)"/><path d="M66.55 63.627V5.713c0-2.863 1.75-4.18 3.908-2.94l21.715 12.474c2.159 1.24 3.909 4.566 3.909 7.43V80.59c0 2.863-1.75 4.18-3.909 2.94L70.458 71.057c-2.158-1.24-3.908-4.566-3.908-7.43z" fill="url(#paint4_linear)"/><path d="M67.419 63.98V6.357c0-2.397 1.465-3.498 3.272-2.46l21.251 12.207c1.807 1.038 3.272 3.822 3.272 6.22v57.62c0 2.397-1.465 3.499-3.272 2.46L70.691 70.198c-1.808-1.037-3.272-3.822-3.272-6.219z" fill="url(#paint5_linear)"/><path d="M70.936 4.535c-1.703-.978-3.084-.195-3.084 1.75v58.268c0 1.944 1.381 4.313 3.084 5.291l20.76 11.925c1.703.979 3.083.195 3.083-1.749V21.752c0-1.945-1.38-4.314-3.084-5.292L70.936 4.535z" fill="url(#paint6_linear)"/><path d="M97.276 36.445v-3.904c0-.5.306-1.08.682-1.296.376-.216.681.013.681.513v3.904c0 .5-.305 1.08-.681 1.296-.376.216-.682-.013-.682-.513z" fill="url(#paint7_linear)"/><path d="M97.686 36.893c-.194 0-.263-.241-.263-.448v-3.904c0-.445.278-.98.608-1.169a.413.413 0 01.196-.062c.195 0 .264.242.264.448v3.905c0 .444-.278.979-.608 1.168a.41.41 0 01-.197.062z" fill="url(#paint8_linear)"/><path d="M97.624 36.546V32.64c0-.444.278-.98.608-1.169a.426.426 0 01.174-.058c-.041-.062-.099-.104-.179-.104a.412.412 0 00-.196.062c-.33.19-.608.724-.608 1.169v3.904c0 .207.069.448.264.448.006 0 .015-.003.022-.004a.643.643 0 01-.085-.343z" fill="url(#paint9_radial)"/><path d="M91.695 16.46L70.935 4.535c-1.703-.978-3.083-.195-3.083 1.75v58.268c0 1.944 1.38 4.313 3.083 5.291l20.76 11.925c1.703.978 3.084.195 3.084-1.75V21.752c0-1.944-1.381-4.313-3.084-5.291zm2.815 63.56c0 .603-.142 1.1-.413 1.434-.247.307-.6.47-1.018.47-.379 0-.811-.134-1.25-.386l-20.76-11.925c-1.626-.934-2.95-3.204-2.95-5.06V6.284c0-1.174.55-1.904 1.432-1.904.38 0 .811.134 1.25.386l20.76 11.925c1.626.934 2.95 3.204 2.95 5.06V80.02z" fill="#BCBEC0"/><g opacity=".8"><path opacity=".8" d="M86.145 76.494l-7.454-9.983-4.621-9.718-1.605-7.725-4.613-6.03v11.286l1.93 1.798 2.946 5.687-.373 2.254 1.193 1.792.894-.508 6.741 10.384 5.84 3.354-.878-2.59z" fill="url(#paint10_linear)"/><path opacity=".8" d="M91.33 28.068l3.448 1.981v-.745l-3.448-1.98V16.251l-.648-.373v11.074l-2.142-1.23-2.008-5.187-18.68-10.73v.745l4.083 2.345v9.735l-4.083-2.345v.744l4.083 2.346v6.635l-4.083-2.352v.745l4.73 2.725v-7.38L86.57 31.78v14.73l-1.74-1-6.019 1.808-10.96-6.295v.744l7.378 4.238v9.684l-7.377 3.267v.705l7.63-3.379 6.751 11.471-6.379 4.916.607.348 10.803-8.327 3.418 1.947v14.166h.648V67.007l3.395 1.935.053-.092v-.621l-3.447-1.964V56.76l3.447 1.98v-.745l-3.447-1.98V49.99l3.447 1.98v-.744l-3.447-1.98v-14.73l3.447 1.981v-.744l-3.447-1.981v-5.703h-.001zm-15.453 18.31l2.732 1.57.121.069 6.02-1.808 1.82 1.046v6.028l-2.573-1.477-8.12 3.597v-9.025zm14.805 19.518l-3.471-1.978-4.462 3.438-6.672-11.336 7.881-3.491 2.612 1.499v.02h.035l4.077 2.34v9.508zm0-10.252l-3.464-1.989v-6.028l3.464 1.99v6.027zm0-6.772l-3.464-1.99V32.153l3.464 1.99v14.73zm0-15.473l-18.1-10.397v-9.735L86.01 20.98l2.008 5.185 2.665 1.531v5.703z" fill="#6B24D6"/><path d="M93.098 81.793l1.164-.568-9.718-19.716V51.483l-3.478-6.466V10.355l-1.297-.745v35.732l3.48 6.466v10l9.85 19.985z" fill="#F49587"/></g><path d="M79.171 35.4v2.46a1.86 1.86 0 01-1.18 1.729 5.712 5.712 0 01-5.11-.46l-6.81-4.46c-1.303-.81-1.337-2.648-.152-3.525V24.16l-2.265 1.348c-4.669 2.779-4.628 9.522.073 12.246l6.714 3.881a8.795 8.795 0 009.228-.256 2.86 2.86 0 001.29-2.24l.014-2.72L79.17 35.4z" fill="url(#paint11_linear)"/><path d="M78.986 35.087v2.773a1.67 1.67 0 01-1.064 1.56 5.545 5.545 0 01-4.945-.445l-6.81-4.46a1.937 1.937 0 01-.924-1.709 1.93 1.93 0 01.675-1.423v-.456a2.292 2.292 0 00-1.041 1.87 2.3 2.3 0 001.096 2.027l6.81 4.46a5.92 5.92 0 005.275.475 2.032 2.032 0 001.295-1.9v-2.145l1.435.81-.013 2.605a2.689 2.689 0 01-1.208 2.098 8.563 8.563 0 01-9.036.25l-6.712-3.881c-2.152-1.247-3.445-3.47-3.46-5.946a6.858 6.858 0 013.388-5.986l2.17-1.291v-.426l-2.358 1.404a7.218 7.218 0 00-3.567 6.301c.016 2.607 1.377 4.947 3.643 6.26l6.712 3.88a8.97 8.97 0 004.503 1.218c1.712 0 3.42-.495 4.92-1.479a3.059 3.059 0 001.372-2.391l.014-2.827-2.17-1.226z" fill="#BB8CFF"/><path d="M76.002 41.225l-.03-.363a7.38 7.38 0 001.405-.257l.1.351a7.713 7.713 0 01-1.475.27zm-1.501-.02a7.733 7.733 0 01-1.469-.307l.11-.348c.454.142.925.24 1.4.293l-.041.363zm4.372-.8l-.169-.324c.188-.096.374-.203.552-.316.208-.13.388-.307.522-.51l.306.2c-.162.246-.38.46-.631.618-.187.119-.382.23-.58.333zm-7.22-.095l-1.286-.705.177-.32 1.284.705-.175.32zm-2.571-1.41l-1.286-.704.177-.32 1.285.705-.176.32zm-2.907-1.604l-.447-.245a6.18 6.18 0 01-.82-.547l.229-.286c.24.19.498.363.77.514l.444.244-.177.32zm-2.318-1.872a5.584 5.584 0 01-.73-1.318l.343-.13c.17.437.4.852.682 1.23l-.295.218zm-1.079-2.782a5.74 5.74 0 01.052-1.502l.362.06a5.337 5.337 0 00-.048 1.407l-.366.035zm.835-2.784l-.332-.155c.214-.453.49-.878.82-1.263l.28.237a5.29 5.29 0 00-.768 1.181z" fill="url(#paint12_radial)"/><path d="M102.053 50.397l-3.17-2.573v8.641c5.153 4.383 5.847 12.073 1.532 17.299-7.378 8.933-20.183 11.215-30.218 5.385L32.954 57.51 13.239 69.134l41.022 23.484c17.203 9.848 39.098 5.246 50.828-10.684l.864-1.173c7.026-9.542 5.312-22.887-3.9-30.364z" fill="url(#paint13_linear)"/><path d="M102.258 50.147l-3.28-2.662-.041.05v.749l2.911 2.363c9.082 7.372 10.77 20.516 3.843 29.923l-.864 1.174C93.178 97.565 71.508 102.12 54.423 92.34l-40.54-23.21 19.072-11.245 37.079 21.542c10.228 5.944 23.11 3.648 30.63-5.459 4.442-5.378 3.686-13.384-1.684-17.847l-.043.052v.768c4.757 4.291 5.338 11.64 1.227 16.618-7.317 8.86-19.851 11.094-29.804 5.312L33.117 57.233l-.165-.096-20.355 12.001 41.502 23.76a39.322 39.322 0 0019.578 5.22c12.14 0 24.028-5.61 31.673-15.993l.864-1.173c7.131-9.685 5.393-23.216-3.956-30.805z" fill="#BB8CFF"/><path d="M30.585 68.357l-1.123-.643.323-.56 1.124.644-.324.559z" fill="url(#paint14_radial)"/><path d="M78.64 90.298l-.025-.644a31.52 31.52 0 002.509-.195l.076.64c-.849.1-1.71.167-2.56.199zm-2.569-.009a32.146 32.146 0 01-2.558-.215l.08-.64a30.92 30.92 0 002.507.211l-.029.644zm7.665-.593l-.128-.632a31.85 31.85 0 002.444-.592l.178.62c-.819.233-1.658.436-2.494.604zm-12.755-.042a32.173 32.173 0 01-2.49-.62l.182-.619c.8.234 1.621.439 2.44.608l-.132.631zm17.687-1.363l-.228-.603a31.583 31.583 0 002.318-.972l.276.584c-.77.36-1.567.693-2.366.991zm-22.61-.075a31.996 31.996 0 01-2.358-1.008l.28-.582a31.5 31.5 0 002.31.988l-.232.602zm27.255-2.091l-.32-.56a31.513 31.513 0 002.132-1.325l.366.532a32.42 32.42 0 01-2.178 1.353zm-31.882-.11l-2.203-1.261.323-.559 2.203 1.261-.323.56zm-4.407-2.523l-2.203-1.26.324-.56 2.203 1.261-.324.56zm40.528-.24l-.407-.503c.65-.52 1.287-1.074 1.894-1.646l.445.469c-.62.583-1.27 1.148-1.932 1.68zM52.618 80.97l-2.203-1.261.323-.56 2.203 1.262-.323.559zm48.657-1.227l-.482-.431a30.658 30.658 0 001.602-1.927l.516.39a32.052 32.052 0 01-1.636 1.968zm-53.064-1.296l-2.203-1.26.324-.56 2.203 1.261-.323.56zm-4.406-2.522l-2.203-1.261.323-.56 2.203 1.262-.323.559zm60.565-.21l-.526-.353c.455-.672.861-1.381 1.209-2.108l.573.27a16.926 16.926 0 01-1.256 2.19zm-64.971-2.313l-2.203-1.261.323-.559 2.203 1.261-.323.56zm67.046-2.23l-.595-.179c.228-.755.401-1.535.513-2.32l.615.088a16.488 16.488 0 01-.533 2.41zm-71.453-.293l-2.203-1.26.323-.56 2.204 1.261-.324.56zm71.529-4.575a15.92 15.92 0 00-.199-2.368l.613-.097c.13.811.2 1.639.207 2.46l-.621.005zm-.75-4.679a15.933 15.933 0 00-.892-2.202l.557-.274c.365.737.677 1.507.927 2.29l-.592.186zm-2.107-4.247a15.932 15.932 0 00-1.325-1.644l-.183-.16.413-.462.205.182c.518.56.982 1.135 1.4 1.73l-.51.354z" fill="url(#paint15_radial)"/><path d="M101.12 54.5l-.827-.735-.033-.792 1.229 1.115-.369.411z" fill="url(#paint16_radial)"/><path d="M61.05 69.379l.11 1.683a.337.337 0 00.512.264l1.07-.654a.334.334 0 00.159-.328l-.218-1.676a.337.337 0 00-.522-.235l-.963.647a.335.335 0 00-.148.299z" fill="url(#paint17_radial)"/><path d="M61.344 71.297l-.11-1.683a.335.335 0 01.148-.3l.963-.646a.334.334 0 01.332-.025.336.336 0 00-.516-.21l-.963.647a.335.335 0 00-.148.3l.11 1.682a.33.33 0 00.193.28c-.003-.015-.008-.029-.01-.045z" fill="url(#paint18_radial)"/><path opacity=".2" d="M14.838 68.882L46.018 86.8a13.34 13.34 0 0013.22-.031l5.608-3.22a.847.847 0 000-1.47L27.645 60.481a.858.858 0 00-.857 0l-11.956 6.93a.847.847 0 00.007 1.471z" fill="#000"/><path d="M44.614 82.502l4.4-2.543-4.604-.833.204 3.376zm-24.87-13.96l4.4-2.544-4.604-.833.204 3.377z" fill="#58595B"/><path d="M26.765 70.537c0 .817-.283 1.396-.744 1.676l-1.47.846c-.479.267-.172-.338-.9-.757-1.465-.84-2.653-2.879-2.653-4.551 0-.827-.768-.834-.297-1.11.012-.008 1.546-.852 1.56-.86.477-.257 1.13-.21 1.851.204 1.465.842 2.653 2.88 2.653 4.552z" fill="url(#paint19_linear)"/><path d="M25.228 71.405c0 1.672-1.188 2.346-2.653 1.504-1.465-.841-2.652-2.879-2.652-4.552 0-1.672 1.187-2.345 2.652-1.504 1.465.842 2.653 2.88 2.653 4.552z" fill="url(#paint20_linear)"/><path d="M22.703 66.79c-.703-.404-1.34-.458-1.815-.222.442-.123.99-.031 1.585.31 1.465.842 2.653 2.88 2.653 4.552 0 .87-.323 1.47-.838 1.726.648-.18 1.067-.82 1.067-1.814 0-1.673-1.188-3.71-2.652-4.552z" fill="url(#paint21_radial)"/><path d="M22.664 67.593c-1.129-.648-2.043-.13-2.043 1.159 0 1.288.915 2.857 2.043 3.505 1.128.648 2.042.13 2.042-1.159 0-1.288-.914-2.857-2.042-3.505zm.78 2.568l.633-.054c.095-.008.218.118.247.255.04.187.06.373.06.551 0 .18-.02.34-.06.482-.029.105-.151.09-.247-.027l-.633-.782a.36.36 0 01-.086-.224v-.076c-.003-.074.031-.12.086-.125zm.404-.638l-.633.054c-.055.004-.123-.034-.175-.103a1.513 1.513 0 00-.057-.07.371.371 0 01-.09-.227v-.833c0-.126.105-.158.212-.064.3.263.568.598.78.964.077.133.058.271-.037.28zm-1.413-1.442v.833c0 .073-.034.122-.09.123a.412.412 0 00-.057.005c-.053.008-.121-.031-.175-.098l-.634-.782c-.095-.117-.114-.277-.037-.321.213-.122.48-.15.78-.068.108.03.213.181.213.308zm-1.185.402l.634.781a.359.359 0 01.084.262l.001.038c.003.074-.031.12-.085.126l-.634.054c-.095.008-.218-.118-.247-.256a2.7 2.7 0 01-.06-.551c0-.179.02-.34.06-.482.03-.104.152-.09.247.028zm.23 1.844l.633-.054c.054-.004.122.034.175.103.018.024.036.047.056.07.056.066.09.154.09.227v.833c0 .126-.105.158-.212.064a3.879 3.879 0 01-.78-.963c-.077-.134-.058-.272.037-.28zm1.412 1.442v-.834c0-.072.035-.121.09-.122.02 0 .04-.002.057-.005.053-.008.121.031.175.098l.634.781c.095.118.114.278.037.322-.213.122-.48.15-.78.068-.108-.03-.213-.182-.213-.308z" fill="url(#paint22_linear)"/><path d="M22.536 67.643c-1.129-.648-2.043-.129-2.043 1.159s.915 2.857 2.043 3.505c1.128.648 2.042.13 2.042-1.158 0-1.288-.914-2.858-2.042-3.506zm.78 2.568l.633-.054c.095-.008.218.118.247.255.04.188.06.373.06.552 0 .179-.02.34-.06.482-.029.104-.151.089-.247-.028l-.633-.782a.359.359 0 01-.085-.261.83.83 0 00-.001-.039c-.003-.073.031-.12.086-.125zm.404-.638l-.633.054c-.055.005-.123-.034-.175-.103a1.452 1.452 0 00-.057-.07.37.37 0 01-.09-.226v-.833c0-.127.105-.158.212-.064.3.263.568.597.78.963.077.133.058.271-.037.28zm-1.413-1.442v.834c0 .072-.034.121-.09.122a.41.41 0 00-.057.005c-.053.008-.121-.03-.175-.098l-.633-.781c-.096-.118-.115-.278-.038-.322.213-.123.48-.15.78-.068.108.03.213.182.213.308zm-1.185.402l.634.782a.36.36 0 01.084.261l.001.039c.003.073-.031.12-.085.125l-.634.054c-.095.008-.218-.118-.247-.255a2.7 2.7 0 01-.06-.552c0-.179.021-.34.06-.482.03-.104.152-.09.247.028zm.23 1.844l.633-.053c.054-.005.122.033.175.103l.056.07c.057.065.09.153.09.226v.833c0 .127-.104.158-.212.064a3.877 3.877 0 01-.78-.963c-.077-.134-.058-.272.038-.28zm1.413 1.442v-.833c0-.073.034-.121.09-.122.02 0 .038-.002.056-.005.053-.008.121.03.175.098l.634.781c.095.118.114.278.037.322-.213.122-.48.15-.78.067-.108-.03-.212-.181-.212-.308z" fill="url(#paint23_linear)"/><path d="M51.926 84.891c0 .817-.283 1.396-.743 1.676l-1.47.846c-.479.267-.172-.338-.9-.756-1.465-.842-2.653-2.88-2.653-4.552 0-.827-.768-.834-.297-1.11l1.56-.86c.478-.257 1.13-.21 1.851.204 1.465.842 2.652 2.88 2.652 4.552z" fill="url(#paint24_linear)"/><path d="M50.392 85.759c0 1.672-1.188 2.346-2.653 1.504-1.465-.841-2.652-2.88-2.652-4.552 0-1.672 1.187-2.346 2.652-1.504 1.465.842 2.653 2.88 2.653 4.552z" fill="url(#paint25_linear)"/><path d="M47.867 81.144c-.703-.403-1.34-.458-1.815-.222.442-.123.99-.031 1.586.31 1.464.842 2.652 2.88 2.652 4.552 0 .871-.322 1.47-.838 1.727.648-.18 1.067-.821 1.067-1.815 0-1.673-1.188-3.71-2.652-4.552z" fill="url(#paint26_radial)"/><path d="M47.828 81.947c-1.129-.648-2.043-.13-2.043 1.159 0 1.288.915 2.857 2.043 3.505 1.128.648 2.042.13 2.042-1.159 0-1.288-.914-2.857-2.042-3.505zm.78 2.568l.633-.054c.095-.008.218.118.247.255.04.188.06.373.06.552 0 .178-.02.34-.06.481-.029.105-.151.09-.247-.028l-.633-.781a.359.359 0 01-.086-.224v-.076c-.003-.073.031-.12.086-.125zm.404-.638l-.633.054c-.055.004-.123-.034-.176-.103a1.531 1.531 0 00-.056-.07.372.372 0 01-.09-.227v-.833c0-.126.104-.158.212-.064.3.263.568.598.78.964.077.133.058.271-.037.28zm-1.413-1.442v.834c0 .072-.034.121-.09.122a.395.395 0 00-.057.005c-.053.008-.121-.031-.175-.098l-.633-.782c-.096-.117-.115-.277-.038-.321.213-.122.48-.15.78-.068.108.03.213.181.213.308zm-1.185.402l.633.781a.36.36 0 01.085.262l.001.038c.003.074-.031.121-.086.126l-.633.054c-.095.008-.218-.118-.247-.256a2.698 2.698 0 01-.06-.551c0-.179.021-.34.06-.482.03-.104.152-.09.247.028zm.23 1.844l.633-.053c.054-.005.122.033.175.103l.056.07a.37.37 0 01.09.226v.833c0 .127-.105.158-.212.064a3.879 3.879 0 01-.78-.963c-.077-.134-.058-.272.037-.28zm1.413 1.442v-.833c0-.073.033-.122.09-.123.02 0 .038-.002.056-.005.053-.008.121.031.175.098l.634.782c.095.117.114.277.037.322-.213.122-.48.149-.78.067-.108-.03-.212-.182-.212-.308z" fill="url(#paint27_linear)"/><path d="M47.7 81.998c-1.128-.648-2.043-.13-2.043 1.158 0 1.288.915 2.857 2.043 3.505 1.128.648 2.042.13 2.042-1.158 0-1.288-.914-2.858-2.042-3.505zm.78 2.567l.634-.054c.094-.008.217.118.246.256.04.187.06.372.06.55 0 .18-.02.34-.06.483-.029.104-.151.09-.246-.028l-.634-.782a.36.36 0 01-.085-.261.83.83 0 00-.001-.038c-.003-.074.031-.121.086-.126zm.404-.638l-.633.054c-.055.005-.123-.034-.175-.103a1.585 1.585 0 00-.057-.07.372.372 0 01-.09-.226v-.834c0-.126.105-.158.212-.064.3.263.568.598.78.964.077.133.058.271-.037.28zm-1.413-1.442v.834c0 .072-.034.121-.09.122a.41.41 0 00-.057.005c-.053.008-.12-.031-.175-.098l-.633-.782c-.095-.117-.114-.277-.037-.321.212-.122.48-.15.78-.068.107.03.212.182.212.308zm-1.185.402l.634.782a.36.36 0 01.086.224v.076c.003.073-.032.12-.086.125l-.634.054c-.095.008-.218-.118-.246-.255a2.7 2.7 0 01-.06-.552c0-.178.02-.34.06-.481.028-.105.15-.09.246.027zm.23 1.844l.633-.053c.054-.005.122.034.175.103l.056.07a.37.37 0 01.09.226v.833c0 .127-.105.159-.212.065a3.874 3.874 0 01-.78-.964c-.077-.133-.058-.271.037-.28zm1.413 1.442v-.833c0-.072.034-.121.09-.122.02 0 .038-.002.056-.005.053-.009.121.03.175.098l.634.781c.095.118.114.277.037.322-.212.122-.48.15-.78.068-.107-.03-.212-.182-.212-.309z" fill="url(#paint28_linear)"/><path d="M64.956 76.43L54.73 60.7a1.712 1.712 0 00-.583-.55L26.885 44.533a1.725 1.725 0 00-1.681-.018l-7.689 4.188a1.71 1.71 0 00-.773.874l-2.349 4.975a1.696 1.696 0 00-.118.592l-.177 9.173c-.012.627.322 1.21.87 1.519l4.81 2.712a4.56 4.56 0 01-.069-.766c0-1.892 1.344-2.655 3.002-1.703 1.658.953 3.002 3.259 3.002 5.151 0 .227-.02.438-.057.631l18.959 10.64a4.284 4.284 0 01-.019-.382c0-1.892 1.344-2.655 3.002-1.703 1.658.953 3.002 3.259 3.002 5.151 0 .104-.005.205-.013.302l1.124.633c.494.28 1.096.296 1.606.046l10.96-5.388c.586-.287.957-.881.957-1.53v-2.27a1.7 1.7 0 00-.278-.93z" fill="url(#paint29_radial)"/><path d="M52.554 81.856l-1.498-4.56-6.184-11.665a2.649 2.649 0 00-1.071-1.138L16.99 49.147c-.103.13-.188.273-.25.43l-2.348 4.975a1.698 1.698 0 00-.118.592l-.177 9.173c-.012.627.322 1.21.87 1.519l4.81 2.712a4.56 4.56 0 01-.069-.766c0-1.893 1.344-2.655 3.002-1.703 1.658.953 3.002 3.259 3.002 5.151 0 .227-.02.438-.057.631l18.959 10.64a4.28 4.28 0 01-.018-.382c0-1.893 1.343-2.655 3.001-1.703 1.658.953 3.002 3.259 3.002 5.151 0 .104-.005.204-.013.301l1.124.634c.352.199.758.262 1.146.193v-3.567a2.849 2.849 0 00-.303-1.272z" fill="#E6E7E8"/><path d="M52.897 81.818l-1.497-4.56-6.185-11.665a2.648 2.648 0 00-1.071-1.138l-26.81-15.346c-.091.115.058.191-.001.328L43.875 64.63c.464.264.837.66 1.071 1.138l6.185 11.665 1.497 4.56c.199.396.302.832.302 1.273v3.355c.164.018.105.066.269.037V83.09c0-.442-.104-.878-.302-1.273z" fill="url(#paint30_radial)"/><path d="M48.984 70.035l2.613-.942a18.61 18.61 0 004.766-2.553l.691-.513a.666.666 0 01.95.165l3.599 5.39a.658.658 0 01-.184.914l-1.835 1.224a20.838 20.838 0 01-4.564 2.291l-2.875 1.025a.665.665 0 01-.825-.341l-2.712-5.759a.66.66 0 01.376-.9z" fill="#10054D"/><path d="M49.355 70.174l2.49-.898a17.743 17.743 0 004.542-2.433l.658-.488a.634.634 0 01.905.156l3.429 5.137a.627.627 0 01-.175.87l-1.748 1.166a19.856 19.856 0 01-4.349 2.184l-2.74.976a.633.633 0 01-.785-.325l-2.584-5.487a.629.629 0 01.358-.858z" fill="url(#paint31_linear)"/><path d="M43.239 68.548l.152 5.06a.365.365 0 00.185.307l6.111 3.481v-.858l-3.12-6.812-2.783-1.511a.368.368 0 00-.545.333z" fill="#10054D"/><path d="M43.563 68.413l.155 5.128 4.44 2.557-.12-2.537-1.567-3.57-2.907-1.578z" fill="url(#paint32_linear)"/><path d="M50.309 83.757l2.235 1.191c.817.39 1.76.422 2.601.087l1.7-.678c2.65-1.055 5.103-2.695 7.413-4.184l1.076-.858.343.024-.05 2.27-.342.337a31.597 31.597 0 01-10.145 5.36 3.247 3.247 0 01-2.523-.247L50.46 85.8l-.152-2.043z" fill="url(#paint33_linear)"/><path d="M52.38 82.703a2.034 2.034 0 001.921.104.953.953 0 011.318.587l.301 1.01-1.562.615a2.036 2.036 0 01-1.612-.054l-.436-.205.07-2.057z" fill="url(#paint34_linear)"/><path d="M52.379 82.703a2.034 2.034 0 001.92.104.953.953 0 011.319.587l.3 1.01-1.806-.084c-1.769-.366-1.733-1.617-1.733-1.617z" fill="url(#paint35_linear)"/><path d="M64.185 78.642l-.138 1.475s1.268-.783 1.344-1.086c.076-.302-.05-2.16-.05-2.16l-.366.442a1.81 1.81 0 00-.79 1.33z" fill="url(#paint36_linear)"/><path d="M64.185 78.642l-.138 1.475s.812-1.37.888-1.672c.076-.303.406-1.573.406-1.573l-.366.44a1.81 1.81 0 00-.79 1.33z" fill="url(#paint37_linear)"/><path d="M61.602 71.583l-.361-.541a.736.736 0 01-.321.515l-2.063 1.376a23.422 23.422 0 01-5.133 2.576l-2.536.904.132.282a.665.665 0 00.825.342l2.874-1.025a20.838 20.838 0 004.564-2.291l1.835-1.224a.658.658 0 00.184-.914z" fill="#10054D"/><path d="M48.958 76.885c.425.259-2.177 1.407-3.197 1.616-1.02.21-.158.464-.19.296-.145-.795 1.957-2.782 3.387-1.912z" fill="url(#paint38_linear)"/><path d="M45.901 75.482l.17 2.008a.452.452 0 00.631.374l2.193-.658a.45.45 0 00.267-.477l-.723-1.879a.452.452 0 00-.587-.363l-1.64.53a.45.45 0 00-.311.465z" fill="url(#paint39_radial)"/><path d="M46.496 77.732l-.17-2.007a.45.45 0 01.31-.465l1.641-.53a.443.443 0 01.114-.02.45.45 0 00-.539-.223l-1.64.53a.45.45 0 00-.31.465l.17 2.008a.45.45 0 00.474.408.446.446 0 01-.05-.166z" fill="url(#paint40_radial)"/><path d="M45.62 80.13L24.8 68.253c.561.945.91 2.014.91 2.978 0 .227-.019.437-.056.631l18.96 10.64a4.284 4.284 0 01-.02-.382c0-1.03.398-1.723 1.027-1.99z" fill="url(#paint41_linear)"/><path d="M19.71 67.782c0-.958.344-1.626.9-1.929l-6.47-3.702-.042 2.167c-.012.627.322 1.21.87 1.519l4.81 2.712a4.565 4.565 0 01-.069-.767z" fill="url(#paint42_linear)"/><path d="M50.366 83.984l2.236 1.191c.816.39 1.76.422 2.601.087l1.7-.678a31.654 31.654 0 007.413-4.184l1.37-1.1v2.04c0 .313-.144.61-.39.805l-.181.145c-3.204 2.101-6.172 3.85-9.917 5.243a3.247 3.247 0 01-2.523-.247l-2.156-1.258-.153-2.044z" fill="url(#paint43_linear)"/><path d="M55.337 83.44l-.541 1.139s-1.647-1.014-1.484-1.364c.164-.35 2.025.225 2.025.225z" fill="url(#paint44_linear)"/><path d="M54.62 84.248c0 .287.204.403.455.258.252-.144.456-.494.456-.78 0-.287-.204-.403-.456-.259-.251.145-.455.494-.455.781z" fill="url(#paint45_linear)"/><path d="M54.216 83.667l-.43.906s-1.31-.806-1.18-1.085c.13-.278 1.61.18 1.61.18z" fill="url(#paint46_linear)"/><path d="M53.647 84.31c0 .228.162.32.361.205a.793.793 0 00.362-.62c0-.23-.162-.32-.362-.206a.793.793 0 00-.361.621z" fill="url(#paint47_linear)"/><path d="M65.093 78.454l-.369.777s-.63-.476-.518-.716c.111-.239.887-.061.887-.061z" fill="url(#paint48_linear)"/><path d="M64.605 79.006c0 .196.139.275.31.177a.681.681 0 00.31-.534c0-.196-.138-.275-.31-.176a.681.681 0 00-.31.533z" fill="url(#paint49_linear)"/><path d="M65.244 77.812l-.27.568s-.46-.348-.378-.523c.081-.174.648-.045.648-.045z" fill="url(#paint50_linear)"/><path d="M64.888 78.215c0 .143.101.201.227.129a.496.496 0 00.226-.39c0-.143-.101-.2-.226-.128a.497.497 0 00-.227.39z" fill="url(#paint51_linear)"/><path d="M53.438 82.996c-.368 0-.735-.096-1.058-.293l-.07 2.056.436.206c.283.133.59.196.898.191l-.206-2.16z" fill="url(#paint52_radial)"/><path d="M56.132 82.442l.22.584a.85.85 0 001.172.46c.811-.398 2.065-1.035 3.112-1.654a60.47 60.47 0 002.616-1.637.843.843 0 00.375-.654l.063-1.072a.239.239 0 00-.37-.213c-.684.451-2.124 1.388-3.35 2.081-1.368.773-3.117 1.546-3.71 1.803a.237.237 0 00-.128.302z" fill="#10054D"/><path d="M63.472 78.22c.019.035.03.077.027.123l-.062 1.072a.843.843 0 01-.376.654c-.49.325-1.45.949-2.616 1.638-1.047.618-2.3 1.255-3.112 1.654a.85.85 0 01-.748.002.85.85 0 00.938.125c.812-.4 2.065-1.037 3.112-1.655a60.615 60.615 0 002.616-1.637.843.843 0 00.376-.655l.062-1.072a.237.237 0 00-.217-.25z" fill="url(#paint53_radial)"/><path d="M61.35 73.608l-.019-.028c-.082-.123-.25-.13-.36-.031a.524.524 0 01-.055.042l-1.312.875a14.904 14.904 0 01-3.263 1.638l-1.426.509a.18.18 0 00-.103.246c.093.196.32.29.524.217l1.828-.652a13.255 13.255 0 002.903-1.457l1.166-.778a.418.418 0 00.117-.58z" fill="#10054D"/><path d="M13.924 62.342l1.229.64v3.082a2.141 2.141 0 01-1.274-2.012l.045-1.71z" fill="url(#paint54_linear)"/><path d="M44.38 80.344L25.872 69.78l.114-.197 18.507 10.564-.114.197z" fill="#D1D3D4"/><path d="M46.056 68.122L16.23 51.052l-.114.197 19.498 11.158v12.589h.228V62.538l6.695 3.832v12.638h.229V66.5l3.177 1.818.113-.197z" fill="url(#paint55_radial)"/><path d="M44.817 76.07c0 .38-.27.533-.602.342-.333-.19-.602-.653-.602-1.033 0-.379.27-.532.602-.341.332.19.602.653.602 1.032z" fill="url(#paint56_linear)"/><path d="M44.808 76.046c.131.264-.107.306-.532.094-.426-.213-.877-.6-1.009-.864-.13-.264.108-.306.533-.094.426.213.877.6 1.008.864z" fill="url(#paint57_radial)"/><path d="M41.849 74.479c0 .38-.27.532-.602.341-.332-.19-.602-.653-.602-1.032 0-.38.27-.533.602-.342.333.191.602.654.602 1.033z" fill="url(#paint58_linear)"/><path d="M41.84 74.455c.13.264-.108.306-.533.094-.426-.212-.877-.6-1.008-.864-.132-.264.107-.306.532-.094.426.212.877.6 1.008.864z" fill="url(#paint59_radial)"/><path d="M41.61 72.781a.541.541 0 01-.257-.065l-4.278-2.285a1.186 1.186 0 01-.629-1.047v-4.311a.542.542 0 01.817-.467L41.56 67.1c.366.213.593.606.593 1.027v4.114a.533.533 0 01-.165.388.552.552 0 01-.378.152zm-4.62-8.022a.315.315 0 00-.315.314v4.311a.96.96 0 00.509.847l4.277 2.285a.32.32 0 00.369-.05.308.308 0 00.095-.225v-4.114a.965.965 0 00-.48-.83l-4.297-2.494a.307.307 0 00-.158-.044z" fill="#D1D3D4"/><path d="M41.661 72.958a.539.539 0 01-.256-.064l-4.278-2.286a1.186 1.186 0 01-.629-1.047V65.25a.543.543 0 01.816-.467l4.298 2.495c.365.212.593.605.593 1.026v4.114a.533.533 0 01-.166.388.552.552 0 01-.378.152zm-4.62-8.022a.315.315 0 00-.314.314v4.311a.96.96 0 00.509.847l4.277 2.286a.32.32 0 00.368-.051.307.307 0 00.096-.225v-4.114a.964.964 0 00-.48-.83L37.2 64.98a.308.308 0 00-.158-.044z" fill="url(#paint60_radial)"/><path d="M18.79 56.746c0 .518-.13.84-.387.968-.259.127-.631.05-1.119-.23l-.78-.448v-3.145l.865.496c.45.259.799.595 1.048 1.009.248.414.373.864.373 1.35zm-.607-.33c0-.677-.261-1.164-.784-1.464l-.31-.18v2.049l.25.144c.562.323.844.14.844-.55z" fill="url(#paint61_linear)"/><path d="M20.947 59.588l-1.587-.91v-3.146l1.587.911v.547l-1.002-.576v.69l.932.536v.546l-.932-.535v.81l1.002.577v.55z" fill="url(#paint62_linear)"/><path d="M21.523 59.919v-3.146l.584.336v2.595l1.117.642v.55l-1.701-.977z" fill="url(#paint63_linear)"/><path d="M23.703 61.171v-3.145l.584.335v3.146l-.584-.336z" fill="url(#paint64_linear)"/><path d="M26.55 59.662l.59.34-.936 2.606-.637-.365-.935-3.683.59.339.518 2.17a11.654 11.654 0 01.146.776c.014-.124.061-.327.142-.611l.523-1.572z" fill="url(#paint65_linear)"/><path d="M29.075 64.257l-1.587-.911V60.2l1.587.912v.546l-1.002-.576v.691l.932.536v.546l-.932-.536v.811l1.002.576v.551z" fill="url(#paint66_linear)"/><path d="M30.235 63.716v1.207l-.585-.336v-3.145l.803.461c.375.215.652.452.831.71.18.26.27.548.27.864 0 .186-.045.325-.134.417-.089.093-.215.134-.379.122.415.945.685 1.557.81 1.835l-.648-.372-.657-1.585-.311-.178zm0-.542l.188.108c.185.106.321.15.41.13.087-.02.131-.106.131-.256a.625.625 0 00-.135-.396 1.43 1.43 0 00-.417-.335l-.177-.102v.85z" fill="url(#paint67_linear)"/><path d="M33.056 64.693l.574-.965.63.362-.914 1.396v1.224l-.58-.333v-1.203l-.914-2.467.633.363.57 1.623z" fill="url(#paint68_linear)"/><path d="M16.45 57.87v.605l1.153.681v-.617l-1.154-.67z" fill="url(#paint69_linear)"/><path d="M18.218 58.863v.606l1.154.681v-.618l-1.154-.669z" fill="url(#paint70_linear)"/><path d="M19.983 59.858v.605l1.154.682v-.619l-1.154-.668z" fill="url(#paint71_linear)"/><path d="M21.751 60.851v.606l1.154.681v-.618l-1.154-.669z" fill="url(#paint72_linear)"/><path d="M23.517 61.846v.605l1.154.681v-.618l-1.154-.669z" fill="url(#paint73_linear)"/><path d="M25.285 62.84v.605l1.154.681v-.618l-1.154-.669z" fill="url(#paint74_linear)"/><path d="M27.05 63.833v.606l1.155.68v-.617l-1.154-.669z" fill="url(#paint75_linear)"/><path d="M28.818 64.827v.606l1.154.681v-.618l-1.154-.669z" fill="url(#paint76_linear)"/><path d="M30.586 65.82v.606l1.154.682v-.618l-1.154-.67z" fill="url(#paint77_linear)"/><path d="M32.352 66.815v.606l1.155.68v-.617l-1.154-.67z" fill="url(#paint78_linear)"/><path d="M12.483 68.93v5.512l-5.344-3.08v-5.556l5.344 3.124z" fill="url(#paint79_linear)"/><path d="M12.477 68.93v5.512l5.072-2.916V65.97l-5.072 2.96z" fill="url(#paint80_linear)"/><path d="M17.549 65.97l-5.073 2.96-5.337-3.125 5.083-2.944 5.327 3.109z" fill="url(#paint81_linear)"/><path d="M10.216 67.627v1.48l-1.207-.688v-1.522l1.207.73z" fill="url(#paint82_linear)"/><path d="M15.282 64.668l-5.072 2.96-1.201-.731 5.084-2.944 1.19.715z" fill="url(#paint83_linear)"/><path d="M11.467 70.93l.424 1.305-.275-.158v1.555l-.298-.17v-1.556l-.274-.158.423-.818z" fill="url(#paint84_linear)"/><path d="M10.015 71.157l.423-.818.424 1.305-.275-.158v1.555l-.298-.171v-1.555l-.274-.158z" fill="url(#paint85_linear)"/><path d="M4.807 72.38v4.856L.1 74.523v-4.894l4.707 2.752z" fill="url(#paint86_linear)"/><path d="M4.802 72.38v4.856l4.468-2.569v-4.894l-4.468 2.608z" fill="url(#paint87_linear)"/><path d="M9.27 69.773l-4.468 2.608L.1 69.629l4.477-2.594 4.692 2.738z" fill="url(#paint88_linear)"/><path d="M2.81 71.234v1.302l-1.064-.604V70.59l1.064.643z" fill="url(#paint89_linear)"/><path d="M7.272 68.627l-4.468 2.607-1.058-.644 4.478-2.593 1.048.63z" fill="url(#paint90_linear)"/><path d="M3.912 74.142l.373 1.15-.242-.14v1.37l-.262-.15v-1.37l-.242-.139.373-.72z" fill="url(#paint91_linear)"/><path d="M2.633 74.342l.373-.72.373 1.149-.242-.14v1.37l-.262-.15v-1.37l-.242-.139z" fill="url(#paint92_linear)"/><path d="M10.639 74.19v4.856l4.707-2.713v-4.894l-4.707 2.752z" fill="url(#paint93_linear)"/><path d="M10.644 74.19v4.855l-4.468-2.568v-4.894l4.468 2.607z" fill="url(#paint94_linear)"/><path d="M6.176 71.584l4.468 2.606 4.701-2.751-4.478-2.594-4.691 2.739z" fill="url(#paint95_linear)"/><path d="M12.635 73.044v1.302l1.063-.604V72.4l-1.063.644z" fill="url(#paint96_linear)"/><path d="M8.172 70.437l4.468 2.607 1.058-.644-4.478-2.593-1.048.63z" fill="url(#paint97_linear)"/><path d="M11.533 75.953l-.373 1.149.242-.14v1.37l.262-.15v-1.37l.242-.139-.373-.72z" fill="url(#paint98_linear)"/><path d="M12.812 76.153l-.373-.72-.373 1.148.242-.139v1.37l.262-.15v-1.37l.242-.14z" fill="url(#paint99_linear)"/><path d="M8.419 67.676v4.095l3.97-2.288v-4.129l-3.97 2.322z" fill="url(#paint100_linear)"/><path d="M8.422 67.676v4.095l-3.769-2.166v-4.128l3.77 2.199z" fill="url(#paint101_linear)"/><path d="M4.653 65.476l3.77 2.2 3.965-2.322-3.777-2.187-3.958 2.31z" fill="url(#paint102_linear)"/><path d="M10.102 66.708v1.099l.897-.51v-1.132l-.897.543z" fill="url(#paint103_linear)"/><path d="M6.338 64.51l3.77 2.198.891-.542-3.777-2.188-.884.531z" fill="url(#paint104_linear)"/><path d="M9.171 69.162l-.315.97.205-.118v1.156l.22-.127v-1.156l.205-.117-.315-.608z" fill="url(#paint105_linear)"/><path d="M10.25 69.33l-.315-.607-.315.97.204-.118v1.155l.222-.127v-1.155l.204-.117z" fill="url(#paint106_linear)"/><path d="M25.07 82.067v-.109h-8.11v.2h.002c-.049.364.145.719.595.977l1.861 1.07c.891.511 2.448.447 3.477-.144l1.331-.764c.61-.352.898-.809.845-1.23z" fill="url(#paint107_linear)"/><path d="M19.418 83.886l-1.861-1.07c-.891-.512-.78-1.406.25-1.997l1.33-.764c1.029-.592 2.585-.656 3.477-.144l1.862 1.07c.89.512.78 1.406-.25 1.997l-1.33.764c-1.03.591-2.587.656-3.478.144z" fill="url(#paint108_linear)"/><path d="M24.227 82.9l-1.33.765c-1.03.591-2.586.655-3.478.143l-1.862-1.07c-.377-.216-.573-.501-.597-.803-.025.346.17.68.597.926l1.862 1.07c.891.511 2.448.447 3.477-.144l1.33-.765c.594-.34.88-.782.848-1.193-.027.375-.312.764-.847 1.071z" fill="url(#paint109_radial)"/><path opacity=".2" d="M25.07 82.533v-.109c-.05.359-.333.727-.844 1.02l-1.33.765c-1.03.591-2.586.655-3.478.143l-1.861-1.07c-.372-.213-.567-.493-.596-.79v.132h.002c-.05.364.144.719.593.977l1.862 1.07c.891.511 2.448.447 3.477-.144l1.331-.764c.61-.351.898-.809.845-1.23z" fill="url(#paint110_linear)"/><path d="M21.83 75.774h-1.593l-1.731 5.83v.02c0 .81 1.131 1.465 2.527 1.465 1.396 0 2.527-.656 2.527-1.464v-.02l-1.73-5.831z" fill="url(#paint111_linear)"/><path d="M21.83 75.777c0 .255-.356.462-.796.462-.44 0-.796-.207-.796-.462 0-.254.357-.461.796-.461.44 0 .797.207.797.461z" fill="url(#paint112_linear)"/><path d="M23.56 81.604l-.343-1.157.002.041c0 .7-.979 1.266-2.186 1.266-1.207 0-2.185-.567-2.185-1.266 0-.014 0-.028.002-.041l-.344 1.157v.02c0 .81 1.131 1.465 2.527 1.465 1.396 0 2.527-.656 2.527-1.465v-.02z" fill="url(#paint113_linear)"/><path d="M22.523 78.109l.001.024c0 .477-.667.863-1.49.863-.824 0-1.491-.386-1.491-.863l.002-.027-.35 1.18v.025c0 .588.823 1.065 1.838 1.065 1.016 0 1.839-.477 1.839-1.065 0-.005 0-.013.002-.02l-.351-1.182z" fill="url(#paint114_linear)"/><path d="M21.83 75.774h-.001v.003c0 .255-.356.462-.796.462-.44 0-.796-.207-.796-.462v-.003l-.347 1.17v.011c0 .366.512.663 1.143.663.632 0 1.144-.297 1.144-.663v-.011l-.348-1.17z" fill="url(#paint115_linear)"/><path d="M21.035 76.083c.36 0 .654-.148.654-.332 0-.183-.293-.332-.654-.332-.361 0-.654.149-.654.332 0 .184.293.332.654.332z" fill="url(#paint116_linear)"/><path d="M21.035 76.083c.36 0 .654-.148.654-.332 0-.183-.293-.332-.654-.332-.361 0-.654.149-.654.332 0 .184.293.332.654.332z" fill="url(#paint117_linear)"/><path d="M81.178 19.721c-1.482-.851-2.81-.876-3.729-.238l-1.065.494.13.68c-.228.525-.358 1.164-.358 1.913 0 2.17 1.166 5.59 2.374 8.555l1.26 6.543 1.388-.69S86.2 32.841 86.2 28.34c0-3.167-2.248-7.025-5.022-8.619z" fill="url(#paint118_linear)"/><path d="M84.811 29.03c0 4.503-5.022 8.638-5.022 8.638s-5.021-9.904-5.021-14.407c0-3.166 2.248-4.442 5.022-2.848 2.773 1.593 5.021 5.451 5.021 8.618z" fill="url(#paint119_linear)"/><path d="M81.618 27.196c0 1.153-.819 1.617-1.829 1.037-1.01-.58-1.828-1.985-1.828-3.137 0-1.153.818-1.618 1.828-1.038 1.01.58 1.829 1.985 1.829 3.138z" fill="url(#paint120_linear)"/><path d="M80.355 27.974c-1.01-.58-1.829-1.985-1.829-3.137 0-.457.13-.803.348-1.022-.545.049-.912.51-.912 1.28 0 1.154.818 2.558 1.828 3.138.61.35 1.149.318 1.481-.015-.27.023-.582-.052-.916-.244z" fill="#D1D3D4"/><defs><linearGradient id="paint0_linear" x1="60.817" y1="3.257" x2="89.116" y2="52.522" gradientUnits="userSpaceOnUse"><stop offset=".056" stop-color="#200041"/><stop offset=".258" stop-color="#210243"/><stop offset=".357" stop-color="#25084B"/><stop offset=".434" stop-color="#2C1358"/><stop offset=".47" stop-color="#311B61"/><stop offset=".482" stop-color="#351F65"/><stop offset=".495" stop-color="#422C73"/><stop offset=".509" stop-color="#584188"/><stop offset=".523" stop-color="#765FA7"/><stop offset=".53" stop-color="#8770B8"/><stop offset=".537" stop-color="#7E67AE"/><stop offset=".562" stop-color="#5C468D"/><stop offset=".586" stop-color="#442E75"/><stop offset=".608" stop-color="#362066"/><stop offset=".626" stop-color="#311B61"/><stop offset=".672" stop-color="#2A1155"/><stop offset=".749" stop-color="#230446"/><stop offset=".813" stop-color="#200041"/><stop offset="1" stop-color="#200041"/></linearGradient><linearGradient id="paint3_linear" x1="98.722" y1="48.573" x2="11.646" y2="21.175" gradientUnits="userSpaceOnUse"><stop offset=".187" stop-color="#3D065F"/><stop offset=".934" stop-color="#3D065F"/></linearGradient><linearGradient id="paint4_linear" x1="99.858" y1="82.132" x2="55.966" y2="-11.087" gradientUnits="userSpaceOnUse"><stop stop-color="#311B61"/><stop offset=".203" stop-color="#290F52"/><stop offset=".495" stop-color="#200041"/><stop offset="1" stop-color="#0F001F"/></linearGradient><linearGradient id="paint5_linear" x1="67.419" y1="43.152" x2="95.214" y2="43.152" gradientUnits="userSpaceOnUse"><stop stop-color="#311B61"/><stop offset=".203" stop-color="#290F52"/><stop offset=".495" stop-color="#200041"/><stop offset="1" stop-color="#0F001F"/></linearGradient><linearGradient id="paint6_linear" x1="93.051" y1="81.234" x2="70.152" y2="6.164" gradientUnits="userSpaceOnUse"><stop stop-color="#A56EF4"/><stop offset=".212" stop-color="#A186D3"/><stop offset=".408" stop-color="#9E98BC"/><stop offset=".53" stop-color="#9D9EB3"/><stop offset=".62" stop-color="#A4A4B8"/><stop offset=".749" stop-color="#B7B7C7"/><stop offset=".901" stop-color="#D6D4DF"/><stop offset="1" stop-color="#EEEBF2"/></linearGradient><linearGradient id="paint7_linear" x1="99.201" y1="30.531" x2="101.669" y2="34.826" gradientUnits="userSpaceOnUse"><stop stop-color="#311B61"/><stop offset=".203" stop-color="#290F52"/><stop offset=".495" stop-color="#200041"/><stop offset="1" stop-color="#0F001F"/></linearGradient><linearGradient id="paint8_linear" x1="99.236" y1="34.157" x2="95.807" y2="34.008" gradientUnits="userSpaceOnUse"><stop stop-color="#3D065F"/><stop offset="1" stop-color="#5F27BD"/></linearGradient><linearGradient id="paint10_linear" x1="68.172" y1="86.082" x2="81.659" y2="49.287" gradientUnits="userSpaceOnUse"><stop stop-color="#112A6C"/><stop offset=".14" stop-color="#114280"/><stop offset=".434" stop-color="#1380B4"/><stop offset=".485" stop-color="#138BBD"/><stop offset=".707" stop-color="#169AC7"/><stop offset="1" stop-color="#1CB5D7"/></linearGradient><linearGradient id="paint11_linear" x1="59.467" y1="46.86" x2="80.483" y2="23.194" gradientUnits="userSpaceOnUse"><stop offset=".035" stop-color="#6B24D6"/><stop offset=".294" stop-color="#7733DC"/><stop offset=".794" stop-color="#975CED"/><stop offset="1" stop-color="#A56EF4"/></linearGradient><linearGradient id="paint13_linear" x1="57.997" y1="51.302" x2="71.956" y2="110.488" gradientUnits="userSpaceOnUse"><stop offset=".035" stop-color="#6B24D6"/><stop offset=".294" stop-color="#7733DC"/><stop offset=".794" stop-color="#975CED"/><stop offset="1" stop-color="#A56EF4"/></linearGradient><linearGradient id="paint19_linear" x1="26.151" y1="72.17" x2="21.528" y2="65.943" gradientUnits="userSpaceOnUse"><stop offset=".056" stop-color="#2D2F32"/><stop offset=".154" stop-color="#43464A"/><stop offset=".253" stop-color="#5D6066"/><stop offset=".48" stop-color="#1E1F21"/><stop offset="1" stop-color="#46484D"/></linearGradient><linearGradient id="paint20_linear" x1="19.923" y1="69.881" x2="25.228" y2="69.881" gradientUnits="userSpaceOnUse"><stop offset=".035" stop-color="#1E1F21"/><stop offset=".31" stop-color="#2C2E30"/><stop offset=".84" stop-color="#515359"/><stop offset="1" stop-color="#5D6066"/></linearGradient><linearGradient id="paint22_linear" x1="20.621" y1="69.925" x2="24.706" y2="69.925" gradientUnits="userSpaceOnUse"><stop stop-color="#BCBEC0"/><stop offset="1" stop-color="#E6E7E8"/></linearGradient><linearGradient id="paint23_linear" x1="20.493" y1="69.975" x2="24.578" y2="69.975" gradientUnits="userSpaceOnUse"><stop offset=".035" stop-color="#9D9EB3"/><stop offset=".581" stop-color="#D4D1D8"/><stop offset="1" stop-color="#EEEBF2"/></linearGradient><linearGradient id="paint24_linear" x1="51.313" y1="86.525" x2="46.689" y2="80.297" gradientUnits="userSpaceOnUse"><stop offset=".056" stop-color="#2D2F32"/><stop offset=".154" stop-color="#43464A"/><stop offset=".253" stop-color="#5D6066"/><stop offset=".48" stop-color="#1E1F21"/><stop offset="1" stop-color="#46484D"/></linearGradient><linearGradient id="paint25_linear" x1="45.087" y1="84.235" x2="50.392" y2="84.235" gradientUnits="userSpaceOnUse"><stop offset=".035" stop-color="#1E1F21"/><stop offset=".31" stop-color="#2C2E30"/><stop offset=".84" stop-color="#515359"/><stop offset="1" stop-color="#5D6066"/></linearGradient><linearGradient id="paint27_linear" x1="45.785" y1="84.279" x2="49.87" y2="84.279" gradientUnits="userSpaceOnUse"><stop stop-color="#BCBEC0"/><stop offset="1" stop-color="#E6E7E8"/></linearGradient><linearGradient id="paint28_linear" x1="45.657" y1="84.329" x2="49.742" y2="84.329" gradientUnits="userSpaceOnUse"><stop offset=".035" stop-color="#9D9EB3"/><stop offset=".581" stop-color="#D4D1D8"/><stop offset="1" stop-color="#EEEBF2"/></linearGradient><linearGradient id="paint31_linear" x1="48.939" y1="71.555" x2="61.485" y2="71.555" gradientUnits="userSpaceOnUse"><stop stop-color="#10054D"/><stop offset="1" stop-color="#363885"/></linearGradient><linearGradient id="paint32_linear" x1="43.563" y1="72.255" x2="48.159" y2="72.255" gradientUnits="userSpaceOnUse"><stop stop-color="#10054D"/><stop offset="1" stop-color="#363885"/></linearGradient><linearGradient id="paint33_linear" x1="62.103" y1="86.392" x2="60.129" y2="84.502" gradientUnits="userSpaceOnUse"><stop offset=".035" stop-color="#1E1F21"/><stop offset=".31" stop-color="#2C2E30"/><stop offset=".84" stop-color="#515359"/><stop offset="1" stop-color="#5D6066"/></linearGradient><linearGradient id="paint34_linear" x1="52.31" y1="83.931" x2="55.92" y2="83.931" gradientUnits="userSpaceOnUse"><stop stop-color="#BCBEC0"/><stop offset="1" stop-color="#E6E7E8"/></linearGradient><linearGradient id="paint35_linear" x1="54.185" y1="84.74" x2="54.104" y2="82.08" gradientUnits="userSpaceOnUse"><stop stop-color="#9C9C9C"/><stop offset=".005" stop-color="#9D9D9D"/><stop offset=".315" stop-color="#C7C7C7"/><stop offset=".595" stop-color="#E6E6E6"/><stop offset=".833" stop-color="#F8F8F8"/><stop offset="1" stop-color="#fff"/></linearGradient><linearGradient id="paint36_linear" x1="64.047" y1="78.494" x2="65.415" y2="78.494" gradientUnits="userSpaceOnUse"><stop stop-color="#BCBEC0"/><stop offset="1" stop-color="#E6E7E8"/></linearGradient><linearGradient id="paint37_linear" x1="64.047" y1="78.494" x2="65.341" y2="78.494" gradientUnits="userSpaceOnUse"><stop stop-color="#9C9C9C"/><stop offset=".005" stop-color="#9D9D9D"/><stop offset=".315" stop-color="#C7C7C7"/><stop offset=".595" stop-color="#E6E6E6"/><stop offset=".833" stop-color="#F8F8F8"/><stop offset="1" stop-color="#fff"/></linearGradient><linearGradient id="paint38_linear" x1="48.752" y1="76.584" x2="45.581" y2="78.566" gradientUnits="userSpaceOnUse"><stop stop-color="#696969"/><stop offset=".242" stop-color="#9C9C9C"/><stop offset=".48" stop-color="#C7C7C7"/><stop offset=".692" stop-color="#E6E6E6"/><stop offset=".873" stop-color="#F8F8F8"/><stop offset="1" stop-color="#fff"/></linearGradient><linearGradient id="paint41_linear" x1="33.691" y1="77.041" x2="35.233" y2="74.49" gradientUnits="userSpaceOnUse"><stop stop-color="#9C9C9C"/><stop offset=".005" stop-color="#9D9D9D"/><stop offset=".315" stop-color="#C7C7C7"/><stop offset=".595" stop-color="#E6E6E6"/><stop offset=".833" stop-color="#F8F8F8"/><stop offset="1" stop-color="#fff"/></linearGradient><linearGradient id="paint42_linear" x1="16.077" y1="66.794" x2="17.454" y2="64.516" gradientUnits="userSpaceOnUse"><stop stop-color="#9C9C9C"/><stop offset=".005" stop-color="#9D9D9D"/><stop offset=".315" stop-color="#C7C7C7"/><stop offset=".595" stop-color="#E6E6E6"/><stop offset=".833" stop-color="#F8F8F8"/><stop offset="1" stop-color="#fff"/></linearGradient><linearGradient id="paint43_linear" x1="50.366" y1="83.491" x2="65.685" y2="83.491" gradientUnits="userSpaceOnUse"><stop offset=".056" stop-color="#2D2F32"/><stop offset=".154" stop-color="#43464A"/><stop offset=".253" stop-color="#5D6066"/><stop offset=".48" stop-color="#1E1F21"/><stop offset="1" stop-color="#46484D"/></linearGradient><linearGradient id="paint44_linear" x1="53.301" y1="83.84" x2="55.337" y2="83.84" gradientUnits="userSpaceOnUse"><stop stop-color="#BCBEC0"/><stop offset="1" stop-color="#E6E7E8"/></linearGradient><linearGradient id="paint45_linear" x1="55.53" y1="83.987" x2="54.62" y2="83.987" gradientUnits="userSpaceOnUse"><stop stop-color="#BCBEC0"/><stop offset=".686" stop-color="#E9EAEA"/><stop offset="1" stop-color="#fff"/></linearGradient><linearGradient id="paint46_linear" x1="52.597" y1="83.985" x2="54.216" y2="83.985" gradientUnits="userSpaceOnUse"><stop stop-color="#BCBEC0"/><stop offset="1" stop-color="#E6E7E8"/></linearGradient><linearGradient id="paint47_linear" x1="54.37" y1="84.102" x2="53.647" y2="84.102" gradientUnits="userSpaceOnUse"><stop stop-color="#BCBEC0"/><stop offset=".686" stop-color="#E9EAEA"/><stop offset="1" stop-color="#fff"/></linearGradient><linearGradient id="paint48_linear" x1="64.192" y1="78.811" x2="65.093" y2="78.811" gradientUnits="userSpaceOnUse"><stop stop-color="#BCBEC0"/><stop offset="1" stop-color="#E6E7E8"/></linearGradient><linearGradient id="paint49_linear" x1="65.226" y1="78.828" x2="64.605" y2="78.828" gradientUnits="userSpaceOnUse"><stop stop-color="#BCBEC0"/><stop offset=".686" stop-color="#E9EAEA"/><stop offset="1" stop-color="#fff"/></linearGradient><linearGradient id="paint50_linear" x1="64.586" y1="78.073" x2="65.244" y2="78.073" gradientUnits="userSpaceOnUse"><stop stop-color="#BCBEC0"/><stop offset="1" stop-color="#E6E7E8"/></linearGradient><linearGradient id="paint51_linear" x1="65.341" y1="78.085" x2="64.888" y2="78.085" gradientUnits="userSpaceOnUse"><stop stop-color="#BCBEC0"/><stop offset=".686" stop-color="#E9EAEA"/><stop offset="1" stop-color="#fff"/></linearGradient><linearGradient id="paint54_linear" x1="13.878" y1="64.203" x2="15.153" y2="64.203" gradientUnits="userSpaceOnUse"><stop offset=".035" stop-color="#6B24D6"/><stop offset=".294" stop-color="#7733DC"/><stop offset=".794" stop-color="#975CED"/><stop offset="1" stop-color="#A56EF4"/></linearGradient><linearGradient id="paint56_linear" x1="44.028" y1="75.725" x2="45.231" y2="75.725" gradientUnits="userSpaceOnUse"><stop stop-color="#9C9C9C"/><stop offset=".005" stop-color="#9D9D9D"/><stop offset=".315" stop-color="#C7C7C7"/><stop offset=".595" stop-color="#E6E6E6"/><stop offset=".833" stop-color="#F8F8F8"/><stop offset="1" stop-color="#fff"/></linearGradient><linearGradient id="paint58_linear" x1="41.06" y1="74.133" x2="42.264" y2="74.133" gradientUnits="userSpaceOnUse"><stop stop-color="#9C9C9C"/><stop offset=".005" stop-color="#9D9D9D"/><stop offset=".315" stop-color="#C7C7C7"/><stop offset=".595" stop-color="#E6E6E6"/><stop offset=".833" stop-color="#F8F8F8"/><stop offset="1" stop-color="#fff"/></linearGradient><linearGradient id="paint61_linear" x1="14.625" y1="54.408" x2="34.181" y2="65.546" gradientUnits="userSpaceOnUse"><stop stop-color="#25054D"/><stop offset="1" stop-color="#45108A"/></linearGradient><linearGradient id="paint62_linear" x1="14.609" y1="54.434" x2="34.166" y2="65.572" gradientUnits="userSpaceOnUse"><stop stop-color="#25054D"/><stop offset="1" stop-color="#45108A"/></linearGradient><linearGradient id="paint63_linear" x1="14.6" y1="54.453" x2="34.156" y2="65.59" gradientUnits="userSpaceOnUse"><stop stop-color="#25054D"/><stop offset="1" stop-color="#45108A"/></linearGradient><linearGradient id="paint64_linear" x1="14.593" y1="54.466" x2="34.149" y2="65.603" gradientUnits="userSpaceOnUse"><stop stop-color="#25054D"/><stop offset="1" stop-color="#45108A"/></linearGradient><linearGradient id="paint65_linear" x1="14.585" y1="54.477" x2="34.141" y2="65.615" gradientUnits="userSpaceOnUse"><stop stop-color="#25054D"/><stop offset="1" stop-color="#45108A"/></linearGradient><linearGradient id="paint66_linear" x1="14.572" y1="54.5" x2="34.129" y2="65.638" gradientUnits="userSpaceOnUse"><stop stop-color="#25054D"/><stop offset="1" stop-color="#45108A"/></linearGradient><linearGradient id="paint67_linear" x1="14.561" y1="54.52" x2="34.118" y2="65.658" gradientUnits="userSpaceOnUse"><stop stop-color="#25054D"/><stop offset="1" stop-color="#45108A"/></linearGradient><linearGradient id="paint68_linear" x1="14.553" y1="54.535" x2="34.109" y2="65.673" gradientUnits="userSpaceOnUse"><stop stop-color="#25054D"/><stop offset="1" stop-color="#45108A"/></linearGradient><linearGradient id="paint69_linear" x1="13.439" y1="56.491" x2="32.996" y2="67.629" gradientUnits="userSpaceOnUse"><stop stop-color="#25054D"/><stop offset="1" stop-color="#45108A"/></linearGradient><linearGradient id="paint70_linear" x1="13.441" y1="56.489" x2="32.998" y2="67.627" gradientUnits="userSpaceOnUse"><stop stop-color="#25054D"/><stop offset="1" stop-color="#45108A"/></linearGradient><linearGradient id="paint71_linear" x1="13.441" y1="56.488" x2="32.998" y2="67.625" gradientUnits="userSpaceOnUse"><stop stop-color="#25054D"/><stop offset="1" stop-color="#45108A"/></linearGradient><linearGradient id="paint72_linear" x1="13.443" y1="56.486" x2="32.999" y2="67.624" gradientUnits="userSpaceOnUse"><stop stop-color="#25054D"/><stop offset="1" stop-color="#45108A"/></linearGradient><linearGradient id="paint73_linear" x1="13.442" y1="56.484" x2="32.999" y2="67.622" gradientUnits="userSpaceOnUse"><stop stop-color="#25054D"/><stop offset="1" stop-color="#45108A"/></linearGradient><linearGradient id="paint74_linear" x1="13.445" y1="56.483" x2="33.002" y2="67.621" gradientUnits="userSpaceOnUse"><stop stop-color="#25054D"/><stop offset="1" stop-color="#45108A"/></linearGradient><linearGradient id="paint75_linear" x1="13.445" y1="56.481" x2="33.002" y2="67.619" gradientUnits="userSpaceOnUse"><stop stop-color="#25054D"/><stop offset="1" stop-color="#45108A"/></linearGradient><linearGradient id="paint76_linear" x1="13.446" y1="56.479" x2="33.003" y2="67.617" gradientUnits="userSpaceOnUse"><stop stop-color="#25054D"/><stop offset="1" stop-color="#45108A"/></linearGradient><linearGradient id="paint77_linear" x1="13.448" y1="56.477" x2="33.005" y2="67.615" gradientUnits="userSpaceOnUse"><stop stop-color="#25054D"/><stop offset="1" stop-color="#45108A"/></linearGradient><linearGradient id="paint78_linear" x1="13.448" y1="56.476" x2="33.005" y2="67.614" gradientUnits="userSpaceOnUse"><stop stop-color="#25054D"/><stop offset="1" stop-color="#45108A"/></linearGradient><linearGradient id="paint79_linear" x1="20.93" y1="72.604" x2="-1.791" y2="67.484" gradientUnits="userSpaceOnUse"><stop offset=".035" stop-color="#FFA98C"/><stop offset=".317" stop-color="#FFB892"/><stop offset=".86" stop-color="#FEE1A3"/><stop offset="1" stop-color="#FEECA8"/></linearGradient><linearGradient id="paint80_linear" x1="16.544" y1="70.662" x2="6.242" y2="67.562" gradientUnits="userSpaceOnUse"><stop offset=".035" stop-color="#FFA98C"/><stop offset=".317" stop-color="#FFB892"/><stop offset=".86" stop-color="#FEE1A3"/><stop offset="1" stop-color="#FEECA8"/></linearGradient><linearGradient id="paint81_linear" x1="6.773" y1="55.324" x2="12.723" y2="66.722" gradientUnits="userSpaceOnUse"><stop offset=".035" stop-color="#FFA98C"/><stop offset=".317" stop-color="#FFB892"/><stop offset=".86" stop-color="#FEE1A3"/><stop offset="1" stop-color="#FEECA8"/></linearGradient><linearGradient id="paint82_linear" x1="9.863" y1="68.076" x2="6.569" y2="67.085" gradientUnits="userSpaceOnUse"><stop offset=".035" stop-color="#C97052"/><stop offset=".336" stop-color="#D47E61"/><stop offset=".915" stop-color="#F2A48A"/><stop offset="1" stop-color="#F7AA90"/></linearGradient><linearGradient id="paint83_linear" x1="10.669" y1="62.982" x2="12.249" y2="66.01" gradientUnits="userSpaceOnUse"><stop offset=".035" stop-color="#C97052"/><stop offset=".336" stop-color="#D47E61"/><stop offset=".915" stop-color="#F2A48A"/><stop offset="1" stop-color="#F7AA90"/></linearGradient><linearGradient id="paint84_linear" x1="11.563" y1="72.278" x2="9.862" y2="72.839" gradientUnits="userSpaceOnUse"><stop offset=".035" stop-color="#C97052"/><stop offset=".336" stop-color="#D47E61"/><stop offset=".915" stop-color="#F2A48A"/><stop offset="1" stop-color="#F7AA90"/></linearGradient><linearGradient id="paint85_linear" x1="10.534" y1="71.687" x2="8.833" y2="72.248" gradientUnits="userSpaceOnUse"><stop offset=".035" stop-color="#C97052"/><stop offset=".336" stop-color="#D47E61"/><stop offset=".915" stop-color="#F2A48A"/><stop offset="1" stop-color="#F7AA90"/></linearGradient><linearGradient id="paint86_linear" x1="12.247" y1="75.617" x2="-7.766" y2="71.108" gradientUnits="userSpaceOnUse"><stop offset=".035" stop-color="#FFA98C"/><stop offset=".317" stop-color="#FFB892"/><stop offset=".86" stop-color="#FEE1A3"/><stop offset="1" stop-color="#FEECA8"/></linearGradient><linearGradient id="paint87_linear" x1="8.384" y1="73.906" x2="-.689" y2="71.175" gradientUnits="userSpaceOnUse"><stop offset=".035" stop-color="#FFA98C"/><stop offset=".317" stop-color="#FFB892"/><stop offset=".86" stop-color="#FEE1A3"/><stop offset="1" stop-color="#FEECA8"/></linearGradient><linearGradient id="paint88_linear" x1="-.222" y1="60.397" x2="5.019" y2="70.436" gradientUnits="userSpaceOnUse"><stop offset=".035" stop-color="#FFA98C"/><stop offset=".317" stop-color="#FFB892"/><stop offset=".86" stop-color="#FEE1A3"/><stop offset="1" stop-color="#FEECA8"/></linearGradient><linearGradient id="paint89_linear" x1="2.499" y1="71.629" x2="-.403" y2="70.756" gradientUnits="userSpaceOnUse"><stop offset=".035" stop-color="#C97052"/><stop offset=".336" stop-color="#D47E61"/><stop offset=".915" stop-color="#F2A48A"/><stop offset="1" stop-color="#F7AA90"/></linearGradient><linearGradient id="paint90_linear" x1="3.208" y1="67.142" x2="4.601" y2="69.809" gradientUnits="userSpaceOnUse"><stop offset=".035" stop-color="#C97052"/><stop offset=".336" stop-color="#D47E61"/><stop offset=".915" stop-color="#F2A48A"/><stop offset="1" stop-color="#F7AA90"/></linearGradient><linearGradient id="paint91_linear" x1="3.997" y1="75.33" x2="2.498" y2="75.823" gradientUnits="userSpaceOnUse"><stop offset=".035" stop-color="#C97052"/><stop offset=".336" stop-color="#D47E61"/><stop offset=".915" stop-color="#F2A48A"/><stop offset="1" stop-color="#F7AA90"/></linearGradient><linearGradient id="paint92_linear" x1="3.09" y1="74.809" x2="1.592" y2="75.303" gradientUnits="userSpaceOnUse"><stop offset=".035" stop-color="#C97052"/><stop offset=".336" stop-color="#D47E61"/><stop offset=".915" stop-color="#F2A48A"/><stop offset="1" stop-color="#F7AA90"/></linearGradient><linearGradient id="paint93_linear" x1="12.056" y1="75.521" x2="24.367" y2="71.816" gradientUnits="userSpaceOnUse"><stop offset=".035" stop-color="#FFA98C"/><stop offset=".317" stop-color="#FFB892"/><stop offset=".86" stop-color="#FEE1A3"/><stop offset="1" stop-color="#FEECA8"/></linearGradient><linearGradient id="paint94_linear" x1=".804" y1="77.011" x2="16.337" y2="73.511" gradientUnits="userSpaceOnUse"><stop offset=".035" stop-color="#FFA98C"/><stop offset=".317" stop-color="#FFB892"/><stop offset=".86" stop-color="#FEE1A3"/><stop offset="1" stop-color="#FEECA8"/></linearGradient><linearGradient id="paint95_linear" x1="15.667" y1="62.207" x2="10.427" y2="72.246" gradientUnits="userSpaceOnUse"><stop offset=".035" stop-color="#FFA98C"/><stop offset=".317" stop-color="#FFB892"/><stop offset=".86" stop-color="#FEE1A3"/><stop offset="1" stop-color="#FEECA8"/></linearGradient><linearGradient id="paint96_linear" x1="12.946" y1="73.439" x2="15.847" y2="72.566" gradientUnits="userSpaceOnUse"><stop offset=".035" stop-color="#C97052"/><stop offset=".336" stop-color="#D47E61"/><stop offset=".915" stop-color="#F2A48A"/><stop offset="1" stop-color="#F7AA90"/></linearGradient><linearGradient id="paint97_linear" x1="12.236" y1="68.952" x2="10.843" y2="71.619" gradientUnits="userSpaceOnUse"><stop offset=".035" stop-color="#C97052"/><stop offset=".336" stop-color="#D47E61"/><stop offset=".915" stop-color="#F2A48A"/><stop offset="1" stop-color="#F7AA90"/></linearGradient><linearGradient id="paint98_linear" x1="11.449" y1="77.14" x2="12.947" y2="77.634" gradientUnits="userSpaceOnUse"><stop offset=".035" stop-color="#C97052"/><stop offset=".336" stop-color="#D47E61"/><stop offset=".915" stop-color="#F2A48A"/><stop offset="1" stop-color="#F7AA90"/></linearGradient><linearGradient id="paint99_linear" x1="12.355" y1="76.619" x2="13.853" y2="77.113" gradientUnits="userSpaceOnUse"><stop offset=".035" stop-color="#C97052"/><stop offset=".336" stop-color="#D47E61"/><stop offset=".915" stop-color="#F2A48A"/><stop offset="1" stop-color="#F7AA90"/></linearGradient><linearGradient id="paint100_linear" x1="9.614" y1="68.798" x2="19.999" y2="65.672" gradientUnits="userSpaceOnUse"><stop offset=".035" stop-color="#FFA98C"/><stop offset=".317" stop-color="#FFB892"/><stop offset=".86" stop-color="#FEE1A3"/><stop offset="1" stop-color="#FEECA8"/></linearGradient><linearGradient id="paint101_linear" x1=".122" y1="70.055" x2="13.225" y2="67.103" gradientUnits="userSpaceOnUse"><stop offset=".035" stop-color="#FFA98C"/><stop offset=".317" stop-color="#FFB892"/><stop offset=".86" stop-color="#FEE1A3"/><stop offset="1" stop-color="#FEECA8"/></linearGradient><linearGradient id="paint102_linear" x1="12.66" y1="57.567" x2="8.239" y2="66.035" gradientUnits="userSpaceOnUse"><stop offset=".035" stop-color="#FFA98C"/><stop offset=".317" stop-color="#FFB892"/><stop offset=".86" stop-color="#FEE1A3"/><stop offset="1" stop-color="#FEECA8"/></linearGradient><linearGradient id="paint103_linear" x1="10.365" y1="67.041" x2="12.813" y2="66.305" gradientUnits="userSpaceOnUse"><stop offset=".035" stop-color="#C97052"/><stop offset=".336" stop-color="#D47E61"/><stop offset=".915" stop-color="#F2A48A"/><stop offset="1" stop-color="#F7AA90"/></linearGradient><linearGradient id="paint104_linear" x1="9.766" y1="63.257" x2="8.591" y2="65.507" gradientUnits="userSpaceOnUse"><stop offset=".035" stop-color="#C97052"/><stop offset=".336" stop-color="#D47E61"/><stop offset=".915" stop-color="#F2A48A"/><stop offset="1" stop-color="#F7AA90"/></linearGradient><linearGradient id="paint105_linear" x1="9.1" y1="70.164" x2="10.364" y2="70.58" gradientUnits="userSpaceOnUse"><stop offset=".035" stop-color="#C97052"/><stop offset=".336" stop-color="#D47E61"/><stop offset=".915" stop-color="#F2A48A"/><stop offset="1" stop-color="#F7AA90"/></linearGradient><linearGradient id="paint106_linear" x1="9.864" y1="69.725" x2="11.128" y2="70.141" gradientUnits="userSpaceOnUse"><stop offset=".035" stop-color="#C97052"/><stop offset=".336" stop-color="#D47E61"/><stop offset=".915" stop-color="#F2A48A"/><stop offset="1" stop-color="#F7AA90"/></linearGradient><linearGradient id="paint107_linear" x1="25.119" y1="83.254" x2="16.851" y2="83.254" gradientUnits="userSpaceOnUse"><stop offset=".035" stop-color="#9F19AB"/><stop offset=".131" stop-color="#A31CAC"/><stop offset=".221" stop-color="#AE25B1"/><stop offset=".31" stop-color="#C234B8"/><stop offset=".398" stop-color="#DC48C1"/><stop offset=".484" stop-color="#FF63CE"/><stop offset=".485" stop-color="#FF63CE"/><stop offset=".608" stop-color="#ED55C7"/><stop offset=".745" stop-color="#E04BC3"/><stop offset=".874" stop-color="#DC48C1"/></linearGradient><linearGradient id="paint108_linear" x1="25.799" y1="72.829" x2="20.382" y2="83.207" gradientUnits="userSpaceOnUse"><stop offset=".035" stop-color="#9F19AB"/><stop offset=".244" stop-color="#AE25B1"/><stop offset=".645" stop-color="#D744BF"/><stop offset="1" stop-color="#FF63CE"/></linearGradient><linearGradient id="paint110_linear" x1="25.119" y1="83.72" x2="16.851" y2="83.72" gradientUnits="userSpaceOnUse"><stop offset=".035" stop-color="#9F19AB"/><stop offset=".131" stop-color="#A31CAC"/><stop offset=".221" stop-color="#AE25B1"/><stop offset=".31" stop-color="#C234B8"/><stop offset=".398" stop-color="#DC48C1"/><stop offset=".484" stop-color="#FF63CE"/><stop offset=".485" stop-color="#FF63CE"/><stop offset=".608" stop-color="#ED55C7"/><stop offset=".745" stop-color="#E04BC3"/><stop offset=".874" stop-color="#DC48C1"/></linearGradient><linearGradient id="paint111_linear" x1="19.123" y1="78.994" x2="23.361" y2="79.892" gradientUnits="userSpaceOnUse"><stop offset=".01" stop-color="#C1A1D5"/><stop offset=".049" stop-color="#C8ABDA"/><stop offset=".115" stop-color="#DAC6E6"/><stop offset=".2" stop-color="#F7F2F9"/><stop offset=".222" stop-color="#fff"/><stop offset=".255" stop-color="#F9F5FB"/><stop offset=".31" stop-color="#E8DBEF"/><stop offset=".359" stop-color="#D5BFE3"/><stop offset=".401" stop-color="#C7AFE1"/><stop offset=".479" stop-color="#B397DE"/><stop offset=".551" stop-color="#A788DC"/><stop offset=".611" stop-color="#A383DB"/><stop offset=".761" stop-color="#AE8DDC"/><stop offset="1" stop-color="#C8A6DE"/></linearGradient><linearGradient id="paint112_linear" x1="19.219" y1="74.874" x2="21.6" y2="76.071" gradientUnits="userSpaceOnUse"><stop offset=".035" stop-color="#9F19AB"/><stop offset=".244" stop-color="#AE25B1"/><stop offset=".645" stop-color="#D744BF"/><stop offset="1" stop-color="#FF63CE"/></linearGradient><linearGradient id="paint113_linear" x1="18.737" y1="81.106" x2="22.909" y2="81.987" gradientUnits="userSpaceOnUse"><stop stop-color="#C211A1"/><stop offset=".034" stop-color="#C518A5"/><stop offset=".084" stop-color="#CE2DAF"/><stop offset=".091" stop-color="#CF30B1"/><stop offset=".207" stop-color="#FF63CE"/><stop offset=".281" stop-color="#EB48BF"/><stop offset=".409" stop-color="#C211A1"/><stop offset=".54" stop-color="#A919AB"/><stop offset=".731" stop-color="#AC18AA"/><stop offset=".896" stop-color="#B714A5"/><stop offset="1" stop-color="#C211A1"/></linearGradient><linearGradient id="paint114_linear" x1="19.236" y1="78.744" x2="23.409" y2="79.626" gradientUnits="userSpaceOnUse"><stop stop-color="#C211A1"/><stop offset=".034" stop-color="#C518A5"/><stop offset=".084" stop-color="#CE2DAF"/><stop offset=".091" stop-color="#CF30B1"/><stop offset=".207" stop-color="#FF63CE"/><stop offset=".281" stop-color="#EB48BF"/><stop offset=".409" stop-color="#C211A1"/><stop offset=".54" stop-color="#A919AB"/><stop offset=".731" stop-color="#AC18AA"/><stop offset=".896" stop-color="#B714A5"/><stop offset="1" stop-color="#C211A1"/></linearGradient><linearGradient id="paint115_linear" x1="19.739" y1="76.363" x2="23.911" y2="77.245" gradientUnits="userSpaceOnUse"><stop stop-color="#C211A1"/><stop offset=".034" stop-color="#C518A5"/><stop offset=".084" stop-color="#CE2DAF"/><stop offset=".091" stop-color="#CF30B1"/><stop offset=".207" stop-color="#FF63CE"/><stop offset=".281" stop-color="#EB48BF"/><stop offset=".409" stop-color="#C211A1"/><stop offset=".54" stop-color="#A919AB"/><stop offset=".731" stop-color="#AC18AA"/><stop offset=".896" stop-color="#B714A5"/><stop offset="1" stop-color="#C211A1"/></linearGradient><linearGradient id="paint116_linear" x1="21.672" y1="75.751" x2="20.224" y2="75.751" gradientUnits="userSpaceOnUse"><stop offset=".035" stop-color="#9F19AB"/><stop offset=".164" stop-color="#AE25B1"/><stop offset=".412" stop-color="#D744BF"/><stop offset=".631" stop-color="#FF63CE"/><stop offset=".874" stop-color="#DC48C1"/></linearGradient><linearGradient id="paint117_linear" x1="21.035" y1="75.494" x2="21.035" y2="77.957" gradientUnits="userSpaceOnUse"><stop stop-color="#fff"/><stop offset="1"/></linearGradient><linearGradient id="paint118_linear" x1="84.529" y1="35.592" x2="77.357" y2="19.213" gradientUnits="userSpaceOnUse"><stop offset=".035" stop-color="#9F19AB"/><stop offset=".164" stop-color="#AE25B1"/><stop offset=".412" stop-color="#D744BF"/><stop offset=".631" stop-color="#FF63CE"/><stop offset=".874" stop-color="#DC48C1"/></linearGradient><linearGradient id="paint119_linear" x1="71.806" y1="33.872" x2="85.812" y2="22.401" gradientUnits="userSpaceOnUse"><stop offset=".035" stop-color="#9F19AB"/><stop offset=".244" stop-color="#AE25B1"/><stop offset=".645" stop-color="#D744BF"/><stop offset="1" stop-color="#FF63CE"/></linearGradient><linearGradient id="paint120_linear" x1="81.171" y1="28.324" x2="77.353" y2="25.09" gradientUnits="userSpaceOnUse"><stop offset=".035" stop-color="#9D9EB3"/><stop offset=".581" stop-color="#D4D1D8"/><stop offset="1" stop-color="#EEEBF2"/></linearGradient><radialGradient id="paint1_radial" cx="0" cy="0" r="1" gradientUnits="userSpaceOnUse" gradientTransform="matrix(53.5134 0 0 53.2414 105.132 23.222)"><stop stop-color="#711F56"/><stop offset=".161" stop-color="#6C1E52"/><stop offset=".363" stop-color="#5C1946"/><stop offset=".585" stop-color="#431233"/><stop offset=".821" stop-color="#200918"/><stop offset="1"/></radialGradient><radialGradient id="paint2_radial" cx="0" cy="0" r="1" gradientUnits="userSpaceOnUse" gradientTransform="matrix(31.527 0 0 31.3667 96.18 19.418)"><stop stop-color="#AF8AFC"/><stop offset="1" stop-color="#10054D"/></radialGradient><radialGradient id="paint9_radial" cx="0" cy="0" r="1" gradientUnits="userSpaceOnUse" gradientTransform="matrix(2.01399 0 0 2.00375 97.512 32.7)"><stop stop-color="#711F56"/><stop offset=".161" stop-color="#6C1E52"/><stop offset=".363" stop-color="#5C1946"/><stop offset=".585" stop-color="#431233"/><stop offset=".821" stop-color="#200918"/><stop offset="1"/></radialGradient><radialGradient id="paint12_radial" cx="0" cy="0" r="1" gradientUnits="userSpaceOnUse" gradientTransform="matrix(14.4296 0 0 14.3563 58.206 41.904)"><stop stop-color="#fff"/><stop offset="1" stop-color="#fff"/></radialGradient><radialGradient id="paint14_radial" cx="0" cy="0" r="1" gradientUnits="userSpaceOnUse" gradientTransform="matrix(50.2715 0 0 50.0155 103.082 113.792)"><stop stop-color="#fff"/><stop offset="1"/></radialGradient><radialGradient id="paint15_radial" cx="0" cy="0" r="1" gradientUnits="userSpaceOnUse" gradientTransform="matrix(50.2719 0 0 50.0164 103.083 113.793)"><stop stop-color="#fff"/><stop offset="1" stop-color="#fff"/></radialGradient><radialGradient id="paint16_radial" cx="0" cy="0" r="1" gradientUnits="userSpaceOnUse" gradientTransform="matrix(50.2718 0 0 50.0166 103.084 113.793)"><stop stop-color="#fff"/><stop offset="1" stop-color="#fff"/></radialGradient><radialGradient id="paint17_radial" cx="0" cy="0" r="1" gradientUnits="userSpaceOnUse" gradientTransform="matrix(1.25165 0 0 1.24528 61.682 69.533)"><stop stop-color="#EEEBF2"/><stop offset=".581" stop-color="#D4D1D8"/><stop offset=".939" stop-color="#A5A6B9"/><stop offset="1" stop-color="#9D9EB3"/></radialGradient><radialGradient id="paint18_radial" cx="0" cy="0" r="1" gradientUnits="userSpaceOnUse" gradientTransform="matrix(1.20152 0 0 1.19541 61.633 69.42)"><stop stop-color="#fff"/><stop offset="1" stop-color="#fff"/></radialGradient><radialGradient id="paint21_radial" cx="0" cy="0" r="1" gradientUnits="userSpaceOnUse" gradientTransform="matrix(2.86556 0 0 2.85099 23.121 69.792)"><stop stop-color="#fff"/><stop offset="1"/></radialGradient><radialGradient id="paint26_radial" cx="0" cy="0" r="1" gradientUnits="userSpaceOnUse" gradientTransform="matrix(2.86556 0 0 2.85099 48.285 84.146)"><stop stop-color="#fff"/><stop offset="1"/></radialGradient><radialGradient id="paint29_radial" cx="0" cy="0" r="1" gradientUnits="userSpaceOnUse" gradientTransform="matrix(39.0968 0 0 38.8981 41.22 53.141)"><stop stop-color="#EEEBF2"/><stop offset=".581" stop-color="#D4D1D8"/><stop offset=".939" stop-color="#A5A6B9"/><stop offset="1" stop-color="#9D9EB3"/></radialGradient><radialGradient id="paint30_radial" cx="0" cy="0" r="1" gradientUnits="userSpaceOnUse" gradientTransform="matrix(18.4171 0 0 18.3235 35.251 67.888)"><stop stop-color="#fff"/><stop offset="1" stop-color="#fff"/></radialGradient><radialGradient id="paint39_radial" cx="0" cy="0" r="1" gradientUnits="userSpaceOnUse" gradientTransform="matrix(1.68086 0 0 1.67232 46.848 75.73)"><stop stop-color="#EEEBF2"/><stop offset=".581" stop-color="#D4D1D8"/><stop offset=".939" stop-color="#A5A6B9"/><stop offset="1" stop-color="#9D9EB3"/></radialGradient><radialGradient id="paint40_radial" cx="0" cy="0" r="1" gradientUnits="userSpaceOnUse" gradientTransform="matrix(1.94431 0 0 1.93444 46.491 74.343)"><stop stop-color="#fff"/><stop offset="1" stop-color="#fff"/></radialGradient><radialGradient id="paint52_radial" cx="0" cy="0" r="1" gradientUnits="userSpaceOnUse" gradientTransform="matrix(.6922 0 0 1.14761 53.186 83.749)"><stop stop-color="#FEECA8"/><stop offset="1" stop-color="#FFA98C"/></radialGradient><radialGradient id="paint53_radial" cx="0" cy="0" r="1" gradientUnits="userSpaceOnUse" gradientTransform="matrix(5.6874 0 0 5.65848 62.163 82.912)"><stop stop-color="#fff"/><stop offset="1"/></radialGradient><radialGradient id="paint55_radial" cx="0" cy="0" r="1" gradientUnits="userSpaceOnUse" gradientTransform="matrix(14.5171 0 0 14.4433 31.086 65.03)"><stop stop-color="#fff"/><stop offset="1" stop-color="#fff"/></radialGradient><radialGradient id="paint57_radial" cx="0" cy="0" r="1" gradientUnits="userSpaceOnUse" gradientTransform="matrix(1.16724 0 0 1.16132 44.087 75.303)"><stop stop-color="#EEEBF2"/><stop offset=".581" stop-color="#D4D1D8"/><stop offset=".939" stop-color="#A5A6B9"/><stop offset="1" stop-color="#9D9EB3"/></radialGradient><radialGradient id="paint59_radial" cx="0" cy="0" r="1" gradientUnits="userSpaceOnUse" gradientTransform="matrix(1.16724 0 0 1.16129 41.118 73.712)"><stop stop-color="#EEEBF2"/><stop offset=".581" stop-color="#D4D1D8"/><stop offset=".939" stop-color="#A5A6B9"/><stop offset="1" stop-color="#9D9EB3"/></radialGradient><radialGradient id="paint60_radial" cx="0" cy="0" r="1" gradientUnits="userSpaceOnUse" gradientTransform="matrix(4.62525 0 0 4.60175 39.352 67.786)"><stop stop-color="#fff"/><stop offset="1" stop-color="#fff"/></radialGradient><radialGradient id="paint109_radial" cx="0" cy="0" r="1" gradientUnits="userSpaceOnUse" gradientTransform="matrix(2.32543 0 0 2.31362 20.599 83.086)"><stop stop-color="#fff"/><stop offset="1"/></radialGradient></defs></svg>