<svg width="82" height="110" fill="none" xmlns="http://www.w3.org/2000/svg"><path d="M73.393 104.759L6.859 67.552C3.458 65.652.7 60.552.7 56.163V6.917C.7 2.527 3.458.51 6.86 2.411l66.533 37.206c3.401 1.9 6.159 7 6.159 11.39v49.245c0 4.39-2.758 6.407-6.16 4.507z" fill="url(#paint0_linear)"/><path d="M74.188 101.331L8.592 64.654c-2.738-1.684-4.43-5.048-4.43-8.49V6.593c0-.816.916-1.322 1.643-.91l.193.109 65.666 36.723c3.258 1.818 4.43 5.049 4.43 8.491v49.414c0 .874-.977 1.423-1.763.989l-.143-.079z" fill="url(#paint1_linear)"/><path d="M75.14 38.72L8.607 1.514C7.26.762 6.017.624 5.003 1.002c-.129.048-1.846.931-1.967.996l-.006.004c1.05-.493 2.38-.401 3.831.41l66.534 37.206c3.401 1.9 6.159 7 6.159 11.39v49.245c0 2.739-1.074 4.555-2.709 5.07.134.008.3-.043.54-.177.078-.043 1.942-1.061 2.016-1.112 1.17-.793 1.898-2.422 1.898-4.678V50.11c0-4.39-2.758-9.49-6.159-11.39z" fill="url(#paint2_linear)"/><path opacity=".6" d="M73.689 39.475L7.154 2.269c-1.395-.78-2.677-.891-3.71-.46.881-.134 1.894.072 2.97.674L72.95 39.69c3.402 1.9 6.16 7 6.16 11.39v49.245c0 2.59-.965 4.344-2.45 4.965 1.9-.291 3.188-2.18 3.188-5.179V50.864c0-4.39-2.757-9.488-6.158-11.39z" fill="url(#paint3_radial)"/><path d="M61.5 25.393L17.317.733c-.425-.238-.955.06-.955.533v76.815c0 .456.252.877.66 1.104l44.181 24.661c.425.237.955-.06.955-.534V26.497c0-.456-.252-.877-.66-1.104z" fill="url(#paint4_linear)"/><path d="M61.499 25.393L17.317.733a.646.646 0 00-.881.253.646.646 0 01.608.012l44.181 24.66c.408.228.66.649.66 1.104v76.815c0 .104-.03.198-.074.281.2-.1.347-.297.347-.546V26.498c0-.456-.251-.877-.66-1.105z" fill="url(#paint5_radial)"/><path d="M38.503 27.941l2.965 1.657V28.43l-2.965-1.656v1.167zm7.655 3.11l-3.828-2.139v1.168l3.828 2.138v-1.167zm-1.779 5.562l6.74 3.766v-1.167l-6.74-3.766v1.167zm1.564-2.988v1.167l3.666 2.049v-1.167l-3.666-2.05zm7.973 4.455l-3.444-1.925v1.168l3.444 1.924V38.08zm-26.142-6.524l-4.994-2.79v1.167l4.994 2.79v-1.167zm-2.642-6.865l-2.352-1.314v1.167l2.352 1.314v-1.167zm.916 3.206l-3.268-1.826v1.167l3.268 1.827v-1.168zm-2.21-6.623l-1.058-.591v1.167l1.058.591v-1.167zm.97-2.152l-2.028-1.134v1.167l2.028 1.134v-1.167zM48.66 32.448l-1.638-.915v1.168l1.638.915v-1.168zm-20.023-10.02l2.804 1.566v-1.167l-2.804-1.567v1.168zm2.75 4.23l1.294.724v-1.168l-1.294-.723v1.168zm.917-2.181l5.337 2.982v-1.167l-5.337-2.983v1.168zm-3.505 2.262l-2.803-1.566v1.167l2.803 1.567v-1.168zm4.744 1.124l4.475 2.5v-1.166l-4.475-2.5v1.166zm-2.803 5.35l-2.103-1.175v1.167l2.103 1.175v-1.167zm1.995-1.58L26.91 28.38v1.167l5.823 3.253v-1.167zm2.534 5.278l5.337 2.983v-1.168l-5.337-2.983v1.168zm12.643 4.37l4.718 2.636V42.75l-4.718-2.636v1.168zm.512 2.98l4.96 2.772v-1.167l-4.96-2.772v1.167zm-13.37-12.86l3.773 2.11v-1.168l-3.774-2.109v1.167zm6.038 6.069l3.666 2.049V38.35l-3.666-2.048v1.167zm-5.338-2.982l4.475 2.5v-1.167l-4.475-2.5v1.167zm3.127-3.642l3.666 2.048v-1.167L38.88 29.68v1.167zm2.588 8.362v1.167l1.401.783v-1.167l-1.401-.783zM25.67 19.603v1.168l2.103 1.175v-1.168l-2.103-1.175zm8.519 10.15l-4.53-2.531v1.167l4.53 2.53v-1.167zm9.543 11.887l3.827 2.14v-1.17l-3.828-2.138v1.167zm1.347-8.497l-1.67-.934v1.168l1.67.933v-1.167zm.54 5.69V40l1.428.799V39.63l-1.428-.798zm-10.73-5.995l-1.294-.723v1.167l1.295.723v-1.167zm4.799 1.154l3.828 2.14v-1.168l-3.828-2.14v1.168zm14.907 4.468v1.168l1.132.633v-1.168l-1.132-.633zm-2.534 2.446l3.666 2.049v-1.168l-3.666-2.048v1.167zm2.184 6.609l1.482.828v-1.167l-1.482-.829v1.168zm1.428-3.064l-2.183-1.22v1.167l2.183 1.22v-1.167zm-.026-8.098l-6.281-3.51v1.168l6.28 3.51v-1.168zM24.7 22.923l5.823 3.254v-1.168L24.7 21.756v1.167zm6.902 11.94l2.803 1.566V35.26l-2.803-1.566v1.167zm16.309 24.38l4.718 2.636v-1.167l-4.718-2.636v1.167zm-.35 1.331l-3.828-2.139v1.168l3.827 2.139v-1.168zM41.143 42.89l3.667 2.048V43.77l-3.667-2.049v1.168zm-8.841 2.255l5.337 2.983V46.96l-5.337-2.982v1.167zm13.64 10.316l3.666 2.049v-1.17l-3.666-2.048v1.167zm-3.612-4.712l3.827 2.139V51.72l-3.828-2.14v1.169zm-7.279-8.609l3.774 2.109V43.08l-3.774-2.11v1.168zm.7 10.311l4.476 2.5v-1.167l-4.475-2.5v1.167zm2.75-3.841l2.966 1.657v-1.168l-2.965-1.657v1.168zm-.485 1.255l-4.474-2.5v1.167l4.474 2.5v-1.167zm5.392 4.18l1.671.934v-1.167l-1.67-.934v1.167zm2.21 3.919l1.43.798v-1.167l-1.43-.799v1.168zM26.966 34.966l5.823 3.253v-1.167l-5.823-3.254v1.168zm25.717 13.202l-4.474-2.5v1.167l4.474 2.5v-1.167zM42.87 59.121v-1.167l-1.402-.784v1.168l1.402.783zm-10.19-12.24l-1.294-.722v1.167l1.294.723v-1.167zm2.264-8.624l-1.294-.723v1.168l1.294.723v-1.168zm12.077 15.111l1.638.915v-1.167l-1.638-.915v1.167zM31.44 43.494l-2.804-1.566v1.167l2.804 1.567v-1.168zm8.842-2.255l-4.475-2.5v1.167l4.475 2.5V41.24zm.323 15.45l-5.337-2.983v1.167l5.337 2.983v-1.168zm1.941-4.294l-3.666-2.049v1.168l3.666 2.048v-1.167zm2.21 3.918l-3.665-2.049v1.168l3.666 2.048v-1.167zM34.892 50.8l-1.294-.722v1.167l1.294.723V50.8zm-5.23-11.673l4.529 2.53V40.49l-4.53-2.53v1.167zm1.94 13.698l2.804 1.566v-1.167l-2.803-1.567v1.168zm15.743-7.64l-1.67-.933v1.167l1.67.934v-1.167zM24.808 39.79l-2.028-1.133v1.167l2.028 1.134V39.79zm.324-4.36l-2.352-1.314v1.167l2.352 1.314V35.43zm-1.294 6.512l-1.058-.59v1.167l1.058.591v-1.168zm1.833-.502l2.103 1.175v-1.168l-2.103-1.175v1.168zm.377 4.42l-3.268-1.826v1.168l3.268 1.826V45.86zm27.443 16.502l2.183 1.22v-1.167l-2.183-1.22v1.167zm-3.02-4.37l3.445 1.924v-1.167l-3.444-1.925v1.167zm5.177-.97l-6.281-3.51v1.168l6.28 3.51v-1.17zM26.102 33.316L22.78 31.46v1.167l3.322 1.857v-1.168zm28.494 26.98l1.132.632v-1.167l-1.132-.633v1.167zM28.798 37.477l-2.803-1.566v1.167l2.803 1.567v-1.168zm24.747 12.34l2.183 1.221v-1.167l-2.183-1.22v1.167zm-22.806 1.358L28.636 50v1.167l2.103 1.175v-1.167zM24.7 43.591l5.823 3.253v-1.167L24.7 42.424v1.167zm8.034 6.004l-5.823-3.253v1.167l5.823 3.254v-1.168zm-4.96-.077l-4.994-2.79v1.168l4.994 2.79v-1.168zm-3.936 7.74l-1.058-.59v1.166l1.058.591v-1.167zm7.764 13.589l2.803 1.567v-1.168l-2.803-1.567v1.168zm-8.822-4.93l4.994 2.791V67.54l-4.994-2.79v1.168zm3.268-2.035l-3.268-1.826v1.167l3.268 1.826v-1.167zm7.549 5.385l1.294.723v-1.168l-1.294-.723v1.168zm-8.465-8.591L22.78 59.36v1.168l2.352 1.314v-1.167zm3.504 8.514l2.103 1.175v-1.167l-2.103-1.175v1.167zm24.855 11.193l2.183 1.22v-1.167l-2.183-1.22v1.167zM22.71 73.5l4.42 2.482v-1.168l-4.42-2.481V73.5zm31.886 2.112l1.132.633v-1.168l-1.132-.633v1.168zm-6.685 1.653l4.718 2.636v-1.168l-4.718-2.635v1.167zm-.863-.481v-1.168l-1.428-.798v1.168l1.428.797zm6.497-7.148l2.183 1.22v-1.168l-2.183-1.22v1.168zm-2.426 5.56l-6.74-3.766v1.168l6.74 3.766v-1.168zm-7.386 2.43l3.827 2.138v-1.168l-3.828-2.139v1.168zM31.44 58.811l-2.804-1.567v1.167l2.804 1.567v-1.167zM41.468 76.36l1.401.783v-1.167l-1.401-.784v1.168zM37.64 62.276l-5.337-2.983v1.168l5.337 2.982v-1.167zm-2.372 10.62l5.337 2.982V74.71l-5.337-2.982v1.167zm9.489 1.44l-3.666-2.05v1.169l3.666 2.048v-1.167zm-5.931-6.009l-3.774-2.108v1.167l3.774 2.109v-1.168zM32.68 62.2l-1.294-.723v1.167l1.294.723V62.2zm19.382 14.69l3.666 2.048v-1.167l-3.666-2.049v1.168zM41.468 64.415l-2.965-1.657v1.167l2.965 1.657v-1.167zm-1.186-3.357l-4.475-2.5v1.167l4.475 2.5v-1.167zm-2.264 4.123l-4.475-2.5v1.167l4.474 2.5v-1.167zm9.003 3.505l1.638.915v-1.168l-1.638-.915v1.168zm-12.831-2.95l-4.53-2.53v1.168l4.53 2.53v-1.167zm18.492 2.25l-4.474-2.5v1.167l4.474 2.5v-1.167zm-27.01-11.23l2.102 1.175v-1.168l-2.103-1.175v1.168zm7.062 10.861l-5.823-3.253v1.167l5.823 3.254v-1.168zm-5.769-12.833l5.823 3.254V56.87l-5.823-3.254v1.167zM49.61 71.658l-3.666-2.049v1.168l3.666 2.049v-1.168zM24.7 58.908l5.823 3.253v-1.167L24.7 57.74v1.168zm4.098 3.816l-2.803-1.567v1.168l2.803 1.566v-1.167zm-3.99-7.618l-2.028-1.134v1.168l2.028 1.133v-1.167zm29.108 18.958l-3.444-1.924v1.167l3.444 1.925v-1.168zm1.732-1.726l-6.281-3.51v1.167l6.28 3.51v-1.167zM34.944 58.075l-1.294-.723v1.168l1.294.722v-1.167zm-8.842-4.94l-3.322-1.857v1.168l3.322 1.856v-1.167zm20.056 13.9l-3.828-2.138v1.167l3.828 2.139v-1.168zm1.186-.863v-1.168l-1.67-.934v1.168l1.67.934zm-2.264 2.956l-1.67-.934v1.167l1.67.934v-1.167zm-.27-5.54l-3.666-2.048v1.167l3.667 2.049v-1.168zm-2.264 4.124l-3.666-2.049v1.168l3.666 2.048v-1.167zm.97 3.236L39.69 68.81v1.168l3.828 2.139v-1.168zm-7.763-.476l4.475 2.5v-1.167l-4.475-2.5v1.167z" fill="#B9AFBF"/><path d="M37.502 78.231a2.78 2.78 0 00-.95-1.389l-.194.306c.417.356.678.795.787 1.178.199.696.087 1.416-.071 2.125a2.303 2.303 0 01-.292-1.338.71.71 0 00.082-.484.183.183 0 00-.173-.147c-.103-.01-.163.05-.187.13a2.458 2.458 0 00-.081.387c-.137.207-.42.406-.698.6-.092.065-.184.13-.269.193-.388.29-.696.645-.918 1.044-.15-.179-.3-.35-.445-.513-.303-.34-.616-.678-.93-1.016-.654-.706-1.32-1.424-1.895-2.17a11.7 11.7 0 00-.256-1.155c-.082-.303-.333-1.224-1.273-1.442a.191.191 0 00-.179.052.174.174 0 00-.04.176c.289.889.792 1.718 1.396 2.511.133.861.12 1.612-.037 2.308a4.652 4.652 0 01-.99 1.982l.203.33c.565-.638.96-1.4 1.149-2.236a6.02 6.02 0 00.113-1.834 41.414 41.414 0 001.535 1.718c.312.336.624.672.925 1.01.18.2.366.415.553.642a3.464 3.464 0 00-.215 1.692c.125 1.092.665 2.113 1.188 3.1.255.484.624.751 1.025.751a.93.93 0 00.123-.008.182.182 0 00.154-.135c.503-1.999-.65-3.959-1.849-5.453.201-.415.501-.78.89-1.07.083-.063.171-.124.26-.187.158-.11.323-.226.47-.35.045.517.247 1.028.597 1.475a.19.19 0 00.186.068.183.183 0 00.142-.135c.2-.843.426-1.797.164-2.716zm-7.494-3.196c.298.188.506.527.646 1.037.03.11.057.218.083.324a7.784 7.784 0 01-.729-1.361zm6.305 11.346c-.32-.031-.537-.35-.645-.553-.507-.959-1.032-1.95-1.15-2.977a3.15 3.15 0 01.119-1.314c1.069 1.372 2.044 3.106 1.676 4.844z" fill="#45108A"/><path opacity=".8" d="M29.115 78.422l-6.334-3.51v1.167l6.334 3.51v-1.167z" fill="url(#paint6_linear)"/><path opacity=".8" d="M49.189 25.468L31.674 15.61v1.493l17.515 9.857v-1.492z" fill="url(#paint7_linear)"/><path opacity=".8" d="M45.599 26.263l-10.333-5.886v1.493l10.333 5.885v-1.492z" fill="url(#paint8_linear)"/><path d="M53.337 88.378c-3.197-1.75-6.323-4.736-8.942-8.54l-.035-.02c-2.62.877-5.745.37-8.942-1.453l-.122-.07.173 5.782c.606 8.96 3.764 12.86 8.847 21.192l.123.069c5.083-2.651 8.241-3.022 8.848-11.305l.172-5.588-.122-.067z" fill="url(#paint9_linear)"/><path d="M54.412 87.476c-3.197-1.75-6.323-4.736-8.942-8.54l-.035-.02c-2.62.877-5.745.37-8.942-1.453l-.122-.069-1.04.921.087.05c3.197 1.822 6.322 2.33 8.941 1.452l.036.02c2.62 3.805 5.745 6.79 8.941 8.54l.123.068-.173 5.587c-.396 5.406-1.88 7.442-4.275 8.941 2.993-1.711 4.905-3.766 5.35-9.842l.173-5.588-.122-.067z" fill="url(#paint10_linear)"/><path d="M54.535 87.543l-.123-.067c-3.197-1.75-6.322-4.736-8.941-8.54l-.036-.02-1.075.901.036.02c2.62 3.804 5.745 6.79 8.941 8.54l.123.067 1.075-.901z" fill="url(#paint11_linear)"/><path d="M53.458 88.444l-.172 5.588c-.397 5.406-1.88 7.442-4.275 8.941 2.992-1.711 4.904-3.766 5.35-9.843l.172-5.587-1.075.901z" fill="url(#paint12_linear)"/><path d="M43.745 101.476c-3.946-6.334-5.93-9.52-6.41-16.472l-.108-3.65c2.533 1.11 4.961 1.462 7.15 1.04 2.187 2.867 4.615 5.227 7.149 6.95l-.11 3.528c-.478 6.417-2.463 7.386-6.409 9.311l-.63.309-.632-1.016z" fill="url(#paint13_linear)"/><path d="M40.1 90.118l3.6 8.366 5.728-8.383-2.785-2.281-3.013 6.37-1.292-3.65-2.237-.422z" fill="url(#paint14_linear)"/><path d="M37.28 91.44l1.58-.743.9 2.678 2.022.299.082 2.438 2.154 1.294-.748 1.827 1.958 2.094-1.465.937 1.465 2.574-1.959-.095.749 2.664-2.154-1.113-.082 2.346-2.021-1.961-.9 1.673-1.581-2.511-1.581.744-.9-2.678-2.022-.298-.082-2.438-2.154-1.295.748-1.827-1.958-2.094 1.465-.937-1.465-2.574 1.959.095-.75-2.663 2.155 1.112.082-2.346 2.022 1.96.9-1.672 1.58 2.51z" fill="url(#paint15_linear)"/><path d="M42.786 108.366l1.23-.96-.748-2.663-1.23.96.748 2.663z" fill="url(#paint16_linear)"/><path d="M45.225 104.839l-1.232.96-1.465-2.575 1.232-.96 1.465 2.575z" fill="url(#paint17_linear)"/><path d="M45.227 101.326l-1.231.96-1.959-2.094 1.231-.96 1.96 2.094z" fill="url(#paint18_linear)"/><path d="M42.786 98.366l1.23-.96-2.153-1.294-1.231.96 2.154 1.294z" fill="url(#paint19_linear)"/><path d="M40.548 94.633l1.23-.96-2.02-.298-1.232.96 2.022.298z" fill="url(#paint20_linear)"/><path d="M38.86 90.697l-1.232.96-1.581.743 1.231-.96 1.581-.743z" fill="url(#paint21_linear)"/><path d="M34.467 89.89l1.231-.96 1.58 2.511-1.23.96-1.581-2.51z" fill="url(#paint22_linear)"/><path d="M32.775 88.642l-1.231.96 2.022 1.96 1.23-.96-2.02-1.96z" fill="url(#paint23_linear)"/><path d="M30.539 89.876l-1.231.96 2.154 1.112 1.231-.96-2.154-1.112z" fill="url(#paint24_linear)"/><path d="M29.329 92.444l-1.231.96 1.958.095 1.231-.96-1.958-.095z" fill="url(#paint25_linear)"/><path d="M29.329 95.956l-1.231.96 1.465-.938-.234-.022z" fill="url(#paint26_linear)"/><path d="M40.548 109.6l1.231-.96.082-2.346-1.231.96-.082 2.346z" fill="url(#paint27_linear)"/><path d="M38.86 108.352l-1.232.96.9-1.673.882-.444-.55 1.157z" fill="url(#paint28_linear)"/><path d="M36.046 92.4l1.581-.743.9 2.678 2.022.298.082 2.438 2.154 1.295-.749 1.826 1.959 2.094-1.465.938 1.465 2.574-1.959-.095.749 2.663-2.154-1.112-.082 2.346-2.022-1.961-.9 1.672-1.58-2.51-1.582.744-.9-2.679-2.021-.298-.082-2.438-2.154-1.294.748-1.827-1.958-2.094 1.465-.937-1.465-2.574 1.958.095-.748-2.664 2.154 1.113.082-2.347 2.021 1.961.9-1.672 1.581 2.51z" fill="url(#paint29_linear)"/><path d="M42.138 103.007c0 3.692-2.695 5.179-6.02 3.321-3.324-1.858-6.02-6.356-6.02-10.048s2.696-5.18 6.02-3.322c3.325 1.858 6.02 6.356 6.02 10.049z" fill="url(#paint30_linear)"/><path opacity=".2" d="M36.255 106.096c-3.325-1.858-6.02-6.356-6.02-10.048 0-1.043.221-1.903.605-2.568-.472.69-.741 1.634-.741 2.8 0 3.692 2.694 8.191 6.02 10.048 2.385 1.332 4.44.936 5.414-.754-1.024 1.497-3.003 1.793-5.278.522z" fill="url(#paint31_linear)"/><path d="M39.521 97.296a2.778 2.778 0 00-.95-1.388l-.194.305c.417.356.678.796.787 1.178.199.696.087 1.416-.071 2.125a2.302 2.302 0 01-.292-1.338.71.71 0 00.082-.484.183.183 0 00-.173-.146c-.103-.01-.163.05-.187.13a2.48 2.48 0 00-.081.386c-.137.207-.42.406-.698.6-.092.066-.184.13-.269.194a3.31 3.31 0 00-.918 1.043c-.15-.179-.3-.35-.445-.513-.303-.34-.616-.677-.93-1.015-.654-.707-1.321-1.425-1.896-2.172-.06-.365-.146-.749-.256-1.154-.082-.303-.332-1.224-1.273-1.442a.191.191 0 00-.178.052.175.175 0 00-.04.176c.288.889.792 1.718 1.396 2.511.133.861.12 1.612-.037 2.309a4.654 4.654 0 01-.99 1.981l.202.33a5.02 5.02 0 001.15-2.236c.128-.57.166-1.173.113-1.834a42.042 42.042 0 001.535 1.718c.312.336.623.672.924 1.01.18.2.366.416.553.642a3.467 3.467 0 00-.214 1.692c.124 1.092.665 2.114 1.188 3.101.255.483.623.75 1.024.75a.853.853 0 00.123-.008.183.183 0 00.154-.135c.504-1.998-.65-3.959-1.848-5.453.2-.415.5-.78.89-1.07.083-.063.17-.124.26-.187.158-.11.322-.226.47-.35.044.517.247 1.028.596 1.476.044.055.115.08.187.067a.182.182 0 00.141-.135c.2-.842.427-1.797.165-2.716zM32.027 94.1c.298.189.506.527.645 1.037.03.11.058.218.084.324a7.79 7.79 0 01-.729-1.361zm6.304 11.346c-.32-.031-.537-.35-.644-.553-.508-.958-1.033-1.95-1.15-2.977a3.163 3.163 0 01.118-1.314c1.07 1.372 2.044 3.106 1.676 4.844z" fill="#fff"/><defs><linearGradient id="paint0_linear" x1="78.661" y1="105.191" x2="-.165" y2="-7.514" gradientUnits="userSpaceOnUse"><stop stop-color="#311B61"/><stop offset=".203" stop-color="#290F52"/><stop offset=".495" stop-color="#200041"/><stop offset="1" stop-color="#0F001F"/></linearGradient><linearGradient id="paint1_linear" x1="7.468" y1="5.918" x2="74.374" y2="109.873" gradientUnits="userSpaceOnUse"><stop offset=".01" stop-color="#9F19AB"/><stop offset=".429" stop-color="#5F27BD"/><stop offset=".904" stop-color="#3D065F"/></linearGradient><linearGradient id="paint2_linear" x1="96.156" y1="107.586" x2="34.358" y2="5.556" gradientUnits="userSpaceOnUse"><stop offset=".056" stop-color="#200041"/><stop offset=".258" stop-color="#210243"/><stop offset=".357" stop-color="#25084B"/><stop offset=".434" stop-color="#2C1358"/><stop offset=".47" stop-color="#311B61"/><stop offset=".482" stop-color="#351F65"/><stop offset=".495" stop-color="#422C73"/><stop offset=".509" stop-color="#584188"/><stop offset=".523" stop-color="#765FA7"/><stop offset=".53" stop-color="#8770B8"/><stop offset=".537" stop-color="#7E67AE"/><stop offset=".562" stop-color="#5C468D"/><stop offset=".586" stop-color="#442E75"/><stop offset=".608" stop-color="#362066"/><stop offset=".626" stop-color="#311B61"/><stop offset=".672" stop-color="#2A1155"/><stop offset=".749" stop-color="#230446"/><stop offset=".813" stop-color="#200041"/><stop offset="1" stop-color="#200041"/></linearGradient><linearGradient id="paint4_linear" x1="-48.918" y1="71.42" x2="130.771" y2="29.799" gradientUnits="userSpaceOnUse"><stop offset=".051" stop-color="#D9D9D9"/><stop offset=".51" stop-color="#E7E3EC"/><stop offset="1" stop-color="#fff"/></linearGradient><linearGradient id="paint6_linear" x1="54.226" y1="111.147" x2="-30.701" y2="2.459" gradientUnits="userSpaceOnUse"><stop offset=".096" stop-color="#45108A"/><stop offset="1" stop-color="#7C1DC9"/></linearGradient><linearGradient id="paint7_linear" x1="113.973" y1="109.439" x2="-106.894" y2="-173.221" gradientUnits="userSpaceOnUse"><stop offset=".096" stop-color="#45108A"/><stop offset="1" stop-color="#7C1DC9"/></linearGradient><linearGradient id="paint8_linear" x1="85.822" y1="78.474" x2="-50.496" y2="-95.983" gradientUnits="userSpaceOnUse"><stop offset=".096" stop-color="#45108A"/><stop offset="1" stop-color="#7C1DC9"/></linearGradient><linearGradient id="paint9_linear" x1="33.733" y1="95.074" x2="66.37" y2="76.81" gradientUnits="userSpaceOnUse"><stop offset=".035" stop-color="#FFA98C"/><stop offset=".352" stop-color="#FFC698"/><stop offset=".72" stop-color="#FEE2A4"/><stop offset=".934" stop-color="#FEECA8"/></linearGradient><linearGradient id="paint10_linear" x1="27.44" y1="87.586" x2="46.436" y2="91.029" gradientUnits="userSpaceOnUse"><stop offset=".035" stop-color="#FFA98C"/><stop offset=".352" stop-color="#FFC698"/><stop offset=".72" stop-color="#FEE2A4"/><stop offset=".934" stop-color="#FEECA8"/></linearGradient><linearGradient id="paint11_linear" x1="40.809" y1="75.613" x2="58.269" y2="93.935" gradientUnits="userSpaceOnUse"><stop offset=".035" stop-color="#FFA98C"/><stop offset=".352" stop-color="#FFC698"/><stop offset=".72" stop-color="#FEE2A4"/><stop offset=".934" stop-color="#FEECA8"/></linearGradient><linearGradient id="paint12_linear" x1="50.693" y1="94.664" x2="66.237" y2="103.788" gradientUnits="userSpaceOnUse"><stop offset=".035" stop-color="#FFA98C"/><stop offset=".352" stop-color="#FFC698"/><stop offset=".72" stop-color="#FEE2A4"/><stop offset=".934" stop-color="#FEECA8"/></linearGradient><linearGradient id="paint13_linear" x1="49.675" y1="99.719" x2="40.284" y2="80.512" gradientUnits="userSpaceOnUse"><stop stop-color="#2A0C5C"/><stop offset=".687" stop-color="#5F27BD"/><stop offset="1" stop-color="#B4299A"/></linearGradient><linearGradient id="paint14_linear" x1="40.101" y1="93.152" x2="49.428" y2="93.152" gradientUnits="userSpaceOnUse"><stop offset=".035" stop-color="#FFA98C"/><stop offset=".352" stop-color="#FFC698"/><stop offset=".72" stop-color="#FEE2A4"/><stop offset=".934" stop-color="#FEECA8"/></linearGradient><linearGradient id="paint15_linear" x1="39.212" y1="96.156" x2="29.147" y2="109.977" gradientUnits="userSpaceOnUse"><stop offset=".035" stop-color="#9F19AB"/><stop offset=".244" stop-color="#AE25B1"/><stop offset=".645" stop-color="#D744BF"/><stop offset="1" stop-color="#FF63CE"/></linearGradient><linearGradient id="paint16_linear" x1="44.586" y1="107.652" x2="41.737" y2="105.511" gradientUnits="userSpaceOnUse"><stop offset=".035" stop-color="#9F19AB"/><stop offset=".244" stop-color="#AE25B1"/><stop offset=".645" stop-color="#D744BF"/><stop offset="1" stop-color="#FF63CE"/></linearGradient><linearGradient id="paint17_linear" x1="45.746" y1="105.347" x2="42.329" y2="102.779" gradientUnits="userSpaceOnUse"><stop offset=".035" stop-color="#9F19AB"/><stop offset=".244" stop-color="#AE25B1"/><stop offset=".645" stop-color="#D744BF"/><stop offset="1" stop-color="#FF63CE"/></linearGradient><linearGradient id="paint18_linear" x1="45.565" y1="102.12" x2="42.033" y2="99.465" gradientUnits="userSpaceOnUse"><stop offset=".035" stop-color="#9F19AB"/><stop offset=".244" stop-color="#AE25B1"/><stop offset=".645" stop-color="#D744BF"/><stop offset="1" stop-color="#FF63CE"/></linearGradient><linearGradient id="paint19_linear" x1="44.063" y1="98.463" x2="40.885" y2="96.074" gradientUnits="userSpaceOnUse"><stop offset=".035" stop-color="#9F19AB"/><stop offset=".244" stop-color="#AE25B1"/><stop offset=".645" stop-color="#D744BF"/><stop offset="1" stop-color="#FF63CE"/></linearGradient><linearGradient id="paint20_linear" x1="41.47" y1="94.932" x2="39.062" y2="93.122" gradientUnits="userSpaceOnUse"><stop offset=".035" stop-color="#9F19AB"/><stop offset=".244" stop-color="#AE25B1"/><stop offset=".645" stop-color="#D744BF"/><stop offset="1" stop-color="#FF63CE"/></linearGradient><linearGradient id="paint21_linear" x1="38.186" y1="92.065" x2="36.847" y2="91.058" gradientUnits="userSpaceOnUse"><stop offset=".035" stop-color="#9F19AB"/><stop offset=".244" stop-color="#AE25B1"/><stop offset=".645" stop-color="#D744BF"/><stop offset="1" stop-color="#FF63CE"/></linearGradient><linearGradient id="paint22_linear" x1="37.775" y1="92.005" x2="34.299" y2="89.392" gradientUnits="userSpaceOnUse"><stop offset=".035" stop-color="#9F19AB"/><stop offset=".244" stop-color="#AE25B1"/><stop offset=".645" stop-color="#D744BF"/><stop offset="1" stop-color="#FF63CE"/></linearGradient><linearGradient id="paint23_linear" x1="35.086" y1="91.45" x2="31.586" y2="88.82" gradientUnits="userSpaceOnUse"><stop offset=".035" stop-color="#9F19AB"/><stop offset=".244" stop-color="#AE25B1"/><stop offset=".645" stop-color="#D744BF"/><stop offset="1" stop-color="#FF63CE"/></linearGradient><linearGradient id="paint24_linear" x1="32.674" y1="92.09" x2="29.615" y2="89.791" gradientUnits="userSpaceOnUse"><stop offset=".035" stop-color="#9F19AB"/><stop offset=".244" stop-color="#AE25B1"/><stop offset=".645" stop-color="#D744BF"/><stop offset="1" stop-color="#FF63CE"/></linearGradient><linearGradient id="paint25_linear" x1="30.907" y1="93.826" x2="28.688" y2="92.158" gradientUnits="userSpaceOnUse"><stop offset=".035" stop-color="#9F19AB"/><stop offset=".244" stop-color="#AE25B1"/><stop offset=".645" stop-color="#D744BF"/><stop offset="1" stop-color="#FF63CE"/></linearGradient><linearGradient id="paint26_linear" x1="29.194" y1="96.703" x2="28.529" y2="96.203" gradientUnits="userSpaceOnUse"><stop offset=".035" stop-color="#9F19AB"/><stop offset=".244" stop-color="#AE25B1"/><stop offset=".645" stop-color="#D744BF"/><stop offset="1" stop-color="#FF63CE"/></linearGradient><linearGradient id="paint27_linear" x1="42.252" y1="108.684" x2="40.337" y2="107.245" gradientUnits="userSpaceOnUse"><stop offset=".035" stop-color="#9F19AB"/><stop offset=".244" stop-color="#AE25B1"/><stop offset=".645" stop-color="#D744BF"/><stop offset="1" stop-color="#FF63CE"/></linearGradient><linearGradient id="paint28_linear" x1="38.921" y1="108.536" x2="38.164" y2="107.967" gradientUnits="userSpaceOnUse"><stop offset=".035" stop-color="#9F19AB"/><stop offset=".244" stop-color="#AE25B1"/><stop offset=".645" stop-color="#D744BF"/><stop offset="1" stop-color="#FF63CE"/></linearGradient><linearGradient id="paint29_linear" x1="48.792" y1="108.574" x2="25.499" y2="91.067" gradientUnits="userSpaceOnUse"><stop offset=".035" stop-color="#9F19AB"/><stop offset=".244" stop-color="#AE25B1"/><stop offset=".645" stop-color="#D744BF"/><stop offset="1" stop-color="#FF63CE"/></linearGradient><linearGradient id="paint30_linear" x1="33.357" y1="104.249" x2="40.997" y2="90.641" gradientUnits="userSpaceOnUse"><stop offset=".035" stop-color="#9F19AB"/><stop offset=".244" stop-color="#AE25B1"/><stop offset=".645" stop-color="#D744BF"/><stop offset="1" stop-color="#FF63CE"/></linearGradient><linearGradient id="paint31_linear" x1="33.292" y1="104.35" x2="38.94" y2="94.29" gradientUnits="userSpaceOnUse"><stop offset=".035" stop-color="#9F19AB"/><stop offset=".244" stop-color="#AE25B1"/><stop offset=".645" stop-color="#D744BF"/><stop offset="1" stop-color="#FF63CE"/></linearGradient><radialGradient id="paint3_radial" cx="0" cy="0" r="1" gradientUnits="userSpaceOnUse" gradientTransform="matrix(11.0303 0 0 10.6752 77.77 50.519)"><stop stop-color="#AF8AFC"/><stop offset="1" stop-color="#10054D"/></radialGradient><radialGradient id="paint5_radial" cx="0" cy="0" r="1" gradientUnits="userSpaceOnUse" gradientTransform="matrix(41.0229 0 0 39.7021 48.736 15.712)"><stop stop-color="#fff"/><stop offset=".277" stop-color="#C2C1C1"/><stop offset="1"/></radialGradient></defs></svg>