<svg width="82" height="99" fill="none" xmlns="http://www.w3.org/2000/svg"><path d="M24.971 68.164c1.161.473 2.772.439 3.858-.068h.005l.013.009c1.061-.615 2.328-.716 2.998.264l5.963 8.441c.517.75 1.479.668 2.284.2v.943c-.81.47-1.749.652-2.449.242-.462-.263.016.28-6.512-8.947-.527-.752-1.478-.665-2.284-.2-.906.518-2.242.61-3.3.309a3.101 3.101 0 00-.608-.706v-.469c.01-.004.023-.013.032-.018z" fill="#5B869C"/><path d="M65.836 32.104v8.378l-.1.054c-8.142-4.676-7.665-4.422-11.286-6.48v-8.464c12.716 7.306 10.08 5.762 11.386 6.512z" fill="#9A8DC3"/><path d="M66.203 13.795v9.566l-12.416-7.135V6.66l12.416 7.135z" fill="#EC624D"/><path d="M54.447 25.593l-1.446-.829v-6.993l11.519 6.616v6.961c-10.846-6.227-10.073-5.81-10.073-5.755z" fill="#FBB819"/><path d="M53.004 16.017l.782-.446v.656l12.416 7.135 10.558-6.065v-2.618l2.334 1.339c.809.47.877 1.242 0 1.753l-11.523 6.615c-.847.488-2.206.488-3.048 0l-11.519-6.615c-.882-.509-.802-1.291 0-1.754z" fill="#FED37B"/><path d="M53.004 17.77v6.994c-.467-.269-.632-.61-.632-.88V16.9c0 .31.197.62.632.87z" fill="#FBB819"/><path d="M12.977 36.247c-2.462-1.407-4.915-2.818-7.377-4.23-.192-.114-.37-.378-.37-.824 0-.492.206-.975.475-1.398.21-.337.463-.633.833-.819.275-.141.618-.214.87-.073 2.448 1.407 4.896 2.818 7.345 4.225l-.005.01a1.14 1.14 0 00-.132-.037c-.757-.122-1.94 1.137-1.94 2.368 0 .373.114.632.301.778z" fill="#6D8192"/><path d="M42.742 78.537v.942l-2.65-1.525v-.943l2.65 1.526z" fill="#5B869C"/><path d="M37.627 50.411v4.298c-.055 0 .48.255-5.405-3.105V51.6c-.448-.254-.897-.514-1.345-.769v-2.45c.37-.61.755-1.179 1.149-1.716.636.364 1.272.729 1.903 1.093h.005c.018.4.183.637.366.742l3.327 1.912z" fill="#EB599B"/><path d="M54.097 70.487c-1.65.947-4.32.956-6.05-.027-9.918-5.7-9.274-5.31-9.62-5.573a2.167 2.167 0 01-.713-.98c-.577.285 2.253-1.281-6.654 3.82.292.176.528.264.787.643 6.54 9.259 6.028 8.62 6.38 8.828.535.306 1.24.178 1.866-.186l2.65 1.525 11.633-6.68a14.01 14.01 0 01.151-1.616l-.43.246z" fill="#A1B5C2"/><path d="M65.736 40.536l-13.666 7.85c-.545.313-1.442.29-1.995-.028l-9.144-5.25c-.558-.323-.59-.837-.045-1.147 13.77-7.913 13.61-7.85 13.664-7.85l11.186 6.425z" fill="#EE76AB"/><path d="M39.451 41.82c8.469-4.872 3.94-2.26 14.997-8.615v.852l.096.054-13.66 7.85c-.545.31-.513.824.045 1.147l9.144 5.25c.554.319 1.45.342 1.996.027l13.665-7.85.1.06 8.746-5.027c1.08.674 1.932 2.18 1.932 3.438L54.096 51.882c-1.688.97-4.397.92-6.05-.027L38.903 46.6c-.669-.383-1.277-.993-1.277-1.763 0-1.201.654-2.349 1.825-3.018z" fill="#EB599B"/><path d="M38.903 46.6l9.144 5.255c1.652.947 4.361.997 6.05.027v10.226c-.307.52-.595 1.043-.86 1.567h.004c.054.027.801.464.856.496v6.315c-1.65.947-4.32.956-6.05-.028-9.918-5.699-9.274-5.31-9.62-5.573-.515-.397-.8-.996-.8-1.443V50.41l4.118 2.363.005-.01c.222.148.484.114.727.005 1.087-.453 1.993-2.497 1.076-3.105h-.005c-1.977-1.138-3.95-2.267-5.922-3.401v-1.426c0 .771.609 1.381 1.277 1.763z" fill="#EB599B"/><path d="M36.597 54.118c-1.263 2.746-1.908 5.332-1.776 8.332.046.975.247 1.895.604 2.769-.398.232-.796.46-1.194.687-.065-.04-.133-.077-.202-.118-1.675-.96-2.686-2.6-3.153-4.44v-5.632c.284-1.36.714-2.709 1.345-4.111 2.207 1.259 3.771 2.167 4.376 2.513z" fill="#204D5E"/><path d="M41.746 52.775c-6.674-3.829-5.463-3.139-7.446-4.275-.857-.491-.1-2.525.938-3.042.014-.004.023-.014.037-.018.265-.123.59-.191.833-.05.083.048 7.368 4.233 7.44 4.276-.755-.447-2.136.896-2.173 2.29-.019.4.144.67.375.81l-.004.009z" fill="#6D8192"/><path d="M70.751 60.105c-2.828 1.626-5.899 4.768-8.022 9.02-.041-.022-3.419-1.962-3.45-1.98 2.539-4.959 6.127-8.574 9.385-10.445 5.467-3.147 8.575-.852 8.64-.852 4.12 2.457 5.012 7.444 4.23 12.116-.046.296-.371.469-.705.555 1.34-8.186-3.643-12.11-10.078-8.414z" fill="#E94690"/><path d="M77.715 60.848c1.45 1.047 2.329 3 2.338 5.655h-.009c-.499-.283-.993-.57-1.492-.856.078-1.672-.15-3.338-.842-4.795l.005-.004z" fill="#E24612"/><path d="M79.093 17.77c.43-.25.632-.56.632-.87v6.985c0 .368-.284.678-.632.878V17.77z" fill="#F18528"/><path d="M79.093 17.77v6.994l-1.877 1.075v.004L67.57 31.38v-6.994l11.524-6.616z" fill="#F18528"/><path d="M65.837 40.596v-8.492l.682-.392c.384-.045.75-.16 1.053-.332l9.647-5.537v8.214c-3.502 2.008-1.141.652-11.382 6.538z" fill="#624D9B"/><path d="M76.758 17.297L66.2 23.36v-9.566L76.758 7.73v9.567z" fill="#EC624D"/><path d="M76.761 7.73l-10.558 6.065-12.416-7.134L64.345.6l12.416 7.13z" fill="#EF7E74"/><path d="M76.512 55.393v.077c-2.485-.979-5.404-.177-7.848 1.23-3.259 1.871-6.847 5.486-9.386 10.445l-4.916-2.823c2.54-4.959 6.128-8.574 9.387-10.445 2.668-1.535 5.958-2.381 8.64-.852 1.373.788 2.75 1.576 4.123 2.368z" fill="#EE76AB"/><path d="M76.514 39.006v16.387c-1.373-.792-2.75-1.58-4.124-2.368-2.544-1.461-6.141-1.63-10.168.683-3.309 1.899-6.133 5.04-8.123 8.4V51.884l22.415-12.877z" fill="#E94690"/><path d="M69.965 69.052l.004-.004c.01 0 .018.004.032.013.195.097.421.3.563.547a1.455 1.455 0 01-1.945 2.008l.005-.01a.615.615 0 01-.247-.222c-.257-.392-.046-1.535.8-2.15.244-.18.515-.302.788-.182z" fill="#CD4793"/><path d="M72.23 66.612c0 3.884-3.346 8.173-6.179 8.678-1.469.264-2.53-.4-2.984-1.703.174-3.747 2.829-8.264 5.95-10.254h.004c1.73-.332 3.209.724 3.209 3.279zm-4.036 1.407a.636.636 0 00-.257-.055c-.439 0-1.294.683-1.441 1.725-.048.346-.012.66.288.848l-.009.018c1.512.861 1.768 1.018 1.799 1.033.845.56 2.183-.075 2.183-1.256 0-.51-.262-.987-.728-1.257-.167-.083-1.781-1.032-1.835-1.056z" fill="#9FB7BF"/><path d="M63.067 73.587c.453 1.303 1.514 1.967 2.984 1.703 2.833-.506 6.178-4.794 6.178-8.678 0-2.555-1.478-3.611-3.208-3.279.905-.586 2.41-1.237 3.35-.719.01 0 .014.005.023.01.7.414 1.19 1.174 1.46 1.966.38 1.125.302 2.304.073 3.447a13.226 13.226 0 01-4.315 7.43c-.879.77-1.867 1.426-3.039 1.658-1.122.231-2.103-.02-2.49-.31-.9-.578-1.066-2.157-1.015-3.219l-.001-.009z" fill="#204D5E"/><path d="M66.774 70.555l.01-.018c-.301-.187-.337-.5-.29-.847.147-1.043 1.003-1.726 1.442-1.726.247 0 .124-.008 2.064 1.097-.013-.009-.022-.013-.031-.013l-.005.004c-.273-.12-.543.002-.787.183-.847.614-1.057 1.757-.801 2.149a.611.611 0 00.247.223l-.005.009c-.06-.04-1.209-.7-1.844-1.061z" fill="#CD4793"/><path d="M64.523 24.386c.843.487 2.202.487 3.048 0v6.994c-.772.442-1.934.466-2.74.146l-.308-.178v-6.962z" fill="#FBB819"/><path d="M65.835 32.103l-1.007-.578c.503.2 1.117.26 1.689.187l-.682.391z" fill="#9A8DC3"/><path d="M62.727 69.125c2.124-4.252 5.195-7.394 8.023-9.02 6.435-3.697 11.418.228 10.078 8.415a68.2 68.2 0 01-.961.254c1.183-7.446-3.408-10.819-9.117-7.526-2.572 1.475-5.386 4.362-7.313 8.287l-.71-.41z" fill="#E94690"/><path d="M69.016 63.334c-3.12 1.99-5.775 6.506-5.949 10.254v.009c-.05 1.06.114 2.64 1.016 3.219.392.293 1.373.54 2.49.31 1.17-.233 2.16-.888 3.038-1.658a13.224 13.224 0 004.316-7.43c.228-1.143.306-2.323-.074-3.447-.27-.792-.76-1.553-1.46-1.967-.009-.005-.013-.01-.022-.01-.941-.517-2.447.134-3.35.72h-.005zm-7.18 13.891c-.558-2.55.142-5.545 1.18-7.931.142.077.28.16.422.241 1.926-3.925 4.74-6.812 7.313-8.287.947-.546 1.858-.906 2.718-1.097 1.81.01 3.261.984 4.005 2.932 1.968 5.19-2.504 14.661-8.618 17.361-1.121.496-2.37.802-3.551.56a4.281 4.281 0 01-2.33-1.343c-.599-.678-.947-1.548-1.139-2.436z" fill="#426D7C"/><path d="M63.016 69.293c-1.04 2.386-1.74 5.382-1.18 7.932.191.888.54 1.758 1.139 2.436a4.28 4.28 0 002.33 1.343c1.18.242 2.43-.064 3.55-.56 6.114-2.7 10.586-12.17 8.618-17.36-.743-1.95-2.195-2.923-4.004-2.933 1.661-.373 3.125-.11 4.247.697l-.005.004c.691 1.457.92 3.124.842 4.795-.205 4.648-2.82 10.054-6.759 13.536-2.926 2.583-7.008 4.276-10.37 2.34-1.2-.687-2.398-1.374-3.593-2.062-2.352-1.352-3.354-3.956-3.45-6.661-.115-1.82.33-4.624 1.638-7.526 1.026.59 6.89 3.953 6.997 4.02z" fill="#204D5E"/><path d="M56.02 65.273c-.695 1.544-1.235 3.251-1.491 4.968l-.43.246V64.17c.249.14 1.867 1.07 1.922 1.102z" fill="#E94690"/><path d="M62.22 53.708c4.028-2.313 7.625-2.144 10.169-.683-2.682-1.53-5.972-.683-8.64.852-3.259 1.871-6.847 5.486-9.387 10.445-.014-.01-.119-.068-.265-.15-.019-.011-.837-.487-.856-.496h-.005c2.002-3.948 5.18-7.785 8.984-9.968z" fill="#E94690"/><path d="M42.742 79.479v-.942l11.633-6.68a8.49 8.49 0 00.005.942c-.055 0 .026-.02-11.638 6.68z" fill="#5B869C"/><path d="M42.477 52.77c-.651.29-1.133-.162-1.102-.814.036-1.394 1.418-2.737 2.173-2.29h.005c.91.602.028 2.644-1.075 3.105z" fill="#526978"/><path d="M37.716 63.907c-.054.027-.812.47-2.288 1.312a8.282 8.282 0 01-.604-2.769c-.133-3 .513-5.587 1.776-8.332.521.3 1.024.592 1.03.592-.001 9.522-.04 8.846.086 9.197z" fill="#204D5E"/><path d="M33.929 47.675c0 .028 0 .055.004.082-.054 0 .073.022-3.73-2.14-.644-.36-.074-1.88.696-2.262.206-.105.462-.164.65-.055.301.172.468.272 3.725 2.14-.014.005-.023.014-.036.018-.708.352-1.31 1.443-1.31 2.217z" fill="#A1B5C2"/><path d="M24.538 45.476c0-2.359 1.46-4.945 3.198-6.388.44.232.88.464 1.318.692l-.004.009c1.487.77 1.56.806 1.803.87.718.182 1.455-.132 1.858-.966a1.53 1.53 0 00.096-.237c.901 1.321 1.007 3.128.403 4.8-.206-.119-.408-.237-.609-.351.078-.442.083-1.052-.206-1.389-.228-.268-.645-.36-1.011-.296-.893.16-2.274 1.694-2.274 3.256 0 .25.027.514.155.742a.997.997 0 00.581.483c.471.132 1.034-.169 1.41-.478.2.114.402.232.603.346-.32.377-.627.664-.984.942V66.94c-1.902 1.091-1.892 1.126-2.503 1.334-1.207.36-2.497.258-3.4-.11v-1.466a5.49 5.49 0 01-.435-.232V60.72c.997-1.42.638-3.721 0-5.34v-9.904z" fill="#E94690"/><path d="M30.069 37.959c.69-.073 1.257.117 1.533.336.27.164.512.36.728.574-.27.929-1.067 1.33-1.83.942a94.031 94.031 0 01-2.202-1.138c.585-.396 1.194-.65 1.77-.715z" fill="#EE76AB"/><path d="M37.553 78.14c-11.768-6.747-11.358-6.55-11.413-6.55a3.907 3.907 0 00-.59-2.231c1.057.3 2.393.21 3.3-.31.805-.464 1.757-.55 2.283.2 6.49 9.175 6.041 8.648 6.42 8.893z" fill="#3F7287"/><path d="M29.11 45.476c0-1.562 1.382-3.096 2.275-3.255.366-.064.782.027 1.011.296.289.336.284.947.206 1.388-.352-.2-.7-.405-1.052-.605-.188-.11-.444-.05-.65.054-.782.39-1.334 1.906-.696 2.263.353.2.7.405 1.053.605-.375.31-.938.61-1.41.478a.998.998 0 01-.58-.482c-.13-.227-.157-.491-.157-.742z" fill="#A12E74"/><path d="M29.053 39.78c-.439-.227-.878-.46-1.318-.692.183-.154.37-.296.559-.414.732.391 1.469.77 2.201 1.138.764.387 1.56-.014 1.83-.942.183.182.344.377.481.587a1.397 1.397 0 01-.096.237c-.403.833-1.14 1.147-1.858.965-.242-.064-.316-.1-1.803-.87l.005-.009z" fill="#D2C5E3"/><path d="M28.503 84.907c.6-3.663.002-8.02-3.387-9.416.26-.879.522-1.762.778-2.64 3.35 2.612 4.023 7.248 3.313 11.478 0 .009-.004.013-.004.023-.05.304-.394.473-.7.555zm2.532-17.166c-.66-.237-1.465-.055-2.187.364l-.014-.009c.236-.112.177-.085 1.446-.815.26.146.522.296.778.447-.01.004-.014.009-.023.013z" fill="#A1B5C2"/><path d="M28.503 84.906c-.32.087-.641.174-.966.255.497-3.14.043-6.925-2.814-8.318.132-.451.265-.902.393-1.353 3.39 1.398 3.985 5.755 3.387 9.416z" fill="#5B869C"/><path d="M28.296 38.674c-.188.118-.376.26-.559.415a125.97 125.97 0 01-8.008-4.626 5.88 5.88 0 01.526-.388 123.274 123.274 0 008.04 4.599z" fill="#D2C5E3"/><path d="M27.711 82.89c-.494-.282-.993-.57-1.487-.857.073-1.662-.15-3.324-.837-4.78 1.733 1.256 2.306 3.498 2.324 5.637z" fill="#316274"/><path d="M24.507 68.347c1.413.827 1.93 2.73 1.487 4.161-.054.183-.494.164-.69.137a3.387 3.387 0 01-1.04-.305c-.178-.082-.562-.301-.507-.487.18-.537-.071-1.298-.413-1.494h-.004c-.206-.118-.256-.41-.233-.664.036-.433.352-.975.704-1.216.21-.146.49-.25.691-.132h.005z" fill="#EF7E74"/><path d="M25.301 72.645c.197.027.636.046.691-.137-.287 1.02-4.224 14.339-4.224 14.37 0 0 0 .004-.005.004-.059.182-.49.16-.686.132a3.398 3.398 0 01-1.039-.305c-.178-.082-.558-.296-.508-.482 0-.057 4.206-14.316 4.224-14.375-.055.187.33.405.508.487.362.17.655.251 1.04.306z" fill="#AACEE1"/><path d="M23.43 33.597c2.677 1.535 5.35 3.073 8.027 4.608-.408-.233-.916-.297-1.391-.246-.577.063-1.185.319-1.771.714a123.275 123.275 0 01-8.041-4.598c.946-.645 2.17-1.033 3.176-.478z" fill="#B1CDDD"/><path d="M23.107 69.694c-.023.255.027.547.233.665.148 0 .628.713.426 1.457-.307.15-.682.255-1.012.173-.332-.09-.623-.372-.764-.678-.526-1.111.462-3.615 2.06-4.403.288-.145.612-.241.924-.21v1.467c-.01.004-.023.013-.032.018v.469a2.983 2.983 0 00-.435-.305h-.005c-.201-.119-.48-.014-.69.132-.353.24-.669.783-.705 1.215z" fill="#ED6D12"/><path d="M10.401 85.512a827.476 827.476 0 01-3.45-1.98c2.54-4.968 6.132-8.58 9.385-10.446 2.046-1.179 3.849-1.63 5.346-1.657l.778.446.009-.013c.382.26.878.158 1.295-.046 0 .055-.95 3.233-.966 3.287-1.245.046-2.718.438-4.38 1.389-2.818 1.621-5.889 4.754-8.017 9.02z" fill="#EE76AB"/><path d="M16.768 68.606c1.638.943 3.276 1.88 4.915 2.823-1.497.027-3.3.478-5.346 1.657-3.253 1.867-6.846 5.478-9.386 10.445l-4.915-2.823c2.54-4.967 6.133-8.578 9.386-10.445 2.05-1.18 3.854-1.63 5.346-1.657z" fill="#E94690"/><path d="M19.352 33.506c1.41-.669 2.87-.57 3.953.027-.965-.463-2.146-.075-3.052.542a58.276 58.276 0 01-.901-.57z" fill="#EE76AB"/><path d="M18.752 33.833a5.13 5.13 0 01.6-.328c.297.192.599.383.9.57a5.69 5.69 0 00-.526.387 59.27 59.27 0 01-.974-.629z" fill="#D2C5E3"/><path d="M19.124 86.618c.005 0 .005.005.01.005h.004c.064.032.107.052.183-.023.1-.09.17-.245.206-.373h.005c-.05.187.329.4.508.483.361.168.654.25 1.038.305.197.027.628.05.687-.132-.503 1.763-2.303 2.629-3.799 1.748-.201-.114-.251-.41-.233-.665.036-.423.348-.97.705-1.216.19-.132.49-.25.686-.132z" fill="#EF7E74"/><path d="M18.148 86.054c.303.178.609.35.907.524 0 .004-.005.004-.005.009-.188-.055-.43.036-.614.164-.356.245-.668.792-.704 1.215-.018.255.032.551.233.665-.027-.013-1.035-.618-1.061-.633-.551-.627.534-2.276 1.244-1.944z" fill="#E24612"/><path d="M14.472 86.96c.59.337 1.18.679 1.77 1.016l.01-.01c.183.11.417.119.572-.095a.61.61 0 00.082.127c.33.192.655.397.985.588-2.46 3.399-6.12 4.35-7.15 1.388h-.004c.175-3.72 2.807-8.25 5.95-10.25.389-.077.8-.095 1.185-.004.6.137 1.144.529 1.487 1.043.426.642.545 1.48.545 2.235 0 .998-.243 2.236-.847 3.58-.297-.174-.604-.347-.906-.525-.078-.036-.16-.05-.242-.036.105-.232-.023-.437-.21-.546l.004-.01-1.813-1.037-.004.009a.653.653 0 00-.256-.055c-.444-.005-1.295.683-1.442 1.725-.048.347-.012.661.289.847l-.005.01z" fill="#9FB7BF"/><path d="M17.87 79.72c-.385-.09-.797-.072-1.185.005.887-.588 2.431-1.248 3.363-.719.005 0 .01 0 .014.005.471.273.892.705 1.2 1.316h.004c-.017.056-1.735 5.846-1.735 5.9h-.005a.835.835 0 01-.206.374c-.076.076-.12.053-.183.023h-.004c-.005 0-.005-.005-.01-.005l-.068-.041c.604-1.344.846-2.582.846-3.58 0-.755-.119-1.593-.545-2.235a2.493 2.493 0 00-1.486-1.042z" fill="#204D5E"/><path d="M16.053 87.784c-.252-.37-.092-1.485.764-2.145.192-.145.417-.268.65-.246.297.035.581.311.44.624-.652.051-1.363 1.215-1.085 1.853-.215.294-.592.17-.77-.086z" fill="#EF7E74"/><path d="M16.51 40.864c0-2.363 1.469-4.959 3.217-6.402a125.73 125.73 0 008.008 4.626c-1.739 1.443-3.198 4.03-3.198 6.388v9.903c-1.163-2.946-3.744-5.395-5.822-5.546-.64-.046-1.146.093-1.583.364-.21.114-.417.232-.622.355v-9.688z" fill="#AACEE1"/><path d="M17.29 35.114c.785-.916 1.406-1.222 1.464-1.28.325.214.65.424.974.629-1.747 1.443-3.216 4.038-3.216 6.401v9.69c-.238.133-.94.537-.947.542V39.553c0-1.486.609-3.137 1.725-4.44z" fill="#E94690"/><path d="M15.7 52.338c1.195-.314 2.663.63 3.552 1.534 1.661 1.671 2.535 3.911 2.535 5.637.005.947-.251 1.666-.682 2.135h-.004c-2.915.824-6.398-2.618-6.485-6.265-.028-1.13.288-2.263 1.084-3.041z" fill="#FDEFBB"/><path d="M16.146 61.631c.318.21 7.329 4.225 8.394 4.835.804.48.417-.016-.49.442-1.597.788-2.586 3.292-2.06 4.403.102.218.276.419.481.55l-.009.014c-.901-.518-8.79-5.044-8.828-5.067-.504-.287-.625-1.006-.594-1.585.078-1.625 1.753-3.752 3.106-3.592z" fill="#ED6D12"/><path d="M14.185 86.104c.147-1.043.998-1.73 1.442-1.726.082 0 .174.018.256.055l.005-.009 1.812 1.038-.005.01c-.294-.176-.607-.039-.878.167-.856.66-1.016 1.776-.765 2.145.05.072.12.136.197.182l-.01.009c-.59-.337-1.18-.679-1.77-1.016l.004-.009c-.3-.186-.335-.5-.288-.846z" fill="#EF7E74"/><path d="M16.146 61.631a1.344 1.344 0 00-.582.069v-1.175c.847 1.06 1.863 1.921 2.957 2.38 1.043.442 1.963.42 2.659.014l.004.005c2.813-1.638 2.896-1.55 3.355-2.204v5.746c-1.033-.592-8.075-4.624-8.393-4.835z" fill="#9BBCCE"/><path d="M14.63 51.632c.304-.178 2.312-1.331 2.503-1.434.437-.272.944-.41 1.584-.365 2.758.2 6.438 4.476 6.438 8.601 0 .834-.134 1.598-.617 2.286-.462.658-.575.585-3.355 2.204l-.004-.005c.847-.482 1.363-1.53 1.359-2.982 0-4.631-4.954-10.026-7.908-8.305z" fill="#D9406C"/><path d="M16.559 60.684c-1.048-1.061-1.886-2.464-2.289-3.939-.265-.97-.384-2.167-.009-3.105.267-.669.747-1.147 1.442-1.303-.796.78-1.112 1.913-1.085 3.042.087 3.647 3.57 7.09 6.485 6.265a1.68 1.68 0 01-.448.364c-1.017.588-2.577.206-4.096-1.324z" fill="#D9406C"/><path d="M14.049 33.592c.207-.092.41-.113.6 0 .21.12 1.707.98 2.64 1.521a7.386 7.386 0 00-1.341 2.313c-.848-.489-2.437-1.393-2.632-1.507v-.004c-.702-.315-.14-1.93.733-2.323z" fill="#A1B5C2"/><path d="M16.557 60.684c1.52 1.53 3.08 1.912 4.096 1.325.11-.055.3-.194.448-.364h.005c.43-.47.686-1.189.682-2.136 0-3.828-4.061-8.351-6.6-6.98-2.092 1.162-1.234 5.52 1.37 8.155zm-2.998-7.75c.552-1.383 1.89-2.06 3.73-1.288 2.732 1.147 5.25 5.031 5.25 8.291.008 2.57-1.657 3.969-4.019 2.97-3.503-1.474-6.156-6.99-4.96-9.973z" fill="#EC6390"/><path d="M12.465 65.556c-.197-.082-.65-.319-.586-.524h-.004c.284-.993 1.034-1.835 2.054-2.049-.577.786-1 1.788-.874 2.769-.094 0-.46-.14-.59-.196z" fill="#EF7E74"/><path d="M13.317 35.914v.005c.187.11.38.219.567.323-.664.335-1.208.033-1.208-.774 0-.65.357-1.361.805-1.825.824-.847 1.695-.681 1.744.282a23.34 23.34 0 00-.646-.369c-.137-.059-.316-.059-.53.036-.88.397-1.43 2.01-.732 2.322z" fill="#526978"/><path d="M12.465 65.556c.24.104.533.196.59.196.055.441.225.855.577 1.056l.133.077c-.175.601-.353 1.202-.531 1.808a13.27 13.27 0 00-2.746 1.079l-.005-.005c.467-1.58.93-3.155 1.396-4.735-.064.205.39.442.586.524z" fill="#AACEE1"/><path d="M13.532 82.043a21.942 21.942 0 00-2.425 3.879l-.705-.41c2.128-4.266 5.2-7.399 8.018-9.02 1.661-.952 3.135-1.343 4.38-1.389-.124.424-.252.852-.375 1.275-3.396.08-6.789 2.952-8.893 5.665z" fill="#5B869C"/><path d="M10.741 89.974c.508 1.462 1.835 2.218 3.725 1.485 1.36-.529 2.577-1.703 3.423-2.874.028.014.05.032.078.046.55.323 1.149.414 1.712.3-.938 1.471-2.238 2.892-3.744 3.757-1.652.952-3.624 1.202-4.823-.278-.339-.723-.408-1.63-.375-2.426v-.01h.004z" fill="#204D5E"/><path d="M24.364 78.059c-2.638 8.957-2.595 8.764-2.595 8.82 0 0 0 .004-.004.004-.325 1.138-1.158 1.867-2.087 2.049-.938 1.47-2.238 2.891-3.743 3.756-1.652.952-3.625 1.202-4.824-.277-.338-.724-.407-1.63-.375-2.427v-.01c.175-3.72 2.807-8.25 5.95-10.249.884-.587 2.43-1.248 3.363-.72.005 0 .01 0 .014.005.471.273.892.706 1.2 1.316h.004c.132-.454 1.14-3.89 1.157-3.947-3.408.079-6.793 2.959-8.892 5.664a21.946 21.946 0 00-2.425 3.88c-.137-.083-.28-.16-.416-.242-3.442 7.868-.11 13.892 5.949 11.105 4.206-1.93 8.284-7.603 8.896-13.209.206-1.876.004-4.038-1.172-5.518z" fill="#426D7C"/><path d="M64.672 47.839L55 53.395l-3.557.093 16.93-9.724c.424-.243.588.21.234.644-1.168 1.435-2.536 2.627-3.934 3.43zm-2.41 3.791l-3.134 1.8-3.556.094 10.39-5.969c.424-.243.589.21.235.644-1.169 1.435-2.536 2.628-3.935 3.43z" fill="#FCC345"/><path d="M10.69 85.68c-3.44 7.868-.11 13.892 5.95 11.105 4.206-1.93 8.284-7.603 8.897-13.208.206-1.876.004-4.039-1.172-5.519.12-.405.238-.81.357-1.216.233.114.458.25.668.41 2.524 5.356-.812 13.802-5.926 18.318-2.934 2.59-7.007 4.27-10.366 2.34l-3.597-2.062c-2.535-1.457-3.51-4.39-3.464-7.322.036-2.336.7-4.748 1.656-6.866.055.032 6.861 3.943 6.998 4.02z" fill="#204D5E"/><path d="M11.422 70.264C8.168 72.13 4.576 75.74 2.036 80.709c-.055-.032-.975-.56-1.03-.588 0 0-.004 0-.004-.004-.02-.007-.074-.041-.092-.05v-.005c1.986-3.93 5.167-7.776 8.984-9.967 1.926-1.114 4.159-1.851 6.411-1.753.156.087.307.178.462.264-1.492.027-3.295.478-5.345 1.658z" fill="#EE76AB"/><path opacity=".5" d="M31.458 38.205c-8.114-4.65-8.013-4.611-8.15-4.672-1.081-.596-2.539-.699-3.955-.027-.44-.283-.879-.565-1.313-.852-.664-.437-1.117-1.748-.806-2.91 1.712-6.41 3.968-12.744 6.613-18.859.188-.437.513-.874.952-1.056a.962.962 0 01.92.073c3.226 2.067 6.54 3.938 9.862 5.66.71.368 1.149 1.434.842 2.554-3.337 12.151-3.851 19.932-4.095 20.753a4.511 4.511 0 00-.87-.664z" fill="#E2E1EF"/><path d="M16.684 29.367c1.73-6.47 4-12.808 6.613-18.864.554-1.448 1.666-1.785 2.49-1.284 6.189 3.958 9.685 5.436 10.26 5.933.86.738 1.19 2.076.934 3.223a140.962 140.962 0 00-3.3 15.235c-.71 4.49-.636 5.214-.874 5.846a3.641 3.641 0 00-.48-.587c.24-.81.762-8.617 4.095-20.753.307-1.12-.133-2.186-.842-2.554-3.322-1.721-6.636-3.593-9.862-5.66a.962.962 0 00-.92-.073c-.44.182-.765.62-.952 1.056-2.645 6.115-4.902 12.448-6.613 18.86-.311 1.16.142 2.472.805 2.909.435.287.875.57 1.314.852a5.086 5.086 0 00-.6.328c-.004.004-.009.004-.013.009-.316-.205-.86-.556-.96-.638-.967-.778-1.429-2.495-1.095-3.838z" fill="#D2C5E3"/></svg>