<svg width="263" height="264" fill="none" xmlns="http://www.w3.org/2000/svg"><path d="M230.018 227.074c-5.329 5.61-10.372 9.228-14.356 12.087-46.832 33.602-102.246 23.807-114.023 21.415-17.391-3.532-51.008-10.36-75.312-38.941-36.77-43.241-31.045-111.366-2.524-156.337 5.217-8.226 32.775-53.881 88.787-61.203 33.897-4.43 73.411 4.506 102.025 28.48 60.065 50.322 55.789 151.982 15.403 194.499z" fill="url(#paint0_linear)"/><path opacity=".3" d="M36.208 44.006a.828.828 0 01-.944-.578 33.19 33.19 0 01-.686-2.74.828.828 0 01.644-.977l.015-.003a.828.828 0 01.962.647c.18.875.4 1.75.652 2.602a.828.828 0 01-.643 1.05zm-1.266-7.1a.828.828 0 01-.978-.76 33.382 33.382 0 01-.067-2.82.828.828 0 111.655.032c-.017.888.005 1.79.064 2.68a.828.828 0 01-.674.868zm.33-7.202a.83.83 0 01-.97-.945c.148-.925.338-1.856.565-2.766a.829.829 0 011.607.401 31.282 31.282 0 00-.537 2.626.828.828 0 01-.666.684zm1.931-6.95a.828.828 0 01-.918-1.124c.352-.869.745-1.734 1.169-2.57a.829.829 0 011.476.75 31.383 31.383 0 00-1.11 2.441.828.828 0 01-.617.504zm3.433-6.343a.827.827 0 01-.83-1.287 33.491 33.491 0 011.707-2.246.827.827 0 111.275 1.057 31.835 31.835 0 00-1.623 2.135.825.825 0 01-.529.341zm4.75-5.426a.827.827 0 01-.71-1.425 33.35 33.35 0 012.163-1.813.828.828 0 111.009 1.313 31.715 31.715 0 00-2.055 1.723.823.823 0 01-.406.202zm29.465-7.481a.824.824 0 01-.35-.011 31.2 31.2 0 00-2.629-.532.828.828 0 11.259-1.635c.927.146 1.859.335 2.768.56a.828.828 0 01-.048 1.618zM51.218 6.75a.828.828 0 01-.56-1.535c.815-.462 1.66-.894 2.512-1.285a.828.828 0 11.69 1.505c-.809.37-1.611.782-2.386 1.22a.823.823 0 01-.256.095zM67.7 2.57a.83.83 0 01-.166.015c-.89-.015-1.792.008-2.682.068a.828.828 0 01-.112-1.652A33.544 33.544 0 0167.562.93a.828.828 0 01.138 1.642zm-9.851 1.353a.828.828 0 01-.387-1.608 33.07 33.07 0 012.736-.69l.017-.004a.828.828 0 01.32 1.624 31.56 31.56 0 00-2.6.657.929.929 0 01-.086.02zm22.495 1.483a.824.824 0 01-.491-.06 32.109 32.109 0 00-1.187-.506.828.828 0 11.62-1.536c.418.17.838.348 1.247.533a.828.828 0 01-.19 1.569zm17.124 18.54a.828.828 0 01-.93-.536 31.258 31.258 0 00-.458-1.206.828.828 0 111.535-.62c.17.419.332.846.483 1.27a.828.828 0 01-.63 1.092zM73.034 66.495c-.375.07-.752.133-1.131.19a.828.828 0 01-.248-1.637 32.05 32.05 0 002.591-.501.828.828 0 01.383 1.61c-.524.125-1.06.238-1.595.338zm-5.487.547a.818.818 0 01-.14.014 33.173 33.173 0 01-2.778-.076.828.828 0 11.115-1.652c.873.061 1.76.085 2.638.073a.828.828 0 01.165 1.641zm11.24-2.18a.828.828 0 01-.45-1.587 31.208 31.208 0 002.418-1.057.828.828 0 01.726 1.488c-.83.406-1.686.78-2.545 1.113a.818.818 0 01-.148.042zm-18.307 1.5a.826.826 0 01-.32-.003 32.67 32.67 0 01-2.693-.686.828.828 0 11.476-1.585c.839.251 1.699.47 2.557.65a.828.828 0 01-.02 1.625zm24.596-4.781a.828.828 0 01-.613-1.502 31.44 31.44 0 002.125-1.562.828.828 0 111.035 1.292 33.035 33.035 0 01-2.237 1.645.826.826 0 01-.31.127zM90.493 57a.827.827 0 01-.753-1.384 31.86 31.86 0 001.734-1.989.827.827 0 111.292 1.035c-.576.72-1.19 1.424-1.825 2.093a.824.824 0 01-.448.245zm4.288-5.653a.828.828 0 01-.861-1.24c.45-.752.875-1.532 1.26-2.318a.828.828 0 111.486.728 33.456 33.456 0 01-1.325 2.44.827.827 0 01-.56.39zm2.954-6.454a.828.828 0 01-.937-1.073c.276-.833.518-1.687.721-2.538a.828.828 0 011.61.384 32.92 32.92 0 01-.758 2.673.828.828 0 01-.636.554zm1.466-6.947a.828.828 0 01-.976-.894c.085-.87.133-1.756.144-2.633a.829.829 0 011.655.02 32.866 32.866 0 01-.151 2.773.828.828 0 01-.672.734zm-.096-7.094a.828.828 0 01-.974-.712 32.041 32.041 0 00-.432-2.604.828.828 0 01.642-.98.818.818 0 01.979.642 33.085 33.085 0 01.454 2.739.828.828 0 01-.67.915zM53.72 64.135a.825.825 0 01-.495-.06 33.068 33.068 0 01-1.223-.59.828.828 0 11.75-1.477c.383.195.774.383 1.161.56a.828.828 0 01-.194 1.567z" fill="#91B3FA"/><path d="M53.063 54.49a.387.387 0 00.447.038l4.049-2.405a20.53 20.53 0 006.329 2.028l1.897 4.307a.387.387 0 00.386.23l5.629-.468a.387.387 0 00.343-.29l1.16-4.56a20.515 20.515 0 005.908-3.045l4.39 1.705c.154.06.329.015.435-.11l3.65-4.311a.387.387 0 00.038-.448l-2.406-4.048c1-1.959 1.697-4.09 2.029-6.33l4.307-1.896a.387.387 0 00.23-.386l-.468-5.63a.387.387 0 00-.29-.342l-4.561-1.161a20.507 20.507 0 00-3.045-5.908l1.706-4.39a.387.387 0 00-.111-.435l-4.311-3.65a.387.387 0 00-.448-.037l-4.048 2.406a20.51 20.51 0 00-6.329-2.03l-1.897-4.306a.387.387 0 00-.386-.23l-5.63.468a.387.387 0 00-.342.29l-1.16 4.56a20.509 20.509 0 00-5.908 3.045l-4.39-1.705a.387.387 0 00-.435.11l-3.65 4.312a.387.387 0 00-.038.447l2.406 4.048a20.51 20.51 0 00-2.029 6.33l-4.307 1.896a.387.387 0 00-.23.386l.468 5.63c.014.164.13.302.29.343l4.56 1.16a20.514 20.514 0 003.045 5.908l-1.705 4.39a.387.387 0 00.11.435l4.312 3.65z" fill="#91B3FA"/><path d="M67.968 39.321a5.686 5.686 0 01-6.406-3.742 5.684 5.684 0 013.531-7.212 5.639 5.639 0 014.337.271 5.64 5.64 0 012.875 3.26 5.684 5.684 0 01-4.337 7.423zm-1.821-9.865a4.358 4.358 0 00-3.332 5.693 4.357 4.357 0 005.53 2.707 4.358 4.358 0 002.707-5.529 4.324 4.324 0 00-2.204-2.499 4.322 4.322 0 00-2.701-.372z" fill="#BDD0FB"/><path d="M69.58 47.363a14.249 14.249 0 01-1.875.22 14.05 14.05 0 01-2.235-.064l-.03-.003a6.453 6.453 0 01-.086-.01l-.167-.02a.331.331 0 11.086-.657c.933.121 1.885.143 2.83.064 4.697-.389 8.626-3.187 10.674-7.077a13.218 13.218 0 001.48-7.276c-.038-.458-.1-.91-.182-1.356-.558-3-2.118-5.695-4.478-7.693a13.211 13.211 0 00-9.694-3.104c-7.31.608-12.76 7.046-12.153 14.354a13.258 13.258 0 002.443 6.65.329.329 0 01-.075.46.331.331 0 01-.462-.075 13.92 13.92 0 01-2.566-6.98c-.637-7.673 5.089-14.432 12.758-15.069a13.87 13.87 0 0110.177 3.259 13.854 13.854 0 014.7 8.075c.088.468.152.944.192 1.424a13.87 13.87 0 01-3.259 10.177 13.857 13.857 0 01-8.078 4.7z" fill="#BDD0FB"/><path opacity=".3" d="M12.42 70.617a.511.511 0 01-.55-.271 21.774 21.774 0 01-.556-1.184.511.511 0 01.938-.407c.165.38.343.76.53 1.129a.512.512 0 01-.362.733zm-1.45-3.656a.511.511 0 01-.583-.359 22.181 22.181 0 01-.605-2.654c-.045-.279.16-.534.422-.588a.511.511 0 01.587.422 21.253 21.253 0 00.576 2.532.511.511 0 01-.397.647zm-.86-5.239a.512.512 0 01-.605-.482 22.18 22.18 0 01.057-2.72.512.512 0 011.019.083 21.008 21.008 0 00-.053 2.596.511.511 0 01-.417.523zm.437-5.29a.511.511 0 01-.594-.608c.187-.886.43-1.77.724-2.626a.51.51 0 11.967.332 20.99 20.99 0 00-.69 2.503.512.512 0 01-.407.398zm1.724-5.023a.512.512 0 01-.552-.727c.398-.814.85-1.61 1.343-2.368a.512.512 0 01.857.56c-.47.72-.902 1.48-1.281 2.257a.51.51 0 01-.367.279zm2.898-4.448a.51.51 0 01-.484-.832 22.362 22.362 0 011.877-1.97.51.51 0 11.696.75 21.298 21.298 0 00-1.791 1.88.51.51 0 01-.298.172zm3.89-3.61a.512.512 0 01-.393-.917 21.999 21.999 0 012.3-1.452.512.512 0 01.492.897 20.95 20.95 0 00-2.193 1.384.508.508 0 01-.206.089zm4.653-2.548a.512.512 0 01-.282-.978 22.16 22.16 0 012.588-.844.512.512 0 01.257.99c-.838.217-1.668.488-2.468.805a.499.499 0 01-.095.027zm7.793-1.514a.51.51 0 01-.09.008 21.215 21.215 0 00-2.59.18.511.511 0 01-.574-.439.506.506 0 01.44-.574 22.252 22.252 0 012.716-.189.51.51 0 01.098 1.014zm4.398 42.724a.511.511 0 01-.193-1.004 21.15 21.15 0 002.469-.65.512.512 0 01.32.972c-.844.277-1.715.507-2.589.68l-.007.002zm-2.591.356a.527.527 0 01-.055.007 22.37 22.37 0 01-2.677.045.511.511 0 11.044-1.021c.848.036 1.707.022 2.555-.043a.511.511 0 01.133 1.012zm7.55-1.989a.512.512 0 01-.312-.965c.77-.363 1.523-.776 2.24-1.228a.511.511 0 01.545.866c-.752.473-1.542.906-2.348 1.287a.507.507 0 01-.125.04zm-12.769 1.76a.513.513 0 01-.178.001 21.937 21.937 0 01-2.61-.603.511.511 0 01.29-.98c.815.241 1.652.434 2.49.575a.511.511 0 01.008 1.007zm17.186-4.543a.51.51 0 01-.417-.899 21.014 21.014 0 001.878-1.73.511.511 0 11.737.71 22.222 22.222 0 01-1.97 1.813.51.51 0 01-.228.106zm3.62-3.76a.51.51 0 01-.502-.811 21.27 21.27 0 001.41-2.13.511.511 0 01.885.513 22.34 22.34 0 01-1.478 2.232.508.508 0 01-.315.195zm2.615-4.522a.511.511 0 01-.563-.704 20.92 20.92 0 00.859-2.405.512.512 0 01.982.285 22.1 22.1 0 01-.9 2.523.511.511 0 01-.378.302zM23.063 80.647a.51.51 0 01-.297-.035 22.18 22.18 0 01-1.183-.557.512.512 0 01.463-.912c.366.186.746.365 1.128.532a.511.511 0 01-.111.972z" fill="#91B3FA"/><path d="M22.273 74.075a.259.259 0 00.3.025l2.709-1.61c1.31.67 2.737 1.136 4.235 1.358l1.27 2.882a.259.259 0 00.258.153l3.766-.312a.259.259 0 00.23-.194l.777-3.052a13.725 13.725 0 003.953-2.038l2.937 1.141c.103.04.22.01.291-.074l2.443-2.884a.259.259 0 00.025-.3l-1.61-2.709a13.725 13.725 0 001.358-4.235l2.881-1.269a.259.259 0 00.154-.258l-.313-3.767a.259.259 0 00-.194-.23l-3.052-.776a13.728 13.728 0 00-2.037-3.954l1.141-2.937a.259.259 0 00-.074-.291L40.837 46.3a.259.259 0 00-.3-.025l-2.709 1.61a13.724 13.724 0 00-4.235-1.357l-1.27-2.882a.259.259 0 00-.258-.154l-3.766.313a.259.259 0 00-.23.194l-.777 3.052a13.726 13.726 0 00-3.953 2.037l-2.937-1.14a.259.259 0 00-.292.073l-2.442 2.885a.259.259 0 00-.025.3l1.61 2.708a13.729 13.729 0 00-1.358 4.235l-2.882 1.27a.259.259 0 00-.153.258l.312 3.767c.01.11.087.202.195.23l3.051.776a13.726 13.726 0 002.038 3.953l-1.141 2.937a.26.26 0 00.074.292l2.884 2.442z" fill="#91B3FA"/><path d="M32.254 63.993a3.84 3.84 0 01-2.4-.331 3.842 3.842 0 01-1.958-2.22 3.872 3.872 0 012.405-4.913 3.873 3.873 0 014.913 2.406 3.847 3.847 0 01-.185 2.954 3.84 3.84 0 01-2.22 1.958 3.951 3.951 0 01-.555.146zm-1.217-6.602a2.849 2.849 0 00-2.173 3.72 2.825 2.825 0 001.44 1.632 2.83 2.83 0 002.173.137 2.827 2.827 0 001.633-1.44 2.827 2.827 0 00.136-2.174 2.85 2.85 0 00-3.21-1.875z" fill="#BDD0FB"/><path d="M33.37 69.591a9.688 9.688 0 01-2.933.094l-.088-.01a.511.511 0 11.132-1.014 8.628 8.628 0 001.832.041c.034-.002.068-.006.1-.009a8.525 8.525 0 003.975-1.41 8.655 8.655 0 001.733-1.538l.013-.014.038-.045a8.554 8.554 0 002.009-6.275 8.546 8.546 0 00-3.017-5.858 8.552 8.552 0 00-6.275-2.01 8.562 8.562 0 00-5.858 3.017 8.554 8.554 0 00-2.01 6.275 8.613 8.613 0 001.582 4.305.511.511 0 11-.83.596 9.608 9.608 0 01-1.77-4.816 9.569 9.569 0 012.248-7.02 9.56 9.56 0 016.553-3.376 9.566 9.566 0 017.021 2.248 9.558 9.558 0 013.375 6.554c.412 4.964-3.035 9.374-7.83 10.265z" fill="#BDD0FB"/><path d="M7.138 138.131l2.666 82.907c.465 14.457 12.329 25.961 26.86 26.047l198.536 1.17c9.713.058 17.987-7 19.405-16.563 3.104-20.937 7.06-58.399 2.606-93.561H7.138z" fill="url(#paint1_linear)"/><path d="M228.813 243.085h-.001l-.963-.006a.159.159 0 01-.159-.161.16.16 0 01.16-.16h.001l.963.006a.16.16 0 01-.001.321zm2.245-.003a.16.16 0 01-.005-.321c.317-.011.637-.031.952-.059a.158.158 0 01.174.146.16.16 0 01-.146.174c-.32.028-.646.048-.969.06h-.006zm-5.454-.016h-.001l-.963-.006a.16.16 0 01.001-.32h.001l.963.005c.089.001.16.073.16.162a.161.161 0 01-.161.159zm-3.209-.019h-.001l-.962-.006a.16.16 0 11.001-.32h.001l.962.005c.089.001.16.073.16.162a.161.161 0 01-.161.159zm-3.208-.019h-.001l-.963-.005a.16.16 0 01.001-.321h.001l.963.005a.16.16 0 01-.001.321zm-3.209-.019h-.001l-.962-.005a.16.16 0 010-.321h.001l.963.005c.089.001.16.073.16.162a.161.161 0 01-.161.159zm-3.208-.019h-.001l-.963-.005a.162.162 0 01-.16-.162c.001-.089.066-.167.162-.159l.962.006a.16.16 0 010 .32zm-3.209-.019h-.001l-.963-.005a.16.16 0 01.001-.321h.001l.963.006a.16.16 0 01.159.161.16.16 0 01-.16.159zm-3.209-.018h-.001l-.962-.006a.16.16 0 010-.321h.001l.963.006a.16.16 0 01-.001.321zm-3.209-.019h-.001l-.962-.006a.16.16 0 01-.16-.161c.001-.089.06-.155.162-.16l.962.006a.16.16 0 01-.001.321zm-3.208-.019h-.001l-.963-.006a.16.16 0 01-.159-.161.161.161 0 01.16-.16h.001l.963.006a.16.16 0 01.159.161.16.16 0 01-.16.16zm-3.209-.019h-.001l-.962-.006a.16.16 0 01.001-.321h.001l.962.006a.16.16 0 01-.001.321zm-3.208-.019h-.001l-.963-.006a.16.16 0 01-.159-.161.16.16 0 01.16-.16h.001l.963.006a.16.16 0 01-.001.321zm-3.209-.019h-.001l-.963-.006a.16.16 0 01-.159-.161c.001-.089.081-.167.161-.16l.963.006a.16.16 0 01.159.162.16.16 0 01-.16.159zm-3.209-.019h-.001l-.962-.006a.16.16 0 11.001-.32h.001l.962.005c.089.001.16.073.16.162a.161.161 0 01-.161.159zm-3.209-.019l-.963-.005a.162.162 0 01-.16-.162.161.161 0 01.161-.159h.001l.962.005a.16.16 0 01-.001.321zm-3.208-.019h-.001l-.962-.005a.162.162 0 01-.16-.162.165.165 0 01.161-.159l.963.005c.089.001.16.073.16.162a.161.161 0 01-.161.159zm-3.209-.019h-.001l-.962-.005a.162.162 0 01-.16-.162.161.161 0 01.161-.159h.001l.962.006a.16.16 0 11-.001.32zm-3.208-.019h-.001l-.963-.005a.16.16 0 01.001-.321h.001l.963.006a.16.16 0 01.159.161.16.16 0 01-.16.159zm-3.209-.018h-.001l-.963-.006a.16.16 0 01.001-.321h.001l.963.006a.16.16 0 01.16.161.162.162 0 01-.161.16zm-3.209-.019h-.001l-.962-.006a.161.161 0 01-.16-.161.161.161 0 01.161-.16h.001l.962.006a.16.16 0 01-.001.321zm-3.208-.019h-.001l-.962-.006a.16.16 0 010-.321h.001l.963.006a.16.16 0 01-.001.321zm69.598-.014a.16.16 0 01-.033-.317c.309-.066.622-.14.929-.221a.16.16 0 01.196.113.16.16 0 01-.114.197c-.312.083-.63.158-.944.225a.195.195 0 01-.034.003zm-72.807-.005h-.001l-.962-.006a.16.16 0 01.001-.321h.001l.962.006a.16.16 0 01-.001.321zm-3.208-.019h-.001l-.963-.006a.16.16 0 01-.159-.161.16.16 0 01.16-.16h.001l.963.006a.16.16 0 01-.001.321zm-3.209-.019h-.001l-.963-.006a.16.16 0 01-.159-.161.16.16 0 01.16-.159h.001l.963.005a.16.16 0 01-.001.321zm-3.209-.019h-.001l-.962-.006a.16.16 0 01-.16-.161c.001-.089.058-.161.161-.159l.963.005c.089.001.16.073.16.162a.161.161 0 01-.161.159zm-3.209-.019l-.963-.005a.162.162 0 01-.16-.162.161.161 0 01.161-.159h.001l.962.005a.16.16 0 01-.001.321zm-3.208-.019h-.001l-.962-.005a.16.16 0 11.001-.321h.001l.962.005a.16.16 0 01-.001.321zm-3.209-.019h-.001l-.962-.005a.162.162 0 01-.16-.162.161.161 0 01.161-.159h.001l.962.005c.089.001.16.073.16.162a.161.161 0 01-.161.159zm-3.208-.019h-.001l-.963-.005a.16.16 0 01-.159-.162c0-.088.079-.174.161-.159l.963.006a.16.16 0 01.159.161.16.16 0 01-.16.159zm-3.209-.018h-.001l-.963-.006a.16.16 0 01.001-.321h.001l.963.006a.16.16 0 01-.001.321zm-3.209-.019h-.001l-.962-.006a.16.16 0 01.001-.321h.001l.962.006a.16.16 0 01-.001.321zm-3.208-.019h-.001l-.963-.006a.16.16 0 01-.159-.161.16.16 0 01.161-.16l.963.006a.16.16 0 01.159.161.161.161 0 01-.16.16zm-3.209-.019h-.001l-.962-.006a.16.16 0 01.001-.321h.001l.962.006a.16.16 0 01-.001.321zm-3.208-.019h-.001l-.963-.006a.16.16 0 01-.16-.161.161.161 0 01.161-.16h.001l.962.006a.16.16 0 010 .321zm-3.209-.019h-.001l-.963-.006a.16.16 0 01-.159-.161.16.16 0 01.16-.16h.001l.963.006a.16.16 0 01-.001.321zm-3.209-.019h-.001l-.962-.006a.16.16 0 01-.16-.161.16.16 0 01.161-.159l.963.005c.089.001.16.073.16.162a.161.161 0 01-.161.159zm-3.209-.019h-.001l-.962-.006a.16.16 0 11.001-.32h.001l.962.005a.16.16 0 11-.001.321zm-3.208-.019h-.001l-.963-.005a.16.16 0 01-.159-.162.16.16 0 01.16-.159h.001l.963.005a.16.16 0 01-.001.321zm-3.209-.019h-.001l-.962-.005a.162.162 0 01-.16-.162.161.161 0 01.161-.159h.001l.962.005c.089.001.16.073.16.162a.161.161 0 01-.161.159zm-3.208-.018h-.001l-.963-.006a.16.16 0 01-.159-.162.16.16 0 01.16-.159h.001l.963.006a.16.16 0 01.159.161.161.161 0 01-.16.16zm-3.209-.019h-.001l-.963-.006a.16.16 0 01.001-.321h.001l.963.006c.089 0 .16.072.159.161a.16.16 0 01-.16.16zm-3.209-.019l-.963-.006a.16.16 0 010-.321h.002l.962.006a.16.16 0 01.16.161c0 .088-.073.16-.16.16zm-3.209-.019l-.963-.006a.16.16 0 010-.321h.002l.963.006a.16.16 0 01-.002.321zm-3.208-.019h-.001l-.963-.006a.16.16 0 01.001-.321h.001l.963.006a.16.16 0 01-.001.321zm-3.209-.019l-.963-.006a.16.16 0 01-.16-.161.162.162 0 01.16-.16h.002l.962.006a.16.16 0 010 .321zm-3.208-.019h-.001l-.963-.006a.16.16 0 01-.16-.161.162.162 0 01.161-.16h.001l.963.006a.16.16 0 01-.001.321zm-3.209-.019l-.964-.006a.16.16 0 010-.321h.002l.963.006a.16.16 0 010 .321zm-3.209-.019l-.963-.006a.16.16 0 01-.16-.161c0-.089.073-.168.162-.159l.962.005a.16.16 0 010 .321zm-3.208-.019h-.001l-.963-.005a.16.16 0 01.001-.321h.001l.963.005a.16.16 0 01-.001.321zm-3.21-.019l-.962-.005a.16.16 0 01.001-.321l.963.005a.16.16 0 01-.001.321zm-3.207-.019h-.001l-.963-.005a.161.161 0 01-.16-.162c.001-.089.067-.155.162-.159l.963.006a.16.16 0 010 .32zm-3.21-.019l-.963-.005a.16.16 0 01-.16-.162.16.16 0 01.161-.159h.001l.963.006a.16.16 0 010 .32zm-3.208-.018l-.963-.006a.16.16 0 01.001-.321l.963.006a.16.16 0 01.16.161.161.161 0 01-.16.16zm-3.209-.019l-.963-.006a.16.16 0 01.001-.321l.963.006a.16.16 0 010 .321zm-3.208-.019h-.001l-.963-.006a.16.16 0 01.001-.321h.001l.963.006a.16.16 0 01.16.161.162.162 0 01-.161.16zm-3.209-.019l-.963-.006a.16.16 0 010-.321h.002l.962.006a.16.16 0 01-.001.321zm-3.208-.019h-.001l-.963-.006a.16.16 0 01.001-.321h.001l.963.006a.16.16 0 010 .321zm-3.209-.019h-.001l-.963-.006a.16.16 0 01-.16-.161c.002-.089.083-.156.162-.159l.963.005a.16.16 0 010 .321zm-3.209-.019l-.963-.006a.16.16 0 01.001-.32l.963.005a.16.16 0 01-.001.321zm-3.206-.082l-.012-.001a25.495 25.495 0 01-.964-.091.16.16 0 01-.142-.177.164.164 0 01.178-.142c.316.036.633.066.952.09a.16.16 0 01-.012.321zm197.801-.143a.16.16 0 01-.059-.309c.293-.118.588-.245.877-.378a.16.16 0 11.134.291c-.293.136-.593.265-.892.385a.16.16 0 01-.06.011zm-200.976-.297a.173.173 0 01-.032-.003 24.47 24.47 0 01-.945-.21.16.16 0 01-.119-.194.162.162 0 01.194-.118c.309.075.62.144.933.207a.16.16 0 01-.031.318zm-3.096-.831a.152.152 0 01-.052-.008c-.306-.103-.61-.212-.911-.326a.16.16 0 01.113-.3c.298.112.598.22.9.322a.16.16 0 01-.05.312zm206.934-.316a.16.16 0 01-.136-.076.16.16 0 01.052-.221c.27-.167.538-.342.799-.523a.16.16 0 01.182.264c-.265.184-.538.363-.812.532a.166.166 0 01-.085.024zm-209.902-.894a.159.159 0 01-.07-.016c-.29-.14-.578-.286-.862-.436a.16.16 0 01.15-.284c.28.149.565.292.852.431a.16.16 0 01-.07.305zm212.473-1.02a.16.16 0 01-.12-.053.161.161 0 01.013-.227c.238-.211.473-.431.697-.652a.16.16 0 01.225.229 17.9 17.9 0 01-.709.663.158.158 0 01-.106.04zm-215.266-.55a.155.155 0 01-.087-.026c-.27-.175-.538-.355-.802-.54a.16.16 0 01-.04-.224.161.161 0 01.224-.039c.26.183.525.361.792.534a.16.16 0 01-.087.295zm217.469-1.775a.162.162 0 01-.126-.261c.199-.25.392-.506.574-.761a.16.16 0 11.261.186c-.185.26-.381.52-.583.775a.161.161 0 01-.126.061zm-220.046-.13a.16.16 0 01-.103-.037c-.247-.208-.49-.42-.73-.636a.16.16 0 01.216-.238c.236.213.476.423.72.628a.16.16 0 01-.103.283zm-2.322-2.21a.16.16 0 01-.118-.051c-.22-.237-.434-.478-.645-.722a.16.16 0 11.243-.21c.208.242.42.48.637.713a.16.16 0 01-.117.27zm224.135-.33a.161.161 0 01-.141-.238c.151-.277.296-.562.433-.848a.16.16 0 11.289.138c-.138.291-.286.582-.44.864a.161.161 0 01-.141.084zm-226.165-2.152a.16.16 0 01-.13-.066 26.763 26.763 0 01-.551-.798.16.16 0 01.268-.177c.176.266.357.528.543.787a.16.16 0 01-.13.254zm227.442-.785a.16.16 0 01-.153-.211c.1-.3.194-.607.279-.913a.161.161 0 01.198-.112.16.16 0 01.111.198c-.086.311-.181.624-.283.928a.162.162 0 01-.152.11zm-229.147-1.931a.16.16 0 01-.141-.084c-.154-.283-.303-.57-.447-.86a.162.162 0 01.072-.216.162.162 0 01.215.073c.142.287.29.57.442.85a.161.161 0 01-.141.237zm229.892-1.198a.123.123 0 01-.019-.002c-.088-.012-.15-.08-.138-.167l.004-.027.136-.927a.16.16 0 01.318.046l-.137.927c-.012.081-.084.15-.164.15zm-231.243-1.712a.16.16 0 01-.15-.102 26.28 26.28 0 01-.335-.911.16.16 0 01.303-.105c.105.302.215.602.331.9a.16.16 0 01-.15.218zm231.703-1.451l-.023-.002a.16.16 0 01-.136-.181l.133-.953a.16.16 0 01.181-.137.16.16 0 01.136.181l-.132.954a.161.161 0 01-.159.138zm-232.677-1.606a.16.16 0 01-.156-.121 25.37 25.37 0 01-.217-.944.16.16 0 11.314-.066c.066.313.137.624.215.932a.161.161 0 01-.117.195.17.17 0 01-.039.004zm233.111-1.574l-.022-.002a.161.161 0 01-.138-.18l.126-.954a.16.16 0 01.318.041l-.126.955a.16.16 0 01-.158.14zm-233.69-1.578a.16.16 0 01-.16-.142c-.038-.319-.07-.64-.096-.963a.16.16 0 11.32-.026c.025.319.057.636.095.951a.16.16 0 01-.14.179l-.02.001zm234.099-1.606l-.02-.001a.16.16 0 01-.139-.179l.118-.955a.162.162 0 01.179-.139c.088.01.15.09.139.178l-.118.956a.16.16 0 01-.159.14zm-234.299-1.595a.16.16 0 01-.16-.155l-.031-.962a.16.16 0 01.155-.166.167.167 0 01.165.156l.031.962a.16.16 0 01-.154.165h-.006zm234.685-1.591l-.018-.001a.16.16 0 01-.142-.178l.111-.956a.16.16 0 01.319.037l-.11.957a.16.16 0 01-.16.141zm-234.789-1.616a.16.16 0 01-.16-.155l-.03-.962a.16.16 0 01.155-.165c.078-.007.162.066.165.155l.031.962a.16.16 0 01-.155.165h-.006zm235.15-1.573l-.018-.001a.16.16 0 01-.141-.177l.103-.957a.163.163 0 01.177-.142.159.159 0 01.142.176l-.104.958a.16.16 0 01-.159.143zm-235.252-1.634a.16.16 0 01-.16-.155l-.032-.962a.16.16 0 01.156-.166c.093-.008.162.067.165.156l.031.962a.16.16 0 01-.155.165h-.005zm235.589-1.557l-.016-.001a.161.161 0 01-.144-.176l.097-.958a.159.159 0 01.175-.143.16.16 0 01.144.175l-.097.958a.16.16 0 01-.159.145zm-235.692-1.65a.16.16 0 01-.161-.155l-.03-.962a.16.16 0 01.155-.166.158.158 0 01.165.156l.03.962a.16.16 0 01-.154.165h-.005zm236.005-1.544l-.015-.001a.161.161 0 01-.145-.175l.089-.958a.16.16 0 01.32.029l-.089.959a.161.161 0 01-.16.146zm-236.109-1.663a.16.16 0 01-.16-.155l-.03-.962a.16.16 0 11.32-.01l.03.962a.16.16 0 01-.154.165h-.006zm236.397-1.534h-.014a.16.16 0 01-.146-.174c.027-.318.055-.638.081-.959a.166.166 0 01.173-.146.16.16 0 01.147.173l-.082.96a.16.16 0 01-.159.146zm-236.5-1.673a.16.16 0 01-.16-.155l-.031-.962a.16.16 0 01.155-.166h.005a.16.16 0 01.16.156l.032.962a.16.16 0 01-.155.165h-.006zm236.762-1.525l-.013-.001a.16.16 0 01-.147-.172l.074-.96a.16.16 0 01.172-.148.16.16 0 01.148.172l-.074.961a.161.161 0 01-.16.148zM15.116 196.98a.16.16 0 01-.16-.155l-.031-.962a.16.16 0 01.155-.166c.083-.009.163.067.166.156l.03.962a.16.16 0 01-.154.165h-.006zm237.102-1.519h-.011a.16.16 0 01-.149-.171l.066-.96a.162.162 0 01.171-.15.162.162 0 01.15.171l-.067.961a.16.16 0 01-.16.149zm-237.205-1.688a.16.16 0 01-.16-.155l-.031-.962a.16.16 0 01.155-.166.163.163 0 01.165.155l.032.963a.16.16 0 01-.156.165h-.005zm237.416-1.514h-.01a.16.16 0 01-.15-.17l.058-.961a.16.16 0 01.321.019l-.059.961a.16.16 0 01-.16.151zM14.91 190.566a.16.16 0 01-.16-.155l-.031-.962a.16.16 0 01.155-.166c.08 0 .162.067.165.155l.031.963a.16.16 0 01-.155.165h-.005zm237.703-1.511h-.008a.16.16 0 01-.152-.169l.05-.961a.155.155 0 01.168-.152.16.16 0 01.152.168l-.05.962a.16.16 0 01-.16.152zm-237.806-1.696a.16.16 0 01-.16-.155l-.031-.962a.16.16 0 01.155-.166.167.167 0 01.165.155l.031.962a.16.16 0 01-.155.166h-.005zm237.963-1.509h-.007a.162.162 0 01-.154-.168l.042-.961a.157.157 0 01.167-.154.161.161 0 01.154.167l-.042.962a.161.161 0 01-.16.154zm-238.066-1.698a.16.16 0 01-.16-.155l-.032-.962a.16.16 0 01.156-.166c.093-.009.162.067.165.155l.031.962a.16.16 0 01-.155.166h-.005zm238.194-1.509h-.005a.16.16 0 01-.155-.166l.033-.962a.16.16 0 01.16-.155h.005a.162.162 0 01.156.166l-.033.962a.161.161 0 01-.161.155zm-238.297-1.698a.161.161 0 01-.16-.155l-.032-.962a.16.16 0 01.155-.166h.006a.16.16 0 01.16.155l.031.962a.16.16 0 01-.155.166H14.6zm238.397-1.509h-.004a.162.162 0 01-.156-.165l.024-.962a.163.163 0 01.164-.157.16.16 0 01.157.164l-.024.963a.161.161 0 01-.161.157zm-238.5-1.698a.16.16 0 01-.16-.155l-.032-.962a.16.16 0 01.155-.166h.005a.16.16 0 01.161.155l.031.962a.16.16 0 01-.155.166h-.005zm238.57-1.511h-.003a.16.16 0 01-.158-.163l.015-.962a.16.16 0 01.161-.158h.002a.16.16 0 01.158.162l-.015.963a.16.16 0 01-.16.158zm-238.673-1.696a.161.161 0 01-.16-.155l-.032-.962a.16.16 0 01.155-.166c.105-.004.163.067.166.155l.031.962a.16.16 0 01-.155.166h-.005zm238.712-1.513h-.002a.16.16 0 01-.159-.161l.006-.961c0-.088.068-.146.161-.159a.16.16 0 01.159.161l-.005.961a.16.16 0 01-.16.159zm-238.816-1.694a.16.16 0 01-.16-.155l-.031-.963a.16.16 0 01.155-.165c.085-.008.163.067.166.155l.03.962a.16.16 0 01-.155.166h-.005zm238.823-1.512a.16.16 0 01-.16-.16c-.001-.32-.002-.64-.005-.961a.16.16 0 01.16-.161h.001a.16.16 0 01.16.159c.003.321.004.642.005.962a.16.16 0 01-.16.161h-.001zm-238.926-1.695a.16.16 0 01-.16-.155l-.031-.963a.16.16 0 01.155-.165c.083-.012.163.067.166.155l.03.962a.16.16 0 01-.155.166h-.005zm238.901-1.512a.162.162 0 01-.161-.159 155.1 155.1 0 00-.014-.961.162.162 0 01.158-.163c.101-.005.162.069.163.158.006.321.01.642.014.962a.16.16 0 01-.158.163h-.002zM14.085 164.91a.16.16 0 01-.16-.155l-.031-.963a.16.16 0 01.155-.165c.093-.007.163.067.166.155l.03.962a.16.16 0 01-.155.166h-.005zm238.944-1.512a.161.161 0 01-.16-.157l-.025-.961a.16.16 0 01.156-.165c.09.001.162.067.165.156l.025.962a.161.161 0 01-.157.165h-.004zm-239.047-1.695a.16.16 0 01-.16-.155l-.031-.963a.16.16 0 01.155-.165.167.167 0 01.166.155l.03.962a.16.16 0 01-.155.166h-.005zm238.952-1.512a.16.16 0 01-.16-.155l-.036-.961a.16.16 0 01.155-.166c.103-.004.163.066.166.154l.036.962a.16.16 0 01-.155.166h-.006zm-239.055-1.695a.161.161 0 01-.16-.156l-.032-.962a.16.16 0 01.155-.165h.006a.16.16 0 01.16.155l.031.962a.16.16 0 01-.155.165l-.005.001zm238.924-1.51a.16.16 0 01-.16-.153l-.047-.961a.16.16 0 01.152-.168c.097-.008.164.064.168.152l.047.962a.16.16 0 01-.152.168h-.008zm-239.027-1.697a.161.161 0 01-.16-.156l-.032-.962a.16.16 0 01.155-.165h.006a.16.16 0 01.16.155l.031.962a.16.16 0 01-.155.165l-.005.001zm238.857-1.507a.16.16 0 01-.16-.151c-.018-.32-.038-.64-.058-.96a.16.16 0 01.15-.17.159.159 0 01.17.15l.059.961a.162.162 0 01-.151.17h-.01zm-238.96-1.7a.161.161 0 01-.16-.156l-.032-.962a.16.16 0 01.155-.165h.006a.16.16 0 01.16.155l.031.962a.16.16 0 01-.155.166h-.005zm238.751-1.502a.161.161 0 01-.16-.149 160.36 160.36 0 00-.07-.959.16.16 0 01.148-.172.165.165 0 01.171.148l.072.96a.161.161 0 01-.149.172h-.012zm-238.855-1.705a.161.161 0 01-.16-.156l-.031-.962a.16.16 0 01.155-.165c.105-.002.163.066.166.155l.03.962a.16.16 0 01-.155.166h-.005zm238.604-1.494a.16.16 0 01-.159-.146l-.084-.959a.162.162 0 01.146-.174.163.163 0 01.174.146l.083.959a.16.16 0 01-.146.174h-.014zm-238.707-1.713a.161.161 0 01-.16-.156l-.031-.962a.16.16 0 01.155-.165c.095-.013.163.066.166.155l.03.962a.16.16 0 01-.154.165l-.006.001zm238.413-1.482a.16.16 0 01-.159-.144c-.031-.32-.064-.639-.097-.958a.16.16 0 01.319-.033l.098.959a.16.16 0 01-.145.175l-.016.001zM13.363 142.46a.16.16 0 01-.16-.155l-.031-.962a.16.16 0 01.155-.165c.083-.011.162.066.166.155l.03.962a.16.16 0 01-.154.165h-.006zm238.177-1.465a.16.16 0 01-.159-.142c-.036-.319-.073-.638-.111-.956a.16.16 0 01.319-.038c.038.319.075.638.111.958a.16.16 0 01-.141.177l-.019.001zm-238.28-1.742a.16.16 0 01-.16-.155l-.037-1.128h.223a.16.16 0 01.108.28l.027.838a.16.16 0 01-.155.165h-.006zm237.47-.962h-.963a.16.16 0 010-.321h.963a.16.16 0 01.16.161.16.16 0 01-.16.16zm-3.209 0h-.962a.16.16 0 110-.321h.962a.16.16 0 110 .321zm-3.208 0h-.963a.16.16 0 110-.321h.963a.16.16 0 010 .321zm-3.209 0h-.963a.16.16 0 010-.321h.963a.16.16 0 01.16.161.16.16 0 01-.16.16zm-3.209 0h-.963a.16.16 0 010-.321h.963a.16.16 0 110 .321zm-3.209 0h-.962a.16.16 0 110-.321h.962a.16.16 0 110 .321zm-3.208 0h-.963a.16.16 0 01-.16-.16.16.16 0 01.16-.161h.963a.16.16 0 010 .321zm-3.209 0h-.963a.16.16 0 010-.321h.963a.16.16 0 110 .321zm-3.209 0h-.962a.16.16 0 110-.321h.962a.16.16 0 110 .321zm-3.208 0h-.963a.16.16 0 01-.16-.16.16.16 0 01.16-.161h.963a.16.16 0 010 .321zm-3.209 0h-.963a.16.16 0 010-.321h.963a.16.16 0 01.16.161.16.16 0 01-.16.16zm-3.209 0h-.962a.16.16 0 110-.321h.962a.16.16 0 110 .321zm-3.208 0h-.963a.16.16 0 01-.16-.16.16.16 0 01.16-.161h.963a.16.16 0 010 .321zm-3.209 0h-.963a.16.16 0 010-.321h.963a.16.16 0 01.16.161.16.16 0 01-.16.16zm-3.209 0h-.962a.16.16 0 110-.321h.962a.16.16 0 110 .321zm-3.209 0h-.962a.16.16 0 110-.321h.962a.16.16 0 110 .321zm-3.208 0h-.963a.16.16 0 01-.16-.16.16.16 0 01.16-.161h.963a.16.16 0 010 .321zm-3.209 0h-.963a.16.16 0 010-.321h.963a.16.16 0 01.16.161.16.16 0 01-.16.16zm-3.209 0h-.962a.16.16 0 110-.321h.962a.16.16 0 110 .321zm-3.208 0h-.963a.16.16 0 01-.16-.16.16.16 0 01.16-.161h.963a.16.16 0 010 .321zm-3.209 0h-.963a.16.16 0 010-.321h.963a.16.16 0 01.16.161.16.16 0 01-.16.16zm-3.209 0h-.962a.16.16 0 110-.321h.962a.16.16 0 110 .321zm-3.208 0h-.963a.16.16 0 110-.321h.963a.16.16 0 010 .321zm-3.209 0h-.963a.16.16 0 01-.16-.16.16.16 0 01.16-.161h.963a.16.16 0 01.16.161.16.16 0 01-.16.16zm-3.209 0h-.962a.16.16 0 110-.321h.962a.16.16 0 110 .321zm-3.209 0h-.962a.16.16 0 110-.321h.962a.16.16 0 110 .321zm-3.208 0h-.963a.16.16 0 01-.16-.16.16.16 0 01.16-.161h.963a.16.16 0 010 .321zm-3.209 0h-.963a.16.16 0 010-.321h.963a.16.16 0 110 .321zm-3.209 0h-.962a.16.16 0 110-.321h.962a.16.16 0 110 .321zm-3.208 0h-.963a.16.16 0 01-.16-.16.16.16 0 01.16-.161h.963a.16.16 0 010 .321zm-3.209 0h-.963a.16.16 0 010-.321h.963a.16.16 0 01.16.161.16.16 0 01-.16.16zm-3.209 0h-.962a.16.16 0 110-.321h.962a.16.16 0 110 .321zm-3.208 0h-.963a.16.16 0 110-.321h.963a.16.16 0 010 .321zm-3.209 0h-.963a.16.16 0 010-.321h.963a.16.16 0 01.16.161.16.16 0 01-.16.16zm-3.209 0h-.962a.16.16 0 110-.321h.962a.16.16 0 110 .321zm-3.209 0h-.962a.16.16 0 110-.321h.962a.16.16 0 110 .321zm-3.208 0h-.963a.16.16 0 01-.16-.16.16.16 0 01.16-.161h.963a.16.16 0 010 .321zm-3.209 0h-.963a.16.16 0 010-.321h.963a.16.16 0 110 .321zm-3.209 0h-.962a.16.16 0 110-.321h.962a.16.16 0 110 .321zm-3.208 0h-.963a.16.16 0 01-.16-.16.16.16 0 01.16-.161h.963a.16.16 0 010 .321zm-3.209 0h-.963a.16.16 0 010-.321h.963a.16.16 0 01.16.161.16.16 0 01-.16.16zm-3.209 0h-.962a.16.16 0 110-.321h.962a.16.16 0 110 .321zm-3.208 0h-.963a.16.16 0 110-.321h.963a.16.16 0 010 .321zm-3.209 0h-.963a.16.16 0 010-.321h.963a.16.16 0 01.16.161.16.16 0 01-.16.16zm-3.209 0h-.962a.16.16 0 110-.321h.962a.16.16 0 110 .321zm-3.209 0h-.962a.16.16 0 110-.321h.962a.16.16 0 110 .321zm-3.208 0h-.963a.16.16 0 01-.16-.16.16.16 0 01.16-.161h.963a.16.16 0 010 .321zm-3.209 0h-.962a.16.16 0 010-.321h.962a.16.16 0 110 .321zm-3.209 0h-.962a.16.16 0 010-.321h.962a.16.16 0 010 .321zm-3.208 0h-.963a.16.16 0 010-.321h.963a.16.16 0 010 .321zm-3.209 0h-.963a.16.16 0 010-.321h.963a.16.16 0 010 .321zm-3.209 0h-.962a.16.16 0 010-.321h.962a.16.16 0 010 .321zm-3.208 0h-.963a.16.16 0 010-.321h.963a.16.16 0 010 .321zm-3.209 0h-.963a.16.16 0 010-.321h.963a.16.16 0 010 .321zm-3.209 0h-.962a.16.16 0 010-.321h.962a.16.16 0 010 .321zm-3.209 0h-.962a.16.16 0 010-.321h.962a.16.16 0 010 .321zm-3.208 0h-.963a.16.16 0 010-.321h.963a.16.16 0 010 .321zm-3.209 0h-.963a.16.16 0 010-.321h.963a.16.16 0 010 .321zm-3.209 0h-.962a.16.16 0 010-.321h.963a.16.16 0 010 .321zm-3.208 0h-.963a.16.16 0 010-.321h.963a.16.16 0 010 .321zm-3.209 0h-.963a.16.16 0 010-.321h.963a.16.16 0 010 .321zm-3.209 0h-.962a.16.16 0 010-.321h.962a.16.16 0 010 .321zm-3.208 0h-.963a.16.16 0 010-.321h.963a.16.16 0 010 .321zm-3.209 0h-.963a.16.16 0 010-.321h.963a.16.16 0 010 .321zm-3.209 0h-.962a.16.16 0 010-.321h.962a.16.16 0 010 .321zm-3.209 0h-.962a.16.16 0 010-.321h.962a.16.16 0 010 .321zm-3.208 0h-.963a.16.16 0 010-.321h.963a.16.16 0 010 .321zm-3.209 0h-.962a.16.16 0 010-.321h.962a.16.16 0 010 .321zm-3.209 0h-.962a.16.16 0 010-.321h.962a.16.16 0 010 .321zm-3.208 0h-.963a.16.16 0 010-.321h.963a.16.16 0 010 .321zm-3.209 0h-.963a.16.16 0 010-.321h.963a.16.16 0 010 .321zm-3.209 0h-.962a.16.16 0 010-.321h.962a.16.16 0 010 .321zm-3.208 0h-.963a.16.16 0 010-.321h.963a.16.16 0 010 .321zm-3.209 0h-.963a.16.16 0 010-.321h.963a.16.16 0 010 .321z" fill="#fff"/><path d="M65.322 77.944l.598-6.394a4.916 4.916 0 013.728-2.87c6.185-.985 21.525-2.716 28.911 2.804l1.103 7.43-34.34-.97z" fill="url(#paint2_linear)"/><path d="M84.644 71.792a8.872 8.872 0 01-4.28-.005 3.866 3.866 0 01-2.95-3.745V48.02h10.19v20.007a3.881 3.881 0 01-2.96 3.765z" fill="url(#paint3_linear)"/><path d="M164.011 77.944l.597-6.394a4.915 4.915 0 013.728-2.87c6.186-.985 21.526-2.716 28.911 2.804l1.104 7.43-34.34-.97z" fill="url(#paint4_linear)"/><path d="M183.332 71.792a8.873 8.873 0 01-4.28-.005 3.866 3.866 0 01-2.949-3.745v-22.13h10.189v22.115a3.88 3.88 0 01-2.96 3.765z" fill="url(#paint5_linear)"/><path d="M76.38 52.928l109.577-3.627c2.498-.083 4.618-1.885 5.047-4.336.6-3.43 1.129-8.566.34-13.89-.897-6.053-6.105-10.55-12.251-10.697-20.442-.486-72.481-.471-101.162 10.874a10.016 10.016 0 00-6.052 6.95c-.732 3.012-1.219 7.034-.262 11.127.508 2.175 2.52 3.674 4.763 3.6z" fill="url(#paint6_linear)"/><path d="M74.483 47.072a.321.321 0 01-.319-.288c-.017-.173-.414-4.263.651-8.2.8-2.96 3.143-5.34 6.112-6.21 6.097-1.79 17.747-4.83 27.259-5.097.171-.013.325.134.33.311a.32.32 0 01-.311.33c-9.441.265-21.03 3.29-27.097 5.071-2.757.81-4.93 3.017-5.674 5.763-1.032 3.819-.635 7.926-.631 7.967a.321.321 0 01-.32.353z" fill="#91B3FA"/><path d="M14.482 75.454C49.883 75 203.025 73.392 247.51 78.759c3.83.462 6.956 3.264 7.785 7.014 2.629 11.883 7.917 39.489 7.29 66.853-.085 3.724-2.816 6.866-6.492 7.561l-101.543 19.21h-36.07L10.284 157.891c-3.814-.758-6.625-3.988-6.822-7.854-.704-13.767-1.803-46.069 1.92-66.86a9.362 9.362 0 019.1-7.723z" fill="url(#paint7_linear)"/><path d="M119.34 170.808a.163.163 0 01-.031-.003l-.944-.188a.16.16 0 11.062-.314l.944.188a.159.159 0 01.126.188.16.16 0 01-.157.129zm33.685 0h-.963a.16.16 0 01-.16-.16.16.16 0 01.16-.161h.963a.16.16 0 010 .321zm-3.209 0h-.963a.16.16 0 010-.321h.963a.16.16 0 110 .321zm-3.209 0h-.962a.16.16 0 110-.321h.962a.16.16 0 110 .321zm-3.208 0h-.963a.16.16 0 01-.16-.16.16.16 0 01.16-.161h.963a.16.16 0 010 .321zm-3.209 0h-.963a.16.16 0 010-.321h.963a.16.16 0 110 .321zm-3.209 0h-.962a.16.16 0 110-.321h.962a.16.16 0 110 .321zm-3.208 0h-.963a.16.16 0 110-.321h.963a.16.16 0 010 .321zm-3.209 0h-.963a.16.16 0 010-.321h.963a.16.16 0 01.16.161.16.16 0 01-.16.16zm-3.209 0h-.962a.16.16 0 110-.321h.962a.16.16 0 110 .321zm-3.208 0h-.963a.16.16 0 110-.321h.963a.16.16 0 010 .321zm-3.209 0h-.963a.16.16 0 01-.16-.16.16.16 0 01.16-.161h.963a.16.16 0 010 .321zm34.306-.286a.16.16 0 01-.03-.318l.946-.179a.16.16 0 01.187.128.16.16 0 01-.128.187l-.945.179a.153.153 0 01-.03.003zm-39.051-.339a.182.182 0 01-.032-.003l-.944-.188a.161.161 0 01-.126-.189.162.162 0 01.189-.126l.944.188a.16.16 0 01-.031.318zm42.203-.258a.16.16 0 01-.157-.13.161.161 0 01.128-.188l.946-.179a.16.16 0 01.059.316l-.946.178a.153.153 0 01-.03.003zm-45.35-.368a.155.155 0 01-.031-.003l-.945-.187a.162.162 0 01-.126-.189.16.16 0 01.189-.126l.944.187a.16.16 0 01-.031.318zm48.503-.228a.16.16 0 01-.029-.318l.945-.179a.16.16 0 11.06.315l-.946.179a.153.153 0 01-.03.003zm-51.65-.397a.173.173 0 01-.032-.003l-.944-.188a.16.16 0 01-.126-.189.158.158 0 01.189-.126l.944.188a.16.16 0 01-.031.318zm54.803-.2a.16.16 0 01-.03-.318l.946-.179a.164.164 0 01.188.128.162.162 0 01-.128.188l-.946.179a.302.302 0 01-.03.002zm-57.95-.426a.173.173 0 01-.032-.003l-.944-.188a.16.16 0 01-.126-.188.16.16 0 01.189-.126l.944.187a.16.16 0 01-.031.318zm61.103-.17a.16.16 0 01-.03-.318l.946-.179a.16.16 0 01.187.128.159.159 0 01-.128.187l-.945.179a.153.153 0 01-.03.003zm-64.251-.456c-.01 0-.02 0-.031-.003l-.944-.187a.161.161 0 01-.126-.189.158.158 0 01.189-.126l.944.188a.16.16 0 01-.032.317zm67.403-.141a.16.16 0 01-.157-.13.161.161 0 01.128-.188l.946-.179a.161.161 0 01.187.128.16.16 0 01-.128.188l-.946.179a.302.302 0 01-.03.002zm-70.55-.484a.17.17 0 01-.031-.003l-.944-.188a.16.16 0 01.063-.315l.944.188a.16.16 0 01-.032.318zm73.703-.112a.16.16 0 01-.029-.318l.945-.179a.16.16 0 11.06.315l-.946.179a.153.153 0 01-.03.003zm-76.85-.514a.17.17 0 01-.031-.003l-.944-.188a.16.16 0 11.063-.314l.944.188a.16.16 0 01-.031.317zm80.003-.083a.16.16 0 01-.03-.318l.946-.179a.163.163 0 01.188.128.162.162 0 01-.128.188l-.946.179-.03.002zm-83.15-.542a.168.168 0 01-.031-.003l-.944-.188a.16.16 0 01-.126-.188.16.16 0 01.188-.127l.945.188a.16.16 0 01-.032.318zm86.303-.054a.16.16 0 01-.03-.318l.946-.179a.16.16 0 01.059.315l-.945.179a.153.153 0 01-.03.003zm-89.45-.572a.168.168 0 01-.031-.003l-.945-.188a.16.16 0 01-.126-.188.16.16 0 01.19-.126l.944.187a.16.16 0 01-.031.318zm92.602-.024a.16.16 0 01-.029-.318l.946-.179a.16.16 0 11.059.315l-.946.179a.153.153 0 01-.03.003zm3.153-.597a.16.16 0 01-.029-.318l.946-.179a.16.16 0 01.059.315l-.946.179a.153.153 0 01-.03.003zm-98.902-.004a.17.17 0 01-.031-.003l-.945-.188a.16.16 0 01.063-.315l.944.188a.16.16 0 01-.03.318zm102.055-.592a.16.16 0 01-.157-.131.159.159 0 01.127-.187l.947-.179a.161.161 0 01.187.127.162.162 0 01-.128.188l-.946.179a.153.153 0 01-.03.003zm-105.202-.034a.172.172 0 01-.032-.003l-.944-.188a.16.16 0 01-.126-.189.158.158 0 01.189-.125l.944.187a.16.16 0 01-.031.318zm108.355-.563a.159.159 0 01-.157-.131.159.159 0 01.127-.187l.946-.179a.16.16 0 01.187.128.159.159 0 01-.127.187l-.946.179a.153.153 0 01-.03.003zm-111.502-.063c-.01 0-.021 0-.032-.003l-.944-.187a.161.161 0 01-.126-.189.161.161 0 01.189-.126l.944.188a.16.16 0 01.126.188.16.16 0 01-.157.129zm114.655-.533a.16.16 0 01-.157-.131.159.159 0 01.127-.187l.946-.179a.16.16 0 01.187.128.159.159 0 01-.127.187l-.946.179a.153.153 0 01-.03.003zm-117.802-.092a.17.17 0 01-.032-.003l-.944-.188a.16.16 0 01.063-.315l.944.188a.16.16 0 01-.031.318zm120.954-.505a.16.16 0 01-.157-.13.161.161 0 01.128-.188l.946-.179a.162.162 0 01.187.128.159.159 0 01-.128.187l-.946.179a.153.153 0 01-.03.003zm-124.101-.121a.171.171 0 01-.032-.003l-.944-.187a.16.16 0 11.063-.315l.944.187a.16.16 0 01-.031.318zm127.255-.475a.16.16 0 01-.03-.318l.945-.179a.16.16 0 11.06.315l-.946.179a.15.15 0 01-.029.003zm-130.403-.15a.167.167 0 01-.031-.003l-.944-.188a.16.16 0 01.062-.315l.945.188a.16.16 0 01-.032.318zm133.555-.447a.16.16 0 01-.03-.318l.946-.179a.163.163 0 01.188.128.16.16 0 01-.128.187l-.946.179a.153.153 0 01-.03.003zm-136.702-.179a.17.17 0 01-.031-.003l-.945-.188a.16.16 0 01-.125-.188.158.158 0 01.188-.126l.944.187a.16.16 0 01-.031.318zm139.855-.417a.16.16 0 01-.03-.318l.946-.179a.16.16 0 01.187.128.159.159 0 01-.128.187l-.945.179a.153.153 0 01-.03.003zm-143.002-.208a.17.17 0 01-.031-.003l-.945-.188a.16.16 0 01-.126-.189.158.158 0 01.19-.126l.943.188a.16.16 0 01-.031.318zm146.155-.389a.16.16 0 01-.03-.318l.946-.179a.16.16 0 01.187.128.16.16 0 01-.128.188l-.946.179a.303.303 0 01-.029.002zm-149.302-.237a.17.17 0 01-.032-.003l-.944-.188a.16.16 0 01.063-.315l.944.188a.16.16 0 01-.03.318zm152.454-.359a.16.16 0 01-.029-.318l.946-.179a.158.158 0 01.187.128.16.16 0 01-.128.187l-.946.179a.153.153 0 01-.03.003zm-155.601-.267a.167.167 0 01-.032-.003l-.944-.187a.161.161 0 01-.126-.189.161.161 0 01.189-.126l.944.188a.16.16 0 01-.032.317zm158.754-.33a.16.16 0 01-.03-.318l.947-.179a.16.16 0 01.059.316l-.946.178a.153.153 0 01-.03.003zm-161.901-.295a.173.173 0 01-.032-.003l-.944-.188a.16.16 0 01.063-.315l.944.188a.16.16 0 01-.031.318zm165.054-.301a.16.16 0 01-.157-.131.159.159 0 01.127-.187l.946-.179a.16.16 0 01.187.128.159.159 0 01-.127.187l-.946.179a.153.153 0 01-.03.003zm-168.201-.325a.171.171 0 01-.032-.003l-.944-.188a.16.16 0 11.063-.314l.944.188a.16.16 0 01-.031.317zm171.353-.272a.16.16 0 01-.029-.318l.946-.179a.162.162 0 01.187.128.16.16 0 01-.127.188l-.946.179-.031.002zm-174.5-.353a.17.17 0 01-.032-.003l-.944-.188a.16.16 0 01.063-.315l.944.188a.16.16 0 01-.031.318zm177.653-.243a.16.16 0 01-.029-.318l.946-.179a.16.16 0 11.059.315l-.945.179a.17.17 0 01-.031.003zm-180.8-.383a.17.17 0 01-.032-.003l-.944-.188a.16.16 0 01-.126-.188.157.157 0 01.188-.126l.944.187a.16.16 0 01-.031.318zm183.953-.214a.16.16 0 01-.029-.318l.946-.179a.161.161 0 01.059.316l-.946.179a.302.302 0 01-.03.002zm-187.1-.411a.114.114 0 01-.032-.004l-.944-.187a.16.16 0 01.063-.315l.943.188a.16.16 0 01-.031.318zm190.253-.185a.16.16 0 01-.157-.131.159.159 0 01.128-.187l.945-.179a.163.163 0 01.188.128.16.16 0 01-.128.187l-.946.179a.153.153 0 01-.03.003zm-193.4-.441a.17.17 0 01-.033-.003l-.944-.188a.16.16 0 11.063-.314l.944.187a.16.16 0 01-.03.318zm196.553-.155a.161.161 0 01-.158-.131.162.162 0 01.128-.188l.946-.178a.16.16 0 01.06.315l-.946.179a.153.153 0 01-.03.003zm-199.701-.47a.113.113 0 01-.032-.004l-.944-.187a.161.161 0 01-.126-.189.157.157 0 01.189-.126l.944.188a.16.16 0 01-.031.318zm202.853-.127a.16.16 0 01-.029-.318l.946-.179a.162.162 0 01.187.128.16.16 0 01-.128.187l-.945.179a.163.163 0 01-.031.003zm-206-.499a.168.168 0 01-.032-.003l-.944-.188a.16.16 0 01.063-.315l.944.188a.16.16 0 01-.032.318zm209.153-.097a.16.16 0 01-.029-.318l.946-.179a.16.16 0 11.059.315l-.946.179a.153.153 0 01-.03.003zm-212.3-.529a.17.17 0 01-.032-.003l-.944-.188a.16.16 0 01-.126-.188.158.158 0 01.189-.126l.944.188a.16.16 0 01-.031.317zm215.453-.068a.16.16 0 01-.029-.318l.945-.179a.16.16 0 11.06.315l-.946.179a.153.153 0 01-.03.003zm-218.6-.557a.167.167 0 01-.032-.003l-.944-.188a.16.16 0 01-.126-.189.158.158 0 01.188-.126l.945.188a.16.16 0 01-.032.318zm221.753-.039a.16.16 0 01-.03-.318l.946-.179a.163.163 0 01.188.128.16.16 0 01-.128.187l-.946.179a.153.153 0 01-.03.003zm-224.9-.587a.167.167 0 01-.032-.003l-.944-.188a.16.16 0 11.063-.314l.944.187a.16.16 0 01-.031.318zm228.052-.01a.16.16 0 01-.029-.318l.754-.143a.162.162 0 01.149-.1h.002a.16.16 0 01.159.163l-.005.206-.999.189a.155.155 0 01-.031.003zm-231.2-.615a.115.115 0 01-.031-.004l-.944-.187a.16.16 0 01.062-.315l.944.188a.16.16 0 01-.031.318zm-3.147-.626a.173.173 0 01-.031-.003l-.944-.188a.16.16 0 01-.126-.189.158.158 0 01.188-.125l.944.187a.16.16 0 01-.031.318zm-3.147-.626c-.01 0-.021 0-.032-.003l-.944-.187a.16.16 0 01.063-.315l.944.188a.16.16 0 01.126.188.16.16 0 01-.157.129zm238.396-.619h-.001a.16.16 0 01-.159-.161c.002-.321.003-.641.003-.962a.16.16 0 01.321 0c0 .322-.001.643-.004.964a.16.16 0 01-.16.159zm-241.543-.006a.168.168 0 01-.031-.003l-.273-.054-.046-.934a.161.161 0 01.152-.169.157.157 0 01.168.153l.034.684.027.005a.16.16 0 01-.03.318zm-.296-3.083a.16.16 0 01-.16-.154l-.042-.962a.16.16 0 01.153-.167c.081-.007.163.065.168.153l.042.962a.16.16 0 01-.153.167l-.008.001zm241.833-.119a.16.16 0 01-.16-.159c-.003-.321-.007-.641-.012-.962a.16.16 0 01.158-.162h.003a.16.16 0 01.16.158c.005.32.008.641.012.962a.16.16 0 01-.159.163h-.002zm-241.967-3.088a.16.16 0 01-.16-.154l-.037-.963a.16.16 0 01.154-.166c.085-.009.163.066.167.154l.036.962a.161.161 0 01-.154.167h-.006zm241.911-.119a.16.16 0 01-.16-.156c-.008-.321-.017-.641-.027-.96a.16.16 0 01.156-.165c.082-.013.163.067.165.155.01.32.018.641.026.961a.16.16 0 01-.156.165h-.004zm-242.027-3.088a.161.161 0 01-.16-.156l-.032-.962a.16.16 0 01.155-.166.158.158 0 01.166.156l.031.962a.16.16 0 01-.155.165.01.01 0 01-.005.001zm241.923-.115a.16.16 0 01-.16-.154l-.04-.958a.16.16 0 01.153-.167c.099-.006.163.064.167.153.015.319.028.64.041.96a.16.16 0 01-.155.166h-.006zm-242.021-3.093a.16.16 0 01-.16-.156l-.026-.963a.161.161 0 01.156-.165c.105-.001.162.068.165.157l.025.962a.161.161 0 01-.156.165h-.004zm241.872-.104a.161.161 0 01-.16-.152l-.053-.961a.16.16 0 01.151-.169.158.158 0 01.169.151c.019.32.036.641.053.962a.16.16 0 01-.151.169h-.009zm-241.951-3.105a.16.16 0 01-.16-.157l-.021-.962a.16.16 0 01.157-.164c.097-.006.162.069.164.157l.02.963a.16.16 0 01-.157.163h-.003zm241.76-.099a.16.16 0 01-.16-.15l-.066-.96a.16.16 0 01.321-.022l.065.961a.16.16 0 01-.149.17l-.011.001zm-241.82-3.109a.16.16 0 01-.16-.158l-.015-.963a.16.16 0 01.159-.163h.002a.16.16 0 01.16.158l.014.963a.161.161 0 01-.158.163h-.002zm241.587-.093a.16.16 0 01-.159-.147l-.077-.96a.159.159 0 01.146-.172.165.165 0 01.173.146l.077.96a.16.16 0 01-.147.173h-.013zm-241.627-3.116a.16.16 0 01-.16-.159l-.008-.963a.16.16 0 01.16-.162.16.16 0 01.16.159l.009.963c0 .088-.07.161-.16.162zm241.356-.082a.16.16 0 01-.159-.146l-.089-.958a.162.162 0 01.145-.175.164.164 0 01.175.145l.088.959a.16.16 0 01-.145.175h-.015zm-241.374-3.127a.16.16 0 01-.16-.16l-.002-.963a.16.16 0 01.321 0l.002.963a.16.16 0 01-.16.16zm241.066-.068a.16.16 0 01-.159-.144c-.032-.32-.066-.639-.099-.957a.159.159 0 01.142-.176.16.16 0 01.177.142c.033.319.067.638.099.958a.16.16 0 01-.143.176l-.017.001zM11.501 120.79a.161.161 0 01-.16-.161l.005-.961a.16.16 0 01.16-.159h.002a.16.16 0 01.16.162l-.006.959a.16.16 0 01-.16.16zm240.719-.05a.16.16 0 01-.159-.143l-.11-.956a.161.161 0 01.141-.178.162.162 0 01.178.141c.037.318.074.637.109.957a.16.16 0 01-.141.178l-.018.001zm-240.69-3.156h-.002a.16.16 0 01-.16-.162l.014-.962c.002-.088.087-.154.163-.158a.16.16 0 01.158.163l-.013.961a.16.16 0 01-.16.158zm240.312-.032a.16.16 0 01-.159-.14l-.12-.956a.16.16 0 01.318-.04l.12.956a.16.16 0 01-.139.179l-.02.001zm-240.258-3.174h-.004a.16.16 0 01-.156-.164l.021-.963a.164.164 0 01.164-.156.16.16 0 01.157.164l-.022.962a.16.16 0 01-.16.157zm239.847-.009a.161.161 0 01-.159-.14c-.042-.319-.085-.637-.129-.953a.16.16 0 11.318-.044l.13.955a.16.16 0 01-.16.182zm-.443-3.18a.16.16 0 01-.158-.137l-.139-.952a.16.16 0 01.135-.183.162.162 0 01.182.135l.139.954a.16.16 0 01-.136.182l-.023.001zm-239.321-.019h-.005a.161.161 0 01-.156-.165l.031-.964c.003-.088.068-.16.166-.155a.16.16 0 01.155.166l-.03.962a.161.161 0 01-.161.156zm238.847-3.156a.16.16 0 01-.158-.136l-.149-.951a.161.161 0 01.134-.183.162.162 0 01.183.133l.149.952a.16.16 0 01-.134.183c-.009.002-.017.002-.025.002zm-238.734-.052h-.006a.161.161 0 01-.154-.167l.04-.964a.161.161 0 01.161-.154l.007.001a.16.16 0 01.153.167l-.04.963a.161.161 0 01-.16.154zm238.229-3.118a.16.16 0 01-.158-.134l-.157-.95a.16.16 0 11.316-.053l.158.951a.16.16 0 01-.132.184c-.009.002-.018.002-.027.002zm-238.08-.09h-.009a.161.161 0 01-.151-.169l.052-.965a.16.16 0 01.32.018l-.052.964a.16.16 0 01-.16.152zm237.544-3.075a.16.16 0 01-.157-.133l-.167-.948a.16.16 0 01.316-.056l.167.949a.162.162 0 01-.159.188zm-237.357-.133h-.01a.16.16 0 01-.15-.171c.02-.321.042-.641.064-.961a.156.156 0 01.172-.149.16.16 0 01.149.171c-.023.319-.044.639-.065.96a.16.16 0 01-.16.15zm236.792-3.028a.16.16 0 01-.157-.131l-.176-.947a.16.16 0 01.128-.187.162.162 0 01.187.129l.176.947a.16.16 0 01-.158.19zm-236.56-.173a.16.16 0 01-.16-.173c.025-.321.051-.641.078-.96a.16.16 0 11.32.027l-.08.958a.16.16 0 01-.159.148zm235.964-2.981a.16.16 0 01-.157-.13l-.185-.945a.16.16 0 11.315-.062l.185.946a.16.16 0 01-.158.19zm-235.684-.216l-.015-.001a.16.16 0 01-.145-.175c.031-.321.063-.641.096-.959a.163.163 0 01.175-.143.16.16 0 01.144.175c-.033.318-.064.637-.095.958a.16.16 0 01-.16.145zm235.056-2.934a.161.161 0 01-.157-.128l-.194-.943a.16.16 0 01.124-.19.161.161 0 01.19.125l.195.944a.161.161 0 01-.158.192zm-234.716-.258h-.02a.16.16 0 01-.14-.178c.037-.321.076-.64.115-.958a.16.16 0 11.318.04c-.039.316-.077.635-.114.954a.16.16 0 01-.16.142zm234.055-2.884a.16.16 0 01-.156-.127c-.07-.326-.139-.64-.205-.94a.16.16 0 01.313-.069c.066.301.135.615.205.942a.16.16 0 01-.157.194zm-233.647-.299l-.022-.001a.16.16 0 01-.137-.182c.045-.32.091-.638.139-.954a.162.162 0 01.182-.135.16.16 0 01.135.183c-.047.314-.093.632-.138.951a.16.16 0 01-.159.138zm231.549-1.345l-.018-.001a173.2 173.2 0 00-.956-.103.16.16 0 11.034-.32l.957.104a.16.16 0 01-.017.32zm-3.193-.326a.16.16 0 01-1.118-.264.164.164 0 01.174-.146l.959.09a.16.16 0 01-.015.32zm-3.196-.284h-.013l-.959-.078a.16.16 0 01.025-.32l.96.078a.16.16 0 01-.013.32zm-3.199-.25a.24.24 0 01-.012 0l-.96-.07a.161.161 0 01-.149-.171.167.167 0 01.172-.149l.961.07a.16.16 0 01-.012.32zm-3.201-.224h-.011l-.961-.063a.16.16 0 01-.149-.17.167.167 0 01.17-.15l.961.063a.161.161 0 01.15.17.161.161 0 01-.16.15zm-3.203-.202h-.01l-.96-.057a.16.16 0 11.018-.32l.962.056a.16.16 0 01-.01.321zm-3.203-.184h-.009l-.961-.053a.16.16 0 01-.152-.168c.005-.089.093-.156.169-.152l.961.052a.16.16 0 01-.008.32zm-3.205-.169h-.008l-.961-.048a.16.16 0 01-.153-.168.165.165 0 01.168-.153l.962.048a.16.16 0 01-.008.321zm-3.205-.155h-.008l-.961-.045a.16.16 0 01-.153-.168c.004-.088.072-.16.167-.152l.962.044a.16.16 0 01-.007.32zm-205.451-.032c-.009 0-.018 0-.027-.002a.16.16 0 01-.132-.185c.042-.243.084-.485.127-.724a.811.811 0 01.098-.267.16.16 0 11.277.162.487.487 0 00-.059.161c-.043.24-.085.48-.126.722a.16.16 0 01-.158.133zm202.245-.112h-.007l-.962-.04a.16.16 0 01.007-.322h.007l.962.042a.16.16 0 01-.007.32zm-3.206-.133h-.006l-.962-.038a.16.16 0 01-.154-.167.16.16 0 01.166-.154l.962.038a.16.16 0 01.154.167.16.16 0 01-.16.154zm-3.206-.123h-.006l-.962-.036a.16.16 0 01-.155-.166c.003-.088.063-.157.167-.154l.962.035a.16.16 0 01-.006.32zm-3.207-.115h-.006l-.962-.033a.16.16 0 01-.155-.166c.004-.088.086-.162.166-.155l.962.033a.16.16 0 01-.005.32zm-3.207-.107h-.006l-.961-.03a.16.16 0 01-.156-.166.157.157 0 01.166-.156l.962.031a.16.16 0 01-.005.32zm-3.207-.1h-.005l-.962-.03a.16.16 0 01-.156-.164c.003-.089.074-.168.165-.156l.962.029a.16.16 0 01-.004.32zm-3.208-.094h-.004l-.962-.026a.16.16 0 01-.156-.165c.002-.089.082-.156.165-.156l.962.027a.161.161 0 01.156.165.161.161 0 01-.161.156zm-3.207-.087h-.005l-.962-.025a.161.161 0 01-.156-.164c.002-.089.079-.152.164-.157l.963.025a.16.16 0 01-.004.32zm-3.208-.081h-.004l-.963-.024a.16.16 0 01-.156-.164.159.159 0 01.164-.156l.963.023a.16.16 0 01-.004.32zm-3.208-.076h-.004l-.962-.022a.16.16 0 01.003-.321h.004l.963.022a.16.16 0 01-.004.32zm-3.208-.072h-.004l-.962-.02a.16.16 0 01.003-.321h.004l.962.02a.16.16 0 01-.003.321zm-3.208-.066h-.003l-.963-.02a.16.16 0 11.007-.32l.962.019a.16.16 0 01-.003.32zm-3.209-.063h-.003l-.962-.017a.16.16 0 01-.157-.164.16.16 0 01.16-.157h.003l.962.018a.161.161 0 01.158.163.161.161 0 01-.161.157zm-161.413-.03a.16.16 0 01-.002-.322l.962-.012h.002a.16.16 0 01.003.321l-.963.012h-.002zm158.205-.028h-.003l-.962-.016a.16.16 0 01-.158-.164c.002-.088.089-.156.163-.157l.963.017a.16.16 0 01.157.163.16.16 0 01-.16.157zm-154.995-.012a.16.16 0 01-.002-.32l.963-.012c.096 0 .162.07.163.158a.16.16 0 01-.159.163l-.963.011h-.002zm3.21-.037a.16.16 0 01-.001-.321l.963-.011h.002a.16.16 0 01.002.32l-.963.011h-.002zm148.577-.005h-.002l-.963-.015a.16.16 0 01-.158-.163c.002-.089.086-.163.163-.158l.963.015a.16.16 0 01.157.163.16.16 0 01-.16.158zM25.843 84.23a.16.16 0 01-.002-.321l.963-.01c.082.005.161.07.162.158a.16.16 0 01-.158.162l-.963.01h-.002zM168 84.21h-.002l-.962-.014a.16.16 0 01.002-.32l.002-.001.963.014a.16.16 0 01-.003.32zm-138.947-.016a.16.16 0 01-.002-.32l.963-.01h.002a.16.16 0 01.001.32l-.963.01h-.001zm135.739-.03h-.002l-.963-.014a.16.16 0 01.002-.32l.003-.001.962.013c.089.001.16.075.159.163a.161.161 0 01-.161.158zm-132.53-.003a.16.16 0 010-.32l.962-.01c.084.01.16.07.162.159a.16.16 0 01-.159.162l-.963.01h-.001zm3.21-.032a.16.16 0 01-.001-.32l.963-.01h.001a.16.16 0 01.002.321l-.963.01h-.002zm126.112-.01h-.003l-.962-.012a.16.16 0 01-.158-.162c.001-.089.073-.153.162-.159l.963.013a.16.16 0 01-.002.32zM38.682 84.1a.16.16 0 01-.001-.32l.963-.01c.099.002.16.071.161.16a.16.16 0 01-.158.161l-.963.01h-.002zm119.693-.02h-.002l-.962-.011a.16.16 0 01.001-.321h.002l.963.012a.16.16 0 01.158.162.16.16 0 01-.16.158zm-116.483-.009a.16.16 0 01-.002-.32l.963-.01h.002a.16.16 0 010 .322l-.962.008h-.001zm3.21-.027a.16.16 0 01-.002-.321l.963-.008a.16.16 0 01.002.32l-.962.008H45.1zm110.065 0h-.002l-.963-.011a.16.16 0 01-.158-.162c0-.09.084-.167.162-.16l.962.011a.16.16 0 01-.001.321zm-106.856-.027a.16.16 0 01-.001-.32l.963-.008c.101-.006.16.07.161.159a.16.16 0 01-.159.162l-.963.007h-.001zm103.647-.008h-.002l-.962-.01a.16.16 0 01.001-.32h.002l.962.009a.16.16 0 01-.001.32zm-100.437-.017a.16.16 0 01-.002-.32l.963-.008h.001a.16.16 0 01.002.321l-.963.007h-.001zm97.228-.014h-.001l-.963-.01a.16.16 0 01-.159-.162c.001-.088.074-.163.162-.158l.963.009a.16.16 0 01-.002.32zm-94.02-.01a.16.16 0 010-.32l.962-.007h.001a.16.16 0 01.001.32l-.962.007h-.001zm90.811-.02h-.001l-.962-.007a.161.161 0 01-.16-.162.161.161 0 01.161-.16h.001l.963.009a.16.16 0 01-.002.32zm-87.6-.002a.16.16 0 01-.001-.32l.962-.007h.001a.16.16 0 01.001.32l-.962.007h-.001zm3.209-.02a.16.16 0 01-.001-.322l.962-.006c.077-.003.161.071.162.16a.16.16 0 01-.16.161l-.962.006h-.001zm81.183-.003h-.001l-.963-.008a.16.16 0 01-.159-.161.16.16 0 01.16-.16h.001l.963.008a.16.16 0 01.159.161.16.16 0 01-.16.16zm-77.974-.017a.16.16 0 010-.321l.962-.006a.16.16 0 01.002.32l-.963.007zm74.765-.007h-.001l-.963-.006a.161.161 0 01-.159-.162.161.161 0 01.161-.16h.001l.963.007a.161.161 0 01.159.162.161.161 0 01-.161.16zm-71.535-.012c-.088 0-.17-.071-.17-.16-.001-.088.06-.16.148-.16l.963-.006h.001a.16.16 0 01.001.32l-.942.006zm68.327-.009h-.001l-.963-.006a.16.16 0 01-.159-.161.16.16 0 01.16-.16h.001l.963.006a.16.16 0 01-.001.321zm-65.119-.008c-.088 0-.17-.07-.17-.16 0-.088.062-.16.15-.16l.963-.005c.1.01.16.07.161.16a.16.16 0 01-.16.16l-.943.005h-.001zm61.91-.01h-.001l-.963-.006a.16.16 0 01.001-.32h.001l.963.004a.16.16 0 01.159.162.16.16 0 01-.16.16zm-58.703-.005c-.088 0-.168-.071-.169-.16 0-.088.063-.16.151-.16l.963-.005a.16.16 0 01.001.32l-.945.005zm55.494-.012l-.963-.005a.16.16 0 01.001-.32l.963.004a.16.16 0 01-.001.32zm-52.286-.002c-.089 0-.168-.071-.168-.16 0-.088.063-.16.152-.16l.963-.005a.16.16 0 01.001.321l-.947.004h-.001zm49.077-.012l-.963-.004a.16.16 0 01-.16-.162c0-.088.07-.148.161-.16l.963.005a.16.16 0 01-.001.32zm-45.883 0a.16.16 0 010-.321l.962-.004a.16.16 0 01.001.32l-.962.005h-.001zm3.21-.012a.16.16 0 01-.001-.32l.963-.004a.16.16 0 01.001.321l-.963.004zm39.465 0h-.001l-.963-.004a.161.161 0 01-.16-.161.162.162 0 01.161-.16h.001l.962.003a.16.16 0 010 .321zm-36.257-.01a.16.16 0 010-.32l.962-.003h.001a.16.16 0 010 .321l-.962.003zm33.048 0h-.001l-.962-.004a.161.161 0 01-.161-.16.162.162 0 01.161-.16l.963.002a.16.16 0 010 .321zM90.033 83.8a.16.16 0 010-.321l.962-.002a.16.16 0 010 .32l-.962.003zm26.629-.002h-.001l-.962-.002a.16.16 0 010-.32h.001l.962.001a.16.16 0 010 .32zm-23.42-.005a.16.16 0 010-.32l.963-.002a.16.16 0 010 .32l-.963.002zm20.211-.001l-.962-.002a.161.161 0 01-.161-.16c0-.09.073-.16.161-.16h.963a.16.16 0 11-.001.32zm-17.002-.003a.16.16 0 010-.321l.963-.001a.16.16 0 010 .32l-.963.002zm13.794-.002h-.963a.16.16 0 010-.322l.963.001a.16.16 0 010 .321zm-10.584-.002a.16.16 0 01-.16-.16.16.16 0 01.16-.16l.959-.001a.16.16 0 110 .32l-.959.001zm7.375 0h-.963a.16.16 0 01-.16-.161.16.16 0 01.16-.16h.963a.16.16 0 010 .32zm-4.171-.001a.16.16 0 110-.321h.962a.16.16 0 110 .32h-.962z" fill="#fff"/><path d="M151.153 194.541h-31.6c-4.141 0-7.628-3.081-8.12-7.174l-3.65-30.407c-.582-4.844 3.218-9.105 8.119-9.105h37.962c4.802 0 8.57 4.098 8.146 8.859l-2.711 30.407c-.375 4.2-3.91 7.42-8.146 7.42z" fill="url(#paint8_linear)"/><path opacity=".46" d="M147.266 188.948h-24.051c-3.152 0-5.806-2.345-6.18-5.459l-2.779-23.144c-.442-3.687 2.45-6.93 6.18-6.93h28.893c3.655 0 6.523 3.119 6.2 6.743l-2.063 23.143c-.285 3.197-2.976 5.647-6.2 5.647z" fill="url(#paint9_linear)"/><path d="M102.182 248.749c.272.046.543.091.816.134 41.185 6.513 79.909-21.96 86.493-63.596l-75.389-11.921-11.92 75.383z" fill="url(#paint10_linear)"/><path d="M114.452 173.273l-50.668 57.094c10.294 9.154 23.192 15.634 37.769 18.133.459.079.917.152 1.376.222l11.523-75.449z" fill="url(#paint11_linear)"/><path d="M114.102 173.365l-74.777-15.288a76.57 76.57 0 00-.276 1.412c-5.04 27.256 5.079 53.805 24.385 70.971l50.668-57.095z" fill="#91B3FA"/><path d="M123.421 167.086l74.012 14.358c6.7-34.535-11.026-68.14-41.126-82.983l-33.174 68.049a.406.406 0 00.288.576z" fill="url(#paint12_linear)"/><path d="M114.379 173.531l31.651-69.316c-6.032-2.869-11.424-4.467-18.319-5.696-32.162-5.733-63.201 9.585-78.986 36.084l65.654 38.928z" fill="#BDD0FB"/><path d="M48.76 133.923a76.093 76.093 0 00-9.492 24.239l74.761 15.366-65.269-39.605z" fill="#7D97F4"/><path opacity=".66" d="M61.836 122.726a.641.641 0 01-.453-1.096c8.09-8.069 18.079-14.244 28.888-17.859 11.17-3.735 23.265-4.731 34.978-2.879 1.047.166 2.104.356 3.14.565a.642.642 0 01-.254 1.258 73.79 73.79 0 00-3.087-.555c-11.509-1.82-23.395-.842-34.37 2.828-10.622 3.553-20.44 9.622-28.389 17.55a.64.64 0 01-.453.188zm1.344 105.122a.64.64 0 01-.443-.177c-15.007-14.269-23.409-34.268-23.053-54.87.007-.354.303-.648.653-.63a.642.642 0 01.63.653c-.35 20.243 7.907 39.895 22.654 53.917a.641.641 0 01-.442 1.107zm68.741 17.866a.643.643 0 01-.159-1.264c14.614-3.755 27.524-11.827 37.335-23.341a.64.64 0 11.977.832c-9.984 11.717-23.121 19.93-37.993 23.753a.674.674 0 01-.16.02zm9.21-107.991a.642.642 0 01-.574-.927l17.299-34.958.599.366c5.682 3.477 10.918 7.482 16.478 12.603a.643.643 0 01-.87.944c-5.301-4.883-10.299-8.736-15.68-12.083l-16.675 33.698a.644.644 0 01-.577.357zm25.689 35.02a.682.682 0 01-.118-.011l-38.975-7.282a.943.943 0 01-.676-.51.94.94 0 01-.001-.846l3.517-7.104a.641.641 0 111.15.57l-3.322 6.709 38.542 7.201a.64.64 0 01-.117 1.273z" fill="#fff"/><defs><linearGradient id="paint0_linear" x1="293.848" y1="340.71" x2="61.83" y2="52.558" gradientUnits="userSpaceOnUse"><stop stop-color="#DAE3FE"/><stop offset="1" stop-color="#E9EFFD"/></linearGradient><linearGradient id="paint1_linear" x1="131.076" y1="250.694" x2="133.001" y2="164.701" gradientUnits="userSpaceOnUse"><stop stop-color="#4F52FF"/><stop offset="1" stop-color="#4042E2"/></linearGradient><linearGradient id="paint2_linear" x1="96.549" y1="41.524" x2="90.132" y2="57.247" gradientUnits="userSpaceOnUse"><stop stop-color="#09005D"/><stop offset="1" stop-color="#1A0F91"/></linearGradient><linearGradient id="paint3_linear" x1="83.987" y1="33.704" x2="81.42" y2="76.059" gradientUnits="userSpaceOnUse"><stop stop-color="#09005D"/><stop offset="1" stop-color="#1A0F91"/></linearGradient><linearGradient id="paint4_linear" x1="192.397" y1="42.479" x2="185.017" y2="64.619" gradientUnits="userSpaceOnUse"><stop stop-color="#09005D"/><stop offset="1" stop-color="#1A0F91"/></linearGradient><linearGradient id="paint5_linear" x1="180.845" y1="36.205" x2="181.487" y2="74.068" gradientUnits="userSpaceOnUse"><stop stop-color="#09005D"/><stop offset="1" stop-color="#1A0F91"/></linearGradient><linearGradient id="paint6_linear" x1="67.838" y1="56.925" x2="196.827" y2="22.913" gradientUnits="userSpaceOnUse"><stop stop-color="#4F52FF"/><stop offset="1" stop-color="#4042E2"/></linearGradient><linearGradient id="paint7_linear" x1="130.79" y1="125.697" x2="181.488" y2="8.259" gradientUnits="userSpaceOnUse"><stop stop-color="#4F52FF"/><stop offset="1" stop-color="#4042E2"/></linearGradient><linearGradient id="paint8_linear" x1="144.684" y1="82.798" x2="130.466" y2="195.449" gradientUnits="userSpaceOnUse"><stop stop-color="#09005D"/><stop offset="1" stop-color="#1A0F91"/></linearGradient><linearGradient id="paint9_linear" x1="130.898" y1="113.878" x2="145.835" y2="285.262" gradientUnits="userSpaceOnUse"><stop stop-color="#4F52FF"/><stop offset="1" stop-color="#4042E2"/></linearGradient><linearGradient id="paint10_linear" x1="173.751" y1="139.949" x2="71.714" y2="342.097" gradientUnits="userSpaceOnUse"><stop stop-color="#FF928E"/><stop offset="1" stop-color="#FE7062"/></linearGradient><linearGradient id="paint11_linear" x1="82.885" y1="230.239" x2="156.043" y2="175.691" gradientUnits="userSpaceOnUse"><stop stop-color="#FEBBBA"/><stop offset="1" stop-color="#FF928E"/></linearGradient><linearGradient id="paint12_linear" x1="216.741" y1="72.859" x2="146.955" y2="190.291" gradientUnits="userSpaceOnUse"><stop stop-color="#E1473D"/><stop offset="1" stop-color="#E9605A"/></linearGradient></defs></svg>