<svg width="268" height="266" fill="none" xmlns="http://www.w3.org/2000/svg"><path d="M255.357 180.022c-26.971 62.344-98.165 89.122-153.947 84.556-15.23-1.246-45.875-3.755-69.803-26.132-45.95-42.973-38.874-132.801 5.114-185.686C42.386 45.95 81.597.32 142.7.93c44.736.448 76.136 25.44 79.954 28.553 4.823 3.933 15.462 13.279 25.049 28.106 22.528 34.84 24.508 83.475 7.654 122.433z" fill="url(#paint0_linear)"/><path d="M21.175 226.001a4.163 4.163 0 004.153 4.149h224.571a4.163 4.163 0 004.153-4.149l1.868-129.054c0-2.282-2.688-6.737-7.615-6.402l-219.476-5.68a10.476 10.476 0 00-7.666 3.052 10.455 10.455 0 00-3.072 7.652l3.084 130.432z" fill="url(#paint1_linear)"/><path d="M25.275 222.021a3.94 3.94 0 003.928 3.929h215.28a3.94 3.94 0 003.929-3.929l1.763-117.157c-.207-7.05-6.388-9.584-10.135-9.434L29.692 89.785a7.348 7.348 0 00-5.386 2.144 7.348 7.348 0 00-2.16 5.383l3.129 124.708z" fill="url(#paint2_linear)"/><path d="M246.086 166.363h-.009a.575.575 0 01-.567-.584l.139-9.502a.577.577 0 01.575-.567h.009a.576.576 0 01.567.585l-.139 9.501a.575.575 0 01-.575.567z" fill="#fff"/><path opacity=".62" d="M246.428 143.08h-.009a.575.575 0 01-.567-.584l.534-36.39c-.01-2.162-.666-3.888-1.95-5.118-2.398-2.297-6.203-2.18-6.364-2.172l-67.231-1.803a.576.576 0 01-.561-.59c.009-.319.253-.59.592-.56l67.191 1.802c.418-.024 4.471-.094 7.169 2.491 1.518 1.455 2.294 3.459 2.305 5.955l-.534 36.402a.576.576 0 01-.575.567z" fill="#fff"/><path d="M3.49 240.863h263.694c.293 0 .533-.24.533-.533v-10.272a.535.535 0 00-.533-.534H3.49a.535.535 0 00-.533.534v10.272c0 .293.24.533.533.533z" fill="url(#paint3_linear)"/><path d="M196.202 2.268L41.539 1.321c-5.083-.031-9.148 4.215-8.896 9.291l10.64 219.739h172.111l9.556-196.325-28.748-31.758z" fill="#91B3FA"/><path d="M202.633 33.085c-5.038-.177-8.911-4.52-8.514-9.545l1.658-20.983 29.204 31.34-22.348-.812z" fill="#7D97F4"/><path d="M136.707 115.899h-74.32a.898.898 0 01-.898-.898v-9.839c0-.496.402-.898.898-.898h74.32c.496 0 .898.402.898.898v9.839a.898.898 0 01-.898.898z" fill="url(#paint4_linear)"/><path d="M190.761 116.293h-21.446a3.069 3.069 0 01-3.069-3.069v-5.497a3.069 3.069 0 013.069-3.069h21.446a3.069 3.069 0 013.069 3.069v5.497a3.069 3.069 0 01-3.069 3.069zm-.405 23.401H168.91a3.069 3.069 0 01-3.069-3.069v-5.497a3.069 3.069 0 013.069-3.069h21.446a3.069 3.069 0 013.069 3.069v5.497a3.069 3.069 0 01-3.069 3.069zm-.093 22.176h-21.446a3.069 3.069 0 01-3.069-3.069v-5.496a3.069 3.069 0 013.069-3.069h21.446a3.069 3.069 0 013.069 3.069v5.496a3.069 3.069 0 01-3.069 3.069zm-.405 23.402h-21.447a3.07 3.07 0 01-3.069-3.07v-5.496a3.069 3.069 0 013.069-3.069h21.447a3.069 3.069 0 013.069 3.069v5.496a3.07 3.07 0 01-3.069 3.07z" fill="#BDD0FB"/><path d="M127.502 140.078H63.285a.83.83 0 01-.829-.83v-9.976c0-.458.371-.829.83-.829h64.216c.458 0 .829.371.829.829v9.976a.83.83 0 01-.829.83z" fill="url(#paint5_linear)"/><path d="M140.743 162.503h-76.91a.732.732 0 01-.732-.733V151.6c0-.404.328-.732.732-.732h76.91c.404 0 .732.328.732.732v10.17a.733.733 0 01-.732.733z" fill="url(#paint6_linear)"/><path d="M150.19 184.903H65.676a.639.639 0 01-.64-.638v-10.357a.64.64 0 01.64-.639h84.514c.353 0 .639.286.639.639v10.357a.639.639 0 01-.639.638z" fill="url(#paint7_linear)"/><path d="M189.923 71.966H66.916a1.374 1.374 0 01-1.373-1.374V58.79c0-.759.615-1.374 1.373-1.374h123.007c.759 0 1.374.615 1.374 1.374v11.802c0 .758-.615 1.374-1.374 1.374z" fill="url(#paint8_linear)"/><path d="M55.156 99.686h146.35l.292-7.807c.144-3.893-3.096-7.027-7.144-7.027H61.871c-4.095 0-7.354 3.207-7.14 7.143l.425 7.69z" fill="#BDD0FB"/><path d="M190.918 200.537H67.375c-4.233 0-7.722-3.199-7.944-7.283L53.926 92.115c-.113-2.074.624-4.06 2.075-5.592 1.504-1.587 3.643-2.498 5.87-2.498h132.782c2.201 0 4.323.893 5.823 2.449 1.448 1.502 2.204 3.46 2.128 5.512l-3.736 101.138c-.154 4.157-3.646 7.413-7.95 7.413zM61.871 85.637c-1.786 0-3.5.728-4.7 1.995-1.143 1.207-1.723 2.768-1.635 4.396l5.505 101.138c.176 3.229 2.958 5.758 6.334 5.758h123.543c3.433 0 6.217-2.573 6.339-5.859l3.735-101.139c.06-1.61-.536-3.15-1.677-4.333-1.197-1.243-2.897-1.955-4.662-1.955H61.871zM107.62 42.78H57.902a4.03 4.03 0 01-4.03-4.032V23.64a4.03 4.03 0 014.03-4.03h49.718a4.031 4.031 0 014.031 4.03v15.108a4.031 4.031 0 01-4.031 4.031z" fill="#BDD0FB"/><path d="M69.597 66.006c13.302 0 24.085-10.783 24.085-24.085 0-13.302-10.784-24.085-24.085-24.085-13.302 0-24.085 10.783-24.085 24.085 0 13.302 10.783 24.085 24.085 24.085z" fill="url(#paint9_linear)"/><path d="M69.597 65.205c12.86 0 23.284-10.425 23.284-23.284 0-12.86-10.424-23.284-23.284-23.284-12.859 0-23.283 10.425-23.283 23.284 0 12.86 10.424 23.284 23.283 23.284z" fill="url(#paint10_linear)"/><path opacity=".62" d="M50.397 32.571a.322.322 0 01-.288-.468c3.736-7.4 11.203-11.998 19.488-11.998 1.323 0 2.647.119 3.935.354a.322.322 0 01-.116.635 21.338 21.338 0 00-3.82-.344c-8.039 0-15.285 4.462-18.911 11.644a.322.322 0 01-.288.177z" fill="#fff"/><path opacity=".78" d="M84.038 56.363c7.696-7.696 7.696-20.173 0-27.87-7.696-7.695-20.174-7.695-27.87 0-7.696 7.697-7.696 20.174 0 27.87 7.696 7.696 20.174 7.696 27.87 0z" fill="#fff"/><path d="M68.17 57.079v-2.144c-2.235-.09-4.445-.617-6.016-1.305a1.24 1.24 0 01-.685-1.465l.545-1.997a1.25 1.25 0 011.697-.818c1.557.653 3.48 1.17 5.554 1.17 2.153 0 3.758-.73 3.758-2.226 0-1.35-1.24-2.153-4.232-2.956-4.27-1.167-7.334-3.028-7.334-6.786 0-3.394 2.48-5.984 6.786-6.678V29.73c0-.69.56-1.249 1.25-1.249h1.26c.69 0 1.249.56 1.249 1.25v1.924c2.068.083 3.573.437 4.768.857.612.215.947.874.777 1.5l-.501 1.847a1.246 1.246 0 01-1.645.842c-1.1-.416-2.655-.85-4.676-.85-2.554 0-3.284 1.059-3.284 2.007 0 1.168 1.532 1.97 4.853 2.992 4.743 1.423 6.713 3.394 6.713 6.933 0 3.247-2.408 6.166-7.078 6.896v2.4c0 .69-.56 1.249-1.25 1.249h-1.26a1.25 1.25 0 01-1.249-1.25z" fill="url(#paint11_linear)"/><path d="M85.337 148.905c8.784 0 15.905-7.121 15.905-15.905 0-8.784-7.12-15.905-15.905-15.905-8.784 0-15.905 7.121-15.905 15.905 0 8.784 7.121 15.905 15.905 15.905z" fill="url(#paint12_linear)"/><path d="M85.337 148.376c8.492 0 15.376-6.884 15.376-15.376 0-8.492-6.884-15.376-15.376-15.376-8.492 0-15.376 6.884-15.376 15.376 0 8.492 6.884 15.376 15.376 15.376z" fill="url(#paint13_linear)"/><path opacity=".62" d="M72.658 126.935a.324.324 0 01-.288-.468 14.458 14.458 0 0112.967-7.984c.88 0 1.76.08 2.619.236a.322.322 0 01-.116.635c-.82-.15-1.662-.226-2.503-.226a13.815 13.815 0 00-12.391 7.63.323.323 0 01-.288.177z" fill="#fff"/><path opacity=".78" d="M98.554 135.144c.996-7.118-3.965-13.696-11.083-14.693-7.118-.997-13.696 3.965-14.693 11.083-.997 7.118 3.965 13.696 11.083 14.693 7.118.997 13.696-3.965 14.693-11.083z" fill="#fff"/><path d="M84.395 143.01v-1.416c-1.476-.059-2.936-.408-3.972-.861a.82.82 0 01-.453-.968l.36-1.319a.825.825 0 011.12-.54c1.029.431 2.299.772 3.668.772 1.422 0 2.482-.482 2.482-1.47 0-.891-.82-1.421-2.795-1.951-2.82-.771-4.843-2-4.843-4.482 0-2.241 1.638-3.952 4.481-4.41v-1.416c0-.455.37-.825.826-.825h.831c.456 0 .825.37.825.825v1.272c1.366.054 2.36.288 3.15.565a.821.821 0 01.512.991l-.33 1.22a.823.823 0 01-1.087.556 8.582 8.582 0 00-3.088-.561c-1.687 0-2.168.699-2.168 1.325 0 .771 1.011 1.301 3.204 1.976 3.133.94 4.434 2.241 4.434 4.578 0 2.144-1.59 4.072-4.675 4.554v1.585c0 .455-.37.825-.825.825h-.832a.825.825 0 01-.825-.825z" fill="url(#paint14_linear)"/><path d="M108.784 171.326c5.748 0 10.408-4.66 10.408-10.408 0-5.748-4.66-10.408-10.408-10.408-5.748 0-10.408 4.66-10.408 10.408 0 5.748 4.66 10.408 10.408 10.408z" fill="url(#paint15_linear)"/><path d="M108.785 170.981c5.557 0 10.062-4.505 10.062-10.062 0-5.557-4.505-10.062-10.062-10.062-5.557 0-10.062 4.505-10.062 10.062 0 5.557 4.505 10.062 10.062 10.062z" fill="url(#paint16_linear)"/><path opacity=".62" d="M100.487 157.061a.323.323 0 01-.288-.468 9.571 9.571 0 018.585-5.286c.582 0 1.165.053 1.734.156a.322.322 0 01-.116.635 9.024 9.024 0 00-1.618-.146 8.928 8.928 0 00-8.009 4.932.323.323 0 01-.288.177z" fill="#fff"/><path opacity=".78" d="M117.415 162.503a8.517 8.517 0 10-16.814-2.727 8.517 8.517 0 0016.814 2.727z" fill="#fff"/><path d="M108.168 167.468v-.926c-.966-.039-1.922-.267-2.6-.564a.536.536 0 01-.296-.633l.235-.863a.54.54 0 01.733-.354 6.261 6.261 0 002.401.506c.93 0 1.624-.316 1.624-.962 0-.584-.536-.93-1.829-1.277-1.845-.505-3.17-1.309-3.17-2.933 0-1.466 1.073-2.586 2.933-2.885v-.927a.54.54 0 01.54-.54h.545a.54.54 0 01.539.54v.832c.894.036 1.545.188 2.061.37a.537.537 0 01.336.648l-.217.799a.538.538 0 01-.71.363 5.621 5.621 0 00-2.021-.367c-1.104 0-1.419.457-1.419.867 0 .505.662.852 2.097 1.293 2.049.615 2.901 1.467 2.901 2.996 0 1.403-1.041 2.665-3.059 2.98v1.037a.54.54 0 01-.54.54h-.544a.54.54 0 01-.54-.54z" fill="url(#paint17_linear)"/><path d="M67.984 111.67c10.514 0 19.036-8.523 19.036-19.036 0-10.513-8.522-19.035-19.035-19.035-10.514 0-19.036 8.522-19.036 19.035s8.522 19.036 19.035 19.036z" fill="url(#paint18_linear)"/><path d="M67.984 111.037c10.164 0 18.403-8.239 18.403-18.403 0-10.163-8.239-18.403-18.403-18.403-10.163 0-18.402 8.24-18.402 18.403 0 10.164 8.239 18.403 18.402 18.403z" fill="url(#paint19_linear)"/><path opacity=".62" d="M52.81 85.312a.322.322 0 01-.288-.468c2.964-5.872 8.889-9.52 15.462-9.52 1.049 0 2.1.094 3.123.28a.322.322 0 11-.115.636c-.986-.18-1.998-.27-3.008-.27-6.328 0-12.032 3.511-14.886 9.165a.323.323 0 01-.288.177z" fill="#fff"/><path opacity=".78" d="M68.385 108.611c8.602 0 15.576-6.974 15.576-15.576S76.987 77.46 68.385 77.46 52.81 84.433 52.81 93.035s6.973 15.576 15.575 15.576z" fill="#fff"/><path d="M66.857 104.615v-1.695c-1.767-.071-3.514-.488-4.755-1.031a.98.98 0 01-.542-1.158l.43-1.578a.988.988 0 011.342-.647c1.23.516 2.75.924 4.39.924 1.701 0 2.97-.576 2.97-1.759 0-1.067-.98-1.701-3.345-2.336-3.374-.922-5.797-2.393-5.797-5.364 0-2.682 1.962-4.73 5.365-5.277v-1.695c0-.545.441-.987.987-.987h.995c.546 0 .988.442.988.987v1.522c1.634.065 2.824.345 3.768.677.484.17.749.69.614 1.186l-.395 1.46a.985.985 0 01-1.3.665 10.28 10.28 0 00-3.697-.672c-2.018 0-2.595.837-2.595 1.587 0 .922 1.211 1.557 3.836 2.364 3.749 1.125 5.306 2.682 5.306 5.48 0 2.566-1.903 4.873-5.595 5.45v1.897a.987.987 0 01-.987.987h-.996a.987.987 0 01-.987-.987z" fill="url(#paint20_linear)"/><path d="M265.803 144.389c.519 18.53 2.202 82.448 1.399 105.098-.085 2.4-2.258 4.326-4.969 4.404-13.405.389-62.547 1.373-84.473.559-4.567-.17-8.199-3.445-8.294-7.491-.456-19.45-1.461-74.155.929-99.215.286-3.003 2.948-5.394 6.335-5.694 14.598-1.293 63.952-4.453 82.895-3.365 3.416.196 6.094 2.674 6.178 5.704z" fill="url(#paint21_linear)"/><path d="M261.953 152.559v15.704a5.452 5.452 0 01-5.452 5.452h-75.029a5.452 5.452 0 01-5.452-5.452v-15.704a5.453 5.453 0 015.452-5.453h75.029a5.453 5.453 0 015.452 5.453z" fill="url(#paint22_linear)"/><path opacity=".2" d="M180.009 151.788a3.594 3.594 0 012.545-1.05l70.215.132a3.595 3.595 0 013.577 3.323l1.181 15.599c.097 1.277-2.02 2.313-4.695 2.298l-69.025-.391c-2.671-.015-4.861-1.072-4.86-2.347l.006-15.022a3.596 3.596 0 011.056-2.542z" fill="#fff"/><path d="M243.196 189.637a5.017 5.017 0 005.017 5.017h6.107a5.017 5.017 0 000-10.033h-6.107a5.017 5.017 0 00-5.017 5.016z" fill="url(#paint23_linear)"/><path d="M220.513 189.637a5.017 5.017 0 005.017 5.017h6.107a5.017 5.017 0 000-10.033h-6.107a5.017 5.017 0 00-5.017 5.016z" fill="url(#paint24_linear)"/><path d="M198.702 189.637a5.017 5.017 0 005.017 5.017h6.107a5.017 5.017 0 000-10.033h-6.107a5.017 5.017 0 00-5.017 5.016z" fill="url(#paint25_linear)"/><path d="M176.593 190.373a5.098 5.098 0 005.098 5.098h5.902a5.097 5.097 0 100-10.195h-5.902a5.098 5.098 0 00-5.098 5.097z" fill="url(#paint26_linear)"/><path d="M243.196 205.341a5.017 5.017 0 005.017 5.016h6.107a5.016 5.016 0 000-10.033h-6.107a5.017 5.017 0 00-5.017 5.017z" fill="url(#paint27_linear)"/><path d="M220.513 205.341a5.017 5.017 0 005.017 5.016h6.107a5.016 5.016 0 000-10.033h-6.107a5.017 5.017 0 00-5.017 5.017z" fill="url(#paint28_linear)"/><path d="M198.702 205.341a5.017 5.017 0 005.017 5.016h6.107a5.016 5.016 0 000-10.033h-6.107a5.017 5.017 0 00-5.017 5.017z" fill="url(#paint29_linear)"/><path d="M176.02 205.341a5.016 5.016 0 005.016 5.016h6.107a5.016 5.016 0 000-10.033h-6.107a5.016 5.016 0 00-5.016 5.017z" fill="url(#paint30_linear)"/><path opacity=".63" d="M243.196 219.248a5.017 5.017 0 005.016 5.017h6.107a5.017 5.017 0 100-10.033h-6.107a5.016 5.016 0 00-5.016 5.016z" fill="url(#paint31_linear)"/><path opacity=".63" d="M220.513 219.248a5.017 5.017 0 005.016 5.017h6.107a5.017 5.017 0 000-10.033h-6.107a5.016 5.016 0 00-5.016 5.016z" fill="url(#paint32_linear)"/><path d="M198.702 219.248a5.017 5.017 0 005.017 5.017h6.107a5.017 5.017 0 000-10.033h-6.107a5.017 5.017 0 00-5.017 5.016z" fill="url(#paint33_linear)"/><path d="M243.196 234.516a5.016 5.016 0 005.016 5.016h6.107a5.017 5.017 0 100-10.033h-6.107a5.017 5.017 0 00-5.016 5.017z" fill="url(#paint34_linear)"/><path d="M220.513 234.516a5.016 5.016 0 005.016 5.016h6.107a5.016 5.016 0 000-10.033h-6.107a5.017 5.017 0 00-5.016 5.017z" fill="url(#paint35_linear)"/><path d="M198.702 234.516a5.017 5.017 0 005.017 5.016h6.107a5.016 5.016 0 000-10.033h-6.107a5.017 5.017 0 00-5.017 5.017z" fill="url(#paint36_linear)"/><path d="M178.2 234.106a6.35 6.35 0 006.35 6.35h.387a6.35 6.35 0 006.35-6.35v-12.165a6.35 6.35 0 00-6.35-6.349h-.387a6.35 6.35 0 00-6.35 6.349v12.165z" fill="url(#paint37_linear)"/><path d="M240.04 159.606c0-.459.041-.886.124-1.282.083-.395.228-.779.436-1.152.207-.373.485-.676.833-.908a2.121 2.121 0 011.194-.381c.89 0 1.578.411 2.065 1.235.409.697.613 1.52.613 2.471 0 .962-.202 1.783-.605 2.463-.487.823-1.178 1.235-2.073 1.235-.415 0-.804-.12-1.169-.361a2.683 2.683 0 01-.871-.932 4.172 4.172 0 01-.415-1.132 5.999 5.999 0 01-.132-1.256zm2.637 2.089c.409 0 .685-.274.829-.821.083-.315.124-.749.124-1.302 0-.575-.038-1.008-.116-1.302-.143-.547-.423-.82-.837-.82-.415 0-.694.279-.838.837-.077.304-.116.749-.116 1.335 0 .553.042.978.125 1.277.143.531.42.796.829.796zm1.201 4.767l3.965-9.972c.077-.164.163-.293.257-.386.116-.109.221-.169.315-.18.094-.011.168-.017.224-.017.21 0 .395.065.555.195.16.13.24.295.24.494a.87.87 0 01-.012.228 2.415 2.415 0 01-.07.269l-4.046 10.132a1.161 1.161 0 01-.258.407.738.738 0 01-.406.197h-.091a.879.879 0 01-.564-.208c-.171-.137-.257-.303-.257-.496 0-.111.011-.21.033-.298.022-.089.06-.21.115-.365zm3.981-2.562a6.4 6.4 0 01.124-1.281c.083-.406.221-.783.415-1.131.215-.382.497-.689.846-.921a2.134 2.134 0 011.194-.373c.89 0 1.578.412 2.064 1.236.409.691.614 1.514.614 2.47 0 .951-.202 1.767-.605 2.447-.487.823-1.178 1.235-2.073 1.235-.415 0-.806-.119-1.174-.356a2.522 2.522 0 01-.854-.908 4.127 4.127 0 01-.427-1.145 6.185 6.185 0 01-.124-1.273zm2.628 2.107c.41 0 .686-.271.83-.813.083-.315.124-.752.124-1.31 0-.58-.039-1.017-.116-1.31-.144-.553-.423-.829-.838-.829-.414 0-.693.279-.837.837-.077.304-.116.749-.116 1.335 0 .558.041.99.124 1.293.144.531.42.797.829.797z" fill="#fff"/><defs><linearGradient id="paint0_linear" x1="281.844" y1="300.296" x2="86.722" y2="89.689" gradientUnits="userSpaceOnUse"><stop stop-color="#DAE3FE"/><stop offset="1" stop-color="#E9EFFD"/></linearGradient><linearGradient id="paint1_linear" x1="158.125" y1="220.229" x2="105.086" y2="61.112" gradientUnits="userSpaceOnUse"><stop stop-color="#09005D"/><stop offset="1" stop-color="#1A0F91"/></linearGradient><linearGradient id="paint2_linear" x1="226.166" y1="79.004" x2="32.72" y2="248.845" gradientUnits="userSpaceOnUse"><stop stop-color="#FE7062"/><stop offset="1" stop-color="#FF928E"/></linearGradient><linearGradient id="paint3_linear" x1="136.257" y1="102.281" x2="135.288" y2="242.258" gradientUnits="userSpaceOnUse"><stop stop-color="#09005D"/><stop offset="1" stop-color="#1A0F91"/></linearGradient><linearGradient id="paint4_linear" x1="61.489" y1="110.081" x2="137.605" y2="110.081" gradientUnits="userSpaceOnUse"><stop stop-color="#DAE3FE"/><stop offset="1" stop-color="#E9EFFD"/></linearGradient><linearGradient id="paint5_linear" x1="62.456" y1="134.26" x2="128.331" y2="134.26" gradientUnits="userSpaceOnUse"><stop stop-color="#DAE3FE"/><stop offset="1" stop-color="#E9EFFD"/></linearGradient><linearGradient id="paint6_linear" x1="63.101" y1="156.685" x2="141.475" y2="156.685" gradientUnits="userSpaceOnUse"><stop stop-color="#DAE3FE"/><stop offset="1" stop-color="#E9EFFD"/></linearGradient><linearGradient id="paint7_linear" x1="65.037" y1="179.086" x2="150.829" y2="179.086" gradientUnits="userSpaceOnUse"><stop stop-color="#DAE3FE"/><stop offset="1" stop-color="#E9EFFD"/></linearGradient><linearGradient id="paint8_linear" x1="65.543" y1="64.691" x2="191.297" y2="64.691" gradientUnits="userSpaceOnUse"><stop stop-color="#DAE3FE"/><stop offset="1" stop-color="#E9EFFD"/></linearGradient><linearGradient id="paint9_linear" x1="36.639" y1="80.175" x2="68.944" y2="42.678" gradientUnits="userSpaceOnUse"><stop stop-color="#E1473D"/><stop offset="1" stop-color="#E9605A"/></linearGradient><linearGradient id="paint10_linear" x1="87.199" y1="15.329" x2="-8.328" y2="159.644" gradientUnits="userSpaceOnUse"><stop stop-color="#FE7062"/><stop offset="1" stop-color="#FF928E"/></linearGradient><linearGradient id="paint11_linear" x1="84.349" y1="19.465" x2="33.483" y2="104.861" gradientUnits="userSpaceOnUse"><stop stop-color="#FE7062"/><stop offset="1" stop-color="#FF928E"/></linearGradient><linearGradient id="paint12_linear" x1="63.573" y1="158.262" x2="84.906" y2="133.5" gradientUnits="userSpaceOnUse"><stop stop-color="#E1473D"/><stop offset="1" stop-color="#E9605A"/></linearGradient><linearGradient id="paint13_linear" x1="96.961" y1="115.439" x2="33.877" y2="210.741" gradientUnits="userSpaceOnUse"><stop stop-color="#FE7062"/><stop offset="1" stop-color="#FF928E"/></linearGradient><linearGradient id="paint14_linear" x1="95.079" y1="118.17" x2="61.488" y2="174.564" gradientUnits="userSpaceOnUse"><stop stop-color="#FE7062"/><stop offset="1" stop-color="#FF928E"/></linearGradient><linearGradient id="paint15_linear" x1="94.542" y1="177.449" x2="108.502" y2="161.245" gradientUnits="userSpaceOnUse"><stop stop-color="#E1473D"/><stop offset="1" stop-color="#E9605A"/></linearGradient><linearGradient id="paint16_linear" x1="116.391" y1="149.428" x2="75.11" y2="211.791" gradientUnits="userSpaceOnUse"><stop stop-color="#FE7062"/><stop offset="1" stop-color="#FF928E"/></linearGradient><linearGradient id="paint17_linear" x1="115.159" y1="151.214" x2="93.178" y2="188.117" gradientUnits="userSpaceOnUse"><stop stop-color="#FE7062"/><stop offset="1" stop-color="#FF928E"/></linearGradient><linearGradient id="paint18_linear" x1="41.936" y1="122.869" x2="67.469" y2="93.233" gradientUnits="userSpaceOnUse"><stop stop-color="#E1473D"/><stop offset="1" stop-color="#E9605A"/></linearGradient><linearGradient id="paint19_linear" x1="81.896" y1="71.617" x2="6.395" y2="185.679" gradientUnits="userSpaceOnUse"><stop stop-color="#FE7062"/><stop offset="1" stop-color="#FF928E"/></linearGradient><linearGradient id="paint20_linear" x1="79.644" y1="74.885" x2="39.441" y2="142.38" gradientUnits="userSpaceOnUse"><stop stop-color="#FE7062"/><stop offset="1" stop-color="#FF928E"/></linearGradient><linearGradient id="paint21_linear" x1="256.694" y1="151.615" x2="117.364" y2="324.072" gradientUnits="userSpaceOnUse"><stop stop-color="#09005D"/><stop offset="1" stop-color="#1A0F91"/></linearGradient><linearGradient id="paint22_linear" x1="269.551" y1="108.366" x2="167.338" y2="213.571" gradientUnits="userSpaceOnUse"><stop stop-color="#FE7062"/><stop offset="1" stop-color="#FF928E"/></linearGradient><linearGradient id="paint23_linear" x1="314.31" y1="73.746" x2="181.8" y2="317.329" gradientUnits="userSpaceOnUse"><stop stop-color="#4042E2"/><stop offset="1" stop-color="#4F52FF"/></linearGradient><linearGradient id="paint24_linear" x1="296.807" y1="64.224" x2="164.296" y2="307.806" gradientUnits="userSpaceOnUse"><stop stop-color="#4042E2"/><stop offset="1" stop-color="#4F52FF"/></linearGradient><linearGradient id="paint25_linear" x1="279.977" y1="55.069" x2="147.467" y2="298.652" gradientUnits="userSpaceOnUse"><stop stop-color="#4042E2"/><stop offset="1" stop-color="#4F52FF"/></linearGradient><linearGradient id="paint26_linear" x1="179.661" y1="184.501" x2="215.613" y2="226.892" gradientUnits="userSpaceOnUse"><stop stop-color="#FE7062"/><stop offset="1" stop-color="#FF928E"/></linearGradient><linearGradient id="paint27_linear" x1="320.902" y1="77.334" x2="188.394" y2="320.915" gradientUnits="userSpaceOnUse"><stop stop-color="#4042E2"/><stop offset="1" stop-color="#4F52FF"/></linearGradient><linearGradient id="paint28_linear" x1="303.398" y1="67.813" x2="170.89" y2="311.394" gradientUnits="userSpaceOnUse"><stop stop-color="#4042E2"/><stop offset="1" stop-color="#4F52FF"/></linearGradient><linearGradient id="paint29_linear" x1="286.569" y1="58.656" x2="154.061" y2="302.239" gradientUnits="userSpaceOnUse"><stop stop-color="#4042E2"/><stop offset="1" stop-color="#4F52FF"/></linearGradient><linearGradient id="paint30_linear" x1="269.066" y1="49.135" x2="136.557" y2="292.717" gradientUnits="userSpaceOnUse"><stop stop-color="#4042E2"/><stop offset="1" stop-color="#4F52FF"/></linearGradient><linearGradient id="paint31_linear" x1="541.39" y1="752.565" x2="673.899" y2="996.147" gradientUnits="userSpaceOnUse"><stop stop-color="#4042E2"/><stop offset="1" stop-color="#4F52FF"/></linearGradient><linearGradient id="paint32_linear" x1="309.236" y1="70.987" x2="176.727" y2="314.568" gradientUnits="userSpaceOnUse"><stop stop-color="#4042E2"/><stop offset="1" stop-color="#4F52FF"/></linearGradient><linearGradient id="paint33_linear" x1="292.407" y1="61.832" x2="159.898" y2="305.414" gradientUnits="userSpaceOnUse"><stop stop-color="#4042E2"/><stop offset="1" stop-color="#4F52FF"/></linearGradient><linearGradient id="paint34_linear" x1="293.473" y1="133.343" x2="227.219" y2="292.158" gradientUnits="userSpaceOnUse"><stop stop-color="#4042E2"/><stop offset="1" stop-color="#4F52FF"/></linearGradient><linearGradient id="paint35_linear" x1="315.645" y1="74.474" x2="183.138" y2="318.055" gradientUnits="userSpaceOnUse"><stop stop-color="#4042E2"/><stop offset="1" stop-color="#4F52FF"/></linearGradient><linearGradient id="paint36_linear" x1="298.816" y1="65.319" x2="166.309" y2="308.901" gradientUnits="userSpaceOnUse"><stop stop-color="#4042E2"/><stop offset="1" stop-color="#4F52FF"/></linearGradient><linearGradient id="paint37_linear" x1="279.092" y1="54.588" x2="146.583" y2="298.17" gradientUnits="userSpaceOnUse"><stop stop-color="#4042E2"/><stop offset="1" stop-color="#4F52FF"/></linearGradient></defs></svg>