<svg width="266" height="266" fill="none" xmlns="http://www.w3.org/2000/svg"><path d="M252.202 177.916c-25.99 60.748-94.594 86.841-148.347 82.392-14.677-1.215-44.206-3.659-67.263-25.463-44.28-41.874-37.46-129.402 4.928-180.933 5.458-6.636 43.243-51.098 102.123-50.503 43.109.436 73.366 24.787 77.045 27.821 4.648 3.832 14.9 12.94 24.138 27.387 21.708 33.947 23.617 81.338 7.376 119.299z" fill="url(#paint0_linear)"/><path d="M3.68 2.242C3.435 1.192 4.91.495 5.816 1.228c9.18 7.444 31.238 29.737 25.74 68.695-6.896 48.878 4.895 66.714 19.572 77.593 0 0-20.157-5.116-32.839-23.214C-12.848 79.868 8.064 20.903 3.681 2.242z" fill="#BDD0FB"/><path d="M10.667 17.509c1.148 5.44 2.172 10.899 2.963 16.382a233.698 233.698 0 011.888 16.48c.408 5.508.696 11.021.712 16.536.045 5.515-.184 11.026-.437 16.558-.216 5.53-.471 11.1-.066 16.709.398 5.597 1.576 11.244 3.914 16.538.585 1.319 1.2 2.634 1.898 3.905a64.817 64.817 0 002.171 3.785 59.74 59.74 0 005.208 7.163c3.88 4.55 8.558 8.585 13.712 12 .542.36 1.32.272 1.736-.197.409-.46.317-1.115-.2-1.479l-.003-.003a81.46 81.46 0 01-3.604-2.65c-.591-.45-1.158-.921-1.734-1.384-.555-.48-1.133-.943-1.67-1.438a59.372 59.372 0 01-6.056-6.223c-3.7-4.375-6.662-9.249-8.906-14.303a48.34 48.34 0 01-2.596-7.794c-.633-2.653-1.032-5.352-1.252-8.072-.441-5.445-.242-10.96-.072-16.49.163-5.533.282-11.093.136-16.65a200.727 200.727 0 00-.366-8.327c-.08-1.387-.192-2.772-.3-4.157a264.798 264.798 0 00-.404-4.15 233.203 233.203 0 00-2.378-16.522c-1.023-5.477-2.212-10.93-3.644-16.333-.04-.154-.219-.25-.397-.215-.174.034-.284.18-.253.33z" fill="#fff"/><path d="M27.462 119.237c-1.125 1.194-3.105.851-3.782-.644-3.737-8.249-12.191-32.526 1.772-60.495C37.244 34.48 41.394 20.552 42.84 14.1c.306-1.364 2.176-1.545 2.74-.266 6.228 14.115 22.671 62.128-18.117 105.404z" fill="#91B3FA"/><path d="M25.418 118.367a.641.641 0 01-.754-.641c.005-.401.786-40.495 15.698-74.076a.641.641 0 011.171.52c-14.803 33.337-15.582 73.177-15.589 73.576a.641.641 0 01-.526.621z" fill="#fff"/><path d="M21.645 61.958l216.663-3.661c8.723-.147 15.724 7.334 15.206 16.249l-7.458 128.249c-.408 7.019-6.054 12.517-12.922 12.585l-208.266 2.06c-5.144.051-9.394-4.097-9.59-9.359L10.295 74.229c-.246-6.624 4.875-12.161 11.35-12.27z" fill="url(#paint1_linear)"/><path d="M24.966 65.225l211.008-3.483c8.495-.14 15.314 6.978 14.809 15.46l-7.263 122.016c-.398 6.678-5.896 11.909-12.585 11.973l-202.83 1.96a9.258 9.258 0 01-9.34-8.904L13.912 76.899c-.24-6.302 4.748-11.57 11.054-11.674z" fill="#91B3FA"/><path d="M28.912 69.431l200.93-3.317c8.089-.133 14.582 6.644 14.102 14.72l-6.917 116.19a12.121 12.121 0 01-11.984 11.401l-193.142 1.866a8.815 8.815 0 01-8.893-8.479L18.386 80.548c-.228-6.002 4.521-11.018 10.526-11.117z" fill="#BDD0FB"/><path d="M236.462 61.641L24.569 65.14c-6.332.105-11.34 5.394-11.1 11.723l.342 8.977h237.005l.517-8.674c.507-8.517-6.341-15.665-14.871-15.524z" fill="url(#paint2_linear)"/><path opacity=".85" d="M31.233 69.478a1.906 1.906 0 11-3.812 0 1.906 1.906 0 013.812 0zm0 5.585a1.906 1.906 0 11-3.812 0 1.906 1.906 0 013.812 0zm0 5.584a1.906 1.906 0 11-3.812 0 1.906 1.906 0 013.812 0z" fill="#fff"/><g opacity=".8" fill="#fff"><path opacity=".8" d="M103.828 197.656l-17.023.888v-26.065l17.023-.611v25.788zm27.576-1.44l-16.429.858v-34.036l16.429-.501v33.679zm26.63-1.39l-15.867.828v-44.457l15.867-.37v43.999zm25.729-1.343l-15.332.8v-58.087l15.332-.212v57.499zm-6.251-92.34c-1.248-.72-2.882-.369-3.642.794a84.857 84.857 0 01-2.535 3.651c-16.329 22.194-43.163 35.343-80.905 38.896-1.23.115-2.202.204-2.922.297-.47.062-1.14.151-1.794.413-.657.262-1.287.706-1.656 1.483-.64 1.35.075 2.873 1.59 3.406.377.133.772.191 1.154.182a3.412 3.412 0 001.253-.271c.55-.084 1.736-.2 2.882-.311 6.91-.675 22.851-2.224 39.948-8.588 19.161-7.132 34.126-18.096 44.779-32.612a83.061 83.061 0 002.731-3.939c.76-1.159.364-2.682-.883-3.401z"/><path opacity=".8" d="M178.685 116.294c-1.382.001-2.547-1.003-2.638-2.312l-.754-10.835-11.122 6.857c-1.237.761-2.913.449-3.744-.701-.832-1.151-.498-2.703.743-3.464l18.806-11.519 1.342 19.346c.094 1.359-1.006 2.533-2.46 2.623a3.362 3.362 0 01-.173.005z"/></g><path d="M199.501 229.203h-2.488v26.906h2.488v-26.906z" fill="#7D97F4"/><path d="M209.153 256.628h-21.792c0-.894.726-1.62 1.62-1.62h18.552c.895 0 1.62.726 1.62 1.62zm3.234-28.359a2.684 2.684 0 01-2.676 2.676h-22.047a2.684 2.684 0 01-2.676-2.676v-2.419a2.684 2.684 0 012.676-2.676h22.047a2.684 2.684 0 012.676 2.676v2.419z" fill="#7D97F4"/><path d="M179.889 211.263s-3.697.573-7.853 3.352a2.07 2.07 0 00-.915 1.98c.498 3.943 2.544 16.703 9.293 29.167.356.657.458 1.422.301 2.153l-1.173 5.456-2.174 2.039h5.6l3.729-10.091-1.594-.504a3.017 3.017 0 01-2.107-2.825l-.187-10.824c.159-4.823-2.957-8.15-2.957-8.15l8.944-.435-8.907-11.318z" fill="url(#paint3_linear)"/><path d="M175.181 256.394c-.51.668 5.489 1.548 8.52.088 0 0 4.202-7.31 4.202-11.074 0 0-.334-.767-2.801-.593 0 0-1.41 8.655-2.9 9.625-1.49.97-4.168.098-4.168.098s-2.101.871-2.853 1.856z" fill="url(#paint4_linear)"/><path d="M187.664 223.174c-.048-.082-9.63-1.152-9.63-1.152s.314 2.914-.666 6.924c-.98 4.011-15.048 21.386-15.048 21.386l1.475 4.677c-4.561 1.588-9.047 1.842-13.462.809l9.142-5.486s8.555-29.156 13.796-34.357l9.605-3.323 4.788 10.522z" fill="url(#paint5_linear)"/><path d="M209.152 206.21s5.521 8.211 5.974 11.956c.453 3.746-1.512 5.268-7.305 5.519-5.792.251-21.256.246-21.256.246l-13.198-11.279s9.618-3.432 12.119-4.402c2.501-.971 23.666-2.04 23.666-2.04z" fill="url(#paint6_linear)"/><path d="M163.237 253.434s1.588 1.538.515 3.249c0 0-12.58 2.23-15.996 1.218 0 0 .71-1.618 4.556-3.461l-.284.218c-.359.276-.149.85.303.824 2.535-.144 7.78-.609 10.906-2.048z" fill="url(#paint7_linear)"/><path d="M184.107 167.304c0 .765 6.891 29.094 6.891 29.094l19.632 5.774a8.82 8.82 0 009.953-3.763c5.225-8.297 2.729-19.259-5.573-24.477l-2.78-1.748a52.187 52.187 0 01-15.047-14.351l-1.047-1.503-12.029 10.974z" fill="url(#paint8_linear)"/><path d="M217.546 194.675a.08.08 0 01-.068-.039.08.08 0 01.027-.11c2.322-1.395 2.545-4.564 2.533-5.861a15.22 15.22 0 00-1.979-7.357c-2.284-4.026-6.237-6.764-10.06-9.412l-.792-.549c-3.908-2.719-8.224-6.019-9.982-10.801a.08.08 0 11.15-.055c1.742 4.737 6.036 8.02 9.923 10.725l.792.549c3.838 2.658 7.806 5.406 10.109 9.463a15.401 15.401 0 011.999 7.435c.012 1.325-.217 4.562-2.61 6a.081.081 0 01-.042.012z" fill="#7D97F4"/><path d="M215.954 190.461a.077.077 0 01-.015-.002.08.08 0 01-.064-.094c.517-2.627.44-4.972-.229-6.971-1.209-3.617-4.421-6.25-7.084-8.14-.536-.38-1.09-.761-1.625-1.129-2.471-1.701-5.026-3.459-6.881-5.857a.08.08 0 11.126-.098c1.84 2.378 4.385 4.129 6.846 5.823.535.368 1.089.749 1.626 1.13 2.683 1.904 5.92 4.559 7.144 8.22.678 2.026.757 4.399.234 7.053a.08.08 0 01-.078.065z" fill="#7D97F4"/><path d="M194.223 205.122s-6.429-6.121-9.593-10.175a8.603 8.603 0 01-1.457-7.743c1.445-4.867 4.012-9.908 4.246-10.693.359-1.203 7.568-1.153 7.568-1.153s14.184 9.206 19.757 24.8l-6.259 1.949s-3.703-6.214-7.363-10.164c0 0 6.332 8.365 6.555 11.789l-13.454 1.39z" fill="url(#paint9_linear)"/><path d="M185.482 168.138c.075.25 3.022 8.139 3.169 8.268.147.13 4.126.343 5.999-.937l-4.646-9.086-4.522 1.755z" fill="url(#paint10_linear)"/><path d="M181.126 205.577l4.723-4.553 6.534 2.761s6.504 1.007 10.227 0l3.722-1.008 8.412-2.619 1.321 3.734c.336.948-.001 2-.821 2.583-.728.517-1.581 1.085-2.125 1.323-1.107.484-27.307-.335-27.307-.335l-4.686-1.886z" fill="url(#paint11_linear)"/><path d="M186.247 155.092s-3.408 1.672-5.495 6.852c-2.088 5.18-.183 7.409 2.062 7.602 2.245.194 5.573-.044 8.91-3.503 3.338-3.459-1.038-12.957-5.477-10.951z" fill="url(#paint12_linear)"/><path d="M189.203 163.484s2.215-7.531-4.334-7.247l-1.479 1.164s-2.633-3.957 1.197-6.134c3.83-2.177 9.809-.772 11.788 4.443 1.979 5.214 1.192 8.699-1.454 11.397-2.646 2.699-3.96-.116-3.96-.116s1.385-2.462.694-3.698c-.691-1.237-2.03.379-2.03.379l-.422-.188z" fill="url(#paint13_linear)"/><path d="M189.226 164.801s3.05-3.244 4.166-.918c1.115 2.326-3.033 2.9-4.597 2.989l.431-2.071z" fill="url(#paint14_linear)"/><path d="M199 207.723l-.063.002-27.398-.03a1.227 1.227 0 01-1.226-1.228c.001-.677.553-1.237 1.228-1.225l27.399.03a1.226 1.226 0 01.06 2.451z" fill="url(#paint15_linear)"/><path d="M146.908 182.847h22.818c1.683 0 3.215.971 3.933 2.494l10.549 22.368h-28.357a2.644 2.644 0 01-2.458-1.672l-8.18-20.698a1.823 1.823 0 011.695-2.492z" fill="url(#paint16_linear)"/><path d="M162.984 194.316c.494 1.536.129 3.028-.816 3.332-.945.304-2.112-.695-2.607-2.231-.494-1.536-.129-3.028.816-3.332.945-.305 2.112.694 2.607 2.231z" fill="url(#paint17_linear)"/><path d="M230.237 253.237s.287 1.596.401 3.492a1.504 1.504 0 01-1.356 1.587c-2.804.272-9.188.775-13.264.186a.684.684 0 01-.375-1.177c1.68-1.565 5.739-4.611 12.42-5.277l2.174 1.189z" fill="url(#paint18_linear)"/><path d="M231.632 249.637l-1.418 3.476a1.158 1.158 0 01-1.189.718 6.314 6.314 0 01-1.159-.224 1.522 1.522 0 01-1.012-1.892l1.07-3.58 3.708 1.502z" fill="url(#paint19_linear)"/><path d="M255.873 256.005s-2.84 2.375-3.946 5.423c-.304.838.339 1.721 1.231 1.721H259c.856 0 1.511-.77 1.362-1.612-.372-2.104-1.445-5.523-4.489-5.532z" fill="url(#paint20_linear)"/><path d="M259.39 252.913s-.573 2.538-1.014 4.216a.537.537 0 01-.702.365c-.884-.316-1.603-.456-2.126-.385-.242.032-.453-.169-.456-.413l-.055-4.216 4.353.433z" fill="url(#paint21_linear)"/><path d="M244.289 195.792l-17.27 52.687s3.313 2.17 4.891 2.079l20.513-42.342s3.589 26.09 1.85 44.82l5.875.448s9.554-47.866 2.318-64.26l-18.177 6.568z" fill="url(#paint22_linear)"/><path d="M252.311 207.76l.021-.001a.166.166 0 00.145-.187l-.67-5.319a.167.167 0 00-.332.041l.671 5.32c.01.085.082.146.165.146z" fill="url(#paint23_linear)"/><path d="M241.051 149.43s13.992 1.243 12.013 11.212c0 0 7.735 14.556 11.351 31.702a1.01 1.01 0 01-.818 1.199l-23.302 3.989a1.254 1.254 0 01-1.426-.922l-5.568-21.517-2.169 10.004-6.894-1.796 5.803-29.398c0 .001.81-4.288 11.01-4.473z" fill="url(#paint24_linear)"/><path d="M233.183 174.13a.173.173 0 00.17-.21l-1.942-8.919a.174.174 0 00-.34.074l1.943 8.919a.173.173 0 00.169.136z" fill="url(#paint25_linear)"/><path d="M234.59 200.67a3.325 3.325 0 012.406-.313l1.621.403a.587.587 0 00.726-.504l1.677-14.933c2.098.996 5.124.877 6.123.805l-3.862 17.604h-13.512l4.821-3.062z" fill="url(#paint26_linear)"/><path d="M198.687 168.279l.408-1.357a2.686 2.686 0 011.57-1.718l7.387-2.97s.111-.948-1.561-1.592c-1.672-.643-1.282-2.516-1.282-2.516s2.285 1.042 5.63 2.695c1.913.945 2.986 2.614 3.555 3.871l16.738 20.405-1.965 1.35a5.247 5.247 0 01-7.607-1.867l-9.068-17.388c-4.552 1.368-9.159 1.629-13.805 1.087z" fill="url(#paint27_linear)"/><path d="M236.518 139.911l4.304 12.045s-3.811 2.979-6.592 1.972l-2.168-6.904c0-.001 1.656-8.439 4.456-7.113z" fill="url(#paint28_linear)"/><path d="M223.674 135.586c0 .185 4.145 11.735 4.145 11.735l6.545-2.507-2.303-11.531s-8.387-.805-8.387 2.303z" fill="url(#paint29_linear)"/><path d="M230.914 136.092l1.687 5.975a.843.843 0 01.033.234c.001.487-.12 2.164-1.828 1.936-1.55-.207-2.968-.373-3.869.052a.866.866 0 00-.447 1.077c.377 1.049 1.27 3.398 2.357 5.32a.865.865 0 001.113.356c1.229-.559 3.788-1.811 5.611-3.3a.867.867 0 00.307-.833c-.287-1.528-1.141-6.177-1.179-7.509-.035-1.251 1.368-2.206 1.986-2.564a.856.856 0 00.401-.539c.194-.805.359-2.627-1.965-3.028a.87.87 0 01-.705-1.033c.197-.963.134-2.38-1.694-2.901-1.858-.531-3.027.588-3.621 1.445a.867.867 0 01-1.076.287c-.219-.098-.484-.102-.769.138-.384.324-.968.225-1.25-.19-.542-.797-1.526-1.593-3.192-1.054-2.957.956-2.815 4.365-1.732 6.219 1.084 1.853 4.231.633 5.721-.595 1.132-.933 2.857-.375 3.618-.053a.86.86 0 01.493.56z" fill="url(#paint30_linear)"/><path d="M235.292 141.581s-1.75-3.31-.593-4.35c1.157-1.039 3.118-.869 3.065 1.72-.065 3.219-2.472 2.63-2.472 2.63z" fill="url(#paint31_linear)"/><path d="M245.785 186.351c.955 0 1.636-.072 1.71-.08l.124-.014 5.095-23.755a.174.174 0 00-.133-.206.172.172 0 00-.206.133l-5.042 23.508c-.759.067-4.808.336-6.945-1.178l4.413-20.638-.921-1.736a.173.173 0 00-.234-.072.173.173 0 00-.072.234l.862 1.625-4.434 20.733.088.066c1.545 1.161 4.033 1.38 5.695 1.38z" fill="url(#paint32_linear)"/><path d="M216.696 207.169h26.965v-2.783h-26.965c.577 0 .577 2.783 0 2.783z" fill="#91B3FA"/><path d="M243.567 207.169a.095.095 0 00.094-.095v-2.594a.094.094 0 00-.094-.094h-27.599a.095.095 0 01-.094-.094v-.441c0-.052.042-.094.094-.094h29.237c.643 0 1.165.521 1.165 1.164v1.779c0 .606-.492 1.098-1.098 1.098h-29.304a.095.095 0 01-.094-.095v-.44c0-.052.042-.094.094-.094h27.599z" fill="url(#paint33_linear)"/><path d="M130.866 260.132a.814.814 0 01-.35-.079c-.451-.211-.659-.781-.465-1.273l18.618-47.239c.193-.491.715-.718 1.166-.507.45.211.658.781.465 1.273l-18.618 47.239c-.144.367-.472.586-.816.586z" fill="#7D97F4"/><path d="M151.84 260.133c-.344 0-.671-.22-.816-.587l-18.618-47.239c-.193-.492.015-1.062.465-1.273.45-.212.972.015 1.166.507l18.618 47.24c.194.491-.014 1.061-.464 1.273a.837.837 0 01-.351.079zm67.557-1.036a.83.83 0 01-.35-.079c-.45-.212-.659-.782-.465-1.273l18.618-47.24c.194-.491.715-.718 1.166-.507.451.212.659.781.465 1.273l-18.618 47.239c-.144.367-.472.587-.816.587z" fill="#7D97F4"/><path d="M240.371 259.097c-.344 0-.672-.22-.816-.587l-18.618-47.239c-.194-.492.015-1.061.465-1.273.45-.211.972.016 1.166.507l18.618 47.24c.194.491-.014 1.061-.465 1.273a.83.83 0 01-.35.079z" fill="#7D97F4"/><path d="M247.577 209.044a.96.96 0 00-.257-.875 1.297 1.297 0 00-.94-.386H123.164c-.479 0-.924.212-1.182.563-.258.35-.292.791-.092 1.169l1.336 2.513c.306.576.968.944 1.697.944h120.612c.678 0 1.261-.418 1.39-.997l.652-2.931z" fill="#7D97F4"/><path opacity=".3" d="M223.042 90.498a.544.544 0 01.099-.721c.469-.397.963-.78 1.467-1.137a.544.544 0 01.759.13l.006.008a.545.545 0 01-.135.75c-.479.34-.948.703-1.394 1.08a.544.544 0 01-.802-.11zm3.94-2.638a.544.544 0 01.198-.79 21.35 21.35 0 011.681-.785.545.545 0 11.418 1.004c-.539.225-1.076.476-1.596.747a.545.545 0 01-.701-.176zm4.423-1.706a.544.544 0 01.312-.833 21.726 21.726 0 011.814-.39.545.545 0 01.184 1.072 20.59 20.59 0 00-1.723.372.543.543 0 01-.587-.22zm4.693-.673a.544.544 0 01.434-.85c.617-.018 1.241-.01 1.856.024a.544.544 0 01-.06 1.087 20.653 20.653 0 00-1.763-.023.545.545 0 01-.467-.238zm4.726.39a.544.544 0 01.555-.84 21.61 21.61 0 011.804.434.544.544 0 11-.299 1.047c-.564-.162-1.141-.3-1.715-.413a.544.544 0 01-.345-.228zm4.522 1.426a.545.545 0 01.67-.805c.563.25 1.123.527 1.663.823a.544.544 0 11-.524.954 20.62 20.62 0 00-1.58-.781.542.542 0 01-.229-.191zm12.291 15.759a.52.52 0 01-.086-.213c-.1-.576-.226-1.156-.375-1.723a.545.545 0 011.053-.277c.157.597.29 1.208.394 1.814a.543.543 0 01-.986.399zm-8.2-13.369a.544.544 0 01.776-.742c.493.369.977.763 1.437 1.173a.545.545 0 01-.724.813 20.229 20.229 0 00-1.365-1.114.558.558 0 01-.124-.13zm6.871 8.818a.602.602 0 01-.052-.096 20.653 20.653 0 00-.75-1.597.545.545 0 01.965-.504c.285.547.551 1.112.789 1.68a.544.544 0 01-.952.517zm-3.417-5.573a.545.545 0 01.865-.658c.399.47.782.962 1.139 1.465l.007.01a.545.545 0 01-.893.62c-.34-.477-.704-.945-1.083-1.39a.845.845 0 01-.035-.047zm5.052 13.934a.547.547 0 01-.094-.312c.003-.28 0-.566-.008-.848a.543.543 0 111.087-.033c.01.297.013.597.01.892a.545.545 0 01-.995.301zm-6.635 15.208a.545.545 0 01.077-.701c.204-.193.408-.393.605-.595a.544.544 0 11.779.761c-.208.212-.422.423-.637.626a.544.544 0 01-.824-.091zm-32.071-3.464a21.438 21.438 0 01-.414-.631.545.545 0 01.92-.582c.312.493.642.971.987 1.428a.544.544 0 01-.869.656 22.858 22.858 0 01-.624-.871zm-1.78-3.159a.527.527 0 01-.045-.081 21.689 21.689 0 01-.688-1.691.543.543 0 111.024-.368c.194.542.414 1.083.654 1.608a.544.544 0 01-.945.532zm4.284 6.191a.545.545 0 01.836-.69c.406.407.834.803 1.275 1.175a.545.545 0 01-.704.831 21.542 21.542 0 01-1.342-1.238.527.527 0 01-.065-.078zm-5.742-10.624a.562.562 0 01-.083-.194c-.124-.594-.225-1.2-.299-1.802a.545.545 0 011.081-.133c.07.571.165 1.147.284 1.711a.544.544 0 01-.983.418zm9.379 13.542a.543.543 0 01.741-.766c.485.308.991.6 1.502.867a.544.544 0 11-.504.964 21.528 21.528 0 01-1.581-.912.525.525 0 01-.158-.153zm4.189 2.05a.542.542 0 01.634-.818 21.28 21.28 0 001.655.518.543.543 0 11-.281 1.051 21.556 21.556 0 01-1.742-.545.54.54 0 01-.266-.206zm4.536 1.088a.543.543 0 01.519-.846c.572.072 1.154.121 1.729.146a.543.543 0 11-.046 1.087 21.817 21.817 0 01-1.82-.153.542.542 0 01-.382-.234zm4.666.073a.545.545 0 01.398-.848 20.176 20.176 0 001.719-.237.545.545 0 01.194 1.071c-.596.108-1.205.192-1.809.25a.545.545 0 01-.502-.236zm4.569-.954a.545.545 0 01.28-.824 20.435 20.435 0 001.623-.609.544.544 0 11.426 1.002c-.559.237-1.134.453-1.709.642a.546.546 0 01-.62-.211zm4.245-1.933l-.018-.028a.545.545 0 01.19-.746 21.095 21.095 0 001.453-.948.543.543 0 01.759.127.537.537 0 01-.127.759 22.147 22.147 0 01-1.529.997.544.544 0 01-.728-.161zm-32.03-18.525a.536.536 0 01-.094-.314c.004-.294.015-.594.032-.892a.544.544 0 111.086.062c-.016.282-.026.567-.03.847a.545.545 0 01-.994.297z" fill="#7D97F4"/><path d="M221.185 103.415a.254.254 0 00.096.28l2.518 1.801a13.478 13.478 0 00.451 4.346l-2.091 2.28a.253.253 0 00-.036.293l1.768 3.265a.255.255 0 00.266.13l3.052-.506a13.501 13.501 0 003.394 2.751l.134 3.094a.255.255 0 00.181.232l3.56 1.058a.255.255 0 00.28-.096l1.801-2.518a13.48 13.48 0 004.346-.451l2.28 2.091c.08.074.198.088.293.037l3.265-1.769a.255.255 0 00.13-.266l-.507-3.052a13.466 13.466 0 002.752-3.394l3.093-.134a.253.253 0 00.233-.181l1.058-3.56a.254.254 0 00-.096-.279l-2.518-1.802c.085-1.443-.06-2.91-.451-4.346l2.091-2.28a.254.254 0 00.036-.293l-1.769-3.265a.254.254 0 00-.265-.13l-3.052.507a13.484 13.484 0 00-3.395-2.752l-.133-3.093a.255.255 0 00-.182-.233l-3.56-1.058a.254.254 0 00-.279.096l-1.801 2.518a13.487 13.487 0 00-4.346.451l-2.28-2.09a.254.254 0 00-.293-.037l-3.266 1.769a.254.254 0 00-.129.265l.506 3.053a13.508 13.508 0 00-2.752 3.393l-3.093.134a.255.255 0 00-.233.182l-1.057 3.559z" fill="#7D97F4"/><path d="M234.256 108.379a3.738 3.738 0 01.56-4.845 3.736 3.736 0 015.274.219 3.704 3.704 0 01.983 2.683 3.704 3.704 0 01-1.202 2.591 3.737 3.737 0 01-5.615-.648zm5.457-3.704a2.865 2.865 0 00-4.307-.501 2.864 2.864 0 00-.169 4.044 2.865 2.865 0 004.044.169c.563-.518.89-1.224.922-1.987a2.838 2.838 0 00-.49-1.725z" fill="#BDD0FB"/><path d="M229.841 111.475a9.356 9.356 0 01-1.187-2.453l-.016-.054a3.28 3.28 0 01-.032-.106.218.218 0 01.148-.27.219.219 0 01.27.148 8.742 8.742 0 007.79 6.276 8.68 8.68 0 004.771-1.032 8.68 8.68 0 004.216-5.196 8.685 8.685 0 00-.693-6.656c-2.298-4.24-7.614-5.819-11.852-3.523a8.706 8.706 0 00-3.357 3.228.22.22 0 01-.299.076.217.217 0 01-.076-.297 9.144 9.144 0 013.524-3.39c4.45-2.41 10.032-.75 12.443 3.698a9.12 9.12 0 01.728 6.987 9.11 9.11 0 01-4.426 5.456 9.12 9.12 0 01-6.987.728 9.109 9.109 0 01-4.965-3.62z" fill="#BDD0FB"/><path opacity=".3" d="M200.736 83.21a.336.336 0 01.018-.401c.181-.221.372-.44.566-.648a.336.336 0 01.493.457c-.185.2-.367.407-.539.618a.337.337 0 01-.538-.025zm1.818-1.838a.336.336 0 01.062-.446 14.617 14.617 0 011.438-1.065.348.348 0 01.465.098.337.337 0 01-.098.465l-.248.165a13.9 13.9 0 00-1.124.852.337.337 0 01-.474-.041l-.021-.028zm2.927-1.902a.337.337 0 01.13-.492 14.593 14.593 0 011.652-.685.336.336 0 11.219.636c-.535.184-1.066.404-1.576.654a.336.336 0 01-.425-.113zm3.3-1.135a.336.336 0 01.209-.518c.582-.122 1.178-.21 1.772-.259a.336.336 0 11.055.67 13.72 13.72 0 00-1.689.247.336.336 0 01-.347-.14zm3.479-.29a.336.336 0 01.291-.524c.596.024 1.195.085 1.781.182a.336.336 0 01-.11.664 13.876 13.876 0 00-1.698-.175.334.334 0 01-.264-.147zm3.443.57a.337.337 0 01.373-.512 14.69 14.69 0 011.682.61.335.335 0 11-.267.616c-.52-.225-1.06-.42-1.605-.581a.341.341 0 01-.183-.134zm3.201 1.387a.336.336 0 01.449-.48c.512.303 1.011.64 1.482 1.002a.337.337 0 01-.411.533 13.788 13.788 0 00-1.412-.955.327.327 0 01-.108-.1zm2.764 2.127a.336.336 0 01.515-.428c.421.418.822.867 1.191 1.335a.336.336 0 01-.528.416 13.8 13.8 0 00-1.136-1.273.339.339 0 01-.042-.05zm2.971 4.29a.403.403 0 01-.029-.05 13.883 13.883 0 00-.793-1.512.336.336 0 01.113-.462.333.333 0 01.462.113 14.673 14.673 0 01.832 1.585.336.336 0 01-.585.327zm-24.557 13.94a.336.336 0 01.554-.381c.32.457.671.9 1.043 1.314a.335.335 0 11-.5.449c-.39-.434-.758-.898-1.094-1.378l-.003-.004zm-.899-1.466a14.697 14.697 0 01-.754-1.63.336.336 0 01.627-.244c.202.52.438 1.034.701 1.526a.336.336 0 01-.574.348zm3.193 4.02a.336.336 0 01.498-.443c.422.367.87.712 1.331 1.024a.336.336 0 01-.377.557 14.609 14.609 0 01-1.395-1.074.344.344 0 01-.057-.064zm-4.434-7.222a.327.327 0 01-.048-.106 14.344 14.344 0 01-.327-1.731.336.336 0 01.667-.084c.07.553.175 1.108.312 1.65a.337.337 0 01-.604.271zm7.276 9.145a.336.336 0 01.431-.489c.496.255 1.014.482 1.538.674a.336.336 0 11-.233.631 14.6 14.6 0 01-1.612-.706.347.347 0 01-.124-.11zm3.221 1.185a.335.335 0 01.355-.516c.544.128 1.101.225 1.655.287a.336.336 0 01-.075.668 14.62 14.62 0 01-1.734-.301.337.337 0 01-.201-.138zm3.413.38a.336.336 0 01.274-.525c.56-.006 1.123-.046 1.675-.119a.337.337 0 01.378.289.337.337 0 01-.289.378 14.72 14.72 0 01-1.757.124.334.334 0 01-.281-.147zm-14.341-14.132a.337.337 0 01-.058-.189c-.001-.287.007-.576.023-.859a.337.337 0 01.672.038c-.016.27-.023.545-.022.82a.337.337 0 01-.615.19z" fill="#7D97F4"/><path d="M201.259 90.057a.17.17 0 00.064.187l1.685 1.205c-.057.966.04 1.948.302 2.908l-1.399 1.526a.17.17 0 00-.024.196l1.183 2.185a.171.171 0 00.178.087l2.042-.34a9.036 9.036 0 002.271 1.842l.09 2.07a.171.171 0 00.121.156l2.382.708c.07.02.145-.006.187-.065l1.206-1.685a9.026 9.026 0 002.908-.301l1.525 1.399a.171.171 0 00.197.024l2.185-1.184a.17.17 0 00.086-.177l-.339-2.043a9.012 9.012 0 001.842-2.27l2.069-.09a.17.17 0 00.156-.122l.708-2.382a.17.17 0 00-.064-.187l-1.685-1.205a9.024 9.024 0 00-.302-2.908l1.399-1.526a.171.171 0 00.025-.196l-1.184-2.185a.17.17 0 00-.178-.087l-2.042.34a9.018 9.018 0 00-2.271-1.842l-.09-2.07a.17.17 0 00-.121-.156l-2.382-.708a.17.17 0 00-.187.065l-1.205 1.684a9.03 9.03 0 00-2.909.303l-1.525-1.4a.17.17 0 00-.196-.024l-2.185 1.184a.17.17 0 00-.087.177l.339 2.043a9.036 9.036 0 00-1.842 2.27l-2.069.09a.17.17 0 00-.156.122l-.708 2.382z" fill="#7D97F4"/><path d="M209.966 93.4a2.524 2.524 0 01-.435-1.532 2.524 2.524 0 01.819-1.765 2.546 2.546 0 013.593.15 2.547 2.547 0 01-.15 3.592c-.5.46-1.149.698-1.827.67a2.525 2.525 0 01-2-1.115zm3.653-2.477a1.873 1.873 0 00-2.814-.325c-.367.338-.581.8-.602 1.298-.021.5.154.976.492 1.344.338.368.8.582 1.299.603a1.874 1.874 0 001.625-2.92z" fill="#BDD0FB"/><path d="M206.89 95.551a6.459 6.459 0 01-.832-1.74l-.016-.056a.336.336 0 11.645-.188c.113.385.267.76.459 1.114l.032.058a5.602 5.602 0 003.283 2.656.55.55 0 00.012.004l.037.011c1.45.43 2.98.271 4.309-.449a5.62 5.62 0 002.729-3.364 5.622 5.622 0 00-.449-4.308 5.628 5.628 0 00-3.364-2.73 5.622 5.622 0 00-4.799.748 5.644 5.644 0 00-1.683 1.79.335.335 0 11-.578-.343 6.313 6.313 0 012.431-2.337 6.29 6.29 0 014.821-.502 6.284 6.284 0 013.763 3.053 6.289 6.289 0 01.503 4.82 6.287 6.287 0 01-3.054 3.764 6.341 6.341 0 01-8.249-2z" fill="#BDD0FB"/><path d="M53.777 256.533s-.544 2.917-.825 5.808a1.993 1.993 0 001.886 2.177c3.85.197 12.088.588 15.046.484a.649.649 0 00.58-.883 1.45 1.45 0 00-.736-.789l-13.551-6.386-2.4-.411z" fill="url(#paint34_linear)"/><path d="M53.37 254.812l.382 3.499s2.374 1.133 4.014-.101l-.95-3.905-3.445.507z" fill="url(#paint35_linear)"/><path d="M54.31 189.1c-.189.911-1.397 45.542 3.184 65.592a.68.68 0 01-.406.786c-.735.292-2.174.711-3.894.752a1.17 1.17 0 01-1.152-.85c-1.32-4.654-7.633-27.971-8.274-50.193-.716-24.831.008-.845.008-.845l.705-15.338 9.828.096z" fill="url(#paint36_linear)"/><path d="M38.105 257.908s-.836 1.467-1.669 5.38a1.215 1.215 0 001.056 1.466c1.271.138 3.228.317 4.797.321a1.212 1.212 0 001.213-1.341c-.16-1.432-.679-3.785-2.334-5.631l-3.063-.195z" fill="url(#paint37_linear)"/><path d="M37.426 253.405l.919 5.295s.951.722 2.852.224l-.409-5.692-3.362.173z" fill="url(#paint38_linear)"/><path d="M35.41 190.289c-4.127 23.515.291 58.218 1.828 65.017.094.416.426.738.847.812.713.125 1.89.233 3.053-.093a.97.97 0 00.706-.886c.267-5.483.201-39.154 3.965-52.425a3.02 3.02 0 011.181-1.656l7.106-4.95.618-8.105-19.304 2.286z" fill="url(#paint39_linear)"/><path d="M60.703 145.901c-11.694-.305-24.629 2.836-24.629 2.836-3.68 20.307-1.027 43.796-1.027 43.796 9.031 2.461 19.28-1.267 19.28-1.267 1.587-8.488 8.836-32.348 8.836-32.348 5.721-.655 10.444-2.259 14.341-4.401-2.924-3.456-4.276-7.83-4.857-10.414-4.147 1.245-8.338 1.892-11.944 1.798z" fill="url(#paint40_linear)"/><path d="M95.412 129.004c-1.136-1.398-2.596-.756-2.596-.756-1.79 7.253-10.87 13.062-20.169 15.855.58 2.583 1.933 6.958 4.857 10.414 15.468-8.504 17.908-25.513 17.908-25.513z" fill="url(#paint41_linear)"/><path d="M95.13 129.354c.116.384-1.282.952-2.086-.618-.022-.75-.447-3.963.007-4.569 2.415-3.228 7.075-7.258 7.075-7.258.774.778.123 1.529.123 1.529l-2.264 2.315c.46.852 1.026 1.573 1.284 2.6a3.143 3.143 0 01-.335 2.31c-.4.705-.946 1.622-1.46 2.338-.974 1.356-2.345 1.353-2.345 1.353z" fill="url(#paint42_linear)"/><path d="M96.99 122.259l-2.06 1.713-.658 1.718 1.802 2.038s.646-3.415 1.108-4.152c.462-.736.23-1.096-.192-1.317z" fill="url(#paint43_linear)"/><path d="M40.452 160.104l-4.377-11.367s-10.995 7.318-12.881 16.711c2.063.172 5.813.745 9.472 2.636.85-4.436 7.786-7.98 7.786-7.98z" fill="url(#paint44_linear)"/><path d="M49.897 170.851s-12.331 6.814-16.413.856c-.847-1.237-1.041-2.461-.818-3.623-3.659-1.891-7.41-2.464-9.472-2.636-.57 2.832-.311 5.852 1.326 8.917 7.123 13.33 26.97-.475 26.97-.475l-1.593-3.039z" fill="url(#paint45_linear)"/><path d="M48.947 136.293l-3.824 10.726a.388.388 0 00.172.469c1.01.57 4.648 2.226 9.079-.524.462-.287.779-.758.853-1.296l1.294-9.302-7.574-.073z" fill="url(#paint46_linear)"/><path d="M57.139 126.405s4.013 7.731 3.46 10.833c-.554 3.102-5.616 2.831-10.014.265l-3.011-8.335 9.565-2.763z" fill="url(#paint47_linear)"/><path d="M50.82 133.426a.316.316 0 00.142-.462c-.323-.504-.926-1.53-1.114-2.425 0 0-.73-.478 1.88-1.076 2.61-.599 6.503-1.529 7.34-3.738.817-2.154-1.222-7.608-4.6-3.31a.317.317 0 01-.502-.001c-.54-.717-1.964-2.208-3.968-1.332-1.877.821-2.1 2.188-2.08 2.878a.315.315 0 01-.377.319c-.943-.189-3.208-.365-4.288 1.95-.89 1.906-.334 2.996.177 3.531a.316.316 0 01-.14.523c-.623.185-1.43.703-1.363 2.158.092 2.012 2.341 1.856 2.982 1.771a.318.318 0 01.28.102c.543.612 2.991 3.215 5.664 3.551a.32.32 0 00.34-.419l-1.126-3.378a.319.319 0 01.175-.393l.577-.249z" fill="url(#paint48_linear)"/><path d="M51.28 133.909s-2.89-2.024-3.119-.345c-.229 1.679 2.597 2.46 4.006 1.846l-.887-1.501z" fill="url(#paint49_linear)"/><path d="M47.377 181.62l6.717-23.458a.684.684 0 01.578-.492c1.217-.142 4.744-.541 8.815-.885 4.905-.415 10.6-.751 14.004-.465.483.04.776.552.56.987-1.935 3.916-9.896 19.843-13.882 25.061a.688.688 0 01-.554.272l-15.585-.145a.686.686 0 01-.654-.875z" fill="url(#paint50_linear)"/><path d="M49 175.953s-.936-3.848-.559-5.213c.378-1.365 1.109-3.12 3.546-2.73 2.438.39 5.313 1.417 5.313 1.417s-.145 1.778-1.997 1.204l1.149.889s-.165 1.424-1.73.663l1.069 1.179s-.672 1.169-1.823.419c-1.152-.75-1.704 2.635-4.968 2.172z" fill="url(#paint51_linear)"/><path d="M63.04 163.787a1.972 1.972 0 103.943 0 1.972 1.972 0 00-3.943 0zm-8.285 1.271l-.307-.091 1.368-4.639a2.013 2.013 0 011.514-1.41c4.325-.902 16.098-1.093 16.216-1.095l.005.321c-.118.001-11.86.192-16.155 1.088a1.693 1.693 0 00-1.273 1.187l-1.367 4.639z" fill="#91B3FA"/><defs><linearGradient id="paint0_linear" x1="278.56" y1="294.256" x2="89.417" y2="90.102" gradientUnits="userSpaceOnUse"><stop stop-color="#DAE3FE"/><stop offset="1" stop-color="#E9EFFD"/></linearGradient><linearGradient id="paint1_linear" x1="228.106" y1="62.198" x2="36.421" y2="208.149" gradientUnits="userSpaceOnUse"><stop stop-color="#4F52FF"/><stop offset="1" stop-color="#4042E2"/></linearGradient><linearGradient id="paint2_linear" x1="114.362" y1="143.726" x2="170.07" y2="-54.868" gradientUnits="userSpaceOnUse"><stop stop-color="#4F52FF"/><stop offset="1" stop-color="#4042E2"/></linearGradient><linearGradient id="paint3_linear" x1="171.105" y1="233.336" x2="188.796" y2="233.336" gradientUnits="userSpaceOnUse"><stop stop-color="#FEBBBA"/><stop offset="1" stop-color="#FF928E"/></linearGradient><linearGradient id="paint4_linear" x1="181.929" y1="244.863" x2="179.327" y2="284.761" gradientUnits="userSpaceOnUse"><stop stop-color="#4F52FF"/><stop offset="1" stop-color="#4042E2"/></linearGradient><linearGradient id="paint5_linear" x1="150.333" y1="234.545" x2="187.664" y2="234.545" gradientUnits="userSpaceOnUse"><stop stop-color="#FEBBBA"/><stop offset="1" stop-color="#FF928E"/></linearGradient><linearGradient id="paint6_linear" x1="173.367" y1="215.071" x2="215.188" y2="215.071" gradientUnits="userSpaceOnUse"><stop stop-color="#09005D"/><stop offset="1" stop-color="#1A0F91"/></linearGradient><linearGradient id="paint7_linear" x1="156.82" y1="243.226" x2="154.218" y2="283.123" gradientUnits="userSpaceOnUse"><stop stop-color="#4F52FF"/><stop offset="1" stop-color="#4042E2"/></linearGradient><linearGradient id="paint8_linear" x1="175.692" y1="151.76" x2="220.989" y2="206.032" gradientUnits="userSpaceOnUse"><stop stop-color="#09005D"/><stop offset="1" stop-color="#1A0F91"/></linearGradient><linearGradient id="paint9_linear" x1="187.077" y1="195.305" x2="277.424" y2="149.811" gradientUnits="userSpaceOnUse"><stop stop-color="#FE7062"/><stop offset="1" stop-color="#FF928E"/></linearGradient><linearGradient id="paint10_linear" x1="192.241" y1="185.757" x2="189.721" y2="169.587" gradientUnits="userSpaceOnUse"><stop stop-color="#FEBBBA"/><stop offset="1" stop-color="#FF928E"/></linearGradient><linearGradient id="paint11_linear" x1="202.983" y1="204.055" x2="238.051" y2="204.055" gradientUnits="userSpaceOnUse"><stop stop-color="#FEBBBA"/><stop offset="1" stop-color="#FF928E"/></linearGradient><linearGradient id="paint12_linear" x1="180.885" y1="159.562" x2="198.494" y2="170.116" gradientUnits="userSpaceOnUse"><stop stop-color="#FEBBBA"/><stop offset="1" stop-color="#FF928E"/></linearGradient><linearGradient id="paint13_linear" x1="179.656" y1="145.984" x2="228.767" y2="198.466" gradientUnits="userSpaceOnUse"><stop stop-color="#09005D"/><stop offset="1" stop-color="#1A0F91"/></linearGradient><linearGradient id="paint14_linear" x1="184.363" y1="154.545" x2="196.326" y2="173.777" gradientUnits="userSpaceOnUse"><stop stop-color="#FEBBBA"/><stop offset="1" stop-color="#FF928E"/></linearGradient><linearGradient id="paint15_linear" x1="203.649" y1="200.443" x2="181.899" y2="207.577" gradientUnits="userSpaceOnUse"><stop stop-color="#09005D"/><stop offset="1" stop-color="#1A0F91"/></linearGradient><linearGradient id="paint16_linear" x1="173.771" y1="186.182" x2="158.107" y2="202.738" gradientUnits="userSpaceOnUse"><stop stop-color="#09005D"/><stop offset="1" stop-color="#1A0F91"/></linearGradient><linearGradient id="paint17_linear" x1="164.302" y1="190.305" x2="157.195" y2="201.007" gradientUnits="userSpaceOnUse"><stop stop-color="#4F52FF"/><stop offset="1" stop-color="#4042E2"/></linearGradient><linearGradient id="paint18_linear" x1="222.799" y1="282.151" x2="222.567" y2="306.667" gradientUnits="userSpaceOnUse"><stop stop-color="#09005D"/><stop offset="1" stop-color="#1A0F91"/></linearGradient><linearGradient id="paint19_linear" x1="228.709" y1="254.772" x2="229.981" y2="244.827" gradientUnits="userSpaceOnUse"><stop stop-color="#FEBBBA"/><stop offset="1" stop-color="#FF928E"/></linearGradient><linearGradient id="paint20_linear" x1="255.922" y1="282.464" x2="255.691" y2="306.98" gradientUnits="userSpaceOnUse"><stop stop-color="#09005D"/><stop offset="1" stop-color="#1A0F91"/></linearGradient><linearGradient id="paint21_linear" x1="256.512" y1="258.181" x2="257.752" y2="248.489" gradientUnits="userSpaceOnUse"><stop stop-color="#FEBBBA"/><stop offset="1" stop-color="#FF928E"/></linearGradient><linearGradient id="paint22_linear" x1="265.174" y1="221.354" x2="227.019" y2="221.354" gradientUnits="userSpaceOnUse"><stop stop-color="#09005D"/><stop offset="1" stop-color="#1A0F91"/></linearGradient><linearGradient id="paint23_linear" x1="257.26" y1="215.5" x2="255.872" y2="212.725" gradientUnits="userSpaceOnUse"><stop stop-color="#4F52FF"/><stop offset="1" stop-color="#4042E2"/></linearGradient><linearGradient id="paint24_linear" x1="233.657" y1="190.962" x2="284.918" y2="124.003" gradientUnits="userSpaceOnUse"><stop stop-color="#FE7062"/><stop offset="1" stop-color="#FF928E"/></linearGradient><linearGradient id="paint25_linear" x1="-197.931" y1="-600.529" x2="-93.871" y2="-414.229" gradientUnits="userSpaceOnUse"><stop stop-color="#E1473D"/><stop offset="1" stop-color="#E9605A"/></linearGradient><linearGradient id="paint26_linear" x1="247.143" y1="194.528" x2="229.769" y2="194.528" gradientUnits="userSpaceOnUse"><stop stop-color="#FEBBBA"/><stop offset="1" stop-color="#FF928E"/></linearGradient><linearGradient id="paint27_linear" x1="231.132" y1="172.748" x2="198.687" y2="172.748" gradientUnits="userSpaceOnUse"><stop stop-color="#FEBBBA"/><stop offset="1" stop-color="#FF928E"/></linearGradient><linearGradient id="paint28_linear" x1="242.813" y1="154.551" x2="231.521" y2="142.966" gradientUnits="userSpaceOnUse"><stop stop-color="#FEBBBA"/><stop offset="1" stop-color="#FF928E"/></linearGradient><linearGradient id="paint29_linear" x1="226.436" y1="135.667" x2="240.514" y2="154.291" gradientUnits="userSpaceOnUse"><stop stop-color="#FEBBBA"/><stop offset="1" stop-color="#FF928E"/></linearGradient><linearGradient id="paint30_linear" x1="237.188" y1="140.159" x2="220.372" y2="140.159" gradientUnits="userSpaceOnUse"><stop stop-color="#09005D"/><stop offset="1" stop-color="#1A0F91"/></linearGradient><linearGradient id="paint31_linear" x1="247.056" y1="150.416" x2="235.764" y2="138.831" gradientUnits="userSpaceOnUse"><stop stop-color="#FEBBBA"/><stop offset="1" stop-color="#FF928E"/></linearGradient><linearGradient id="paint32_linear" x1="-188.904" y1="-605.559" x2="-84.843" y2="-419.263" gradientUnits="userSpaceOnUse"><stop stop-color="#E1473D"/><stop offset="1" stop-color="#E9605A"/></linearGradient><linearGradient id="paint33_linear" x1="230.857" y1="221.135" x2="230.973" y2="214.199" gradientUnits="userSpaceOnUse"><stop stop-color="#4F52FF"/><stop offset="1" stop-color="#4042E2"/></linearGradient><linearGradient id="paint34_linear" x1="69.57" y1="252.645" x2="19.214" y2="306.385" gradientUnits="userSpaceOnUse"><stop stop-color="#09005D"/><stop offset="1" stop-color="#1A0F91"/></linearGradient><linearGradient id="paint35_linear" x1="53.354" y1="256.517" x2="57.782" y2="256.559" gradientUnits="userSpaceOnUse"><stop stop-color="#FEBBBA"/><stop offset="1" stop-color="#FF928E"/></linearGradient><linearGradient id="paint36_linear" x1="-2141.58" y1="2699.96" x2="-2101.09" y2="2654.21" gradientUnits="userSpaceOnUse"><stop stop-color="#09005D"/><stop offset="1" stop-color="#1A0F91"/></linearGradient><linearGradient id="paint37_linear" x1="58.487" y1="242.257" x2="8.128" y2="296" gradientUnits="userSpaceOnUse"><stop stop-color="#09005D"/><stop offset="1" stop-color="#1A0F91"/></linearGradient><linearGradient id="paint38_linear" x1="37.4" y1="256.138" x2="41.223" y2="256.174" gradientUnits="userSpaceOnUse"><stop stop-color="#FEBBBA"/><stop offset="1" stop-color="#FF928E"/></linearGradient><linearGradient id="paint39_linear" x1="-2148.11" y1="2694.18" x2="-2107.62" y2="2648.42" gradientUnits="userSpaceOnUse"><stop stop-color="#09005D"/><stop offset="1" stop-color="#1A0F91"/></linearGradient><linearGradient id="paint40_linear" x1="-939.336" y1="-1118.96" x2="-1005.33" y2="-1204.5" gradientUnits="userSpaceOnUse"><stop stop-color="#FE7062"/><stop offset="1" stop-color="#FF928E"/></linearGradient><linearGradient id="paint41_linear" x1="72.675" y1="141.186" x2="95.294" y2="141.401" gradientUnits="userSpaceOnUse"><stop stop-color="#FEBBBA"/><stop offset="1" stop-color="#FF928E"/></linearGradient><linearGradient id="paint42_linear" x1="90.291" y1="137.562" x2="74.785" y2="171.951" gradientUnits="userSpaceOnUse"><stop stop-color="#FEBBBA"/><stop offset="1" stop-color="#FF928E"/></linearGradient><linearGradient id="paint43_linear" x1="95.331" y1="126.109" x2="101.756" y2="116.431" gradientUnits="userSpaceOnUse"><stop stop-color="#FEBBBA"/><stop offset="1" stop-color="#FF928E"/></linearGradient><linearGradient id="paint44_linear" x1="-949.085" y1="-1111.44" x2="-1015.08" y2="-1196.98" gradientUnits="userSpaceOnUse"><stop stop-color="#FE7062"/><stop offset="1" stop-color="#FF928E"/></linearGradient><linearGradient id="paint45_linear" x1="22.875" y1="172.753" x2="51.499" y2="173.025" gradientUnits="userSpaceOnUse"><stop stop-color="#FEBBBA"/><stop offset="1" stop-color="#FF928E"/></linearGradient><linearGradient id="paint46_linear" x1="45.145" y1="142.361" x2="56.463" y2="142.469" gradientUnits="userSpaceOnUse"><stop stop-color="#FEBBBA"/><stop offset="1" stop-color="#FF928E"/></linearGradient><linearGradient id="paint47_linear" x1="59.224" y1="135.295" x2="46.852" y2="127.587" gradientUnits="userSpaceOnUse"><stop stop-color="#FEBBBA"/><stop offset="1" stop-color="#FF928E"/></linearGradient><linearGradient id="paint48_linear" x1="40.342" y1="119.525" x2="56.297" y2="132.374" gradientUnits="userSpaceOnUse"><stop stop-color="#09005D"/><stop offset="1" stop-color="#1A0F91"/></linearGradient><linearGradient id="paint49_linear" x1="55.928" y1="138.094" x2="44.798" y2="131.159" gradientUnits="userSpaceOnUse"><stop stop-color="#FEBBBA"/><stop offset="1" stop-color="#FF928E"/></linearGradient><linearGradient id="paint50_linear" x1="59.175" y1="154.565" x2="74.969" y2="220.376" gradientUnits="userSpaceOnUse"><stop stop-color="#09005D"/><stop offset="1" stop-color="#1A0F91"/></linearGradient><linearGradient id="paint51_linear" x1="48.352" y1="171.976" x2="57.3" y2="171.976" gradientUnits="userSpaceOnUse"><stop stop-color="#FEBBBA"/><stop offset="1" stop-color="#FF928E"/></linearGradient></defs></svg>