<svg width="265" height="266" fill="none" xmlns="http://www.w3.org/2000/svg"><path d="M253.914 179.116c-26.733 62.028-97.302 88.67-152.593 84.128-15.097-1.241-45.472-3.736-69.189-26-45.547-42.756-38.532-132.129 5.07-184.746C42.815 45.722 81.681.323 142.247.93c44.343.445 75.466 25.31 79.251 28.407 4.781 3.913 15.326 13.212 24.829 27.964 22.329 34.663 24.292 83.052 7.586 121.814z" fill="url(#paint0_linear)"/><path d="M151.144 107.423H46.984a8.184 8.184 0 01-8.149-7.416L32.271 30.36c-.447-4.741 3.231-8.86 7.992-8.951L150.99 19.3a8.184 8.184 0 018.34 8.182V99.24a8.185 8.185 0 01-8.185 8.184z" fill="#7D97F4"/><path opacity=".87" d="M38.928 36.567l4.656 60.225a5.061 5.061 0 004.994 4.671l99.971 1.047a5.061 5.061 0 005.115-5.061V32.61a5.062 5.062 0 00-5.234-5.059L43.803 31.118a5.062 5.062 0 00-4.875 5.449z" fill="#fff"/><path d="M92.3 36.016l56.375-1.686a1.025 1.025 0 011.055 1.025v.907c0 .561-.45 1.018-1.011 1.025l-56.375.779a1.025 1.025 0 01-.044-2.05zm-.995 5.751v.387c0 .566.46 1.025 1.025 1.025h56.375c.567 0 1.025-.459 1.025-1.025v-.387c0-.566-.458-1.025-1.025-1.025H92.33c-.566 0-1.025.46-1.025 1.025z" fill="#7D97F4"/><path d="M77.537 92.463a.46.46 0 01-.46-.459l-.004-1.38a.46.46 0 01.459-.46h.001a.46.46 0 01.46.458l.004 1.38a.46.46 0 01-.46.461zm-.012-4.6a.46.46 0 01-.46-.458l-.004-1.38a.46.46 0 11.92-.003l.004 1.38a.46.46 0 01-.459.462h-.001zm-.012-4.599a.46.46 0 01-.46-.459l-.003-1.38a.46.46 0 11.92-.003l.003 1.38a.46.46 0 01-.459.462zm-.011-4.6a.46.46 0 01-.46-.458l-.004-1.38a.46.46 0 01.459-.461h.001a.46.46 0 01.46.459l.004 1.38a.46.46 0 01-.46.46z" fill="url(#paint1_linear)"/><path d="M100.637 91.152a.46.46 0 01-.46-.46v-1.38a.46.46 0 11.92 0v1.38a.46.46 0 01-.46.46zm0-4.6a.46.46 0 01-.46-.46v-1.379a.46.46 0 11.92 0v1.38a.46.46 0 01-.46.46zm0-4.599a.46.46 0 01-.46-.46v-1.38a.46.46 0 11.92 0v1.38a.46.46 0 01-.46.46zm0-4.6a.46.46 0 01-.46-.459v-1.38a.46.46 0 11.92 0v1.38a.46.46 0 01-.46.46zm0-4.599a.46.46 0 01-.46-.46v-1.38a.46.46 0 11.92 0v1.38a.46.46 0 01-.46.46z" fill="url(#paint2_linear)"/><path d="M118.257 94.953a.46.46 0 01-.46-.445l-.025-.824a.46.46 0 01.445-.474.45.45 0 01.474.445l.026.824a.461.461 0 01-.446.474h-.014zm-.126-4.041a.46.46 0 01-.459-.446l-.043-1.38a.46.46 0 01.919-.028l.043 1.38a.46.46 0 01-.445.474h-.015zm-.142-4.598a.46.46 0 01-.46-.445l-.043-1.38a.46.46 0 01.446-.474.473.473 0 01.474.446l.042 1.38a.46.46 0 01-.445.473h-.014zm-.143-4.597a.46.46 0 01-.46-.445l-.042-1.38a.46.46 0 11.919-.029l.043 1.38a.46.46 0 01-.446.474h-.014zm-.143-4.597a.46.46 0 01-.459-.446l-.043-1.38a.46.46 0 01.919-.028l.043 1.38a.46.46 0 01-.445.474h-.015zm-.142-4.597a.46.46 0 01-.46-.446l-.043-1.38a.46.46 0 01.446-.474.455.455 0 01.474.446l.043 1.38a.461.461 0 01-.446.474h-.014zm-.143-4.598a.46.46 0 01-.459-.445l-.043-1.38a.46.46 0 11.919-.028l.043 1.379a.46.46 0 01-.445.474h-.015z" fill="url(#paint3_linear)"/><path d="M135.005 92.379a.46.46 0 01-.46-.46v-1.38a.46.46 0 11.92 0v1.38a.46.46 0 01-.46.46zm0-4.6a.46.46 0 01-.46-.46v-1.38a.46.46 0 11.92 0v1.38a.46.46 0 01-.46.46zm0-4.6a.46.46 0 01-.46-.46v-1.38a.46.46 0 11.92 0v1.38a.46.46 0 01-.46.46zm0-4.599a.46.46 0 01-.46-.46v-1.38a.46.46 0 11.92 0v1.38a.46.46 0 01-.46.46zm0-4.6a.46.46 0 01-.46-.46v-1.38a.46.46 0 11.92 0v1.38a.46.46 0 01-.46.46zm0-4.599a.46.46 0 01-.46-.46v-1.38a.46.46 0 11.92 0v1.38a.46.46 0 01-.46.46zm0-4.6a.46.46 0 01-.46-.46v-1.38a.46.46 0 11.92 0v1.38a.46.46 0 01-.46.46zm0-4.599a.46.46 0 01-.46-.46v-1.38a.46.46 0 11.92 0v1.38a.46.46 0 01-.46.46zm0-4.6a.46.46 0 01-.46-.46v-1.38a.46.46 0 11.92 0v1.38a.46.46 0 01-.46.46z" fill="url(#paint4_linear)"/><path d="M52.808 97.808a.69.69 0 01-.687-.632l-4.715-55.684a.69.69 0 01.63-.745.697.697 0 01.745.629l4.715 55.684a.69.69 0 01-.688.748z" fill="url(#paint5_linear)"/><path d="M45.995 44.37l2.133-2.53 2.529 2.135-.168-1.979-2.528-2.133-2.134 2.528.168 1.98z" fill="url(#paint6_linear)"/><path d="M146.254 95.183H49.231a.69.69 0 010-1.38h97.022a.69.69 0 01.001 1.38z" fill="url(#paint7_linear)"/><path d="M143.505 96.832l2.34-2.339-2.34-2.34h1.986l2.339 2.34-2.339 2.34h-1.986z" fill="url(#paint8_linear)"/><path d="M56.844 79.183a.69.69 0 01-.09-1.374c.51-.067 51.309-7.024 79.117-27.528a.69.69 0 11.819 1.11c-28.096 20.717-79.24 27.718-79.754 27.786a.676.676 0 01-.092.006z" fill="url(#paint9_linear)"/><path d="M136.494 54.506l-.055-.003a.69.69 0 01-.634-.741l.214-2.71-3.821-.227a.69.69 0 01-.648-.73.683.683 0 01.73-.648l4.523.269a.688.688 0 01.647.742l-.269 3.412a.69.69 0 01-.687.636z" fill="url(#paint10_linear)"/><path d="M11.541 83.332c-.356-1.168 1.015-2.1 1.981-1.352 9.813 7.586 33.87 30.815 32.735 75.563-1.425 56.142 12.082 75.279 27.658 86.247 0 0-20.319-3.908-34.727-23.259C3.812 173.02 17.876 104.105 11.541 83.332z" fill="#7D97F4"/><path d="M20.057 100.006c1.72 6.069 3.319 12.169 4.693 18.319a307.224 307.224 0 013.65 18.534c1.001 6.213 1.886 12.445 2.504 18.705.646 6.257 1.023 12.535 1.38 18.839.39 6.298.749 12.646 1.758 18.976 1.002 6.318 2.773 12.617 5.643 18.406.718 1.443 1.464 2.878 2.287 4.255a77.494 77.494 0 002.542 4.093 68.805 68.805 0 005.887 7.642c4.3 4.798 9.327 8.939 14.752 12.33a1.22 1.22 0 001.324-2.048l-.004-.002a83.847 83.847 0 01-3.823-2.669c-.628-.455-1.234-.938-1.85-1.408-.597-.493-1.213-.964-1.794-1.475a64.301 64.301 0 01-6.616-6.495c-4.105-4.617-7.541-9.872-10.293-15.398a61.399 61.399 0 01-3.396-8.604c-.91-2.952-1.596-5.979-2.109-9.047-1.027-6.139-1.433-12.419-1.87-18.714-.445-6.296-.935-12.62-1.685-18.914a265.05 265.05 0 00-1.268-9.42c-.23-1.567-.49-3.129-.749-4.692a347.09 347.09 0 00-.848-4.674 305.521 305.521 0 00-4.136-18.532c-1.6-6.122-3.361-12.2-5.354-18.2a.327.327 0 00-.625.193z" fill="#fff"/><path d="M31.14 255.547c-.719 1.849-3.093 2.364-4.53.996-7.934-7.546-28.433-30.911-25.488-68.593 2.487-31.821.811-49.312-.5-57.2-.277-1.668 1.737-2.72 2.95-1.543 13.39 12.989 53.62 59.323 27.568 126.34z" fill="#91B3FA"/><path d="M28.454 255.5a.774.774 0 01-1.136-.375c-.176-.452-17.51-45.735-16.05-90.136a.775.775 0 011.548.051c-1.449 44.078 15.772 89.076 15.946 89.525a.775.775 0 01-.308.935z" fill="#fff"/><path d="M82.39 196.88H19.184a.343.343 0 01-.343-.343v-11.485c0-.189.153-.342.343-.342H82.39c.189 0 .343.153.343.342v11.485a.343.343 0 01-.343.343z" fill="url(#paint11_linear)"/><path d="M82.44 210.378H19.234a.343.343 0 01-.343-.343v-11.484c0-.19.154-.343.343-.343h63.208c.19 0 .343.153.343.343v11.484c0 .19-.154.343-.343.343z" fill="url(#paint12_linear)"/><path d="M82.491 223.876H19.283a.343.343 0 01-.343-.343v-11.484c0-.19.154-.343.343-.343h63.208c.19 0 .343.153.343.343v11.484c0 .19-.154.343-.343.343z" fill="url(#paint13_linear)"/><path d="M82.541 237.374H19.333a.343.343 0 01-.343-.343v-11.484c0-.19.154-.343.343-.343h63.208c.19 0 .343.153.343.343v11.484c0 .19-.154.343-.343.343z" fill="url(#paint14_linear)"/><path d="M82.591 250.873H19.383a.343.343 0 01-.342-.343v-11.485c0-.189.153-.343.342-.343h63.208c.19 0 .343.154.343.343v11.485a.343.343 0 01-.343.343z" fill="url(#paint15_linear)"/><path d="M82.591 264.228H19.383a.343.343 0 01-.342-.343v-11.484c0-.19.153-.343.342-.343h63.208c.19 0 .343.153.343.343v11.484c0 .19-.153.343-.343.343z" fill="url(#paint16_linear)"/><path d="M49.49 179.991c18.008 0 32.607-14.6 32.607-32.608 0-18.009-14.599-32.608-32.608-32.608-18.008 0-32.608 14.599-32.608 32.608 0 18.008 14.6 32.608 32.608 32.608z" fill="url(#paint17_linear)"/><path d="M49.49 178.906c17.41 0 31.523-14.113 31.523-31.523 0-17.411-14.114-31.524-31.524-31.524s-31.524 14.113-31.524 31.524c0 17.41 14.114 31.523 31.524 31.523z" fill="url(#paint18_linear)"/><path opacity=".7" d="M23.495 135.011a.723.723 0 01-.645-1.049c5.106-10.117 15.314-16.402 26.64-16.402 1.808 0 3.618.162 5.379.483a.724.724 0 01-.26 1.424 28.581 28.581 0 00-5.12-.461c-10.776 0-20.489 5.981-25.348 15.607a.723.723 0 01-.646.398z" fill="#fff"/><path opacity=".78" d="M69.04 166.935c10.42-10.42 10.42-27.313 0-37.732-10.42-10.42-27.313-10.42-37.732 0-10.42 10.419-10.42 27.312 0 37.732 10.42 10.419 27.313 10.419 37.732 0z" fill="#fff"/><path d="M47.558 167.904v-2.902c-3.026-.122-6.02-.836-8.145-1.766-.76-.333-1.146-1.185-.928-1.984l.737-2.704a1.692 1.692 0 012.297-1.107c2.11.884 4.713 1.583 7.52 1.583 2.915 0 5.089-.988 5.089-3.014 0-1.827-1.68-2.914-5.73-4.001-5.78-1.581-9.93-4.1-9.93-9.188 0-4.595 3.36-8.102 9.188-9.04v-2.903c0-.935.758-1.692 1.692-1.692h1.705c.934 0 1.692.758 1.692 1.692v2.606c2.8.112 4.838.591 6.455 1.159a1.683 1.683 0 011.052 2.032l-.678 2.501a1.687 1.687 0 01-2.227 1.139 17.613 17.613 0 00-6.332-1.15c-3.458 0-4.446 1.433-4.446 2.717 0 1.581 2.075 2.668 6.57 4.051 6.423 1.926 9.09 4.594 9.09 9.386 0 4.396-3.26 8.348-9.583 9.337v3.248c0 .934-.758 1.691-1.692 1.691H49.25a1.69 1.69 0 01-1.691-1.691z" fill="url(#paint19_linear)"/><path d="M154.145 210.378H90.938a.343.343 0 01-.343-.343v-11.484c0-.19.153-.343.343-.343h63.208c.189 0 .342.153.342.343v11.484c0 .19-.153.343-.343.343z" fill="url(#paint20_linear)"/><path d="M154.195 223.876H90.987a.343.343 0 01-.343-.343v-11.484c0-.19.154-.343.343-.343h63.208c.19 0 .343.153.343.343v11.484c0 .19-.153.343-.343.343z" fill="url(#paint21_linear)"/><path d="M154.246 237.374H91.038a.343.343 0 01-.343-.343v-11.484c0-.19.153-.343.343-.343h63.208c.189 0 .342.153.342.343v11.484c0 .19-.153.343-.342.343z" fill="url(#paint22_linear)"/><path d="M154.296 250.873H91.088a.343.343 0 01-.343-.343v-11.485c0-.189.154-.343.343-.343h63.208c.189 0 .343.154.343.343v11.485a.344.344 0 01-.343.343z" fill="url(#paint23_linear)"/><path d="M154.296 264.228H91.088a.343.343 0 01-.343-.343v-11.484c0-.19.154-.343.343-.343h63.208c.189 0 .343.153.343.343v11.484c0 .19-.154.343-.343.343z" fill="url(#paint24_linear)"/><path d="M120.167 193.809c18.009 0 32.608-14.599 32.608-32.608 0-18.009-14.599-32.608-32.608-32.608-18.009 0-32.608 14.599-32.608 32.608 0 18.009 14.599 32.608 32.608 32.608z" fill="url(#paint25_linear)"/><path d="M120.167 192.724c17.41 0 31.524-14.113 31.524-31.523 0-17.411-14.114-31.524-31.524-31.524s-31.524 14.113-31.524 31.524c0 17.41 14.114 31.523 31.524 31.523z" fill="url(#paint26_linear)"/><path opacity=".7" d="M94.172 148.829a.722.722 0 01-.645-1.049c5.107-10.117 15.315-16.402 26.64-16.402 1.808 0 3.618.163 5.38.483a.723.723 0 01-.26 1.424 28.576 28.576 0 00-5.12-.461c-10.776 0-20.489 5.981-25.348 15.607a.722.722 0 01-.647.398z" fill="#fff"/><path opacity=".78" d="M139.717 180.753c10.42-10.419 10.42-27.312 0-37.732-10.419-10.419-27.312-10.419-37.732 0-10.42 10.42-10.42 27.313 0 37.732 10.42 10.42 27.313 10.42 37.732 0z" fill="#fff"/><path d="M118.236 181.722v-2.902c-3.026-.121-6.019-.836-8.145-1.766-.759-.332-1.146-1.184-.928-1.984l.737-2.704a1.693 1.693 0 012.298-1.107c2.108.884 4.712 1.583 7.52 1.583 2.914 0 5.088-.988 5.088-3.013 0-1.828-1.679-2.915-5.73-4.002-5.78-1.58-9.93-4.1-9.93-9.188 0-4.595 3.359-8.102 9.189-9.04v-2.903c0-.934.757-1.692 1.691-1.692h1.705c.934 0 1.692.758 1.692 1.692v2.606c2.8.112 4.838.591 6.456 1.159a1.684 1.684 0 011.051 2.032l-.678 2.501a1.687 1.687 0 01-2.227 1.139 17.607 17.607 0 00-6.331-1.15c-3.458 0-4.446 1.433-4.446 2.717 0 1.581 2.074 2.668 6.57 4.051 6.422 1.927 9.089 4.594 9.089 9.386 0 4.397-3.26 8.349-9.583 9.337v3.248c0 .934-.757 1.692-1.691 1.692h-1.706a1.691 1.691 0 01-1.691-1.692z" fill="url(#paint27_linear)"/><path d="M114.317 97.24c16.16 2.424 26.692-7.772 34.541-13.957 10.362-8.166 18.425-4.193 18.425-4.193l-9.314 20.832c-16.502 15.56-35.159 12.362-45.826 7.32-.164-4.074.925-7.483 2.174-10.002z" fill="url(#paint28_linear)"/><path d="M91.605 87.599l5.36 2.883c6.426 3.913 12.177 5.981 17.352 6.758-1.249 2.519-2.338 5.928-2.173 10.001-6.791-3.209-11.048-7.062-11.048-7.062-12.14-7.238-9.49-12.58-9.49-12.58z" fill="url(#paint29_linear)"/><path d="M75.818 95.15a3.953 3.953 0 012.311-2.528l10.876-4.374s.164-1.395-2.298-2.343c-2.462-.947-1.887-3.705-1.887-3.705s3.364 1.535 8.288 3.968c2.816 1.392 4.397 3.85 5.235 5.699l-2.8 3.682c-6.703 2.013-13.486 2.398-20.326 1.6l.601-1.999z" fill="url(#paint30_linear)"/><path d="M162.967 255.403c4.285.37 11.721.972 17.584 1.23 3.524.155 5.553-.19 6.721-.658a13.45 13.45 0 01-.01.372 1.213 1.213 0 01-1.152 1.145c-11.078.619-19.888.214-23.025.023-.648-.039-1.035-.744-.703-1.297.166-.276.367-.547.585-.815z" fill="url(#paint31_linear)"/><path d="M180.551 256.633c-5.862-.258-13.299-.86-17.584-1.23 4.213-5.168 17.584-8.652 17.584-8.652h3.777c2.597 3.744 2.973 7.309 2.945 9.224-1.169.468-3.198.813-6.722.658z" fill="url(#paint32_linear)"/><path d="M184.963 240.586l-.353 6.993a1.596 1.596 0 01-1.364 1.502 6.208 6.208 0 01-2.837-.235 1.89 1.89 0 01-1.27-1.453l-1.221-6.807h7.045z" fill="url(#paint33_linear)"/><path d="M228.793 263.471c1.859-.335 2.699-1.583 3.052-2.917l.007.036c.273 1.407-.361 2.865-1.628 3.559-1.531.838-3.205.981-4.505.911-1.395-.074-2.675-.82-3.379-2.014l-.01-.018c1.4.896 3.365 1.001 6.463.443z" fill="url(#paint34_linear)"/><path d="M220.033 242.741h3.114c4.744-.126 7.723 12.806 8.698 17.813-.352 1.334-1.193 2.581-3.051 2.916-3.099.559-5.064.454-6.464-.442-2.563-4.358-3.834-10.742-4.444-14.468-.695-4.237 2.147-5.819 2.147-5.819z" fill="url(#paint35_linear)"/><path d="M222.747 236.249l1.73 6.879a1.866 1.866 0 01-.972 2.115c-.967.497-2.329 1.019-3.581.867a1.558 1.558 0 01-1.272-1.04l-2.539-7.236 6.634-1.585z" fill="url(#paint36_linear)"/><path d="M161.912 145.659s15.455 96.603 15.2 97.134c0 0 4.268 1.94 8.922.248 0 0-1.398-51.642-4.673-71.443 0 0 26.376 46.158 34.752 69.157 0 0 4.368-.521 7.984-2.901 0 0-28.399-83.081-35.975-94.147l-26.21 1.952z" fill="url(#paint37_linear)"/><path opacity=".49" d="M180.746 171.26a.621.621 0 01-.528-.291l-5.634-8.999-3.988-.802a.62.62 0 01-.486-.731.623.623 0 01.731-.487l4.25.855a.624.624 0 01.404.279l5.776 9.225a.622.622 0 01-.525.951z" fill="url(#paint38_linear)"/><path d="M159.476 78.206c6.029-.354 25.898-.999 42.34 4.433 3.46 1.143 5.875 5.728 7.319 9.042 4.448 10.207-6.14 14.327-14.318 11.526-4.165 11.248-6.119 27.659-6.528 34.922a15.616 15.616 0 001.224 6.985l.102.241a.826.826 0 01-.581 1.129c-11.253 2.528-22.957 1.841-26.454 1.552a1.442 1.442 0 01-1.286-1.102c-5.472-23.057-5.485-38.785-4.145-48.728-5.119 1.145 1.222-19.935 2.327-20z" fill="url(#paint39_linear)"/><path d="M157.127 98.99a.62.62 0 01-.616-.702c1.319-9.972 3.974-14.245 4.086-14.421a.624.624 0 01.856-.192.623.623 0 01.194.857c-.027.04-2.626 4.258-3.906 13.92a.62.62 0 01-.614.538z" fill="url(#paint40_linear)"/><path d="M184.898 64.774s1.139 12.037 2.141 15.597c.152.54-.083 1.11-.573 1.39-1.702.973-5.782 2.558-11.363-.177a2.53 2.53 0 01-1.405-2.383l.491-11.632 10.709-2.795z" fill="url(#paint41_linear)"/><path d="M173.944 49.375s-3.642 8.365-3.886 12.755c-.244 4.39-1.19 7.239 3.886 8.123 5.076.884 9.352-1.645 11.669-6.018 0 0 3.63-6.738 2.815-9.498-.814-2.76-14.484-5.362-14.484-5.362z" fill="url(#paint42_linear)"/><path d="M183.878 61.09l-.289-.127a.697.697 0 01-.34-.957c.716-1.383 2.111-4.552.309-5.291-2.324-.953-11.527-2.83-13.512-6.095-1.908-3.139-.217-7.19 2.324-8.342a.349.349 0 01.457.149l.212.4c.145.275.55.233.637-.065a.343.343 0 01.621-.089c.61.977 2.258 2.561 6.664 3.374 6.263 1.156 10.403 3.69 10.506 8.018a.346.346 0 00.534.284c.462-.281 1.202-.413 2.191.418 1.72 1.446 1.016 5.197-2.754 8.283-.179.147-.178.426.016.553.684.444 1.703 1.503-.937 2.915-2.731 1.46-4.77 1.34-5.556 1.21a.343.343 0 01-.278-.415l.838-3.803a.345.345 0 00-.337-.42h-1.306z" fill="url(#paint43_linear)"/><path d="M183.721 61.893s1.389-5.343 3.784-3.845c2.396 1.499-1.243 5.987-3.169 6.187l-.615-2.342z" fill="url(#paint44_linear)"/><path d="M185.967 182.467l.509 15.826c.089 2.76 2.354 4.956 5.128 4.972l37.899.224a3.714 3.714 0 003.704-3.162c.593-3.997 1.348-11.148.498-17.86h-47.738z" fill="url(#paint45_linear)"/><path d="M197.075 170.977l.114-1.22a.936.936 0 01.711-.548c1.181-.188 4.109-.518 5.519.535l.211 1.419-6.555-.186z" fill="url(#paint46_linear)"/><path d="M200.763 169.803a1.698 1.698 0 01-.817-.001.738.738 0 01-.563-.715v-3.822h1.945v3.819a.74.74 0 01-.565.719z" fill="url(#paint47_linear)"/><path d="M215.914 170.977l.114-1.22a.936.936 0 01.711-.548c1.181-.188 4.109-.518 5.519.535l.211 1.419-6.555-.186z" fill="url(#paint48_linear)"/><path d="M219.602 169.803a1.698 1.698 0 01-.817-.001.738.738 0 01-.563-.715v-4.225h1.945v4.222a.74.74 0 01-.565.719z" fill="url(#paint49_linear)"/><path d="M199.186 166.202l20.917-.693c.477-.015.882-.359.964-.827.114-.655.215-1.635.065-2.652-.172-1.155-1.166-2.014-2.339-2.042-3.902-.093-13.836-.09-19.311 2.076a1.914 1.914 0 00-1.156 1.327c-.139.575-.232 1.342-.05 2.124a.901.901 0 00.91.687z" fill="url(#paint50_linear)"/><path d="M198.823 165.115a.093.093 0 01-.091-.083c-.003-.033-.08-.82.125-1.576a1.744 1.744 0 011.188-1.207c1.165-.342 3.392-.924 5.211-.975a.093.093 0 01.095.09.092.092 0 01-.09.094c-1.798.051-4.007.628-5.164.967a1.56 1.56 0 00-1.062 1.079c-.196.723-.121 1.502-.12 1.509a.092.092 0 01-.082.101l-.01.001z" fill="#91B3FA"/><path d="M187.37 170.502c6.757-.086 35.991-.394 44.483.631a1.728 1.728 0 011.486 1.339c.502 2.268 1.511 7.538 1.392 12.762a1.515 1.515 0 01-1.24 1.443l-19.384 3.667h-6.885l-20.654-4.105a1.616 1.616 0 01-1.302-1.5c-.134-2.628-.344-8.794.366-12.763a1.789 1.789 0 011.738-1.474z" fill="url(#paint51_linear)"/><path d="M213.459 193.235h-6.032c-.79 0-1.456-.588-1.55-1.369l-.697-5.805a1.556 1.556 0 011.55-1.738h7.247c.917 0 1.636.782 1.555 1.691l-.518 5.805a1.558 1.558 0 01-1.555 1.416z" fill="url(#paint52_linear)"/><path d="M212.988 192.559h-5.117a1.322 1.322 0 01-1.315-1.162l-.591-4.924a1.32 1.32 0 011.315-1.474h6.147a1.32 1.32 0 011.32 1.434l-.44 4.925a1.32 1.32 0 01-1.319 1.201z" fill="#7D97F4"/><path d="M203.548 113.888s6.088 27.464.573 42.904c6.761 3.135 5.512 2.544 5.512 2.544s13.374-39.077 9.056-49.506c-8.513-.904-12.735 1.384-15.141 4.058z" fill="url(#paint53_linear)"/><path d="M204.121 156.792s-3.483 4.509-3.205 6.305c.279 1.796.345 2.528.345 2.528s1.751-1.197 1.641-2.727c-.244 4.855 1.017 4.42 2.495 4.154 1.477-.266 6.241-1.361 4.511-8.877-3.924-2.727-5.024-2.431-5.787-1.383z" fill="url(#paint54_linear)"/><path d="M192.134 103.306l10.042-20.52s27.18 16.372 13.972 55.34c-3.602-2.511-5.458-1.856-9.933-.218-1.091-40.278-14.081-34.602-14.081-34.602z" fill="url(#paint55_linear)"/><defs><linearGradient id="paint0_linear" x1="280.457" y1="298.484" x2="86.664" y2="89.311" gradientUnits="userSpaceOnUse"><stop stop-color="#DAE3FE"/><stop offset="1" stop-color="#E9EFFD"/></linearGradient><linearGradient id="paint1_linear" x1="77.038" y1="84.414" x2="77.996" y2="84.414" gradientUnits="userSpaceOnUse"><stop stop-color="#4F52FF"/><stop offset="1" stop-color="#4042E2"/></linearGradient><linearGradient id="paint2_linear" x1="100.177" y1="80.803" x2="101.097" y2="80.803" gradientUnits="userSpaceOnUse"><stop stop-color="#4F52FF"/><stop offset="1" stop-color="#4042E2"/></linearGradient><linearGradient id="paint3_linear" x1="116.916" y1="80.29" x2="118.717" y2="80.29" gradientUnits="userSpaceOnUse"><stop stop-color="#4F52FF"/><stop offset="1" stop-color="#4042E2"/></linearGradient><linearGradient id="paint4_linear" x1="134.545" y1="72.831" x2="135.465" y2="72.831" gradientUnits="userSpaceOnUse"><stop stop-color="#4F52FF"/><stop offset="1" stop-color="#4042E2"/></linearGradient><linearGradient id="paint5_linear" x1="47.404" y1="69.277" x2="53.499" y2="69.277" gradientUnits="userSpaceOnUse"><stop stop-color="#4F52FF"/><stop offset="1" stop-color="#4042E2"/></linearGradient><linearGradient id="paint6_linear" x1="45.827" y1="42.117" x2="50.657" y2="42.117" gradientUnits="userSpaceOnUse"><stop stop-color="#4F52FF"/><stop offset="1" stop-color="#4042E2"/></linearGradient><linearGradient id="paint7_linear" x1="48.541" y1="94.493" x2="146.943" y2="94.493" gradientUnits="userSpaceOnUse"><stop stop-color="#4F52FF"/><stop offset="1" stop-color="#4042E2"/></linearGradient><linearGradient id="paint8_linear" x1="143.505" y1="94.493" x2="147.83" y2="94.493" gradientUnits="userSpaceOnUse"><stop stop-color="#4F52FF"/><stop offset="1" stop-color="#4042E2"/></linearGradient><linearGradient id="paint9_linear" x1="56.155" y1="64.665" x2="136.971" y2="64.665" gradientUnits="userSpaceOnUse"><stop stop-color="#4F52FF"/><stop offset="1" stop-color="#4042E2"/></linearGradient><linearGradient id="paint10_linear" x1="131.549" y1="51.975" x2="137.452" y2="51.975" gradientUnits="userSpaceOnUse"><stop stop-color="#4F52FF"/><stop offset="1" stop-color="#4042E2"/></linearGradient><linearGradient id="paint11_linear" x1="62.431" y1="30.277" x2="44.501" y2="277.445" gradientUnits="userSpaceOnUse"><stop stop-color="#FF928E"/><stop offset="1" stop-color="#FE7062"/></linearGradient><linearGradient id="paint12_linear" x1="63.461" y1="30.259" x2="45.532" y2="277.428" gradientUnits="userSpaceOnUse"><stop stop-color="#FF928E"/><stop offset="1" stop-color="#FE7062"/></linearGradient><linearGradient id="paint13_linear" x1="64.492" y1="30.243" x2="46.563" y2="277.41" gradientUnits="userSpaceOnUse"><stop stop-color="#FF928E"/><stop offset="1" stop-color="#FE7062"/></linearGradient><linearGradient id="paint14_linear" x1="65.522" y1="30.224" x2="47.593" y2="277.393" gradientUnits="userSpaceOnUse"><stop stop-color="#FF928E"/><stop offset="1" stop-color="#FE7062"/></linearGradient><linearGradient id="paint15_linear" x1="66.553" y1="30.208" x2="48.623" y2="277.376" gradientUnits="userSpaceOnUse"><stop stop-color="#FF928E"/><stop offset="1" stop-color="#FE7062"/></linearGradient><linearGradient id="paint16_linear" x1="67.523" y1="30.186" x2="49.594" y2="277.355" gradientUnits="userSpaceOnUse"><stop stop-color="#FF928E"/><stop offset="1" stop-color="#FE7062"/></linearGradient><linearGradient id="paint17_linear" x1="4.868" y1="199.175" x2="48.606" y2="148.408" gradientUnits="userSpaceOnUse"><stop stop-color="#FF928E"/><stop offset="1" stop-color="#FE7062"/></linearGradient><linearGradient id="paint18_linear" x1="46.41" y1="76.551" x2="52.77" y2="222.828" gradientUnits="userSpaceOnUse"><stop stop-color="#FF928E"/><stop offset="1" stop-color="#FE7062"/></linearGradient><linearGradient id="paint19_linear" x1="57.834" y1="89.173" x2="52.588" y2="131.146" gradientUnits="userSpaceOnUse"><stop stop-color="#FF928E"/><stop offset="1" stop-color="#FE7062"/></linearGradient><linearGradient id="paint20_linear" x1="136.015" y1="90.832" x2="111.622" y2="296.244" gradientUnits="userSpaceOnUse"><stop stop-color="#FF928E"/><stop offset="1" stop-color="#FE7062"/></linearGradient><linearGradient id="paint21_linear" x1="137.659" y1="90.902" x2="113.267" y2="296.314" gradientUnits="userSpaceOnUse"><stop stop-color="#FF928E"/><stop offset="1" stop-color="#FE7062"/></linearGradient><linearGradient id="paint22_linear" x1="139.304" y1="90.971" x2="114.911" y2="296.384" gradientUnits="userSpaceOnUse"><stop stop-color="#FF928E"/><stop offset="1" stop-color="#FE7062"/></linearGradient><linearGradient id="paint23_linear" x1="140.949" y1="91.041" x2="116.557" y2="296.453" gradientUnits="userSpaceOnUse"><stop stop-color="#FF928E"/><stop offset="1" stop-color="#FE7062"/></linearGradient><linearGradient id="paint24_linear" x1="142.528" y1="91.105" x2="118.135" y2="296.517" gradientUnits="userSpaceOnUse"><stop stop-color="#FF928E"/><stop offset="1" stop-color="#FE7062"/></linearGradient><linearGradient id="paint25_linear" x1="75.546" y1="212.993" x2="119.284" y2="162.226" gradientUnits="userSpaceOnUse"><stop stop-color="#FF928E"/><stop offset="1" stop-color="#FE7062"/></linearGradient><linearGradient id="paint26_linear" x1="125.72" y1="64.947" x2="118.088" y2="197.233" gradientUnits="userSpaceOnUse"><stop stop-color="#FF928E"/><stop offset="1" stop-color="#FE7062"/></linearGradient><linearGradient id="paint27_linear" x1="159.214" y1="79.28" x2="141.566" y2="117.914" gradientUnits="userSpaceOnUse"><stop stop-color="#FF928E"/><stop offset="1" stop-color="#FE7062"/></linearGradient><linearGradient id="paint28_linear" x1="191.597" y1="11.068" x2="150.894" y2="75.302" gradientUnits="userSpaceOnUse"><stop stop-color="#FF928E"/><stop offset="1" stop-color="#FE7062"/></linearGradient><linearGradient id="paint29_linear" x1="75.187" y1="58.891" x2="149.397" y2="153.836" gradientUnits="userSpaceOnUse"><stop stop-color="#FEBBBA"/><stop offset="1" stop-color="#FF928E"/></linearGradient><linearGradient id="paint30_linear" x1="65.255" y1="66.653" x2="139.466" y2="161.599" gradientUnits="userSpaceOnUse"><stop stop-color="#FEBBBA"/><stop offset="1" stop-color="#FF928E"/></linearGradient><linearGradient id="paint31_linear" x1="187.272" y1="256.613" x2="162.261" y2="256.613" gradientUnits="userSpaceOnUse"><stop stop-color="#4F52FF"/><stop offset="1" stop-color="#4042E2"/></linearGradient><linearGradient id="paint32_linear" x1="187.274" y1="251.711" x2="162.967" y2="251.711" gradientUnits="userSpaceOnUse"><stop stop-color="#09005D"/><stop offset="1" stop-color="#1A0F91"/></linearGradient><linearGradient id="paint33_linear" x1="184.963" y1="244.867" x2="177.918" y2="244.867" gradientUnits="userSpaceOnUse"><stop stop-color="#FEBBBA"/><stop offset="1" stop-color="#FF928E"/></linearGradient><linearGradient id="paint34_linear" x1="231.915" y1="262.815" x2="222.33" y2="262.815" gradientUnits="userSpaceOnUse"><stop stop-color="#4F52FF"/><stop offset="1" stop-color="#4042E2"/></linearGradient><linearGradient id="paint35_linear" x1="231.845" y1="253.277" x2="217.776" y2="253.277" gradientUnits="userSpaceOnUse"><stop stop-color="#09005D"/><stop offset="1" stop-color="#1A0F91"/></linearGradient><linearGradient id="paint36_linear" x1="224.533" y1="241.193" x2="216.113" y2="241.193" gradientUnits="userSpaceOnUse"><stop stop-color="#FEBBBA"/><stop offset="1" stop-color="#FF928E"/></linearGradient><linearGradient id="paint37_linear" x1="156.428" y1="150.333" x2="228.314" y2="268.089" gradientUnits="userSpaceOnUse"><stop stop-color="#09005D"/><stop offset="1" stop-color="#1A0F91"/></linearGradient><linearGradient id="paint38_linear" x1="205.041" y1="87.227" x2="174.915" y2="167.782" gradientUnits="userSpaceOnUse"><stop stop-color="#53D8FF"/><stop offset="1" stop-color="#3840F7"/></linearGradient><linearGradient id="paint39_linear" x1="225.077" y1="32.282" x2="184.374" y2="96.517" gradientUnits="userSpaceOnUse"><stop stop-color="#FF928E"/><stop offset="1" stop-color="#FE7062"/></linearGradient><linearGradient id="paint40_linear" x1="199.875" y1="-4.445" x2="145.847" y2="122.276" gradientUnits="userSpaceOnUse"><stop stop-color="#E1473D"/><stop offset="1" stop-color="#E9605A"/></linearGradient><linearGradient id="paint41_linear" x1="183.052" y1="91.878" x2="179.404" y2="72.725" gradientUnits="userSpaceOnUse"><stop stop-color="#FEBBBA"/><stop offset="1" stop-color="#FF928E"/></linearGradient><linearGradient id="paint42_linear" x1="173.18" y1="56.738" x2="193.996" y2="72.665" gradientUnits="userSpaceOnUse"><stop stop-color="#FEBBBA"/><stop offset="1" stop-color="#FF928E"/></linearGradient><linearGradient id="paint43_linear" x1="187.834" y1="44.127" x2="168.447" y2="69.087" gradientUnits="userSpaceOnUse"><stop stop-color="#09005D"/><stop offset="1" stop-color="#1A0F91"/></linearGradient><linearGradient id="paint44_linear" x1="175.762" y1="53.363" x2="196.578" y2="69.29" gradientUnits="userSpaceOnUse"><stop stop-color="#FEBBBA"/><stop offset="1" stop-color="#FF928E"/></linearGradient><linearGradient id="paint45_linear" x1="213.288" y1="156.596" x2="211.168" y2="176.736" gradientUnits="userSpaceOnUse"><stop stop-color="#4F52FF"/><stop offset="1" stop-color="#4042E2"/></linearGradient><linearGradient id="paint46_linear" x1="202.218" y1="146.509" x2="201.582" y2="154.882" gradientUnits="userSpaceOnUse"><stop stop-color="#4F52FF"/><stop offset="1" stop-color="#4042E2"/></linearGradient><linearGradient id="paint47_linear" x1="200.035" y1="142.153" x2="200.141" y2="150.421" gradientUnits="userSpaceOnUse"><stop stop-color="#4F52FF"/><stop offset="1" stop-color="#4042E2"/></linearGradient><linearGradient id="paint48_linear" x1="220.949" y1="147.931" x2="220.313" y2="156.305" gradientUnits="userSpaceOnUse"><stop stop-color="#4F52FF"/><stop offset="1" stop-color="#4042E2"/></linearGradient><linearGradient id="paint49_linear" x1="218.873" y1="141.911" x2="218.979" y2="150.179" gradientUnits="userSpaceOnUse"><stop stop-color="#4F52FF"/><stop offset="1" stop-color="#4042E2"/></linearGradient><linearGradient id="paint50_linear" x1="210.341" y1="162.671" x2="217.973" y2="146.559" gradientUnits="userSpaceOnUse"><stop stop-color="#4F52FF"/><stop offset="1" stop-color="#4042E2"/></linearGradient><linearGradient id="paint51_linear" x1="223.105" y1="155.555" x2="271.44" y2="69.06" gradientUnits="userSpaceOnUse"><stop stop-color="#4F52FF"/><stop offset="1" stop-color="#4042E2"/></linearGradient><linearGradient id="paint52_linear" x1="212.224" y1="171.904" x2="209.51" y2="193.408" gradientUnits="userSpaceOnUse"><stop stop-color="#09005D"/><stop offset="1" stop-color="#1A0F91"/></linearGradient><linearGradient id="paint53_linear" x1="199.15" y1="205.365" x2="213.82" y2="100.007" gradientUnits="userSpaceOnUse"><stop stop-color="#FEBBBA"/><stop offset="1" stop-color="#FF928E"/></linearGradient><linearGradient id="paint54_linear" x1="202.894" y1="181.621" x2="210.521" y2="126.845" gradientUnits="userSpaceOnUse"><stop stop-color="#FEBBBA"/><stop offset="1" stop-color="#FF928E"/></linearGradient><linearGradient id="paint55_linear" x1="249.066" y1="47.483" x2="208.362" y2="111.718" gradientUnits="userSpaceOnUse"><stop stop-color="#FF928E"/><stop offset="1" stop-color="#FE7062"/></linearGradient></defs></svg>