<svg width="264" height="263" fill="none" xmlns="http://www.w3.org/2000/svg"><path d="M249.7 176.458c-24.973 58.802-91.496 91.744-149.185 82.858-9.387-1.446-35.122-5.753-57.907-26.073-43.863-39.116-53.243-116.571-17.86-171.156C50.5 22.359 96.663-.162 140.528.965c9.448.243 45.658 1.738 77.481 27.978 4.674 3.854 14.983 13.013 24.274 27.542 21.817 34.118 23.692 81.651 7.417 119.973z" fill="url(#paint0_linear)"/><path d="M15.675 2.338c-.246-1.047 1.227-1.744 2.13-1.012 9.163 7.43 31.18 29.682 25.693 68.567-6.884 48.788 4.885 66.59 19.535 77.449 0 0-20.12-5.107-32.778-23.171C-.823 79.82 20.051 20.965 15.675 2.338z" fill="#91B3FA"/><path d="M22.648 17.577c1.147 5.43 2.168 10.879 2.958 16.351a233.23 233.23 0 011.884 16.45c.407 5.498.695 11 .711 16.505.045 5.505-.184 11.005-.436 16.527-.216 5.52-.47 11.079-.066 16.677.397 5.588 1.573 11.224 3.907 16.508.583 1.316 1.197 2.629 1.894 3.897a64.307 64.307 0 002.167 3.778 59.71 59.71 0 005.198 7.151c3.872 4.54 8.542 8.568 13.687 11.977.541.359 1.317.271 1.732-.197.408-.459.317-1.113-.199-1.476l-.004-.003a82.022 82.022 0 01-3.597-2.645c-.59-.449-1.155-.92-1.73-1.381-.554-.48-1.13-.942-1.667-1.436a59.129 59.129 0 01-6.044-6.212c-3.694-4.366-6.65-9.231-8.89-14.276a48.223 48.223 0 01-2.591-7.779c-.632-2.648-1.03-5.342-1.25-8.057-.44-5.435-.242-10.94-.071-16.46.162-5.522.28-11.072.135-16.617a200.169 200.169 0 00-.365-8.312c-.08-1.385-.192-2.767-.3-4.15a263.92 263.92 0 00-.403-4.143 232.806 232.806 0 00-2.374-16.49c-1.02-5.468-2.208-10.91-3.636-16.303-.041-.154-.219-.25-.397-.215-.174.035-.284.181-.253.33z" fill="#BDD0FB"/><path d="M34.527 111.285c-1.123 1.192-3.099.85-3.775-.643-3.73-8.233-12.168-32.465 1.77-60.381 11.77-23.575 15.91-37.476 17.354-43.917.305-1.362 2.172-1.543 2.735-.266 6.216 14.089 22.628 62.012-18.084 105.207z" fill="#BDD0FB"/><path d="M32.486 110.416a.64.64 0 01-.753-.639c.007-.4.786-40.42 15.67-73.937a.64.64 0 011.17.52c-14.777 33.273-15.554 73.039-15.56 73.437a.638.638 0 01-.527.619z" fill="url(#paint1_linear)"/><path d="M203.409 168.406a.38.38 0 01.48-.518c1.187.46 3.396 1.08 5.04.148.083-.047.164-.09.243-.131a.882.882 0 00-.703-.389c-.981-.061-1.3-1.511-1.3-1.511s.831.54 1.78.31c.817-.198 1.96.267 2.48 1.208 2.356 2.927 5.373 6.93 11.46 4.655 6.087-2.276 2.555-14.515 2.555-14.515l7.418 10.304s-.04 7.327-9.045 9.162c-9.004 1.836-13.418-7.132-13.418-7.132s-4.82 2.929-6.99-1.591z" fill="url(#paint2_linear)"/><path d="M236.157 141.497s-.53 1.011 2.764 2.669c1.836.924 5.416 2.307 5.819 6.156.208 1.987 1.645 3.603 3.614 3.943 4.904.847 12.436 3.544 13.487 12.106.803 6.535-2.567 8.944-6.07 9.733-2.573.58-4.322 3.039-3.853 5.635.45 2.489-.345 5.342-4.684 7.528-9.724 4.899-19.017-12.399-19.017-12.399l-1.406-29.924 9.346-5.447z" fill="url(#paint3_linear)"/><path d="M256.596 258.222l.334 3.253a1.34 1.34 0 001.153 1.195c1.039.139 2.706.292 4.343.15a1.148 1.148 0 00.992-1.47c-.375-1.261-1.068-3.155-2.097-4.282l-3.6-.068a1.11 1.11 0 00-1.125 1.222z" fill="url(#paint4_linear)"/><path d="M229.115 219.671l-.675 3.563s1.646 20.651 1.852 28.903a6.466 6.466 0 01-1.025 3.654l-3.647 5.679 9.093-5.137.199-1.094-1.433-2.052 2.364-23.055a7.081 7.081 0 00-.732-3.933l-1.795-3.53-4.201-2.998z" fill="url(#paint5_linear)"/><path d="M225.012 262.291l2.869.054a1.728 1.728 0 001.385-.646c.916-1.146 2.813-3.379 3.7-3.421 1.195-.057.962 4.181.962 4.181l.669.013.946-5.255a3.12 3.12 0 00-1.575-3.292s-.311 2.012-1.807 2.876c-1.495.864-6.095 3.974-6.095 3.974s-.555-.09-1.167.009c-.909.146-.808 1.49.113 1.507z" fill="url(#paint6_linear)"/><path d="M241.4 221.601s11.494 22.839 13.292 28.038c1.798 5.199 2.38 9.519 2.398 9.927.028.638.809 1.264 2.994 1.306 1.127.021 1.688-.421 1.967-.853.238-.369.259-.836.072-1.233-.664-1.409-2.768-5.91-3.54-7.948-.922-2.433-2.797-13.418-3.867-17.245-1.07-3.827-2.282-7.98-7.182-11.876 0 0-3.349-3.407-6.134-.116z" fill="url(#paint7_linear)"/><path d="M234.438 183.763c-2.019-10.495 2.886-17.09 4.638-19.053a.88.88 0 00-.072-1.243c-3.671-3.263-9.117-5.269-11.666-6.083a2.792 2.792 0 00-2.598.486c-2.339 1.876-7.262 6.329-6.556 10.092.489 2.605 4.752 14.66 5.553 16.917a.874.874 0 00.511.526c1.212.47 5.171 1.657 9.724-.676a.893.893 0 00.466-.966z" fill="url(#paint8_linear)"/><path d="M241.265 190.985c-1.18-3.794-6.696-6.58-6.696-6.58-5.741 3.302-10.701.839-10.701.839s-1.204 4.269-.504 8.271c.699 4.002 5.076 29.719 5.076 29.719 7.629 1.696 19.467-1.195 19.467-1.195-4.715-8.753-5.461-27.26-6.642-31.054z" fill="url(#paint9_linear)"/><path d="M231.677 148.46l2.288 11.277c.221.994-.678.815-1.675.608-1.632-.34-3.731-1.016-4.412-2.304a1.185 1.185 0 01-.12-.425l-.927-7.808a1.399 1.399 0 01.846-1.455l2.09-.88a1.4 1.4 0 011.91.987z" fill="url(#paint10_linear)"/><path d="M254.655 172.276a.933.933 0 00.46-.153c2.283-1.429 3.544-4.439 3.065-7.32-.287-1.727-1.113-3.228-2.325-4.226-.86-.708-1.887-1.149-2.865-1.54a54.858 54.858 0 00-5.053-1.739l-.419-.121c-.995-.285-2.025-.58-2.952-1.066-1.185-.622-2.041-1.509-2.409-2.498-.229-.614-.285-1.294-.34-1.951-.067-.809-.137-1.645-.529-2.369a.06.06 0 00-.08-.024.06.06 0 00-.024.081c.38.702.448 1.525.515 2.322.055.665.112 1.353.347 1.983.378 1.016 1.254 1.925 2.465 2.561.938.492 1.973.788 2.975 1.075l.418.121a54.917 54.917 0 015.042 1.735c.969.388 1.987.824 2.833 1.521 1.191.98 2.002 2.455 2.284 4.154.471 2.836-.767 5.797-3.011 7.2-.162.101-.469.224-.593.043a.06.06 0 00-.083-.016.06.06 0 00-.015.083.337.337 0 00.294.144z" fill="#91B3FA"/><path d="M255.276 169.588a.06.06 0 00.049-.026c.894-1.284 1.373-2.641 1.384-3.923.013-1.505-.659-2.918-1.755-3.686-.027-.018-.064-.013-.082.014a.06.06 0 00.014.083c1.064.746 1.717 2.121 1.704 3.588-.011 1.258-.482 2.592-1.363 3.857a.06.06 0 00.015.082.055.055 0 00.034.011z" fill="#91B3FA"/><path d="M40.811 256.84c-2.503.216-6.847.567-10.271.718-2.059.091-3.244-.111-3.927-.384.001.077.004.15.007.217.016.36.309.649.673.669 6.47.361 11.617.125 13.45.014a.505.505 0 00.41-.758 4.03 4.03 0 00-.342-.476z" fill="url(#paint11_linear)"/><path d="M30.54 257.558c3.424-.151 7.768-.502 10.27-.718-2.46-3.019-10.27-5.054-10.27-5.054h-2.207c-1.517 2.187-1.737 4.269-1.72 5.388.682.273 1.867.475 3.926.384z" fill="url(#paint12_linear)"/><path d="M27.962 248.184l.206 4.085a.934.934 0 00.797.878c.44.063 1.031.071 1.657-.137.385-.129.67-.453.742-.849l.713-3.977h-4.115z" fill="url(#paint13_linear)"/><path d="M2.358 261.552c-1.085-.196-1.576-.924-1.782-1.703l-.004.021c-.16.821.21 1.673.95 2.078.895.49 1.873.573 2.632.533a2.434 2.434 0 001.974-1.177l.006-.01c-.818.523-1.965.584-3.776.258z" fill="url(#paint14_linear)"/><path d="M7.476 249.443H5.657c-2.771-.073-4.511 7.48-5.08 10.406.205.779.696 1.508 1.782 1.703 1.81.326 2.958.265 3.775-.258 1.497-2.546 2.24-6.275 2.596-8.451.406-2.476-1.254-3.4-1.254-3.4z" fill="url(#paint15_linear)"/><path d="M5.89 245.651l-1.01 4.018a1.09 1.09 0 00.568 1.236c.565.29 1.36.595 2.092.507a.913.913 0 00.743-.608l1.483-4.227-3.875-.926z" fill="url(#paint16_linear)"/><path d="M41.427 192.733s-9.028 56.431-8.879 56.741c0 0-2.493 1.133-5.212.144 0 0 .817-30.166 2.73-41.732 0 0-15.407 26.962-20.3 40.397 0 0-2.552-.304-4.664-1.694 0 0 16.589-48.532 21.015-54.996l15.31 1.14z" fill="url(#paint17_linear)"/><path d="M30.562 207.41l-.271-.17 3.41-5.446 2.55-.514.064.314-2.416.486-3.337 5.33z" fill="url(#paint18_linear)"/><path d="M44.742 153.704a6.97 6.97 0 00-1.891-.373c-3.523-.207-12.826 1.183-22.8 2.864-3.518.593-4.027 3.128-4.272 5.225-.555 4.743 2.386 5.933 6.427 6.515 2.433 6.57 3.575 16.157 3.813 20.399a9.12 9.12 0 01-.714 4.081l-.06.141a.483.483 0 00.339.659c6.573 1.477 13.41 1.075 15.453.907a.843.843 0 00.751-.644c3.197-13.469 3.204-22.656 2.422-28.464 12.39 7.15 7.148-9.018.532-11.31z" fill="url(#paint19_linear)"/><path d="M43.932 164.625c-.865-5.826-1.86-7.555-2.078-7.699a.125.125 0 00.125-.012c.048-.033.062-.088.056-.115l-.292.065a.183.183 0 01.051-.185l.174-.029c.297.109 1.35 1.801 2.26 7.931l-.296.044z" fill="url(#paint20_linear)"/><path d="M28 145.484s-.665 7.032-1.25 9.112a.711.711 0 00.334.812c.994.568 3.378 1.494 6.638-.104a1.48 1.48 0 00.82-1.392l-.286-6.795L28 145.484z" fill="url(#paint21_linear)"/><path d="M127.253 185.099c-5.116-1.126-11.509.093-17.36 1.658-6.633.7-9.004-10.159-6.307-16.973 1.475-3.725 5.069-5.42 8.267-4.065 8.479 3.593 12.17 2.5 15.244 1.769 2.307-.548 3.367-4.105 3.291-6.978l-1.512-57.494c-.062-2.348 1.178-4.497 3.035-5.096 4.735-1.53 9.876 1.514 15.899 3.938 2.409.97 5.054.882 7.349-.438 8.863-5.1 6.528-22.792-4.211-20.77-6.083 1.78-12.775 3.001-18.912 1.774-1.887-.378-3.282-2.356-3.316-4.695l-.773-53.348a19.105 19.105 0 00-5.653 1.671L41.187 64.573c-6.26 2.974-10.437 9.1-10.884 16.016-7.608 117.598 67.794 160.446 92.512 171.27a19.16 19.16 0 008.338 1.593l-.618-63.481c0-2.375-1.371-4.452-3.282-4.872z" fill="url(#paint22_linear)"/><path d="M130.511 253.942a19.77 19.77 0 01-7.888-1.644c-12.909-5.653-37.682-19.111-58.564-45.738-11.736-14.965-20.633-32.117-26.445-50.98-6.934-22.503-9.555-47.744-7.79-75.023.457-7.075 4.733-13.366 11.157-16.417l81.107-38.52a19.565 19.565 0 015.794-1.715l.536-.072.781 53.889c.031 2.118 1.264 3.898 2.931 4.231 5.13 1.026 11.067.465 18.683-1.764l.046-.011c4.26-.801 7.766 1.332 9.383 5.707 1.929 5.22.626 12.803-4.845 15.95-2.37 1.364-5.128 1.53-7.766.468a135.182 135.182 0 01-3.278-1.386c-4.621-2.003-8.61-3.733-12.295-2.541-1.623.524-2.76 2.47-2.703 4.628l1.512 57.493c.086 3.253-1.144 6.86-3.659 7.457l-.327.079c-3.07.737-6.89 1.655-15.215-1.873a5.239 5.239 0 00-4.1-.01c-1.566.655-2.821 2.009-3.534 3.81-1.8 4.547-1.243 10.908 1.241 14.179 1.215 1.601 2.74 2.324 4.533 2.145 5.278-1.41 12.033-2.868 17.55-1.654 2.12.467 3.658 2.713 3.658 5.34l.623 63.945-.469.016c-.218.008-.438.011-.657.011zm-3.036-229.006a18.58 18.58 0 00-4.975 1.55l-81.108 38.52c-6.11 2.902-10.176 8.885-10.61 15.613-1.758 27.162.85 52.288 7.749 74.679 5.777 18.749 14.62 35.797 26.283 50.67 20.752 26.461 45.367 39.835 58.194 45.451a18.992 18.992 0 007.66 1.564l-.613-63.008c0-2.185-1.222-4.037-2.905-4.408-5.388-1.184-12.359.376-17.133 1.654l-.074.014c-2.135.224-4.014-.645-5.434-2.516-2.71-3.568-3.311-10.206-1.369-15.111.81-2.045 2.25-3.587 4.056-4.343a6.19 6.19 0 014.844.012c8.034 3.404 11.684 2.528 14.617 1.823l.329-.078c1.924-.458 2.997-3.664 2.923-6.5l-1.513-57.493c-.069-2.615 1.316-4.903 3.367-5.566 4.027-1.3 8.173.495 12.972 2.574 1.053.456 2.142.928 3.254 1.376 2.36.95 4.821.805 6.93-.409 3.922-2.256 6.728-8.55 4.423-14.786-2.069-5.597-6.462-5.439-8.283-5.102-7.759 2.27-13.833 2.835-19.117 1.778-2.108-.421-3.665-2.59-3.702-5.158l-.765-52.8z" fill="#91B3FA"/><path d="M230.701 80.588c-.447-6.915-4.624-13.042-10.884-16.015l-81.107-38.52a19.122 19.122 0 00-10.763-1.672l.772 53.348c.034 2.339 1.43 4.317 3.317 4.695 6.137 1.227 12.829.006 18.912-1.775 10.739-2.02 13.074 15.67 4.21 20.771-2.295 1.32-4.939 1.408-7.348.438-6.023-2.424-11.164-5.469-15.9-3.939-1.857.6-3.096 2.748-3.034 5.097l1.512 57.494c.075 2.872-.984 6.43-3.291 6.978-3.075.731-6.765 1.823-15.244-1.769-3.198-1.355-6.792.339-8.267 4.065-2.697 6.814-.326 17.673 6.307 16.973 5.85-1.565 12.244-2.784 17.36-1.658 1.911.42 3.282 2.496 3.282 4.872l.617 63.481c2.4-.082 4.789-.609 7.037-1.594 24.718-10.823 100.12-53.671 92.512-171.27z" fill="url(#paint23_linear)"/><path d="M130.678 253.948l-.623-63.973c0-2.185-1.222-4.037-2.905-4.408-5.387-1.184-12.358.376-17.133 1.654l-.074.013c-2.135.225-4.013-.644-5.434-2.515-2.71-3.568-3.311-10.206-1.369-15.111.81-2.045 2.25-3.587 4.056-4.343a6.194 6.194 0 014.844.012c8.035 3.404 11.684 2.528 14.617 1.823l.329-.078c1.925-.458 2.997-3.664 2.923-6.5l-1.513-57.493c-.069-2.615 1.316-4.903 3.367-5.566 4.027-1.3 8.173.495 12.972 2.574 1.053.456 2.142.929 3.254 1.376 2.36.95 4.821.805 6.93-.409 3.921-2.256 6.728-8.55 4.423-14.786-2.068-5.596-6.464-5.44-8.282-5.102-7.76 2.27-13.835 2.835-19.118 1.778-2.108-.421-3.665-2.59-3.702-5.158l-.779-53.774.422-.056c3.783-.51 7.599.082 11.033 1.713l81.107 38.521c6.424 3.051 10.699 9.342 11.157 16.418 1.765 27.278-.856 52.519-7.79 75.023-5.812 18.862-14.709 36.014-26.445 50.979-20.881 26.627-45.655 40.086-58.564 45.738a19.532 19.532 0 01-7.212 1.633l-.491.017zm-7.868-69.771c1.568 0 3.099.135 4.546.453 2.12.467 3.659 2.713 3.659 5.341l.612 62.978a18.55 18.55 0 006.37-1.53c12.826-5.616 37.442-18.99 58.193-45.451 11.663-14.873 20.507-31.92 26.284-50.67 6.899-22.391 9.506-47.517 7.749-74.679-.435-6.728-4.501-12.711-10.611-15.613l-81.107-38.52a18.604 18.604 0 00-10.072-1.682l.766 52.918c.031 2.118 1.264 3.898 2.931 4.231 5.13 1.026 11.067.465 18.683-1.764l.046-.011c4.26-.8 7.766 1.332 9.383 5.707 1.929 5.22.626 12.803-4.844 15.95-2.37 1.364-5.128 1.53-7.767.468a136.89 136.89 0 01-3.278-1.386c-4.62-2.003-8.61-3.733-12.295-2.541-1.623.524-2.76 2.47-2.703 4.628l1.512 57.493c.086 3.253-1.144 6.86-3.659 7.457l-.327.079c-3.069.737-6.89 1.655-15.215-1.873a5.239 5.239 0 00-4.1-.01c-1.565.655-2.82 2.009-3.534 3.811-1.8 4.546-1.243 10.907 1.241 14.178 1.215 1.601 2.741 2.326 4.533 2.145 3.894-1.041 8.592-2.107 13.004-2.107zM105.968 41.61a.48.48 0 01-.206-.913l19.164-9.102a.48.48 0 01.412.866l-19.165 9.102a.475.475 0 01-.205.046zm-69.463 63.473a.48.48 0 01-.479-.463c-.256-7.628-.122-15.58.4-23.635a12.979 12.979 0 017.393-10.87L98.38 44.203a.48.48 0 11.412.866L44.23 70.983a12.019 12.019 0 00-6.847 10.064c-.52 8.025-.653 15.945-.398 23.541a.48.48 0 01-.463.496h-.017z" fill="#91B3FA"/><path d="M239.43 163.862s1.803 8.164-8.698 16.676c-5.017 4.066-15.313 3.622-16.104-1.573l2.001-1.823s7.524 2.23 9.839-.02c2.315-2.251 4.967-7.421 4.967-7.421s5.229-6.556 7.995-5.839z" fill="url(#paint24_linear)"/><path d="M214.798 179.539s2.725-2.285 3.179-3.474c.453-1.188.859-2.848-1.113-3.863-1.971-1.015-4.598-1.803-4.598-1.803s-.841 1.363.804 1.935l-1.304.031s-.639 1.118.898 1.401l-1.401.284s-.136 1.203 1.096 1.274c1.232.07-.17 2.813 2.439 4.215z" fill="url(#paint25_linear)"/><path d="M227.081 138.131s-2.696 1.752-3.927 6.319c-1.23 4.567.598 6.248 2.505 6.183 1.907-.065 4.681-.602 7.136-3.849 2.456-3.246-2.185-10.788-5.714-8.653z" fill="url(#paint26_linear)"/><path d="M230.416 144.888s1.1-6.556-4.378-5.654l-1.125 1.129s-2.616-3.06.384-5.279c3-2.218 7.092-1.558 9.284 2.625 2.192 4.184 2.961 7.11 1.01 9.647-1.952 2.537-3.341.303-3.341.303s2.133-2.636.979-3.791c-.848-.848-2.439 1.136-2.439 1.136l-.374-.116z" fill="url(#paint27_linear)"/><path d="M35.615 179.6a5.384 5.384 0 01-2.785-1.387c-3.134-3.038-6.35-10.615-6.35-10.615s-4.78-11.597-9.67-9.716c0 0-5.246 9.124 7.924 23.051 1.152 1.219 5.21 3.791 6.9 4.392 1.734-1.756 3.075-3.541 3.98-5.725z" fill="url(#paint28_linear)"/><path d="M48.558 180.481c-3.14.571-8.528 1.299-13.4-1.005-.336 1.501-.812 2.52-3.665 5.798 4.69 1.081 11.881 1.282 19.005-2.259l-1.94-2.534z" fill="url(#paint29_linear)"/><path d="M51.513 183.347a1.04 1.04 0 01-1.488.095c-.731-.665-1.856-1.762-2.118-2.444-.395-1.031-.749-2.47.96-3.354 1.71-.883 3.988-1.57 3.988-1.57s.732 1.182-.695 1.68l1.132.026s.555.969-.778 1.216l1.216.245s.12 1.044-.95 1.106c-.897.053-.18 1.738-1.267 3z" fill="url(#paint30_linear)"/><path d="M34.399 136.489s2.127 4.886 2.27 7.451c.143 2.564.695 4.228-2.27 4.745-2.965.516-5.463-.961-6.817-3.515 0 0-2.12-3.937-1.644-5.549.475-1.612 8.46-3.132 8.46-3.132z" fill="url(#paint31_linear)"/><path d="M28.596 143.333l.168-.075a.407.407 0 00.2-.559c-.419-.808-1.234-2.659-.181-3.091 1.357-.556 6.733-1.653 7.893-3.56 1.114-1.834.127-4.2-1.358-4.873a.205.205 0 00-.267.087l-.124.234a.202.202 0 01-.371-.038.2.2 0 00-.363-.052c-.357.571-1.32 1.496-3.893 1.971-3.659.675-6.077 2.156-6.137 4.683a.202.202 0 01-.312.167c-.27-.165-.703-.242-1.28.244-1.005.844-.594 3.036 1.609 4.838.104.086.103.249-.01.323-.4.26-.994.878.548 1.703 1.595.852 2.786.782 3.245.707a.201.201 0 00.163-.243l-.49-2.221a.202.202 0 01.197-.245h.763z" fill="url(#paint32_linear)"/><path d="M28.688 143.802s-.812-3.122-2.211-2.246c-1.4.875.726 3.497 1.851 3.614l.36-1.368z" fill="url(#paint33_linear)"/><path d="M151.137 253.265a.903.903 0 01-.593-.377c-2.031-2.929-16.751-25.812 4.447-45.621 20.123-18.805 29.091-22.511 30.632-33.889.18-1.328 1.992-1.591 2.547-.37 4.144 9.123 10.378 30.303-12.91 43.328-25.689 14.369-24.156 31.069-23.088 35.835a.906.906 0 01-1.035 1.094z" fill="#91B3FA"/><path d="M154.25 253.79a1.305 1.305 0 01-1.082-1.128c-.477-3.912-1.489-18.508 9.352-22.023 11.935-3.87 21.109 7.423 30.057-.9.471-.438 1.226-.019 1.096.611-.916 4.468-4.686 14.764-20.051 16.369-16.446 1.717-18.348 3.537-18.092 5.878.079.721-.565 1.314-1.28 1.193z" fill="#91B3FA"/><path d="M184.623 184.983s-.08.318-.277.876a21.7 21.7 0 01-1.01 2.365 28.44 28.44 0 01-2.034 3.44 32.215 32.215 0 01-3.271 4.029 36.315 36.315 0 01-4.605 4.07c-.868.663-1.81 1.273-2.776 1.889-.493.291-.983.601-1.495.882l-.769.428-.765.415a40.38 40.38 0 00-5.856 3.953 42.962 42.962 0 00-5.267 5.067 39.51 39.51 0 00-4.281 5.919 36.018 36.018 0 00-2.979 6.412 34.148 34.148 0 00-1.55 6.431c-.296 2.089-.35 4.092-.289 5.935a36.513 36.513 0 001.449 8.806 43.767 43.767 0 001.063 3.237l.002.006a.255.255 0 01-.475.183l-.343-.835a44.688 44.688 0 01-.879-2.397 37.248 37.248 0 01-1.774-8.948 33.529 33.529 0 011.61-12.819 36.511 36.511 0 012.984-6.697 40.817 40.817 0 014.374-6.175 42.049 42.049 0 015.423-5.274 41.757 41.757 0 016.073-4.124l1.519-.826c.497-.268.972-.563 1.451-.839a44.11 44.11 0 002.696-1.795c1.723-1.212 3.223-2.529 4.55-3.8a35.276 35.276 0 001.817-1.913 31.106 31.106 0 001.523-1.832 32.31 32.31 0 002.189-3.201c.552-.925.934-1.682 1.18-2.203.247-.524.348-.805.348-.805a.233.233 0 01.445.135l-.001.005zm-30.924 66.143s.018-.052.029-.149c.01-.098.002-.242.004-.43.001-.376.01-.927.045-1.628a34.9 34.9 0 01.763-5.759 23.431 23.431 0 011.148-3.723c.523-1.283 1.224-2.595 2.21-3.77.977-1.172 2.279-2.187 3.809-2.743 1.524-.576 3.212-.681 4.827-.485 1.603.229 3.161.527 4.711.82 1.546.297 3.062.61 4.527.912 1.466.301 2.881.588 4.227.816 1.345.22 2.623.388 3.8.399 1.176.022 2.245-.119 3.148-.391a7.92 7.92 0 002.184-1.076c.56-.387.956-.756 1.223-1.008l.399-.399.007-.007a.208.208 0 01.294 0 .21.21 0 01.002.291l-.406.419c-.271.265-.675.655-1.257 1.073a8.43 8.43 0 01-2.297 1.18c-.954.308-2.086.473-3.303.449-1.22-.007-2.522-.173-3.883-.391a124.382 124.382 0 01-4.25-.802c-1.467-.296-2.981-.602-4.523-.892-1.538-.287-3.12-.571-4.676-.802-1.544-.203-3.135-.118-4.566.406-1.438.505-2.672 1.442-3.618 2.553-.955 1.111-1.647 2.376-2.178 3.62a23.005 23.005 0 00-1.18 3.64 34.506 34.506 0 00-.838 5.688c-.045.694-.062 1.24-.068 1.613-.001.186-.008.328.004.424a.574.574 0 00.034.143.191.191 0 01-.098.251.192.192 0 01-.25-.098.189.189 0 01-.006-.138l.002-.006z" fill="#BDD0FB"/><defs><linearGradient id="paint0_linear" x1="282.539" y1="264.268" x2="89.308" y2="95.191" gradientUnits="userSpaceOnUse"><stop stop-color="#DAE3FE"/><stop offset="1" stop-color="#E9EFFD"/></linearGradient><linearGradient id="paint1_linear" x1="31.733" y1="72.943" x2="48.627" y2="72.943" gradientUnits="userSpaceOnUse"><stop stop-color="#DAE3FE"/><stop offset="1" stop-color="#E9EFFD"/></linearGradient><linearGradient id="paint2_linear" x1="195.182" y1="165.176" x2="233.856" y2="168.41" gradientUnits="userSpaceOnUse"><stop stop-color="#E1473D"/><stop offset="1" stop-color="#E9605A"/></linearGradient><linearGradient id="paint3_linear" x1="239.656" y1="158.776" x2="283.665" y2="257.795" gradientUnits="userSpaceOnUse"><stop stop-color="#09005D"/><stop offset="1" stop-color="#1A0F91"/></linearGradient><linearGradient id="paint4_linear" x1="-115.688" y1="269.546" x2="-65.337" y2="268.257" gradientUnits="userSpaceOnUse"><stop stop-color="#4F52FF"/><stop offset="1" stop-color="#4042E2"/></linearGradient><linearGradient id="paint5_linear" x1="226.709" y1="286.704" x2="238.905" y2="170.153" gradientUnits="userSpaceOnUse"><stop stop-color="#FEBBBA"/><stop offset="1" stop-color="#FF928E"/></linearGradient><linearGradient id="paint6_linear" x1="-115.754" y1="267.163" x2="-65.402" y2="265.873" gradientUnits="userSpaceOnUse"><stop stop-color="#4F52FF"/><stop offset="1" stop-color="#4042E2"/></linearGradient><linearGradient id="paint7_linear" x1="246.769" y1="288.82" x2="258.967" y2="172.239" gradientUnits="userSpaceOnUse"><stop stop-color="#FEBBBA"/><stop offset="1" stop-color="#FF928E"/></linearGradient><linearGradient id="paint8_linear" x1="204.22" y1="203.988" x2="231.508" y2="167.746" gradientUnits="userSpaceOnUse"><stop stop-color="#FF928E"/><stop offset="1" stop-color="#FE7062"/></linearGradient><linearGradient id="paint9_linear" x1="249.896" y1="174.721" x2="236.678" y2="202.009" gradientUnits="userSpaceOnUse"><stop stop-color="#4F52FF"/><stop offset="1" stop-color="#4042E2"/></linearGradient><linearGradient id="paint10_linear" x1="227.787" y1="171.612" x2="229.923" y2="157.921" gradientUnits="userSpaceOnUse"><stop stop-color="#FEBBBA"/><stop offset="1" stop-color="#FF928E"/></linearGradient><linearGradient id="paint11_linear" x1="26.613" y1="257.546" x2="41.224" y2="257.546" gradientUnits="userSpaceOnUse"><stop stop-color="#4F52FF"/><stop offset="1" stop-color="#4042E2"/></linearGradient><linearGradient id="paint12_linear" x1="26.612" y1="254.683" x2="40.811" y2="254.683" gradientUnits="userSpaceOnUse"><stop stop-color="#09005D"/><stop offset="1" stop-color="#1A0F91"/></linearGradient><linearGradient id="paint13_linear" x1="27.962" y1="250.685" x2="32.078" y2="250.685" gradientUnits="userSpaceOnUse"><stop stop-color="#FEBBBA"/><stop offset="1" stop-color="#FF928E"/></linearGradient><linearGradient id="paint14_linear" x1=".535" y1="261.169" x2="6.134" y2="261.169" gradientUnits="userSpaceOnUse"><stop stop-color="#4F52FF"/><stop offset="1" stop-color="#4042E2"/></linearGradient><linearGradient id="paint15_linear" x1=".576" y1="255.598" x2="8.794" y2="255.598" gradientUnits="userSpaceOnUse"><stop stop-color="#09005D"/><stop offset="1" stop-color="#1A0F91"/></linearGradient><linearGradient id="paint16_linear" x1="4.848" y1="248.539" x2="9.766" y2="248.539" gradientUnits="userSpaceOnUse"><stop stop-color="#FEBBBA"/><stop offset="1" stop-color="#FF928E"/></linearGradient><linearGradient id="paint17_linear" x1="37.06" y1="207.865" x2="-4.932" y2="276.652" gradientUnits="userSpaceOnUse"><stop stop-color="#09005D"/><stop offset="1" stop-color="#1A0F91"/></linearGradient><linearGradient id="paint18_linear" x1="30.291" y1="204.345" x2="36.315" y2="204.345" gradientUnits="userSpaceOnUse"><stop stop-color="#4F52FF"/><stop offset="1" stop-color="#4042E2"/></linearGradient><linearGradient id="paint19_linear" x1="15.206" y1="192.478" x2="43.346" y2="159.221" gradientUnits="userSpaceOnUse"><stop stop-color="#FF928E"/><stop offset="1" stop-color="#FE7062"/></linearGradient><linearGradient id="paint20_linear" x1="41.737" y1="160.638" x2="44.228" y2="160.638" gradientUnits="userSpaceOnUse"><stop stop-color="#53D8FF"/><stop offset="1" stop-color="#3840F7"/></linearGradient><linearGradient id="paint21_linear" x1="29.078" y1="161.317" x2="31.209" y2="150.129" gradientUnits="userSpaceOnUse"><stop stop-color="#FEBBBA"/><stop offset="1" stop-color="#FF928E"/></linearGradient><linearGradient id="paint22_linear" x1="129.347" y1="138.925" x2="30.539" y2="137.486" gradientUnits="userSpaceOnUse"><stop stop-color="#4F52FF"/><stop offset="1" stop-color="#4042E2"/></linearGradient><linearGradient id="paint23_linear" x1="233.706" y1="140.258" x2="130.102" y2="138.819" gradientUnits="userSpaceOnUse"><stop stop-color="#4F52FF"/><stop offset="1" stop-color="#4042E2"/></linearGradient><linearGradient id="paint24_linear" x1="218.249" y1="183.301" x2="256.409" y2="151.963" gradientUnits="userSpaceOnUse"><stop stop-color="#FF928E"/><stop offset="1" stop-color="#FE7062"/></linearGradient><linearGradient id="paint25_linear" x1="217.384" y1="177.007" x2="210.909" y2="172.242" gradientUnits="userSpaceOnUse"><stop stop-color="#FEBBBA"/><stop offset="1" stop-color="#FF928E"/></linearGradient><linearGradient id="paint26_linear" x1="224.758" y1="155.019" x2="235.757" y2="123.455" gradientUnits="userSpaceOnUse"><stop stop-color="#FEBBBA"/><stop offset="1" stop-color="#FF928E"/></linearGradient><linearGradient id="paint27_linear" x1="244.865" y1="173.166" x2="288.874" y2="272.184" gradientUnits="userSpaceOnUse"><stop stop-color="#09005D"/><stop offset="1" stop-color="#1A0F91"/></linearGradient><linearGradient id="paint28_linear" x1="21.543" y1="183.619" x2="34.761" y2="140.981" gradientUnits="userSpaceOnUse"><stop stop-color="#FF928E"/><stop offset="1" stop-color="#FE7062"/></linearGradient><linearGradient id="paint29_linear" x1="42.014" y1="182.501" x2="34.901" y2="193.978" gradientUnits="userSpaceOnUse"><stop stop-color="#FEBBBA"/><stop offset="1" stop-color="#FF928E"/></linearGradient><linearGradient id="paint30_linear" x1="48.411" y1="181.798" x2="54.023" y2="177.656" gradientUnits="userSpaceOnUse"><stop stop-color="#FEBBBA"/><stop offset="1" stop-color="#FF928E"/></linearGradient><linearGradient id="paint31_linear" x1="30.777" y1="143.903" x2="18.618" y2="153.206" gradientUnits="userSpaceOnUse"><stop stop-color="#FEBBBA"/><stop offset="1" stop-color="#FF928E"/></linearGradient><linearGradient id="paint32_linear" x1="26.285" y1="133.424" x2="37.61" y2="148.004" gradientUnits="userSpaceOnUse"><stop stop-color="#09005D"/><stop offset="1" stop-color="#1A0F91"/></linearGradient><linearGradient id="paint33_linear" x1="33.337" y1="138.819" x2="21.177" y2="148.122" gradientUnits="userSpaceOnUse"><stop stop-color="#FEBBBA"/><stop offset="1" stop-color="#FF928E"/></linearGradient></defs></svg>